<svg xmlns="http://www.w3.org/2000/svg" viewBox="0 0 460 150"><defs><style>.cls-1{fill:#782341;}.cls-2{fill:#934f67;}.cls-3{fill:#f5f5f5;stroke:#f5f5f5;stroke-miterlimit:10;}.cls-4{fill:#fff;}</style></defs><title>Genetics01</title><g id="レイヤー_2" data-name="レイヤー 2"><g id="文字"><rect class="cls-1" y="0.7" width="460" height="149.3" rx="5" ry="5"/><rect class="cls-2" width="460" height="132.97" rx="5" ry="5"/><path class="cls-3" d="M43.63,34.57a.73.73,0,0,1,.81-.72.86.86,0,0,1,.9.78c0,.93.06,2.13.06,3.3,0,.75,0,1.47,0,2.1a3.36,3.36,0,0,1-3.6,3.51c-2.22.06-5.13.09-7.89.09-2.49,0-4.89,0-6.66-.09a3.08,3.08,0,0,1-3.3-3.42c0-.84,0-1.8,0-2.79s0-2,0-2.76a.81.81,0,0,1,.84-.81.78.78,0,0,1,.84.72v0c0,1.05,0,2.61,0,3.87,0,2.49,0,3.57,2.28,3.66,1.56.06,3.63.09,5.79.09V31.21c-1.83,0-3.6,0-5.25-.09-2.13-.09-3.3-1.17-3.33-3.36,0-.84,0-1.68,0-2.55s0-1.71,0-2.52a.77.77,0,0,1,.84-.78.76.76,0,0,1,.84.72v0c0,1,0,2.34,0,3.45,0,2.52.09,3.48,2.28,3.57,1.47.06,3.06.09,4.65.09l0-9.78a.82.82,0,0,1,.9-.78.81.81,0,0,1,.87.78l0,9.78c1.65,0,3.3,0,4.77-.09,2.46-.09,2.46-1.56,2.46-3.9,0-1-.06-2.13-.09-3v0a.76.76,0,0,1,.84-.69.79.79,0,0,1,.87.78c0,.75.06,1.56.06,2.37s0,1.65-.06,2.49c-.06,2.25-1.44,3.36-3.6,3.45-1.74.06-3.51.09-5.25.09V42.13c2.22,0,4.35,0,5.91-.09,2.4-.09,2.46-1.44,2.46-4.08,0-1.2-.06-2.46-.09-3.36Z"/><path class="cls-3" d="M52.72,43.54a.7.7,0,0,1-.75-.72.74.74,0,0,1,.75-.75l11.22,0V35.38l-6.69,0a.68.68,0,0,1-.69-.72.71.71,0,0,1,.69-.75l6.69,0V28l-6.54,0a33.62,33.62,0,0,1-3.54,5.34,1,1,0,0,1-.81.45.8.8,0,0,1-.81-.78.94.94,0,0,1,.24-.57,28.83,28.83,0,0,0,5.67-10.38.82.82,0,0,1,.81-.6.87.87,0,0,1,.93.78,27.06,27.06,0,0,1-1.74,4.32l5.79,0V20.38a.83.83,0,1,1,1.65,0v6.27l9.12,0a.72.72,0,1,1,0,1.44l-9.12,0V34l7,0a.69.69,0,0,1,.72.72.7.7,0,0,1-.72.75l-7,0V42.1l11.07,0a.7.7,0,0,1,.72.75.69.69,0,0,1-.72.72Z"/><path class="cls-3" d="M83.17,25a.68.68,0,0,1-.69-.72.68.68,0,0,1,.69-.69h9.09l4.38,0a26.1,26.1,0,0,0,2.13-4,.91.91,0,0,1,.81-.57.83.83,0,0,1,.87.78,16.45,16.45,0,0,1-2.19,3.75l7.92,0a.68.68,0,0,1,.69.69.68.68,0,0,1-.69.72Zm9,12.87H86c0,2.52,0,5,.06,6.36a.72.72,0,0,1-.78.72.73.73,0,0,1-.81-.72V29.77c0-2.43,2-2.49,4.56-2.49s4.56.06,4.62,2.49c0,.84,0,3.06,0,5.16v4.65c0,1.08.06,1.35.06,2.22,0,1.47-.69,2.85-3.09,2.85-1.17,0-2.16-.09-2.16-.9a.73.73,0,0,1,.72-.75h.12a6.94,6.94,0,0,0,1.41.18c.75,0,1.38-.27,1.41-1.41Zm0-4.53H86.05c0,1,0,2.13,0,3.24h6.15Zm0-1.26c0-.84,0-1.53,0-2-.06-1.35-.87-1.44-3-1.44s-2.94.12-3,1.44c0,.54,0,1.23,0,2Zm-.72-8.61a.64.64,0,0,1-.6-.39,9.84,9.84,0,0,0-2.22-2.82.48.48,0,0,1-.15-.33.82.82,0,0,1,.84-.72c1.05,0,3,2.79,3,3.39A.94.94,0,0,1,91.42,23.47ZM97,28.69a.78.78,0,0,1,1.56,0V39.1a.79.79,0,0,1-1.56,0Zm5.82-1.05a.76.76,0,0,1,.81-.78.75.75,0,0,1,.81.78V37.78l.06,3.3v.06c0,1.77-.9,3.45-4,3.45a11.88,11.88,0,0,1-2.52-.3.88.88,0,0,1-.75-.87.74.74,0,0,1,.72-.78.51.51,0,0,1,.21,0,11.3,11.3,0,0,0,2.46.36c1.32,0,2.19-.54,2.19-2.1Z"/><path class="cls-3" d="M112.66,25.48a.68.68,0,0,1-.75-.69.72.72,0,0,1,.75-.72h8.46a.71.71,0,1,1,0,1.41Zm3.87,18.72c-2.22,0-3.78,0-3.84-2,0-.66,0-1.26,0-1.86,0-.81,0-1.59,0-2.34.06-2,1.68-2,3.78-2,.72,0,1.38,0,2.1.06a2,2,0,0,1,2.13,1.8c0,.69,0,1.47,0,2.22s0,1.47,0,2.13C120.64,44.17,118.78,44.2,116.53,44.2Zm-2.82-22.89a.66.66,0,0,1-.72-.66.7.7,0,0,1,.72-.69h6.12a.64.64,0,0,1,.69.66.64.64,0,0,1-.69.69Zm.06,8.13a.66.66,0,0,1-.72-.66.7.7,0,0,1,.72-.69h6.09a.64.64,0,0,1,.69.66.64.64,0,0,1-.69.69Zm0,3.93a.66.66,0,0,1-.72-.66.7.7,0,0,1,.72-.69h6.09a.64.64,0,0,1,.69.66.64.64,0,0,1-.69.69ZM119.32,40c0-.66,0-1.32,0-1.77-.06-1-.6-1.11-2.67-1.11-.48,0-1,0-1.41,0-1.11.06-1.11.63-1.11,2.85,0,.69,0,1.35,0,1.83,0,.87.63,1,2.46,1s2.67-.06,2.7-1.08C119.32,41.35,119.32,40.69,119.32,40Zm17.16-11.61a55.62,55.62,0,0,1-6.3-6.84.81.81,0,0,0-.6-.36.77.77,0,0,0-.66.45,36.14,36.14,0,0,1-5.7,7.14.79.79,0,0,1-.57.24.84.84,0,0,1-.81-.78.68.68,0,0,1,.3-.57,26,26,0,0,0,5.64-6.93,1.9,1.9,0,0,1,1.62-1.11,2.61,2.61,0,0,1,1.92,1.14,36,36,0,0,0,6.33,6.3.8.8,0,0,1,.36.69.89.89,0,0,1-1.53.63ZM122.83,44.74h-.18a.83.83,0,0,1-.81-.81.77.77,0,0,1,.72-.78,18.31,18.31,0,0,0,13.11-8.85.9.9,0,0,1,.72-.48.92.92,0,0,1,.9.9.9.9,0,0,1-.15.42C134,39.76,129.73,43.51,122.83,44.74Zm.66-5.49a.65.65,0,0,1-.69-.66.73.73,0,0,1,.51-.72,17.14,17.14,0,0,0,9.24-7.23.9.9,0,0,1,.75-.42.8.8,0,0,1,.81.75,1,1,0,0,1-.18.51C129.4,37.75,123.88,39.25,123.49,39.25Zm.18-5.07a.67.67,0,0,1-.66-.69.65.65,0,0,1,.36-.63,15.46,15.46,0,0,0,6.45-5.91.85.85,0,0,1,.72-.45.76.76,0,0,1,.78.72.89.89,0,0,1-.15.45C128.11,32.26,124.21,34.18,123.67,34.18Z"/><path class="cls-3" d="M152.92,40.45a.62.62,0,0,1,.6.69.66.66,0,0,1-.63.72c-1.29.06-3,.09-4.59.09-.87,0-1.68,0-2.34,0a2.72,2.72,0,0,1-2.91-2.82c0-1.5,0-5.07,0-8.76s0-7.5,0-9.42a.71.71,0,0,1,.75-.69.69.69,0,0,1,.75.69c0,1.47,0,4.38,0,7.5,0,4.23,0,8.79,0,10.32,0,1.83,1.2,1.83,3.72,1.83,1.5,0,3.15,0,4.62-.12Zm-3.18-9.36a29.08,29.08,0,0,1-3.51,5.73.78.78,0,0,1-.63.33.73.73,0,0,1-.75-.69.75.75,0,0,1,.21-.51,27.35,27.35,0,0,0,4.29-6.57l-3.3,0a.62.62,0,0,1-.63-.66.61.61,0,0,1,.63-.63l3.66,0-.09-7.74a.72.72,0,0,1,.78-.72.72.72,0,0,1,.75.72l-.06,7.74,3.27,0a.61.61,0,0,1,.63.63.62.62,0,0,1-.63.66l-3.3,0V31c0,1,.09,8.1.09,8.1a.71.71,0,0,1-.75.66.71.71,0,0,1-.78-.66Zm-2.28-5a13.74,13.74,0,0,0-1.65-3,.48.48,0,0,1-.12-.3.69.69,0,0,1,.72-.6c.81,0,2.34,3,2.34,3.57a.72.72,0,0,1-.72.75A.59.59,0,0,1,147.46,26.08Zm6.36,8.52A12.71,12.71,0,0,0,151.54,32a.44.44,0,0,1-.18-.39.63.63,0,0,1,.63-.6c.63,0,3.09,2.4,3.09,3.06a.79.79,0,0,1-.75.78A.63.63,0,0,1,153.82,34.6Zm-1.32-8.07a.68.68,0,0,1-.66-.6.51.51,0,0,1,.09-.3,26.1,26.1,0,0,0,1.68-3.18.59.59,0,0,1,.54-.39.81.81,0,0,1,.81.72A13,13,0,0,1,153,26.26.67.67,0,0,1,152.5,26.53Zm10,3h-4.41c-.09,4.86-.66,10.65-3.42,14.28a.94.94,0,0,1-.75.39.83.83,0,0,1-.87-.75.65.65,0,0,1,.15-.42c3-3.72,3.39-9.6,3.39-14.55,0-1.26,0-2.49-.06-3.57v-.09c0-1.86.81-2.55,2.52-3s4.17-1.29,5.7-1.89a.76.76,0,0,1,.36-.06.83.83,0,0,1,.81.84.77.77,0,0,1-.54.72c-1.5.57-4.32,1.41-5.7,1.74-1.23.3-1.62.84-1.62,1.77v.12c0,.93,0,1.95,0,3.06h9.27a.72.72,0,1,1,0,1.44l-3.27,0,0,14.55a.73.73,0,0,1-.81.69c-.42,0-.84-.21-.84-.69Z"/><path class="cls-4" d="M28.38,82.5H27.21l-3.4-5.62a32.83,32.83,0,0,1-1.92-3.56h-.06c.1,1.36.11,2.61.11,4.45V82.5H20.85V71.83h1.22l3.45,5.62a33.44,33.44,0,0,1,1.86,3.49h0c-.11-1.48-.14-2.76-.14-4.44V71.83h1.11Z"/><path class="cls-4" d="M31.33,71.83H32.5V82.5H31.33Z"/><path class="cls-4" d="M35.47,72a13.51,13.51,0,0,1,2.42-.21c3.45,0,3.73,2.21,3.73,3.05,0,2.51-2,3.4-3.89,3.4a4.41,4.41,0,0,1-1.09-.1V82.5H35.47Zm1.16,5.18a4.26,4.26,0,0,0,1.12.11c1.68,0,2.7-.84,2.7-2.37s-1.09-2.2-2.55-2.2a6.18,6.18,0,0,0-1.27.11Z"/><path class="cls-4" d="M50.28,72.83H47.13V82.5H46V72.83H42.83v-1h7.45Z"/><path class="cls-4" d="M63.4,76.68l-.08,0a.35.35,0,0,1-.21-.08C62,77,60.48,77.55,59.32,78q0,.48,0,1.09c0,.45,0,1,0,1.5l-1,.06c0-.5.07-1.15.07-1.69,0-.21,0-.41,0-.56-1.58.77-2.87,1.71-2.87,2.55s1,1.2,2.9,1.2a31.44,31.44,0,0,0,3.52-.14V83c-.83.08-2.09.11-3.53.11-2.69,0-3.88-.64-3.88-2.07,0-1.23,1.63-2.42,3.73-3.47-.08-.88-.48-1.32-1-1.32-1,0-2.09.57-3.35,2-.39.43-.94,1-1.54,1.53l-.69-.69a9.83,9.83,0,0,0,3.53-5.17H52V73H55.4a18.21,18.21,0,0,0,.38-2l1.37.17c0,.14-.14.22-.35.25-.1.56-.22,1.05-.35,1.56a19.18,19.18,0,0,0,4.82-.81l.17.94a21.16,21.16,0,0,1-5.25.78,10.19,10.19,0,0,1-1,2.37h0a3.73,3.73,0,0,1,2.25-.91c1,0,1.56.69,1.74,1.82,1.18-.53,2.66-1.11,3.78-1.54Z"/><path class="cls-4" d="M66.75,82.91a15.38,15.38,0,0,1-.6-4.93,35.72,35.72,0,0,1,.76-6.54l1.36.27a.36.36,0,0,1-.36.25,26.89,26.89,0,0,0-.81,6,16.57,16.57,0,0,0,.13,2.65c.31-.84.87-2.19,1.16-2.84l.63.59a16.41,16.41,0,0,0-1.44,3.74,1.92,1.92,0,0,0,.14.67Zm3.56-8.25c1.18,0,2.35,0,3.53-.06-.06-1.2-.1-2.24-.13-3.28l1.42,0c0,.14-.14.25-.36.29,0,.9,0,1.81.07,2.87A12.39,12.39,0,0,0,77.57,74l.13,1a13.48,13.48,0,0,1-2.83.5c.06,1.56.13,3.19.17,4.09a10.32,10.32,0,0,1,2.86,1.78l-.55.9a8.42,8.42,0,0,0-2.27-1.6c0,1.19-.24,2.52-2.34,2.52-1.64,0-2.73-.78-2.73-2,0-1.43,1.44-2.06,2.73-2.06a4.82,4.82,0,0,1,1.33.18c0-.88-.13-2.35-.2-3.73-.43,0-1,0-1.43,0H70.32Zm3.84,5.5a4.74,4.74,0,0,0-1.39-.25c-.85,0-1.88.31-1.88,1.19s.84,1.18,1.86,1.18,1.41-.5,1.41-1.62Z"/><path class="cls-4" d="M83.12,71.33c0,.17-.15.27-.43.31-.11,1.62-.25,5.34-.25,7.41s1,3.1,2.8,3.1a6.82,6.82,0,0,0,5-2.66,5.54,5.54,0,0,0,.63.83,7.6,7.6,0,0,1-5.69,2.84c-2.55,0-3.85-1.47-3.85-4.12,0-1.76.13-6.11.22-7.83Zm3.8,1.47a11.26,11.26,0,0,1,1.9,1.93l-.52.43a10.66,10.66,0,0,0-1.88-1.93Zm1.71-1.27a10.75,10.75,0,0,1,1.92,1.91l-.53.45A10,10,0,0,0,88.15,72Z"/><path class="cls-4" d="M102.29,71.3c0,.13-.18.18-.36.21a26.43,26.43,0,0,1-.57,2.72,4.36,4.36,0,0,1,3.81,4.4c0,2.49-1.89,4.09-5.44,4.59-.14-.29-.29-.6-.45-.85,3.1-.41,4.86-1.67,4.86-3.71a3.49,3.49,0,0,0-3.07-3.5,14.14,14.14,0,0,1-2.54,5,5,5,0,0,0,.64.69l-.71.69a7.19,7.19,0,0,1-.6-.69A4.2,4.2,0,0,1,95,82.13c-1.23,0-2-1.05-2-2.58a5.09,5.09,0,0,1,2.47-4.3c-.27-1.06-.49-2.23-.69-3.49l1.34,0a.35.35,0,0,1-.29.31c.14,1,.29,1.91.49,2.77A8,8,0,0,1,100,74h.34A28.07,28.07,0,0,0,100.9,71Zm-5,8.78a14.8,14.8,0,0,1-1.57-3.88A4,4,0,0,0,94,79.48c0,1,.38,1.71,1.13,1.71A3.34,3.34,0,0,0,97.33,80.08Zm.63-.77A12.29,12.29,0,0,0,100.09,75H99.6a6.43,6.43,0,0,0-3,.76A13.42,13.42,0,0,0,98,79.31Z"/><path class="cls-4" d="M117,75.65a.27.27,0,0,1-.11,0,.55.55,0,0,1-.29-.08c-4.16,1.22-7.93,3.05-7.91,4.93,0,1.34,1.48,1.81,3.75,1.81a33.57,33.57,0,0,0,5-.32l.08,1a45.14,45.14,0,0,1-5,.25c-2.77,0-4.79-.64-4.8-2.7,0-1.5,1.48-2.82,3.68-4-.48-.85-.64-2.48-.64-5.65l1.54.13c0,.18-.15.29-.43.34,0,2.45.07,4,.46,4.73a39.46,39.46,0,0,1,4.37-1.68Z"/><path class="cls-4" d="M122.67,71.28c0,.17-.15.27-.43.31-.11,1.63-.25,5.34-.25,7.41s1,3.1,2.8,3.1a6.82,6.82,0,0,0,5-2.66,5.6,5.6,0,0,0,.63.83,7.6,7.6,0,0,1-5.69,2.84c-2.55,0-3.85-1.47-3.85-4.12,0-1.76.13-6.11.22-7.83Z"/><path class="cls-4" d="M140.61,73.75a17.51,17.51,0,0,1-4.3.8,37,37,0,0,1-2.56,8.75l-1-.38a30,30,0,0,0,2.54-8.33c-.28,0-2.16,0-2.58,0v-1c.22,0,.52,0,.84,0,.13,0,1.53,0,1.89,0,.14-.9.28-1.88.36-2.73l1.44.14c0,.15-.21.27-.41.28-.08.62-.22,1.37-.35,2.23a16.24,16.24,0,0,0,3.92-.78Zm3.73,9.33-1.29,0a14,14,0,0,1-3.32-.31,2,2,0,0,1-1.56-1.93,3.38,3.38,0,0,1,.87-2l.84.36a2.58,2.58,0,0,0-.73,1.55c0,1.11,1.06,1.39,3.61,1.39.52,0,1.05,0,1.57-.06Zm-5.46-6.75a16.71,16.71,0,0,1,5.08-.71v1a15.82,15.82,0,0,0-4.85.63Z"/><path class="cls-4" d="M158.29,73.9a27.21,27.21,0,0,1-4.66.77c.55,1.9,1.13,3,2.65,3.7l-.69.85a4.82,4.82,0,0,0-3.12-1l-.17-.83a13.69,13.69,0,0,1,1.56.21,7.58,7.58,0,0,1-1.25-2.9c-.63.06-1.48.08-2.33.08s-2.4,0-3.29,0v-1c.84,0,2,0,3.31,0,.71,0,1.53,0,2.09-.07-.17-.76-.32-1.79-.49-2.87l1.5,0c0,.17-.14.27-.36.32.08.8.22,1.68.38,2.45a23.82,23.82,0,0,0,4.66-.83Zm-2.51,9.22c-.67,0-1.39,0-2.6,0-2.93,0-5-.9-5-2.77A3.47,3.47,0,0,1,149.44,78l.76.6a2.46,2.46,0,0,0-1,1.72c0,1.39,1.79,1.83,4,1.83,1.22,0,1.93,0,2.65-.07Z"/><path class="cls-4" d="M160.58,72.85c.87.06,2,.06,3,.06l1.93,0c0-.67,0-1.46,0-1.95l1.41.07c0,.17-.14.25-.38.29,0,.22,0,1.3,0,1.54a27.53,27.53,0,0,0,4.65-.55l.13.92a28.71,28.71,0,0,1-4.78.53c0,.84,0,1.71.06,2.58a23.55,23.55,0,0,0,4-.55l.11.91a26.75,26.75,0,0,1-4,.49l.11,2.34a15.56,15.56,0,0,1,4.12,2.19l-.62.85a13.65,13.65,0,0,0-3.47-2.06c0,.22,0,.48,0,.66,0,1.33-.81,2.1-2.51,2.1s-3.08-.73-3.08-2,1.53-2.09,3.1-2.09a6.14,6.14,0,0,1,1.47.17c0-.6,0-1.33-.06-2.09l-1.36,0c-2.4,0-3.07-.38-3.07-1.19,0-.53.41-1,1.3-1.54l.67.43c-.63.35-1,.66-1,.94s.66.5,2.44.5h.94l-.08-2.59c-.6,0-1.3,0-1.93,0-.9,0-2.17,0-3,0Zm5.18,7.3a5.88,5.88,0,0,0-1.57-.22c-1.06,0-2.14.43-2.14,1.27s1,1.23,2.2,1.23,1.53-.49,1.53-1.47Z"/><path class="cls-4" d="M185.15,74a26.72,26.72,0,0,1-4.64.76c.53,1.88,1.13,3.05,2.6,3.7l-.69.85a5,5,0,0,0-3.12-1l-.17-.83a13.91,13.91,0,0,1,1.55.21,8.47,8.47,0,0,1-1.22-2.89c-.63,0-1.48.08-2.33.08s-2.4,0-3.29,0v-1c.84,0,2,0,3.31,0,.71,0,1.53,0,2.09-.07-.17-.77-.32-1.78-.48-2.86l1.5,0c0,.17-.14.27-.36.32a23.11,23.11,0,0,0,.36,2.44,22.68,22.68,0,0,0,4.66-.81Zm-2.44,9.25c-.67,0-1.39,0-2.6,0-2.93,0-5-.9-5-2.76a3.45,3.45,0,0,1,1.26-2.35l.76.59a2.48,2.48,0,0,0-1,1.72c0,1.39,1.79,1.83,4,1.83,1.22,0,1.93,0,2.65-.06Zm-.32-12.66A10.08,10.08,0,0,1,184,72.46l-.56.39A11.26,11.26,0,0,0,181.88,71Zm1.95-.36A9.88,9.88,0,0,1,186,72.13l-.55.41a9.93,9.93,0,0,0-1.6-1.92Z"/><path class="cls-4" d="M188.2,72.85c.87.06,2,.06,3,.06l1.93,0c0-.67,0-1.46,0-1.95l1.41.07c0,.17-.14.25-.38.29,0,.22,0,1.3,0,1.54a27.53,27.53,0,0,0,4.65-.55l.13.92a28.71,28.71,0,0,1-4.78.53c0,.84,0,1.71.06,2.58a23.55,23.55,0,0,0,4-.55l.11.91a26.75,26.75,0,0,1-4,.49l.11,2.34a15.56,15.56,0,0,1,4.12,2.19l-.62.85a13.65,13.65,0,0,0-3.47-2.06c0,.22,0,.48,0,.66,0,1.33-.81,2.1-2.51,2.1s-3.08-.73-3.08-2,1.53-2.09,3.1-2.09a6.14,6.14,0,0,1,1.47.17c0-.6,0-1.33-.06-2.09l-1.36,0c-2.4,0-3.07-.38-3.07-1.19,0-.53.41-1,1.3-1.54l.67.43c-.63.35-1,.66-1,.94s.66.5,2.44.5h.94l-.08-2.59c-.6,0-1.3,0-1.93,0-.9,0-2.17,0-3,0Zm5.18,7.3a5.88,5.88,0,0,0-1.57-.22c-1.06,0-2.14.43-2.14,1.27s1,1.23,2.2,1.23,1.53-.49,1.53-1.47Z"/><path class="cls-4" d="M206.52,71.09a.46.46,0,0,1-.43.24c-.1.62-.22,1.34-.35,1.89a19.33,19.33,0,0,0,4.12-.69l.15,1a28.17,28.17,0,0,1-4.45.67,20.8,20.8,0,0,1-3,6.89l-.94-.38a18.66,18.66,0,0,0,2.84-6.49h-2.79v-.91h3a23.08,23.08,0,0,0,.39-2.37Zm3.73,6c0,1.13.1,1.9.18,2.87a14.32,14.32,0,0,1,3,1.63l-.5.9A13.23,13.23,0,0,0,210.43,81c0,1.4-.56,2.49-2.62,2.49-1.55,0-2.75-.7-2.73-2s1.47-2.07,2.76-2.07a6,6,0,0,1,1.58.25c-.06-.9-.13-1.81-.13-2.47Zm-.77,3.5a4.67,4.67,0,0,0-1.67-.32c-.84,0-1.83.34-1.85,1.2s.78,1.18,1.88,1.18,1.65-.49,1.65-1.41C209.49,81,209.49,80.77,209.48,80.56Zm3.84-4.94a20,20,0,0,0-5,.69l-.15-.88a19.58,19.58,0,0,1,5.06-.76Z"/><path class="cls-4" d="M228.07,79.87H225.2A5.42,5.42,0,0,0,228.87,83a2.17,2.17,0,0,0-.56.81,6.16,6.16,0,0,1-3.8-3.36c-.48,1.3-1.61,2.52-4.12,3.35a2.91,2.91,0,0,0-.53-.7c2.55-.83,3.54-2,3.91-3.18h-2.93V76.26H224V74.87h-2.24V74.2a9.84,9.84,0,0,1-1.19.74l-.17-.31h-1.58v1.15c.41.52,1.5,2.09,1.75,2.47L220,79a23.82,23.82,0,0,0-1.2-2.13v6.79h-.9V76.83A15.79,15.79,0,0,1,216.05,81a5.53,5.53,0,0,0-.52-.83,16.71,16.71,0,0,0,2.27-5.52h-2v-.88h2V70.67l1.16.08c0,.08-.08.15-.27.18v2.82h1.58V74A9.62,9.62,0,0,0,224,70.7l1.19,0a.25.25,0,0,1-.2.17,11.06,11.06,0,0,0,4,3.18,4.88,4.88,0,0,0-.5.81,11.4,11.4,0,0,1-1.26-.77v.74h-2.35v1.39h3.24Zm-6.39-.78h2.24a7.67,7.67,0,0,0,0-.8V77h-2.28Zm5.38-5a11.86,11.86,0,0,1-2.63-2.49A10.69,10.69,0,0,1,221.95,74Zm.14,3h-2.37v1.29c0,.25,0,.52,0,.77h2.4Z"/><path class="cls-4" d="M243.07,73.37h-4.83a12.74,12.74,0,0,0,5.1,3.15,3,3,0,0,0-.63.77,13.67,13.67,0,0,1-5.5-3.92v3.08h-.94V73.37a13.65,13.65,0,0,1-5.45,4,4.36,4.36,0,0,0-.6-.74,12.55,12.55,0,0,0,5-3.28h-4.69v-.85h5.77V70.67l1.2.08c0,.1-.08.17-.27.2v1.57h5.87Zm-2.37,3.54v5.6h2.41v.87H230.45v-.87h2.41v-5.6Zm-1,.81h-6v1.11h6Zm0,2.94V79.55h-6v1.12Zm-6,.73v1.12h6V81.4Z"/><path class="cls-4" d="M248,71.72c0,.15-.18.24-.46.22a33.6,33.6,0,0,0-.74,6.3A15.42,15.42,0,0,0,247,81c.27-.69.87-2.16,1.06-2.65l.59.62c-.57,1.42-1,2.21-1.19,2.84a2.41,2.41,0,0,0-.11.66,1.49,1.49,0,0,0,.07.43l-1,.18a15.38,15.38,0,0,1-.62-4.82,41,41,0,0,1,.74-6.82ZM257,82c-.5,0-1,0-1.54,0a19.28,19.28,0,0,1-2.61-.15c-1.72-.25-2.52-1.2-2.52-2.33a4.28,4.28,0,0,1,1.32-2.7l.91.39a3.31,3.31,0,0,0-1.19,2.2c0,1.63,2.38,1.63,3.84,1.63.59,0,1.22,0,1.81-.07Zm-6.49-8.56a45.71,45.71,0,0,0,6.11-.53l.08,1a52.94,52.94,0,0,1-6.16.52Z"/><path class="cls-4" d="M259.7,74.6c.32-.07.78-.2,1.44-.41a23,23,0,0,1,6.23-1.34c2.35,0,4.36,1.16,4.36,4.1,0,3.47-3.43,4.82-8.17,5.29a4.54,4.54,0,0,0-.36-1c4.33-.41,7.44-1.58,7.44-4.29,0-2.2-1.51-3.15-3.36-3.15a23.76,23.76,0,0,0-6.88,1.71.38.38,0,0,1-.25.32Z"/><path class="cls-4" d="M276.26,72.57c0,.13-.18.21-.38.22a23,23,0,0,0-.27,3.49c0,.52,0,1,.06,1.47.17,2.38,1.13,3.82,2.21,3.81.56,0,1.29-1.43,1.79-3a4.92,4.92,0,0,0,.81.6c-.64,1.89-1.46,3.43-2.62,3.46-1.78,0-3-2.13-3.21-4.82,0-.53-.06-1.12-.06-1.75a33.39,33.39,0,0,1,.21-3.77Zm9.29,6.51A7,7,0,0,0,282,73.82l.62-.76a7.69,7.69,0,0,1,4,5.7Z"/><path class="cls-4" d="M288.54,72.57c1.05,0,9.68-.66,11.5-.67V73h-.52a4,4,0,0,0-2.4.71C295,74.91,293,77.17,293,79c0,2,1.37,3.12,4.85,3.57l-.46,1c-4-.57-5.46-2.06-5.46-4.55,0-2,1.95-4.37,4.51-6-1.48.1-5.67.42-7.48.59a.42.42,0,0,1-.31.22Z"/><path class="cls-4" d="M301.81,79.83a27.67,27.67,0,0,1,3.17,3.1l-.84.77a31.2,31.2,0,0,0-3.07-3.21Z"/><path class="cls-4" d="M321.33,79.87h-2.87A5.42,5.42,0,0,0,322.12,83a2.17,2.17,0,0,0-.56.81,6.16,6.16,0,0,1-3.8-3.36c-.48,1.3-1.61,2.52-4.12,3.35a2.91,2.91,0,0,0-.53-.7c2.55-.83,3.54-2,3.91-3.18H314.1V76.26h3.12V74.87H315V74.2a9.84,9.84,0,0,1-1.19.74l-.17-.31H312v1.15c.41.52,1.5,2.09,1.75,2.47l-.55.76a23.7,23.7,0,0,0-1.2-2.13v6.79h-.9V76.83A15.79,15.79,0,0,1,309.31,81a5.53,5.53,0,0,0-.52-.83,16.71,16.71,0,0,0,2.27-5.52h-2v-.88h2V70.67l1.16.08c0,.08-.08.15-.27.18v2.82h1.58V74a9.62,9.62,0,0,0,3.61-3.33l1.19,0a.25.25,0,0,1-.2.17,11.06,11.06,0,0,0,4,3.18,4.88,4.88,0,0,0-.5.81,11.4,11.4,0,0,1-1.26-.77v.74h-2.35v1.39h3.24Zm-6.39-.78h2.24a7.67,7.67,0,0,0,0-.8V77h-2.28Zm5.38-5a11.86,11.86,0,0,1-2.63-2.49A10.69,10.69,0,0,1,315.2,74Zm.14,3h-2.37v1.29c0,.25,0,.52,0,.77h2.4Z"/><path class="cls-4" d="M336.33,73.37H331.5a12.74,12.74,0,0,0,5.1,3.15,3,3,0,0,0-.63.77,13.67,13.67,0,0,1-5.5-3.92v3.08h-.94V73.37a13.65,13.65,0,0,1-5.45,4,4.36,4.36,0,0,0-.6-.74,12.55,12.55,0,0,0,5-3.28h-4.69v-.85h5.77V70.67l1.2.08c0,.1-.08.17-.27.2v1.57h5.87ZM334,76.92v5.6h2.41v.87H323.71v-.87h2.41v-5.6Zm-1,.81h-6v1.11h6Zm0,2.94V79.55h-6v1.12Zm-6,.73v1.12h6V81.4Z"/><path class="cls-4" d="M345.42,73.23a.36.36,0,0,1-.35.22c-.5,4.36-2,8.15-4.29,8.15-1.18,0-2.24-1.18-2.24-3.39a6.15,6.15,0,0,1,6.3-6.18c4,0,5.8,2.56,5.8,5.29,0,3.33-1.93,4.94-5.32,5.73a5.53,5.53,0,0,0-.59-.85c3.22-.62,4.87-2.19,4.87-4.83,0-2.31-1.48-4.41-4.76-4.41l-.42,0ZM344.08,73a5.16,5.16,0,0,0-4.58,5.14c0,1.5.64,2.44,1.32,2.44C342.51,80.63,343.72,76.89,344.08,73Z"/><path class="cls-4" d="M363.84,76.26c0,.1-.1.17-.28.2v1.37h2v.87h-2v3.87c0,.56-.13.83-.53,1a8.4,8.4,0,0,1-2.26.15,3.63,3.63,0,0,0-.29-.88l1.32,0c.71,0,.84,0,.84-.28V78.69h-5v-.55l-1.64.48v5.07h-.91V78.88l-1.88.52a.26.26,0,0,1-.18.22l-.39-1.09c.66-.14,1.51-.35,2.45-.57V74.53h-1.25a11.93,11.93,0,0,1-.59,2.21,5.4,5.4,0,0,0-.63-.48,21.21,21.21,0,0,0,.83-4.85l1.08.25a.29.29,0,0,1-.29.15c-.06.59-.14,1.19-.22,1.79h1.08V70.7l1.19.07c0,.1-.1.17-.28.2v2.66h1.79v.91H356v3.18c.62-.15,1.25-.31,1.86-.48l.06.59h4.69V76.19Zm-1.92-1.16h3.78V76h-8.26v-.9H361V73.25H358.2v-.87H361V70.67l1.2.08c0,.1-.08.17-.27.2v1.43h3v.87h-3ZM360,82a9.9,9.9,0,0,0-1.7-2.34l.74-.39a10,10,0,0,1,1.72,2.3Z"/><path class="cls-4" d="M368.74,73.53a8.14,8.14,0,0,1-.76,3.68l-.74-.38a8,8,0,0,0,.73-3.42Zm.6-2.86,1.21.08c0,.1-.1.17-.28.18V83.67h-.92Zm1.79,2.21A12.23,12.23,0,0,1,372.3,75l-.69.46a14,14,0,0,0-1.13-2.24Zm5.38,9.38h3.77v.91h-8.73v-.91h4v-3.4h-3V78h3V74.9h-2.19a11,11,0,0,1-1,2.25,4.47,4.47,0,0,0-.76-.43,16.93,16.93,0,0,0,1.64-5.39l1.16.27c0,.1-.13.15-.29.15-.14.74-.31,1.51-.52,2.26h1.92V70.67l1.22.08c0,.1-.08.17-.28.2V74h3.35v.9h-3.35V78h2.91v.87h-2.91Z"/><path class="cls-4" d="M391,73.6l.42,0a2.8,2.8,0,0,1,3,2.8c0,1.82-1.25,2.89-3.17,2.89a4.72,4.72,0,0,1-2.8-1,5.86,5.86,0,0,0,.28-.84,4.32,4.32,0,0,0,2.52.92,1.9,1.9,0,0,0,2.14-2c0-1-.71-1.85-2.2-1.85a16.92,16.92,0,0,0-4.61,1.16c.66,2.23,1.55,5.42,2.1,7.52l-1.08.24c-.43-2-1.36-5.35-2-7.41-.9.32-2.16.74-2.91,1a.41.41,0,0,1-.24.31l-.45-1.12c.9-.28,2.31-.74,3.33-1.11-.42-1.43-.81-2.69-1.06-3.5l1.44-.27c0,.18-.06.25-.29.38.31,1.08.56,2,.87,3.05a24.63,24.63,0,0,1,4-1.13,12.79,12.79,0,0,0-2.51-2.13l.64-.63a12,12,0,0,1,2.84,2.38Z"/><path class="cls-4" d="M406.68,77.29l.7.41a.3.3,0,0,1-.2.14,9.16,9.16,0,0,1-3.25,3.53,18.24,18.24,0,0,0,5.36,1.46,4.47,4.47,0,0,0-.6.91A17.34,17.34,0,0,1,403,81.93a19.6,19.6,0,0,1-5.58,1.81,3.91,3.91,0,0,0-.56-.88,18.92,18.92,0,0,0,5.21-1.48,9.57,9.57,0,0,1-2.83-2.89l.74-.31h-1.43v-.84h8Zm-8.89-1.67v2.12h-.9v-3h2.28a9.49,9.49,0,0,0-1-1.86l.84-.25a8.82,8.82,0,0,1,1,1.93l-.53.18h5.94a19.42,19.42,0,0,0,1.41-2.49l1.12.42c0,.08-.15.11-.29.11a20.4,20.4,0,0,1-1.25,2H409v3h-.92V75.63Zm10.41-4.12a.25.25,0,0,1-.15,0l-.14,0a80.43,80.43,0,0,1-10.65,1.05,3.34,3.34,0,0,0-.22-.81,74.77,74.77,0,0,0,10.45-1.06Zm-8.1,6.67a8.49,8.49,0,0,0,2.91,2.7,8,8,0,0,0,2.86-2.7Zm2.66-5.73a9.3,9.3,0,0,1,.78,2.09l-.91.24a9.25,9.25,0,0,0-.73-2.14Z"/><path class="cls-4" d="M413.92,71.82c0,.13-.15.22-.36.25a30,30,0,0,0-.73,5.79,15,15,0,0,0,.14,2.35c.31-.63,1-2,1.43-2.77l.64.66c-1,1.82-1.67,3-1.67,3.53a2,2,0,0,0,.11.57l-1,.2a13.77,13.77,0,0,1-.64-4.51,36,36,0,0,1,.7-6.29ZM416,75c1.12,0,2.77,0,3.78-.1-.08-1.62-.18-3.56-.22-3.85l1.44.06c0,.15-.15.28-.38.32,0,.77.1,2.2.15,3.42a16.85,16.85,0,0,0,2.75-.43l.1,1a20.43,20.43,0,0,1-2.82.38c0,.08,0,.31,0,1.13,0,3-.67,5.17-3.38,6.51a4.7,4.7,0,0,0-.76-.7c2.59-1.26,3.14-3.1,3.14-5.73V75.84c-.94.06-2.55.1-3.8.1Z"/><path class="cls-4" d="M428.15,73.69a.4.4,0,0,1-.36.24,16,16,0,0,1-.57,4.13h0a9.54,9.54,0,0,1,5.15-1.72c2.16,0,3.5,1.11,3.47,3.07,0,2.58-2.17,3.73-7.59,4a4.13,4.13,0,0,0-.35-.92c4.89-.21,6.85-1,6.89-3,0-1.34-.92-2.16-2.56-2.16-2.59,0-4.93,1.55-5.32,2.24L426,79c.28-.27.77-2.77.8-5.52Zm.24-2.72a22.55,22.55,0,0,1,5.44,1.23l-.35,1a22.77,22.77,0,0,0-5.38-1.27Z"/><path class="cls-4" d="M20.81,94.89a13.65,13.65,0,0,0,2.63-.21c0-.84,0-1.3.1-2.58l1.44.11c0,.15-.15.25-.39.28-.06.62-.11,1.48-.14,2l.43.17a7.3,7.3,0,0,0-.56,2c1.54-1.44,3.25-2.46,4.41-2.46,1.32,0,2,.92,2,2.55,0,.18,0,.36,0,.55-.1,1.23-.24,3-.24,4.1,0,.84.1,1.29.69,1.29a3.8,3.8,0,0,0,1.86-.94,9.72,9.72,0,0,0,.2,1.06,4.23,4.23,0,0,1-2.2.91c-1.18,0-1.57-.7-1.57-2.16,0-.73.25-4.58.25-4.59,0-1.22-.42-1.77-1.11-1.77-1.05,0-2.82,1.13-4.27,2.68,0,2,0,4.52,0,6.43h-1c0-.81,0-4.8,0-5.7A14.62,14.62,0,0,1,20.8,102l-.5-.88a14.21,14.21,0,0,0,3.08-4.23c0-.41,0-.78,0-1.23a14.47,14.47,0,0,1-2.58.24Z"/><path class="cls-4" d="M38.44,97.83A8.48,8.48,0,0,1,41.91,97c2.23,0,3.63,1.3,3.63,3.36,0,2.54-2.23,3.94-5,3.94-1.82,0-3.07-.73-3.07-2a2.12,2.12,0,0,1,2.3-1.88A3,3,0,0,1,42.59,103a2.75,2.75,0,0,0,1.93-2.62c0-1.51-1.12-2.48-2.89-2.48a8,8,0,0,0-5.08,1.83c-.42.39-1,1-1.34,1.41l-.71-.71c1.26-1.32,5.27-5.14,7.17-6.92-.81.11-3.61.22-5.21.28a.46.46,0,0,1-.29.21L36,92.83c1.89,0,5.5-.15,6.53-.31l.21-.1.74.91a.68.68,0,0,1-.34.13c-1,.81-3.66,3.31-4.75,4.36Zm1.93,5.6a6.13,6.13,0,0,0,1.27-.14,2.16,2.16,0,0,0-2-2c-.73,0-1.37.39-1.37,1C38.29,103.2,39.45,103.43,40.37,103.43Z"/><path class="cls-4" d="M52,92.61v9.27H48.87V103H48V92.61Zm-.88.87h-2.2v3.29h2.2ZM48.87,101h2.2V97.62h-2.2Zm7.91-4.82h3.68V97H52.2v-.85h3.66V94.27H52.8v-.84h3.05V91.7l1.2.07c0,.1-.1.17-.28.2v1.47h3.12v.84H56.78ZM59,97.44c0,.1-.08.17-.27.18v1.2h1.69v.84H58.74v3.92c0,.57-.13.84-.56,1a8.83,8.83,0,0,1-2.3.15,3.21,3.21,0,0,0-.32-.88l1.4,0c.78,0,.85,0,.85-.29V99.67H52.26v-.84h5.56V97.37Zm-4,5.81a11,11,0,0,0-1.83-2.52l.76-.45a10.54,10.54,0,0,1,1.89,2.47Z"/><path class="cls-4" d="M68.84,100.37v.85h-7v-.85H63.2V94.46H62V93.6H63.2V91.85l1.13.07c0,.1-.08.15-.27.18v1.5H66.8V91.85l1.15.07c0,.1-.08.17-.27.18v1.5h1.06v.85H67.69v5.91Zm-3.94,1.55q-.06.13-.29.13a9.74,9.74,0,0,1-2,2.63,5.36,5.36,0,0,0-.7-.53,7.53,7.53,0,0,0,1.93-2.59Zm1.9-7.47H64.07v1.39H66.8Zm-2.73,2.17V98H66.8V96.63Zm0,2.19v1.55H66.8V98.81ZM74.38,92.4V103.5c0,1.13-.52,1.22-2.62,1.19a3.44,3.44,0,0,0-.29-.91l1.21,0c.71,0,.8,0,.8-.31V99.85H70.28a9.6,9.6,0,0,1-1.65,4.93,2.6,2.6,0,0,0-.73-.56,5.38,5.38,0,0,0,.39-.55s-.63.36-.77.45a11.54,11.54,0,0,0-1.46-2.17l.74-.41a13,13,0,0,1,1.48,2.1,12.1,12.1,0,0,0,1.2-6.09V92.4Zm-4,5.15c0,.45,0,.94,0,1.44h3.14V96.53h-3.1Zm3.1-4.29h-3.1v2.41h3.1Z"/><path class="cls-4" d="M76.62,100.83a27.7,27.7,0,0,1,3.17,3.1l-.84.77a31.2,31.2,0,0,0-3.07-3.21Z"/><path class="cls-4" d="M85,99.82V93l1.33.08c0,.13-.11.22-.34.25v6.47Zm7.8-7.35c0,.14-.11.21-.34.24v4.45c0,2.94-1,5.63-5,7.19a4.1,4.1,0,0,0-.73-.76c3.88-1.44,4.75-3.84,4.75-6.43V92.38Z"/><path class="cls-4" d="M105.07,93.52a.29.29,0,0,1-.18.15,21.67,21.67,0,0,1-2.8,4.82,51.45,51.45,0,0,1,5.13,4.75l-.85.74a45.82,45.82,0,0,0-4.92-4.71A22,22,0,0,1,96,104a5.26,5.26,0,0,0-.73-.76,20.09,20.09,0,0,0,8.21-9.15H96.65v-1h7.42l.18-.07Z"/><path class="cls-4" d="M119.27,94.74a.94.94,0,0,1-.21.2c-1.47,4.54-3.77,7.45-7.63,9.41a3.68,3.68,0,0,0-.71-.77,13.16,13.16,0,0,0,7.1-8.29h-5a14.36,14.36,0,0,1-3.14,3.46,5.56,5.56,0,0,0-.8-.64A14.24,14.24,0,0,0,113.34,92l1.33.38c-.06.14-.22.18-.41.18-.28.62-.57,1.2-.9,1.76h4.93l.17-.08Z"/><path class="cls-4" d="M126.53,92.09a.46.46,0,0,1-.43.24c-.1.62-.22,1.34-.35,1.89a19.29,19.29,0,0,0,4.12-.69l.15,1a28.17,28.17,0,0,1-4.45.67,20.79,20.79,0,0,1-3,6.89l-.94-.38a18.66,18.66,0,0,0,2.84-6.49h-2.79v-.91h3a23.08,23.08,0,0,0,.39-2.37Zm3.73,6c0,1.13.1,1.9.18,2.87a14.29,14.29,0,0,1,3,1.62l-.5.9a13.24,13.24,0,0,0-2.48-1.47c0,1.4-.56,2.49-2.62,2.49-1.55,0-2.75-.7-2.73-2s1.47-2.07,2.76-2.07a6,6,0,0,1,1.58.25c-.06-.9-.13-1.81-.13-2.47Zm-.77,3.5a4.67,4.67,0,0,0-1.67-.32c-.84,0-1.83.34-1.85,1.2s.78,1.18,1.88,1.18,1.65-.49,1.65-1.42C129.5,102,129.5,101.77,129.48,101.56Zm3.84-4.94a20,20,0,0,0-5,.69l-.15-.88a19.58,19.58,0,0,1,5.06-.76Z"/><path class="cls-4" d="M145.28,96.65a.28.28,0,0,1-.11,0,.55.55,0,0,1-.29-.08c-4.16,1.22-7.93,3.05-7.91,4.93,0,1.34,1.48,1.81,3.75,1.81a33.57,33.57,0,0,0,5-.32l.08,1a45.14,45.14,0,0,1-5,.25c-2.77,0-4.79-.64-4.8-2.7,0-1.5,1.48-2.82,3.68-4-.48-.85-.64-2.48-.64-5.65l1.54.13c0,.18-.15.29-.43.34,0,2.45.07,4,.46,4.73a39.55,39.55,0,0,1,4.37-1.68Zm-1.79-4.37a8.84,8.84,0,0,1,1.78,2.09l-.6.41a8.5,8.5,0,0,0-1.72-2.09Zm1.88-.8a8.43,8.43,0,0,1,1.75,2.07l-.57.39a8.8,8.8,0,0,0-1.71-2Z"/><path class="cls-4" d="M159.91,97.68l-.08,0a.35.35,0,0,1-.21-.08c-1.06.35-2.62.92-3.78,1.43q0,.48,0,1.09c0,.45,0,1,0,1.5l-1,.06c0-.5.07-1.15.07-1.69,0-.21,0-.41,0-.56-1.58.77-2.87,1.71-2.87,2.55s1,1.2,2.9,1.2a31.32,31.32,0,0,0,3.52-.14V104c-.83.08-2.09.11-3.53.11-2.69,0-3.88-.64-3.88-2.07,0-1.23,1.63-2.42,3.73-3.47-.08-.88-.48-1.32-1-1.32-1,0-2.09.57-3.35,2-.39.43-.94,1-1.54,1.53l-.69-.69a9.83,9.83,0,0,0,3.53-5.17h-3.12V94h3.38a18.21,18.21,0,0,0,.38-2l1.37.17c0,.14-.14.22-.35.25-.1.56-.22,1.05-.35,1.55a19.18,19.18,0,0,0,4.82-.81l.17.94a21.13,21.13,0,0,1-5.25.78,10.18,10.18,0,0,1-1,2.37h0a3.73,3.73,0,0,1,2.25-.91c1,0,1.56.69,1.74,1.82,1.18-.53,2.66-1.11,3.78-1.54Z"/><path class="cls-4" d="M166.89,92.4c-.06.1-.15.14-.34.13a13.91,13.91,0,0,1-4.38,5.55,5.8,5.8,0,0,0-.74-.67A12.54,12.54,0,0,0,165.69,92Zm4.9,4.68H172l.53.06c0,.1,0,.22,0,.34-.22,4.52-.43,6.15-.92,6.68s-.81.49-1.67.49c-.48,0-1.08,0-1.68-.06a2.19,2.19,0,0,0-.31-.94c1,.08,1.86.1,2.2.1s.46,0,.6-.18c.36-.36.59-1.82.77-5.55h-3.85c-.38,2.69-1.16,5.41-4.92,6.75a3.25,3.25,0,0,0-.6-.8c3.39-1.13,4.19-3.49,4.52-6h-3v-.92ZM170.56,92a14.71,14.71,0,0,0,4.31,5.17,4.48,4.48,0,0,0-.78.84,18.49,18.49,0,0,1-4.43-5.65Z"/><path class="cls-4" d="M181.41,92.35c0,.17-.2.24-.46.25-.15.78-.41,2.14-.57,3,.63-.07,1.2-.13,1.55-.13,2.13,0,2.86,1.39,2.86,3.49a10.92,10.92,0,0,1-.48,3.14,2.56,2.56,0,0,1-2.49,2.11,4.15,4.15,0,0,1-2.54-1.22,5.28,5.28,0,0,0,.38-.85,3.75,3.75,0,0,0,2.14,1.06c.8,0,1.27-.5,1.55-1.4a10.56,10.56,0,0,0,.45-2.87c0-1.6-.53-2.55-1.93-2.54a16.15,16.15,0,0,0-1.71.14,26.87,26.87,0,0,1-2.87,7.56l-.92-.45a22.91,22.91,0,0,0,2.79-7c-.71.08-1.74.21-2.49.34l-.08-1,2.77-.32c.21-1,.43-2.28.6-3.52Zm6.49,6.74a8.4,8.4,0,0,0-3.15-4.79l.76-.59a9,9,0,0,1,3.4,5Z"/><path class="cls-4" d="M191.74,99.95a9.39,9.39,0,0,1-.41-2.63,25,25,0,0,1,.48-4.62l1.4.24c-.06.18-.22.22-.41.24a20.49,20.49,0,0,0-.48,4.08,5.57,5.57,0,0,0,0,.76,24,24,0,0,1,1.09-2.17,5.94,5.94,0,0,0,.55.62c-1,1.86-1.34,2.4-1.34,3a1.57,1.57,0,0,0,0,.35Zm7.51-7.62c0,.17-.13.24-.36.31.1,1.22.24,3.25.24,4.86,0,2.7-1,5.14-5.21,6.89a7.46,7.46,0,0,0-.7-.81c3.82-1.46,4.85-3.77,4.85-6.06,0-1.72-.17-3.75-.32-5.25Z"/><path class="cls-4" d="M210.73,94.6l.42,0a2.8,2.8,0,0,1,3,2.8c0,1.82-1.25,2.89-3.17,2.89a4.72,4.72,0,0,1-2.8-1,5.86,5.86,0,0,0,.28-.84,4.32,4.32,0,0,0,2.52.92,1.9,1.9,0,0,0,2.14-2c0-1-.71-1.85-2.2-1.85a16.94,16.94,0,0,0-4.61,1.16c.66,2.23,1.55,5.42,2.1,7.52l-1.08.24c-.43-2-1.36-5.35-2-7.41-.9.32-2.16.74-2.91,1a.41.41,0,0,1-.24.31l-.45-1.12c.9-.28,2.31-.74,3.33-1.11-.42-1.43-.81-2.69-1.06-3.5l1.44-.27c0,.18-.06.25-.29.38.31,1.08.56,2,.87,3.05a24.57,24.57,0,0,1,4-1.13,12.79,12.79,0,0,0-2.51-2.13l.64-.63a12,12,0,0,1,2.84,2.38Z"/><path class="cls-4" d="M222.88,94c0-.31-.06-1.83-.08-2.19l1.44.06c0,.11-.11.25-.36.29,0,.17,0,.34,0,1.81,1.72-.06,3.53-.1,4.58-.11v1c-1.19,0-2.89,0-4.55.06,0,1.09.06,2.1.1,2.87a4.78,4.78,0,0,1,.17,1.47,6,6,0,0,1-.14,1.36c-.36,1.64-1.57,3.08-4,4.06a7.69,7.69,0,0,0-.71-.8c2.14-.77,3.29-1.93,3.64-3.26h0a1.76,1.76,0,0,1-1.44.74,2.39,2.39,0,0,1-2.35-2.45,2.58,2.58,0,0,1,2.52-2.62,2.08,2.08,0,0,1,1.3.43c0-.24,0-1.18-.06-1.78-1.46,0-5.88.18-6.46.21l0-.92,3.19-.08Zm.27,4.92c0-.55,0-1.82-1.43-1.82A1.69,1.69,0,0,0,220,98.87a1.57,1.57,0,0,0,1.56,1.63A1.51,1.51,0,0,0,223.14,98.91Z"/><path class="cls-4" d="M237.45,104.58A42.55,42.55,0,0,0,232,99.37c-.7-.56-1-1-1-1.46a1.79,1.79,0,0,1,.74-1.27c1.27-1.18,3.67-3.45,5-4.82l1.19.78a.42.42,0,0,1-.31.14l-.17,0c-1.4,1.34-3.59,3.25-4.73,4.33-.34.32-.6.6-.6.83s.25.52.74.88a46.65,46.65,0,0,1,5.53,5.08Z"/><path class="cls-4" d="M245.57,94.08v.8h-5.14v-.8Zm-.45,5.83V104H241.9v.66h-.83V99.9Zm0-3.87v.77h-4V96Zm-4,2.7V98h4v.77Zm4-6.56V93h-3.87v-.77Zm-.76,8.52H241.9v2.52h2.38Zm4.62-1.19c0,.1-.11.15-.28.18-.22,2.06-.71,3.94-2.84,5a2.46,2.46,0,0,0-.6-.73c1.92-.88,2.37-2.54,2.52-4.57Zm2.09,3.73c0,.36.06.42.38.42h1c.35,0,.42-.28.45-2.23a3.3,3.3,0,0,0,.81.38c-.07,2.17-.29,2.7-1.16,2.7h-1.22c-.92,0-1.15-.29-1.15-1.27V99h-3.87V94.36h6.7V99H251.1a.26.26,0,0,1-.11,0Zm-3.6-11.5A9.12,9.12,0,0,1,248.5,94c-.46.2-.67.27-.88.34A9.92,9.92,0,0,0,246.55,92Zm-.25,3.46v3H252v-3Zm5.67-3.14c0,.08-.14.13-.28.11a18.92,18.92,0,0,1-1.15,2.17l-.76-.32a17.07,17.07,0,0,0,1.05-2.37Z"/><path class="cls-4" d="M260,101h-3.71v1.34h-.88V92.56H260Zm-.88-7.56h-2.83v2.84h2.83Zm-2.83,6.7h2.83v-3h-2.83Zm11.08-7.83v11.09c0,.63-.15.94-.59,1.09a8.83,8.83,0,0,1-2.44.18,3.67,3.67,0,0,0-.35-.94l1.32,0c1,0,1.13,0,1.13-.36v-3.26h-4.37a7.38,7.38,0,0,1-2.66,4.65,3.43,3.43,0,0,0-.7-.64c2.42-1.86,2.66-4.57,2.66-6.79v-5Zm-5.07,5a18.47,18.47,0,0,1-.1,1.92h4.24V96.63h-4.15Zm4.15-4.16h-4.15v2.58h4.15Z"/><path class="cls-4" d="M272.34,92.28c0,.17-.15.27-.43.31-.11,1.63-.25,5.34-.25,7.41s1,3.1,2.8,3.1a6.82,6.82,0,0,0,5-2.66,5.6,5.6,0,0,0,.63.83,7.6,7.6,0,0,1-5.69,2.84c-2.55,0-3.85-1.47-3.85-4.12,0-1.76.13-6.11.22-7.83Z"/><path class="cls-4" d="M282,93.85c.87.06,2,.06,3,.06l1.93,0c0-.67,0-1.46,0-1.95l1.41.07c0,.17-.14.25-.38.29,0,.22,0,1.3,0,1.54a27.48,27.48,0,0,0,4.65-.55l.13.92a28.71,28.71,0,0,1-4.78.53c0,.84,0,1.71.06,2.58a23.55,23.55,0,0,0,4-.55l.11.91a26.75,26.75,0,0,1-4,.49l.11,2.34a15.56,15.56,0,0,1,4.12,2.19l-.62.85a13.64,13.64,0,0,0-3.47-2.06c0,.22,0,.48,0,.66,0,1.33-.81,2.1-2.51,2.1s-3.08-.73-3.08-2,1.53-2.09,3.1-2.09a6.14,6.14,0,0,1,1.47.17c0-.6,0-1.33-.06-2.09l-1.36,0c-2.4,0-3.07-.38-3.07-1.19,0-.53.41-1,1.3-1.54l.67.43c-.63.35-1,.66-1,.94s.66.5,2.44.5H287l-.08-2.59c-.6,0-1.3,0-1.93,0-.9,0-2.17,0-3,0Zm5.18,7.3a5.89,5.89,0,0,0-1.57-.22c-1.06,0-2.14.43-2.14,1.27s1,1.23,2.2,1.23,1.53-.49,1.53-1.47Z"/><path class="cls-4" d="M301.56,94c0-.31-.06-1.83-.08-2.19l1.44.06c0,.11-.11.25-.36.29,0,.17,0,.34,0,1.81,1.72-.06,3.53-.1,4.58-.11v1c-1.19,0-2.89,0-4.55.06,0,1.09.06,2.1.1,2.87a4.78,4.78,0,0,1,.17,1.47,6,6,0,0,1-.14,1.36c-.36,1.64-1.57,3.08-4,4.06a7.69,7.69,0,0,0-.71-.8c2.14-.77,3.29-1.93,3.64-3.26h0a1.76,1.76,0,0,1-1.44.74,2.39,2.39,0,0,1-2.35-2.45,2.58,2.58,0,0,1,2.52-2.62,2.08,2.08,0,0,1,1.3.43c0-.24,0-1.18-.06-1.78-1.46,0-5.88.18-6.46.21l0-.92,3.19-.08Zm.27,4.92c0-.55,0-1.82-1.43-1.82a1.69,1.69,0,0,0-1.67,1.78,1.57,1.57,0,0,0,1.56,1.63A1.51,1.51,0,0,0,301.82,98.91Z"/><path class="cls-4" d="M311.36,102.73a2,2,0,1,1-2-2A2,2,0,0,1,311.36,102.73Zm-.5,0a1.45,1.45,0,1,0-1.46,1.44A1.45,1.45,0,0,0,310.85,102.73Z"/></g></g></svg>