<svg xmlns="http://www.w3.org/2000/svg" viewBox="0 0 460 150"><defs><style>.cls-1{fill:#782341;}.cls-2{fill:#934f67;}.cls-3{fill:#f5f5f5;stroke:#f5f5f5;stroke-miterlimit:10;}.cls-4{fill:#fff;}</style></defs><title>Genetics02</title><g id="レイヤー_2" data-name="レイヤー 2"><g id="文字"><rect class="cls-1" y="0.7" width="460" height="149.3" rx="5" ry="5"/><rect class="cls-2" width="460" height="132.97" rx="5" ry="5"/><path class="cls-3" d="M23.71,23.62A.69.69,0,0,1,23,22.9a.65.65,0,0,1,.69-.66l10.2,0,0-2.64a.81.81,0,0,1,.87-.78.8.8,0,0,1,.87.78l0,2.64,10.17,0a.64.64,0,0,1,.66.69.65.65,0,0,1-.66.69Zm.15,12c0-1.71,1.08-2.88,3.21-2.91,2.67,0,5.58,0,8.58,0,2.19,0,4.44,0,6.66,0a2.94,2.94,0,0,1,3.18,2.67v4.86c0,.39.06,1,.06,1.62v.09c0,1.41-.66,2.76-3.6,2.76-2.52,0-2.85-.39-2.85-.93a.76.76,0,0,1,.75-.81H40a14.16,14.16,0,0,0,2.25.27c1,0,1.68-.36,1.68-1.5,0-4.71,0-5.4,0-6,0-1.08-.72-1.68-1.92-1.71-2.4,0-5-.06-7.53-.06s-4.95,0-7.08.06a1.72,1.72,0,0,0-1.86,1.83c0,1.08,0,2.61,0,4.14s0,3.12,0,4.32a.73.73,0,0,1-.81.72.75.75,0,0,1-.81-.75Zm10.86-4.8c-6.36,0-6.9,0-6.9-2.49,0-1.68.09-2.76,2.61-2.79,1.62,0,3.21-.06,4.8-.06,6,0,6.45,0,6.45,2.67S41.32,30.82,34.72,30.82Zm-.09,10.71c-5,0-5.64-.24-5.64-2.67,0-1.32.09-2.61,2.25-2.7,1,0,2.22-.06,3.42-.06s2.43,0,3.39.06c2.22.09,2.28,1.38,2.28,2.52C40.33,41.47,39.52,41.53,34.63,41.53Zm5.52-13.38c0-1.05-.06-1.41-1.35-1.41-1.56,0-3.12,0-4.68,0-1.14,0-2.28,0-3.42,0s-1.35.36-1.35,1.38c0,1.5,0,1.5,5.1,1.5,4.95,0,5.64,0,5.67-.84A3.8,3.8,0,0,0,40.15,28.15ZM34.63,40.27c4.2,0,4.2,0,4.2-1.53a3.24,3.24,0,0,0,0-.57c-.09-.87-.12-.87-4.65-.87-.93,0-1.83,0-2.49,0-1.14,0-1.17.48-1.17,1.95C30.55,40.27,31.06,40.27,34.63,40.27Z"/><path class="cls-3" d="M52.39,26.8a.61.61,0,0,1-.66-.63.62.62,0,0,1,.66-.63h2l0-4.14a.69.69,0,0,1,.72-.72.72.72,0,0,1,.75.72l0,4.14,2.67,0,0-6a.69.69,0,0,1,.72-.72.72.72,0,0,1,.75.72v2.16h4a.61.61,0,0,1,.66.63A.62.62,0,0,1,64,23l-4,0,0,2.61,5,0a.61.61,0,0,1,.66.63.62.62,0,0,1-.66.63Zm2.07,1.83c0,1.32,0,3.81,0,6.24s0,4.89,0,6.15c.06,1.74,1,1.77,4.44,1.77,2.94,0,4.23,0,4.29-1.8,0-.9.06-2.58.06-4.44,0-2.91,0-6.27-.06-7.89a.65.65,0,0,1,.69-.66.63.63,0,0,1,.66.66c0,1.35.06,3.84.06,6.33s0,4.92-.06,6.27A2.58,2.58,0,0,1,61.78,44c-.9.06-1.92.06-2.94.06s-2.07,0-3-.06a2.57,2.57,0,0,1-2.73-2.67c0-1.41,0-3.93,0-6.45s0-5,0-6.3a.65.65,0,0,1,.69-.66.63.63,0,0,1,.69.63Zm4,7.17c-.12.21-2.22,3.84-3.06,3.84a.58.58,0,0,1-.42-1,17.31,17.31,0,0,0,3.24-4.41l-2.52,0a.55.55,0,0,1-.57-.57.54.54,0,0,1,.57-.54l2.73,0V31.48l-.06-3.21a.56.56,0,0,1,.63-.54.55.55,0,0,1,.6.54l0,3.33v1.56l2.43,0a.52.52,0,0,1,.54.54.53.53,0,0,1-.54.57l-2.43,0v2l0,4.92a.56.56,0,0,1-.6.57.57.57,0,0,1-.63-.57Zm-1.68-4a8.75,8.75,0,0,0-1.2-1.62.48.48,0,0,1-.15-.3c0-.27.33-.48.63-.48.6,0,1.65,1.83,1.65,1.83a.54.54,0,0,1,.06.3.59.59,0,0,1-.57.57A.44.44,0,0,1,56.77,31.81Zm4.83,6.12a6.52,6.52,0,0,0-1.74-1.56.41.41,0,0,1-.18-.3.56.56,0,0,1,.57-.54c.36,0,2.37,1.29,2.37,2a.63.63,0,0,1-.63.63A.47.47,0,0,1,61.6,37.93Zm-1.53-6.21a.48.48,0,0,1,.09-.24,13.59,13.59,0,0,0,1-1.86.47.47,0,0,1,.45-.3.63.63,0,0,1,.66.57c0,.24-1,2.28-1.65,2.28A.51.51,0,0,1,60.07,31.72Zm16.32-3.21a40.25,40.25,0,0,1-4.56-6.75c-.21-.39-.45-.63-.69-.63s-.39.18-.57.63a31.58,31.58,0,0,1-3.72,6.48,1,1,0,0,1-.78.42.73.73,0,0,1-.75-.69.94.94,0,0,1,.24-.57,25.39,25.39,0,0,0,3.93-6.66,1.75,1.75,0,0,1,1.59-1.14,2,2,0,0,1,1.71,1.11,34,34,0,0,0,4.89,6.75.7.7,0,0,1,.21.51.84.84,0,0,1-1.5.54ZM69.46,33c-1.2,0-2.4,0-3.33,0a.63.63,0,0,1-.66-.66.68.68,0,0,1,.69-.69c2.07,0,4.59-.06,6.66-.06h1c1.8,0,2.52.84,2.58,2.31,0,.69.06,2.16.06,3.39,0,2.16-.09,3.93-2.58,3.93-1,0-1.71-.09-1.71-.81a.64.64,0,0,1,.6-.69h.12a5.56,5.56,0,0,0,1,.12c1,0,1.08-.78,1.08-2.31,0-1.14,0-2.67,0-3.33,0-.87-.3-1.26-1.41-1.26H71L71,44.2a.78.78,0,0,1-1.56,0Zm-.84-4.23a.66.66,0,0,1,0-1.32H74a.66.66,0,0,1,0,1.32Z"/><path class="cls-3" d="M84.37,36.73a.89.89,0,0,1-.9.66.68.68,0,0,1-.72-.66.76.76,0,0,1,.06-.36,59,59,0,0,0,2.31-9.27l-2.55.06h0a.65.65,0,0,1-.66-.69.69.69,0,0,1,.66-.75l2.82,0c.33-2.13.54-4.2.66-6.09a.71.71,0,0,1,.75-.69.81.81,0,0,1,.87.75c0,.33-.39,3.9-.72,6,.9,0,1.77,0,2.55,0,1.62,0,2.43.84,2.43,2.19A22.16,22.16,0,0,1,90,36.73c2.58,1.53,2.67,2.25,2.67,2.52a.82.82,0,0,1-.72.9.73.73,0,0,1-.57-.27,14.72,14.72,0,0,0-2.1-1.74c-2.67,4.77-6.51,6.06-6.81,6.06a.81.81,0,0,1-.81-.81.68.68,0,0,1,.42-.63A12.18,12.18,0,0,0,88,37.39a13.69,13.69,0,0,0-3.48-1.23Zm6-8.61c0-.72-.36-1.08-1.29-1.08-.63,0-1.47,0-2.37,0-.45,2.64-1,5.34-1.74,7.83a16.28,16.28,0,0,1,3.75,1.17A20.73,20.73,0,0,0,90.34,28.12Zm3.24,15.39a.72.72,0,1,1,0-1.44H99V32.53l-5.85,0a.72.72,0,1,1,0-1.44H99V23.74a55.4,55.4,0,0,1-5.7.66.67.67,0,0,1-.63-.75c0-.33.18-.69.54-.69a42.72,42.72,0,0,0,12-2.28,1.27,1.27,0,0,1,.33-.06.74.74,0,0,1,.72.78.73.73,0,0,1-.51.72,36.77,36.77,0,0,1-5.16,1.32v7.68h6.27a.72.72,0,1,1,0,1.44l-6.27,0v9.54h5.7a.72.72,0,1,1,0,1.44Z"/><path class="cls-3" d="M114.19,36.19a.89.89,0,0,1-.87.63.63.63,0,0,1-.69-.63,1.57,1.57,0,0,1,.06-.33,56.7,56.7,0,0,0,2.22-9.54l-2.34.06h0c-.42,0-.6-.33-.6-.69a.65.65,0,0,1,.6-.72c.87,0,1.71,0,2.55,0,.24-1.77.39-3.51.48-5.1a.7.7,0,0,1,.75-.66.75.75,0,0,1,.81.69c0,.63-.36,3.66-.57,5.07h1.8a2.07,2.07,0,0,1,2.19,2.34,25.76,25.76,0,0,1-1.77,9.33c1.95,1.38,2,1.95,2,2.19,0,.48-.33.93-.72.93a.63.63,0,0,1-.51-.3,13.45,13.45,0,0,0-1.44-1.5c-2.28,4.47-5.52,6-6,6a.85.85,0,0,1-.81-.84.66.66,0,0,1,.36-.6A12,12,0,0,0,117,37a11.28,11.28,0,0,0-2.67-1.38ZM119,27.4a1.05,1.05,0,0,0-1.17-1.14c-.45,0-.93,0-1.47,0a71.93,71.93,0,0,1-1.71,8.19,14.77,14.77,0,0,1,2.88,1.29A23.3,23.3,0,0,0,119,27.4Zm8.31,3.33h-2.76c-.09,4.68-.6,9.72-2.94,13a.84.84,0,0,1-.69.39.85.85,0,0,1-.87-.75.71.71,0,0,1,.15-.39c2.46-3.33,2.88-8.46,2.88-13.23,0-2.25-.09-4.38-.12-6.24v-.06c0-1.41.9-2.55,2.82-2.61,1.17,0,3.18-.06,5.25-.06s4.14,0,5.43.06a.67.67,0,0,1,.69.72.66.66,0,0,1-.69.69c-1.29,0-3.93,0-6.27,0-1.74,0-3.3,0-4.11,0-1.2,0-1.56.69-1.56,1.68,0,1.62,0,3.54,0,5.52h12.12a.6.6,0,0,1,.63.63.61.61,0,0,1-.63.63h-4.32a22.65,22.65,0,0,0,.78,4.56,19.43,19.43,0,0,0,3.24-1.8.6.6,0,0,1,.33-.09.82.82,0,0,1,.78.78.72.72,0,0,1-.42.6,24.14,24.14,0,0,1-3.57,1.68,13.85,13.85,0,0,0,4.17,6.24.92.92,0,0,1,.36.66.84.84,0,0,1-.84.84c-1.32,0-5.61-5.55-6.09-13.47h-2.37V41.5c1-.33,2-.66,2.7-1a.87.87,0,0,1,.27-.06.66.66,0,0,1,.63.66.71.71,0,0,1-.48.63A34.36,34.36,0,0,1,124.42,44a.68.68,0,0,1-.75-.69.74.74,0,0,1,.66-.75,22.93,22.93,0,0,0,3-.69Zm-1-4.2a.61.61,0,0,1-.63-.63.62.62,0,0,1,.63-.66h8.46a.61.61,0,0,1,.63.63.62.62,0,0,1-.63.66Z"/><path class="cls-3" d="M145.39,31.69a2.37,2.37,0,0,1,4.74,0,2.37,2.37,0,1,1-4.74,0Z"/><path class="cls-3" d="M159.91,23.62a.69.69,0,0,1-.72-.72.65.65,0,0,1,.69-.66l10.2,0,0-2.64a.81.81,0,0,1,.87-.78.8.8,0,0,1,.87.78l0,2.64,10.17,0a.64.64,0,0,1,.66.69.65.65,0,0,1-.66.69Zm.15,12c0-1.71,1.08-2.88,3.21-2.91,2.67,0,5.58,0,8.58,0,2.19,0,4.44,0,6.66,0a2.94,2.94,0,0,1,3.18,2.67v4.86c0,.39.06,1,.06,1.62v.09c0,1.41-.66,2.76-3.6,2.76-2.52,0-2.85-.39-2.85-.93a.76.76,0,0,1,.75-.81h.12a14.16,14.16,0,0,0,2.25.27c1,0,1.68-.36,1.68-1.5,0-4.71,0-5.4,0-6,0-1.08-.72-1.68-1.92-1.71-2.4,0-5-.06-7.53-.06s-4.95,0-7.08.06a1.72,1.72,0,0,0-1.86,1.83c0,1.08,0,2.61,0,4.14s0,3.12,0,4.32a.73.73,0,0,1-.81.72.75.75,0,0,1-.81-.75Zm10.86-4.8c-6.36,0-6.9,0-6.9-2.49,0-1.68.09-2.76,2.61-2.79,1.62,0,3.21-.06,4.8-.06,6,0,6.45,0,6.45,2.67S177.52,30.82,170.92,30.82Zm-.09,10.71c-5,0-5.64-.24-5.64-2.67,0-1.32.09-2.61,2.25-2.7,1,0,2.22-.06,3.42-.06s2.43,0,3.39.06c2.22.09,2.28,1.38,2.28,2.52C176.53,41.47,175.72,41.53,170.83,41.53Zm5.52-13.38c0-1.05-.06-1.41-1.35-1.41-1.56,0-3.12,0-4.68,0-1.14,0-2.28,0-3.42,0s-1.35.36-1.35,1.38c0,1.5,0,1.5,5.1,1.5,4.95,0,5.64,0,5.67-.84A3.8,3.8,0,0,0,176.35,28.15Zm-5.52,12.12c4.2,0,4.2,0,4.2-1.53a3.24,3.24,0,0,0,0-.57c-.09-.87-.12-.87-4.65-.87-.93,0-1.83,0-2.49,0-1.14,0-1.17.48-1.17,1.95C166.75,40.27,167.26,40.27,170.83,40.27Z"/><path class="cls-3" d="M188.59,26.8a.61.61,0,0,1-.66-.63.62.62,0,0,1,.66-.63h2l0-4.14a.69.69,0,0,1,.72-.72.72.72,0,0,1,.75.72l0,4.14,2.67,0,0-6a.69.69,0,0,1,.72-.72.72.72,0,0,1,.75.72v2.16h4a.61.61,0,0,1,.66.63.62.62,0,0,1-.66.63l-4,0,0,2.61,5,0a.61.61,0,0,1,.66.63.62.62,0,0,1-.66.63Zm2.07,1.83c0,1.32,0,3.81,0,6.24s0,4.89,0,6.15c.06,1.74,1,1.77,4.44,1.77,2.94,0,4.23,0,4.29-1.8,0-.9.06-2.58.06-4.44,0-2.91,0-6.27-.06-7.89a.65.65,0,0,1,.69-.66.63.63,0,0,1,.66.66c0,1.35.06,3.84.06,6.33s0,4.92-.06,6.27A2.58,2.58,0,0,1,198,44c-.9.06-1.92.06-2.94.06s-2.07,0-3-.06a2.57,2.57,0,0,1-2.73-2.67c0-1.41,0-3.93,0-6.45s0-5,0-6.3A.65.65,0,0,1,190,28a.63.63,0,0,1,.69.63Zm4,7.17c-.12.21-2.22,3.84-3.06,3.84a.58.58,0,0,1-.42-1,17.31,17.31,0,0,0,3.24-4.41l-2.52,0a.55.55,0,0,1-.57-.57.54.54,0,0,1,.57-.54l2.73,0V31.48l-.06-3.21a.56.56,0,0,1,.63-.54.55.55,0,0,1,.6.54l0,3.33v1.56l2.43,0a.52.52,0,0,1,.54.54.53.53,0,0,1-.54.57l-2.43,0v2l0,4.92a.56.56,0,0,1-.6.57.57.57,0,0,1-.63-.57Zm-1.68-4a8.75,8.75,0,0,0-1.2-1.62.48.48,0,0,1-.15-.3c0-.27.33-.48.63-.48.6,0,1.65,1.83,1.65,1.83a.54.54,0,0,1,.06.3.59.59,0,0,1-.57.57A.44.44,0,0,1,193,31.81Zm4.83,6.12a6.52,6.52,0,0,0-1.74-1.56.41.41,0,0,1-.18-.3.56.56,0,0,1,.57-.54c.36,0,2.37,1.29,2.37,2a.63.63,0,0,1-.63.63A.47.47,0,0,1,197.8,37.93Zm-1.53-6.21a.48.48,0,0,1,.09-.24,13.59,13.59,0,0,0,1-1.86.47.47,0,0,1,.45-.3.63.63,0,0,1,.66.57c0,.24-1,2.28-1.65,2.28A.51.51,0,0,1,196.27,31.72Zm16.32-3.21A40.25,40.25,0,0,1,208,21.76c-.21-.39-.45-.63-.69-.63s-.39.18-.57.63a31.58,31.58,0,0,1-3.72,6.48,1,1,0,0,1-.78.42.73.73,0,0,1-.75-.69.94.94,0,0,1,.24-.57,25.39,25.39,0,0,0,3.93-6.66,1.75,1.75,0,0,1,1.59-1.14A2,2,0,0,1,209,20.71a34,34,0,0,0,4.89,6.75.7.7,0,0,1,.21.51.84.84,0,0,1-1.5.54ZM205.66,33c-1.2,0-2.4,0-3.33,0a.63.63,0,0,1-.66-.66.68.68,0,0,1,.69-.69c2.07,0,4.59-.06,6.66-.06h1c1.8,0,2.52.84,2.58,2.31,0,.69.06,2.16.06,3.39,0,2.16-.09,3.93-2.58,3.93-1,0-1.71-.09-1.71-.81a.64.64,0,0,1,.6-.69h.12a5.56,5.56,0,0,0,1,.12c1,0,1.08-.78,1.08-2.31,0-1.14,0-2.67,0-3.33,0-.87-.3-1.26-1.41-1.26h-2.55l0,11.22a.78.78,0,0,1-1.56,0Zm-.84-4.23a.66.66,0,0,1,0-1.32h5.37a.66.66,0,0,1,0,1.32Z"/><path class="cls-3" d="M239.83,34.57a.73.73,0,0,1,.81-.72.86.86,0,0,1,.9.78c0,.93.06,2.13.06,3.3,0,.75,0,1.47,0,2.1a3.36,3.36,0,0,1-3.6,3.51c-2.22.06-5.13.09-7.89.09-2.49,0-4.89,0-6.66-.09a3.08,3.08,0,0,1-3.3-3.42c0-.84,0-1.8,0-2.79s0-2,0-2.76a.81.81,0,0,1,.84-.81.78.78,0,0,1,.84.72v0c0,1.05,0,2.61,0,3.87,0,2.49,0,3.57,2.28,3.66,1.56.06,3.63.09,5.79.09V31.21c-1.83,0-3.6,0-5.25-.09-2.13-.09-3.3-1.17-3.33-3.36,0-.84,0-1.68,0-2.55s0-1.71,0-2.52a.77.77,0,0,1,.84-.78.76.76,0,0,1,.84.72v0c0,1,0,2.34,0,3.45,0,2.52.09,3.48,2.28,3.57,1.47.06,3.06.09,4.65.09l0-9.78a.82.82,0,0,1,.9-.78.81.81,0,0,1,.87.78l0,9.78c1.65,0,3.3,0,4.77-.09,2.46-.09,2.46-1.56,2.46-3.9,0-1-.06-2.13-.09-3v0a.76.76,0,0,1,.84-.69.79.79,0,0,1,.87.78c0,.75.06,1.56.06,2.37s0,1.65-.06,2.49c-.06,2.25-1.44,3.36-3.6,3.45-1.74.06-3.51.09-5.25.09V42.13c2.22,0,4.35,0,5.91-.09,2.4-.09,2.46-1.44,2.46-4.08,0-1.2-.06-2.46-.09-3.36Z"/><path class="cls-3" d="M262.6,28.09a20.7,20.7,0,0,0,2-3.78.71.71,0,0,1,.69-.48.86.86,0,0,1,.9.78,15.56,15.56,0,0,1-2,3.48c2.49,0,5,0,7.53,0a.65.65,0,0,1,.69.66.65.65,0,0,1-.66.66c-2,0-4.11,0-6.15,0-4.08,0-8,0-11.55,0a1.59,1.59,0,0,0-1.71,1.68v1.77c0,3.39-.24,7.77-2.91,10.8a1,1,0,0,1-.78.39.78.78,0,0,1-.81-.75.85.85,0,0,1,.27-.6c2.4-2.49,2.7-6.09,2.7-9.24,0-.93,0-1.86,0-2.67a2.7,2.7,0,0,1,3-2.7l4.2,0A11,11,0,0,0,255.52,25a.46.46,0,0,1-.18-.33c0-.33.45-.63.87-.63.84,0,3.09,2.76,3.09,3.51a.72.72,0,0,1-.21.51Zm-11.22-5a.65.65,0,0,1-.66-.69.64.64,0,0,1,.66-.69h8.73V19.24a.76.76,0,0,1,.84-.72.75.75,0,0,1,.81.72l0,2.49h8.46a.65.65,0,0,1,.66.69.64.64,0,0,1-.66.69Zm2.37,20.79a.69.69,0,0,1,0-1.38l8.07,0V39.19l-4.92,0a.61.61,0,0,1-.66-.63.62.62,0,0,1,.66-.63l4.92,0V34.9l-4.65,0c-1.86,2.88-2.4,3.06-2.7,3.06a.72.72,0,0,1-.72-.69.73.73,0,0,1,.24-.54,17.93,17.93,0,0,0,3.51-5.46.71.71,0,0,1,.66-.45.77.77,0,0,1,.81.69,10.72,10.72,0,0,1-1,2.13l3.87,0V31.15a.72.72,0,0,1,.75-.72.7.7,0,0,1,.75.72v2.49h6.57a.61.61,0,0,1,.63.63.62.62,0,0,1-.63.66l-6.57,0,0,3.09,5.49,0a.6.6,0,0,1,.63.63.61.61,0,0,1-.63.63l-5.49,0v3.36l8.34,0a.69.69,0,0,1,0,1.38Z"/><path class="cls-4" d="M33.1,79.56v.92H27.86v3.21h-1V80.49H20.27v-.92h2.35V75.71H26.9v-2.3H23.29A13.06,13.06,0,0,1,21,76.24a5.54,5.54,0,0,0-.76-.62,12.89,12.89,0,0,0,3.26-5l1.19.38a.26.26,0,0,1-.32.13,13.3,13.3,0,0,1-.63,1.36h8.63v.92H27.86v2.3h4.26v.9H27.86v3Zm-9.52,0H26.9v-3H23.57Z"/><path class="cls-4" d="M41.49,74.83a12.47,12.47,0,0,0,2.27-4.16l1.16.06a.27.27,0,0,1-.18.18,13.18,13.18,0,0,0,2.84,4.27,6.09,6.09,0,0,0-.52.88,14.17,14.17,0,0,1-2.83-4.34,14.06,14.06,0,0,1-1.83,3.38h3.71v.84H42.4v-.84a9.41,9.41,0,0,1-1,1.11,2.34,2.34,0,0,0-.17-.32s-.08.06-.17.07v7.59h-.78V82.7H35.81v1H35v-8l1,.07c0,.08-.08.15-.25.18v6h4.51V75.7l.88.06a2.73,2.73,0,0,0-.25-.36l.24-.22H34.52v-.83h1V71.49l1.09.08c0,.08-.08.15-.27.18v2.58h1.44V70.67l1.15.08c0,.08-.08.15-.27.18V72H41v.78H38.71v1.54h2.79Zm-3.74,4.51a6.58,6.58,0,0,1-1.46,2,3.77,3.77,0,0,0-.34-.62,6.19,6.19,0,0,0,1.47-1.88h-1.3v-.64h1.63V75.82l.88.07c0,.08-.07.14-.24.17v2.1H40v.64H38.4v.14c.35.29,1.39,1.18,1.65,1.42l-.41.5c-.24-.28-.81-.85-1.25-1.26v2h-.64Zm-1-3.22a4.63,4.63,0,0,1,.63,1.5l-.55.18a4.88,4.88,0,0,0-.59-1.51Zm3.4.25c0,.08-.13.13-.25.13-.17.38-.43.94-.67,1.36l-.49-.2a10.81,10.81,0,0,0,.7-1.54ZM47,81.19c0,.45-.08.71-.41.87a4.17,4.17,0,0,1-1.65.17,4.14,4.14,0,0,0-.29-.85h1.27c.17,0,.21-.07.21-.2V78.3h-2v5.39h-.9V78.3H41.75v-.84H47Z"/><path class="cls-4" d="M52,71.72c0,.15-.18.24-.46.22a33.6,33.6,0,0,0-.74,6.3A15.42,15.42,0,0,0,51,81c.27-.69.87-2.16,1.06-2.65l.59.62c-.57,1.42-1,2.21-1.19,2.84a2.41,2.41,0,0,0-.11.66,1.49,1.49,0,0,0,.07.43l-1,.18a15.38,15.38,0,0,1-.62-4.82,41,41,0,0,1,.74-6.82ZM61,82c-.5,0-1,0-1.54,0a19.28,19.28,0,0,1-2.61-.15c-1.72-.25-2.52-1.2-2.52-2.33a4.28,4.28,0,0,1,1.32-2.7l.91.39a3.31,3.31,0,0,0-1.19,2.2C55.34,81,57.72,81,59.18,81c.59,0,1.22,0,1.81-.07ZM54.48,73.4a45.71,45.71,0,0,0,6.11-.53l.08,1a52.94,52.94,0,0,1-6.16.52Z"/><path class="cls-4" d="M65,75.63A16.56,16.56,0,0,1,63.26,78a7,7,0,0,0-.49-.88,18.65,18.65,0,0,0,3.5-6.3l1.12.38c-.06.1-.15.14-.32.13a25.42,25.42,0,0,1-1.29,2.9l.38.1c0,.08-.1.15-.28.17v9.29H65ZM76.1,78.79v.88H71.79v4h-.94v-4H66.68v-.88h4.17V76.16H67.27v-.88h3.59V70.84l1.22.08c0,.1-.08.17-.28.2v4.16h3.74v.88H71.79v2.63Zm-7.79-7.37a14.35,14.35,0,0,1,1.34,3l-.85.38a14,14,0,0,0-1.29-3.05Zm4.59,3a21,21,0,0,0,1.47-3.15l1.11.48c0,.08-.15.11-.31.11a23.2,23.2,0,0,1-1.54,2.91Z"/><path class="cls-4" d="M77.93,75.84a31.83,31.83,0,0,1,5.8-1.15c2.1,0,3.33,1.12,3.33,3.19V78c0,2.55-2,4.41-6.05,5.49a5.6,5.6,0,0,0-.63-.85C84,81.78,86,80.1,86,78a2.07,2.07,0,0,0-2.31-2.31,19.41,19.41,0,0,0-5.07,1.11c0,.11-.13.25-.27.32Zm2-4.85a25.88,25.88,0,0,1,5.63,1.09l-.29,1a26.34,26.34,0,0,0-5.58-1.12Z"/><path class="cls-4" d="M101,73.9a27.21,27.21,0,0,1-4.66.77c.55,1.9,1.13,3,2.65,3.7l-.69.85a4.82,4.82,0,0,0-3.12-1L95,77.43a13.69,13.69,0,0,1,1.56.21,7.58,7.58,0,0,1-1.25-2.9c-.63.06-1.48.08-2.33.08s-2.4,0-3.29,0v-1c.84,0,2,0,3.31,0,.71,0,1.53,0,2.09-.07-.17-.76-.32-1.79-.49-2.87l1.5,0c0,.17-.14.27-.36.32.08.8.22,1.68.38,2.45a23.82,23.82,0,0,0,4.66-.83Zm-2.51,9.22c-.67,0-1.39,0-2.6,0-2.93,0-5-.9-5-2.77A3.47,3.47,0,0,1,92.14,78l.76.6a2.46,2.46,0,0,0-1,1.72c0,1.39,1.79,1.83,4,1.83,1.22,0,1.93,0,2.65-.07Z"/><path class="cls-4" d="M103,72.85c.87.06,2,.06,3,.06l1.93,0c0-.67,0-1.46,0-1.95l1.41.07c0,.17-.14.25-.38.29,0,.22,0,1.3,0,1.54a27.53,27.53,0,0,0,4.65-.55l.13.92a28.71,28.71,0,0,1-4.78.53c0,.84,0,1.71.06,2.58a23.55,23.55,0,0,0,4-.55l.11.91a26.75,26.75,0,0,1-4,.49l.11,2.34a15.56,15.56,0,0,1,4.12,2.19l-.62.85a13.65,13.65,0,0,0-3.47-2.06c0,.22,0,.48,0,.66,0,1.33-.81,2.1-2.51,2.1s-3.08-.73-3.08-2,1.53-2.09,3.1-2.09a6.14,6.14,0,0,1,1.47.17c0-.6,0-1.33-.06-2.09l-1.36,0c-2.4,0-3.07-.38-3.07-1.19,0-.53.41-1,1.3-1.54l.67.43c-.63.35-1,.66-1,.94s.66.5,2.44.5h.94L108,73.78c-.6,0-1.3,0-1.93,0-.9,0-2.17,0-3,0Zm5.18,7.3a5.88,5.88,0,0,0-1.57-.22c-1.06,0-2.14.43-2.14,1.27s1,1.23,2.2,1.23,1.53-.49,1.53-1.47Z"/><path class="cls-4" d="M127.39,74a26.72,26.72,0,0,1-4.64.76c.53,1.88,1.13,3.05,2.6,3.7l-.69.85a5,5,0,0,0-3.12-1l-.17-.83a13.91,13.91,0,0,1,1.55.21,8.47,8.47,0,0,1-1.22-2.89c-.63,0-1.48.08-2.33.08s-2.4,0-3.29,0v-1c.84,0,2,0,3.31,0,.71,0,1.53,0,2.09-.07-.17-.77-.32-1.78-.48-2.86l1.5,0c0,.17-.14.27-.36.32a23.11,23.11,0,0,0,.36,2.44,22.68,22.68,0,0,0,4.66-.81Zm-2.44,9.25c-.67,0-1.39,0-2.6,0-2.93,0-5-.9-5-2.76a3.45,3.45,0,0,1,1.26-2.35l.76.59a2.48,2.48,0,0,0-1,1.72c0,1.39,1.79,1.83,4,1.83,1.22,0,1.93,0,2.65-.06Zm-.32-12.66a10.08,10.08,0,0,1,1.64,1.89l-.56.39A11.26,11.26,0,0,0,124.12,71Zm1.95-.36a9.88,9.88,0,0,1,1.65,1.92l-.55.41a9.93,9.93,0,0,0-1.6-1.92Z"/><path class="cls-4" d="M130.21,72.85c.87.06,2,.06,3,.06l1.93,0c0-.67,0-1.46,0-1.95l1.41.07c0,.17-.14.25-.38.29,0,.22,0,1.3,0,1.54a27.53,27.53,0,0,0,4.65-.55l.13.92a28.71,28.71,0,0,1-4.78.53c0,.84,0,1.71.06,2.58a23.55,23.55,0,0,0,4-.55l.11.91a26.75,26.75,0,0,1-4,.49l.11,2.34a15.56,15.56,0,0,1,4.12,2.19l-.62.85a13.65,13.65,0,0,0-3.47-2.06c0,.22,0,.48,0,.66,0,1.33-.81,2.1-2.51,2.1s-3.08-.73-3.08-2,1.53-2.09,3.1-2.09a6.14,6.14,0,0,1,1.47.17c0-.6,0-1.33-.06-2.09l-1.36,0c-2.4,0-3.07-.38-3.07-1.19,0-.53.41-1,1.3-1.54l.67.43c-.63.35-1,.66-1,.94s.66.5,2.44.5h.94l-.08-2.59c-.6,0-1.3,0-1.93,0-.9,0-2.17,0-3,0Zm5.18,7.3a5.88,5.88,0,0,0-1.57-.22c-1.06,0-2.14.43-2.14,1.27s1,1.23,2.2,1.23,1.53-.49,1.53-1.47Z"/><path class="cls-4" d="M148.3,71.09a.46.46,0,0,1-.43.24c-.1.62-.22,1.34-.35,1.89a19.33,19.33,0,0,0,4.12-.69l.15,1a28.17,28.17,0,0,1-4.45.67,20.8,20.8,0,0,1-3,6.89l-.94-.38a18.66,18.66,0,0,0,2.84-6.49h-2.79v-.91h3a23.08,23.08,0,0,0,.39-2.37Zm3.73,6c0,1.13.1,1.9.18,2.87a14.32,14.32,0,0,1,3,1.63l-.5.9A13.23,13.23,0,0,0,152.21,81c0,1.4-.56,2.49-2.62,2.49-1.55,0-2.75-.7-2.73-2s1.47-2.07,2.76-2.07a6,6,0,0,1,1.58.25c-.06-.9-.13-1.81-.13-2.47Zm-.77,3.5a4.67,4.67,0,0,0-1.67-.32c-.84,0-1.83.34-1.85,1.2s.78,1.18,1.88,1.18,1.65-.49,1.65-1.41C151.27,81,151.27,80.77,151.25,80.56Zm3.84-4.94a20,20,0,0,0-5,.69l-.15-.88a19.58,19.58,0,0,1,5.06-.76Z"/><path class="cls-4" d="M158.69,78.82V72l1.33.08c0,.13-.11.22-.34.25v6.47Zm7.8-7.35c0,.14-.11.21-.34.24v4.45c0,2.94-1,5.63-5,7.19a4.1,4.1,0,0,0-.73-.76c3.88-1.44,4.75-3.84,4.75-6.43V71.38Z"/><path class="cls-4" d="M178.78,72.52a.29.29,0,0,1-.18.15,21.67,21.67,0,0,1-2.8,4.82,51.45,51.45,0,0,1,5.13,4.75l-.85.74a45.82,45.82,0,0,0-4.92-4.71A22,22,0,0,1,169.76,83a5.26,5.26,0,0,0-.73-.76,20.08,20.08,0,0,0,8.21-9.15h-6.88v-1h7.42l.18-.07Z"/><path class="cls-4" d="M193,73.74a.93.93,0,0,1-.21.2c-1.47,4.54-3.77,7.45-7.63,9.41a3.68,3.68,0,0,0-.71-.77,13.16,13.16,0,0,0,7.1-8.29h-5a14.36,14.36,0,0,1-3.14,3.46,5.56,5.56,0,0,0-.8-.64A14.24,14.24,0,0,0,187.05,71l1.33.38c-.06.14-.22.18-.41.18-.28.62-.57,1.2-.9,1.76H192l.17-.08Z"/><path class="cls-4" d="M206.88,76.68l-.08,0a.35.35,0,0,1-.21-.08c-1.06.35-2.62.92-3.78,1.43q0,.48,0,1.09c0,.45,0,1,0,1.5l-1,.06c0-.5.07-1.15.07-1.69,0-.21,0-.41,0-.56-1.58.77-2.87,1.71-2.87,2.55s1,1.2,2.9,1.2a31.44,31.44,0,0,0,3.52-.14V83c-.83.08-2.09.11-3.53.11-2.69,0-3.88-.64-3.88-2.07,0-1.23,1.63-2.42,3.73-3.47-.08-.88-.48-1.32-1-1.32-1,0-2.09.57-3.35,2-.39.43-.94,1-1.54,1.53l-.69-.69a9.83,9.83,0,0,0,3.53-5.17h-3.12V73h3.38a18.21,18.21,0,0,0,.38-2l1.37.17c0,.14-.14.22-.35.25-.1.56-.22,1.05-.35,1.56a19.18,19.18,0,0,0,4.82-.81l.17.94a21.16,21.16,0,0,1-5.25.78,10.19,10.19,0,0,1-1,2.37h0a3.73,3.73,0,0,1,2.25-.91c1,0,1.56.69,1.74,1.82,1.18-.53,2.66-1.11,3.78-1.54Z"/><path class="cls-4" d="M213.93,73v.78h-5.35V73Zm-.49,5.71v4.12h-3.38v.66h-.84V78.76Zm-4.2-3V75h4.22v.77Zm0,1.91v-.77h4.22v.77Zm4.17-6.44V72h-4.09v-.77Zm-.81,8.38h-2.54v2.52h2.54Zm9-.25v.87h-3.4v3.52h-.94V80.18h-3.47v-.87h3.47V77.17h-2.72v-.85h2.72v-2h-3V73.4H216A11.16,11.16,0,0,0,214.93,71l.76-.29a10.48,10.48,0,0,1,1.15,2.44l-.5.21h2.86l-.48-.21a16,16,0,0,0,1.15-2.54l1.08.41a.29.29,0,0,1-.29.14,21.88,21.88,0,0,1-1.13,2.2h1.93v.88h-3.19v2H221v.85h-2.8v2.14Z"/><path class="cls-4" d="M226.14,71.28c0,.17-.15.27-.43.31-.11,1.63-.25,5.34-.25,7.41s1,3.1,2.8,3.1a6.82,6.82,0,0,0,5-2.66,5.6,5.6,0,0,0,.63.83,7.6,7.6,0,0,1-5.69,2.84c-2.55,0-3.85-1.47-3.85-4.12,0-1.76.13-6.11.22-7.83Z"/><path class="cls-4" d="M242.91,83.58a42.55,42.55,0,0,0-5.49-5.21c-.7-.56-1-1-1-1.46a1.79,1.79,0,0,1,.74-1.27c1.27-1.18,3.67-3.45,5-4.82l1.19.78a.41.41,0,0,1-.31.14l-.17,0c-1.4,1.34-3.59,3.25-4.73,4.33-.34.32-.6.6-.6.83s.25.52.74.88a46.61,46.61,0,0,1,5.53,5.08Z"/><path class="cls-4" d="M251,73.08v.8h-5.14v-.8Zm-.45,5.83V83h-3.22v.66h-.83V78.9Zm0-3.87v.77h-4V75Zm-4,2.7V77h4v.77Zm4-6.56V72h-3.87v-.77Zm-.76,8.52h-2.38v2.52h2.38Zm4.62-1.19c0,.1-.11.15-.28.18-.22,2.06-.71,3.94-2.84,5a2.46,2.46,0,0,0-.6-.73c1.92-.88,2.37-2.54,2.52-4.57Zm2.09,3.73c0,.36.06.42.38.42h1c.35,0,.42-.28.45-2.23a3.3,3.3,0,0,0,.81.38c-.07,2.17-.29,2.7-1.16,2.7H256.7c-.92,0-1.15-.29-1.15-1.27V78h-3.87V73.36h6.7V78h-1.82a.26.26,0,0,1-.11,0Zm-3.6-11.5A9.11,9.11,0,0,1,254,73c-.46.2-.67.27-.88.34A9.92,9.92,0,0,0,252,71Zm-.25,3.46v3h4.83v-3Zm5.67-3.14c0,.08-.14.13-.28.11a18.92,18.92,0,0,1-1.15,2.17l-.76-.32a17.07,17.07,0,0,0,1.05-2.37Z"/><path class="cls-4" d="M265.44,80h-3.71v1.34h-.88V71.56h4.59Zm-.88-7.56h-2.83v2.84h2.83Zm-2.83,6.7h2.83v-3h-2.83Zm11.08-7.83V82.39c0,.63-.15.94-.59,1.09a8.83,8.83,0,0,1-2.44.18,3.67,3.67,0,0,0-.35-.94l1.32,0c1,0,1.13,0,1.13-.36V79.13h-4.37a7.38,7.38,0,0,1-2.66,4.65,3.43,3.43,0,0,0-.7-.64c2.42-1.86,2.66-4.57,2.66-6.79v-5Zm-5.07,5a18.47,18.47,0,0,1-.1,1.92h4.24V75.63h-4.15Zm4.15-4.16h-4.15v2.58h4.15Z"/><path class="cls-4" d="M277.8,71.28c0,.17-.15.27-.43.31-.11,1.63-.25,5.34-.25,7.41s1,3.1,2.8,3.1a6.82,6.82,0,0,0,5-2.66,5.6,5.6,0,0,0,.63.83,7.6,7.6,0,0,1-5.69,2.84c-2.55,0-3.85-1.47-3.85-4.12,0-1.76.13-6.11.22-7.83Z"/><path class="cls-4" d="M287.43,72.85c.87.06,2,.06,3,.06l1.93,0c0-.67,0-1.46,0-1.95l1.41.07c0,.17-.14.25-.38.29,0,.22,0,1.3,0,1.54a27.53,27.53,0,0,0,4.65-.55l.13.92a28.71,28.71,0,0,1-4.78.53c0,.84,0,1.71.06,2.58a23.55,23.55,0,0,0,4-.55l.11.91a26.75,26.75,0,0,1-4,.49l.11,2.34a15.56,15.56,0,0,1,4.12,2.19l-.62.85a13.64,13.64,0,0,0-3.47-2.06c0,.22,0,.48,0,.66,0,1.33-.81,2.1-2.51,2.1s-3.08-.73-3.08-2,1.53-2.09,3.1-2.09a6.14,6.14,0,0,1,1.47.17c0-.6,0-1.33-.06-2.09l-1.36,0c-2.4,0-3.07-.38-3.07-1.19,0-.53.41-1,1.3-1.54l.67.43c-.63.35-1,.66-1,.94s.66.5,2.44.5h.94l-.08-2.59c-.6,0-1.3,0-1.93,0-.9,0-2.17,0-3,0Zm5.18,7.3a5.88,5.88,0,0,0-1.57-.22c-1.06,0-2.14.43-2.14,1.27s1,1.23,2.2,1.23,1.53-.49,1.53-1.47Z"/><path class="cls-4" d="M307,73c0-.31-.06-1.83-.08-2.19l1.44.06c0,.11-.11.25-.36.29,0,.17,0,.34,0,1.81,1.72-.06,3.53-.1,4.58-.11v1c-1.19,0-2.89,0-4.55.06,0,1.09.06,2.1.1,2.87a4.78,4.78,0,0,1,.17,1.47,6,6,0,0,1-.14,1.36c-.36,1.64-1.57,3.08-4,4.06a7.63,7.63,0,0,0-.71-.8c2.14-.77,3.29-1.93,3.64-3.26h0a1.76,1.76,0,0,1-1.44.74,2.39,2.39,0,0,1-2.35-2.45,2.58,2.58,0,0,1,2.52-2.62,2.07,2.07,0,0,1,1.3.43c0-.24,0-1.18-.06-1.78-1.46,0-5.88.18-6.46.21l0-.92,3.19-.08Zm.27,4.92c0-.55,0-1.82-1.43-1.82a1.69,1.69,0,0,0-1.67,1.78,1.57,1.57,0,0,0,1.55,1.63A1.51,1.51,0,0,0,307.28,77.91Z"/><path class="cls-4" d="M316.82,81.73a2,2,0,1,1-2-2A2,2,0,0,1,316.82,81.73Zm-.5,0a1.45,1.45,0,1,0-1.46,1.44A1.45,1.45,0,0,0,316.31,81.73Z"/></g></g></svg>