<svg xmlns="http://www.w3.org/2000/svg" viewBox="0 0 460 150"><defs><style>.cls-1{fill:#782341;}.cls-2{fill:#934f67;}.cls-3{fill:#f5f5f5;stroke:#f5f5f5;stroke-miterlimit:10;}.cls-4{fill:#fff;}</style></defs><title>Genetics03</title><g id="レイヤー_2" data-name="レイヤー 2"><g id="文字"><rect class="cls-1" y="0.7" width="460" height="149.3" rx="5" ry="5"/><rect class="cls-2" width="460" height="132.97" rx="5" ry="5"/><path class="cls-3" d="M38.53,27.82a21.88,21.88,0,0,0,1.41,5.85,27.64,27.64,0,0,0,4.44-3.12.66.66,0,0,1,.45-.18,1,1,0,0,1,.9.87.82.82,0,0,1-.36.63,32.12,32.12,0,0,1-4.92,3c1.35,2.76,3.39,5.1,6.15,6a.8.8,0,0,1,.6.75.82.82,0,0,1-.87.81,1,1,0,0,1-.39-.06c-4.89-1.71-8.19-8.61-8.73-14.58H35.32c-.84.69-1.65,1.32-2.49,1.89,2.76,1.86,4.44,6.06,4.44,9.45,0,2.43-.84,5.58-4.77,5.58-1.5,0-2.58-.15-2.58-1a.7.7,0,0,1,.72-.75.74.74,0,0,1,.24,0,8.66,8.66,0,0,0,1.74.24c2.4,0,3.15-2.13,3.15-4.35a10.83,10.83,0,0,0-.27-2.37,25.8,25.8,0,0,1-12,6.45.69.69,0,0,1-.72-.72.7.7,0,0,1,.57-.72,24.65,24.65,0,0,0,11.76-6.39,12.07,12.07,0,0,0-.9-2A28,28,0,0,1,23.71,38a.73.73,0,0,1-.69-.75.63.63,0,0,1,.51-.63,25.64,25.64,0,0,0,10-4.59,7.07,7.07,0,0,0-1.77-1.65,22.78,22.78,0,0,1-7.32,2.94.69.69,0,0,1-.69-.75.63.63,0,0,1,.48-.63,25,25,0,0,0,9.24-4.17l-6,.06a.63.63,0,0,1-.69-.63.66.66,0,0,1,.69-.69H41.89a.66.66,0,1,1,0,1.32Zm6-2.67c0-1-.45-1.68-2-1.68-2.22,0-5.1,0-7.95,0s-5.64,0-7.74,0c-1.71,0-2,.69-2,1.62v2.16a.73.73,0,0,1-.81.69c-.78,0-.84-.36-.84-1.89,0-.45,0-.9,0-1.35,0-1.17.78-2.49,3.12-2.52,2.55,0,5,0,7.56,0V19.51a.8.8,0,0,1,.87-.78.79.79,0,0,1,.84.78l0,2.64c2.52,0,5,0,7.59,0,2,0,3.06,1.17,3.09,2.61,0,.36,0,.78,0,1.23,0,1.41,0,1.86-.9,1.86-.42,0-.81-.21-.81-.66Z"/><path class="cls-3" d="M57.4,25.09h-.15c0,1.26-.09,2.58-.21,4h2.34a2.3,2.3,0,0,1,2.43,2.43v.06c-.21,7.14-.72,12.12-4.68,12.12-.6,0-2.43-.15-2.43-1.14a.71.71,0,0,1,.66-.75,1,1,0,0,1,.36.09,3.55,3.55,0,0,0,1.38.33c2,0,3.15-2.4,3.24-10.29,0-1.47-1.17-1.56-2.34-1.56-.33,0-.72,0-1.08,0-.51,5.13-1.71,10.38-4.44,13.53a.89.89,0,0,1-.69.33.78.78,0,0,1-.84-.69.72.72,0,0,1,.18-.45c3.75-4.62,4.53-12,4.62-18l-3.27,0a.66.66,0,0,1-.72-.66.72.72,0,0,1,.75-.75l4.11,0,0-4.11a.73.73,0,0,1,.78-.75.74.74,0,0,1,.81.75l0,4.11,4,0a.66.66,0,0,1,.69.69.67.67,0,0,1-.69.72ZM66,24.31a22.66,22.66,0,0,1-2.67,3.87,1,1,0,0,1-.81.39.68.68,0,0,1-.72-.66,1,1,0,0,1,.3-.66,19.66,19.66,0,0,0,4.32-7.77.76.76,0,0,1,.75-.57.83.83,0,0,1,.87.78,16.79,16.79,0,0,1-1.32,3.24l9.9-.06a.72.72,0,0,1,0,1.44ZM70.93,36a11.63,11.63,0,0,0,6.42,7,.74.74,0,0,1,.51.69.84.84,0,0,1-.87.84c-1.11,0-5.28-2.73-6.9-7.17a10.16,10.16,0,0,1-7.26,7.41A.84.84,0,0,1,62,43.9a.74.74,0,0,1,.6-.69A8.82,8.82,0,0,0,69,36l-5.37.06a.66.66,0,1,1,0-1.32H69.1v-.06c.06-.63.06-3.12.06-4.17h-2.4c-1.62,2.7-2.19,2.82-2.43,2.82a.76.76,0,0,1-.78-.69.69.69,0,0,1,.21-.48,15.31,15.31,0,0,0,3.39-6.06.59.59,0,0,1,.6-.39c.42,0,.87.27.87.69a12.93,12.93,0,0,1-1.14,2.79l7.62,0a.63.63,0,0,1,.66.66.64.64,0,0,1-.66.69H70.69c0,1-.06,3.51-.12,4.2v0H76.3a.66.66,0,1,1,0,1.32Z"/><path class="cls-3" d="M81.34,31.12a1.14,1.14,0,0,1,.18-.54,10.07,10.07,0,0,0,1.26-5,.61.61,0,0,1,.66-.66.78.78,0,0,1,.84.78c0,1.71-.84,6.09-2.19,6.09A.71.71,0,0,1,81.34,31.12ZM86,19.9a.76.76,0,0,1,.84-.75.75.75,0,0,1,.81.75V44.08a.75.75,0,0,1-.81.72.76.76,0,0,1-.84-.72Zm4,7.59a12.52,12.52,0,0,0-1.68-2.76.63.63,0,0,1-.15-.36.66.66,0,0,1,.69-.57c.75,0,2.55,2.49,2.55,3.27a.83.83,0,0,1-.81.84A.63.63,0,0,1,90,27.49ZM91.15,43.6a.68.68,0,0,1-.75-.69.72.72,0,0,1,.75-.72l7.5,0v-7l-4.8,0a.68.68,0,0,1-.75-.69.72.72,0,0,1,.75-.72l4.8,0V27.79l-4.38,0a23.87,23.87,0,0,1-2.52,4.62.86.86,0,0,1-.75.45.76.76,0,0,1-.75-.75.68.68,0,0,1,.15-.45,21.27,21.27,0,0,0,3.84-9.6.78.78,0,0,1,.78-.72.81.81,0,0,1,.84.78,22.8,22.8,0,0,1-1.08,4.26l3.87,0V20a.76.76,0,0,1,.78-.78.76.76,0,0,1,.81.78v6.45l6,0a.69.69,0,0,1,.72.72.68.68,0,0,1-.72.69l-6,0v6.12l4.77,0a.71.71,0,1,1,0,1.41l-4.77,0v7l6.93,0a.71.71,0,1,1,0,1.41Z"/><path class="cls-3" d="M117.61,29.89a28.6,28.6,0,0,1-3.12.24.76.76,0,0,1-.81-.75.8.8,0,0,1,.78-.81c1,0,1.92,0,3-.12l2-.21a52.34,52.34,0,0,0,1.17-5.49.84.84,0,0,1,.87-.75.81.81,0,0,1,.84.81,34.2,34.2,0,0,1-1.14,5.25c2.34-.21,2.37-.21,2.46-.21,2.82,0,3.48,2.07,3.48,4.35,0,7.29-2.79,9.87-5.82,9.87-1.17,0-2.73-.3-2.73-1.2a.81.81,0,0,1,.84-.81.82.82,0,0,1,.27,0,6,6,0,0,0,1.71.27c3.69,0,4.14-5.85,4.14-8,0-1.92-.36-3.06-2.16-3.06-.45,0-1.26.06-2.58.21a44.7,44.7,0,0,1-6,12.42,1.3,1.3,0,0,1-1,.6.79.79,0,0,1-.87-.75,1.29,1.29,0,0,1,.39-.87c2.07-2.34,4.32-6.72,5.79-11.19Zm17.46,3.93a11.58,11.58,0,0,0-5-5.61.61.61,0,0,1-.36-.54.76.76,0,0,1,.78-.72c1.44,0,6.24,4.62,6.24,6.51a.91.91,0,0,1-.87,1A.83.83,0,0,1,135.07,33.82Zm-.9-7.35a9.86,9.86,0,0,0-3-2,.56.56,0,0,1-.39-.51.71.71,0,0,1,.75-.63c.6,0,3.87,1.53,3.87,2.67a.79.79,0,0,1-.72.78A.67.67,0,0,1,134.17,26.47Zm2.4-2.28a10.14,10.14,0,0,0-3.06-2,.58.58,0,0,1-.42-.54.72.72,0,0,1,.78-.63c.54,0,3.93,1.41,3.93,2.61a.76.76,0,0,1-.72.78A.63.63,0,0,1,136.57,24.19Z"/><path class="cls-3" d="M153,39.34c0-1.26.15-2.07.15-3.18,0-.9-.09-2.76-2.1-2.76a7,7,0,0,0-4.92,2.94,21.35,21.35,0,0,0-1.95,4.17c-.6,1.92-.78,2.28-1.56,2.28a.86.86,0,0,1-.9-.87c0-.63,1.68-4.65,4.95-9.75,5.55-8.64,6.21-9.75,6.54-10.35a.91.91,0,0,1,1.74.39c0,.36-.27,1-1.89,3.12a89.81,89.81,0,0,0-5.4,8s0,.06,0,.06a.88.88,0,0,0,.3-.18A5.8,5.8,0,0,1,151.36,32c3.39,0,3.42,3.24,3.42,3.87,0,1-.18,2.22-.18,3.15,0,1.74.93,2.34,2.07,2.34s4.38-.57,6.54-6a1,1,0,0,1,.9-.69,1,1,0,0,1,1,1c0,1-3.42,7.44-8.61,7.44-2,0-3.51-1.08-3.51-3.72Z"/><path class="cls-3" d="M175.09,44.77a.84.84,0,0,1-.69-.39,13,13,0,0,0-4.35-3.57.76.76,0,0,1-.45-.66.75.75,0,0,1,.78-.75c1,0,5.58,3.15,5.58,4.53A.84.84,0,0,1,175.09,44.77Z"/><path class="cls-3" d="M185.65,32.53a.68.68,0,0,1-.69-.72.72.72,0,0,1,.72-.75h1.83c1.68,0,3.63,0,3.63,2.46,0,1.77-.09,3.75-.09,5.94C193.15,42.1,196,43,201.16,43c3,0,6.24-.33,8.61-.51h.09a.8.8,0,0,1,.84.81.89.89,0,0,1-.9.84,76.49,76.49,0,0,1-7.65.39c-6.15,0-8.82-.6-11.85-3.93-2.07,2.34-4.44,3.78-4.89,3.78a.91.91,0,0,1-.87-.87.81.81,0,0,1,.45-.69,16,16,0,0,0,4.53-3.48c0-1.23.06-2.37.06-3.45,0-.75,0-1.44,0-2.1,0-.84-.36-1.26-1.38-1.29Zm4.56-7.68a12.17,12.17,0,0,0-3.69-3.12.5.5,0,0,1-.3-.45.88.88,0,0,1,.87-.75c.84,0,3.72,2.34,4.35,3.12a.84.84,0,0,1,.21.57,1,1,0,0,1-.9.93A.67.67,0,0,1,190.21,24.85Zm10.41,2.94-8.4,0a.62.62,0,1,1,0-1.23l7.65,0V25c-5.4,0-5.91-.12-5.91-2.16s.54-2,5.88-2V19.45a.79.79,0,0,1,1.56,0V20.8c1.26,0,2.55,0,3.9,0,2.07,0,2.1,1,2.1,2.19,0,1.92-.42,2-6.06,2v1.62l8.13,0a.56.56,0,0,1,.6.6.57.57,0,0,1-.6.63Zm-7.41,13.29a.71.71,0,0,1-.72-.72.66.66,0,0,1,.66-.66,14.14,14.14,0,0,0,5-1.56.58.58,0,0,1,.36-.12.71.71,0,0,1,.66.69C199.12,39.79,194.38,41.08,193.21,41.08Zm11.1-3.27c-1,0-2.31,0-3.63,0s-2.64,0-3.72,0c-1.71,0-2.43-.78-2.46-1.89,0-.72,0-1.56,0-2.43s0-1.71,0-2.43c0-.93.75-1.8,2.46-1.86,1,0,2.34-.06,3.66-.06s2.67,0,3.78.06c1.62,0,2.4.69,2.46,1.71,0,.63.06,1.41.06,2.22,0,1,0,2-.06,2.73C206.8,37.12,206.05,37.78,204.31,37.81Zm-4.44-16c-1.11,0-2.16,0-3.12,0-1.2,0-1.32.3-1.32,1,0,1.11.12,1.14,4.44,1.14Zm5.52,9.87c0-.18,0-.39,0-.57,0-.72-.54-1-1.29-1s-2.16,0-3.42,0-2.46,0-3.33,0-1.32.36-1.35,1l0,.54Zm0,.93h-9.48v1.56h9.48Zm-9.48,2.49c0,.24,0,.45,0,.66.06,1.05.48,1.05,4.74,1.05,1.29,0,2.58,0,3.39,0s1.23-.45,1.26-1.08c0-.18,0-.39,0-.6ZM201.34,24c4.44,0,4.56-.06,4.56-1.2,0-.93-.12-1-4.56-1Zm7.41,17.07c-1.47,0-6.48-1.44-6.48-2.43a.63.63,0,0,1,.63-.63.8.8,0,0,1,.36.09,17.59,17.59,0,0,0,5.61,1.53.68.68,0,0,1,.69.69A.76.76,0,0,1,208.75,41.08Z"/><path class="cls-3" d="M218.14,44.23,218.59,28c-3,4.11-3.75,4.11-4,4.11a.75.75,0,0,1-.78-.75.88.88,0,0,1,.3-.63,27.37,27.37,0,0,0,7-10.62.73.73,0,0,1,.72-.51,1,1,0,0,1,1,.87,26.23,26.23,0,0,1-2.7,5.16l-.33,18.6a.81.81,0,0,1-.9.72.73.73,0,0,1-.81-.69Zm12.69-13.14a55.14,55.14,0,0,1-3.48,10.17c3.21-.39,6.54-.93,9.36-1.56A25.8,25.8,0,0,0,233.83,36a.72.72,0,0,1-.18-.45.76.76,0,0,1,.78-.69.79.79,0,0,1,.57.24c1.8,1.74,5.07,6.45,5.07,7.62a.93.93,0,0,1-.9.93.83.83,0,0,1-.78-.63,16,16,0,0,0-1-2.07A93.45,93.45,0,0,1,223,43.3a.76.76,0,0,1-.75-.84.71.71,0,0,1,.63-.78c.9-.06,1.83-.15,2.79-.24a50.24,50.24,0,0,0,3.39-10.35h-6a.69.69,0,0,1-.75-.69.72.72,0,0,1,.75-.75h16.2a.72.72,0,1,1,0,1.44Zm-5.49-7.35a.73.73,0,0,1-.78-.72.76.76,0,0,1,.78-.78H237a.73.73,0,0,1,.78.75.75.75,0,0,1-.78.75Z"/><path class="cls-3" d="M244.24,31.12a1.14,1.14,0,0,1,.18-.54,10.07,10.07,0,0,0,1.26-5,.61.61,0,0,1,.66-.66.78.78,0,0,1,.84.78c0,1.71-.84,6.09-2.19,6.09A.71.71,0,0,1,244.24,31.12Zm4.65-11.22a.76.76,0,0,1,.84-.75.75.75,0,0,1,.81.75V44.08a.75.75,0,0,1-.81.72.76.76,0,0,1-.84-.72Zm4,7.59a12.52,12.52,0,0,0-1.68-2.76.63.63,0,0,1-.15-.36.66.66,0,0,1,.69-.57c.75,0,2.55,2.49,2.55,3.27a.83.83,0,0,1-.81.84A.63.63,0,0,1,252.94,27.49Zm1.11,16.11a.68.68,0,0,1-.75-.69.72.72,0,0,1,.75-.72l7.5,0v-7l-4.8,0a.68.68,0,0,1-.75-.69.72.72,0,0,1,.75-.72l4.8,0V27.79l-4.38,0a23.87,23.87,0,0,1-2.52,4.62.86.86,0,0,1-.75.45.76.76,0,0,1-.75-.75.68.68,0,0,1,.15-.45,21.27,21.27,0,0,0,3.84-9.6.78.78,0,0,1,.78-.72.81.81,0,0,1,.84.78,22.8,22.8,0,0,1-1.08,4.26l3.87,0V20a.76.76,0,0,1,.78-.78.76.76,0,0,1,.81.78v6.45l6,0a.69.69,0,0,1,.72.72.68.68,0,0,1-.72.69l-6,0v6.12l4.77,0a.71.71,0,1,1,0,1.41l-4.77,0v7l6.93,0a.71.71,0,1,1,0,1.41Z"/><path class="cls-3" d="M285.25,29.17c1.35,0,2,.66,2,1.41,0,1.08-1.26,2.07-4.14,3.81a6.43,6.43,0,0,1,.69,1.14c1.89-.33,3.57-.69,4.65-.93.06,0,.09,0,.15,0a.66.66,0,0,1,.6.69c0,.57,0,.66-4.92,1.56a7.4,7.4,0,0,1,.27,2c0,1.83-.66,5.73-4.8,5.73a8.48,8.48,0,0,1-2-.27.77.77,0,0,1-.63-.75.82.82,0,0,1,.75-.84.66.66,0,0,1,.24,0,6,6,0,0,0,1.86.36c2.73,0,3.09-3.18,3.09-4.47a6.74,6.74,0,0,0-.18-1.56c-5.19.9-7.2,1.08-7.23,1.08a.77.77,0,0,1-.84-.75.73.73,0,0,1,.72-.72c2-.15,4.47-.51,6.84-.9a4.5,4.5,0,0,0-2.37-2.07c-.33-.12-.48-.33-.48-.54a.77.77,0,0,1,.81-.69.76.76,0,0,1,.36.06,5.6,5.6,0,0,1,1.62,1c.81-.51,3.27-2.22,3.27-2.76,0-.18-.12-.36-1.41-.36-1.59,0-4.62.06-6.93.09a.65.65,0,0,1-.69-.63.7.7,0,0,1,.69-.69c1.26,0,2.58-.06,3.84-.06.87,0,1.74,0,2.55,0a23.14,23.14,0,0,0,2.46-5,.63.63,0,0,1,.63-.39c.45,0,.93.3.93.72,0,.6-1.68,3.6-2.52,4.74Zm-9.45-6a.68.68,0,0,1-.69-.72.67.67,0,0,1,.63-.72,32.53,32.53,0,0,0,10.62-1.83.75.75,0,0,1,1,.72.8.8,0,0,1-.57.72C283.66,22.57,277.48,23.2,275.8,23.2Zm1.86,4.62a6.56,6.56,0,0,0-1.5-2.25.54.54,0,0,1-.15-.39.71.71,0,0,1,.75-.63c.75,0,2.25,2.25,2.25,2.82a.88.88,0,0,1-.81.84A.59.59,0,0,1,277.66,27.82Zm3.72-.54a8.08,8.08,0,0,0-1.11-2.58.36.36,0,0,1-.06-.24.67.67,0,0,1,.72-.57c1,0,1.86,2.67,1.86,3.09a.85.85,0,0,1-.81.81A.6.6,0,0,1,281.38,27.28Zm18.33,10a.89.89,0,0,1,.93.81v.27c0,5-2.4,5.43-5.43,5.43-2.4,0-4.65-.33-4.65-3.18,0-1.32,0-19.32.06-20.25a.78.78,0,0,1,.84-.75.74.74,0,0,1,.81.75c0,1.26-.15,16.14-.15,19.44,0,1.83.36,2.49,3.18,2.49,2.49,0,3.66-.6,3.66-4v-.21A.73.73,0,0,1,299.71,37.27Z"/><path class="cls-3" d="M310.51,29.89a28.6,28.6,0,0,1-3.12.24.76.76,0,0,1-.81-.75.8.8,0,0,1,.78-.81c1,0,1.92,0,3-.12l2-.21a52.34,52.34,0,0,0,1.17-5.49.84.84,0,0,1,.87-.75.81.81,0,0,1,.84.81,34.2,34.2,0,0,1-1.14,5.25c2.34-.21,2.37-.21,2.46-.21,2.82,0,3.48,2.07,3.48,4.35,0,7.29-2.79,9.87-5.82,9.87-1.17,0-2.73-.3-2.73-1.2a.81.81,0,0,1,.84-.81.82.82,0,0,1,.27,0,6,6,0,0,0,1.71.27c3.69,0,4.14-5.85,4.14-8,0-1.92-.36-3.06-2.16-3.06-.45,0-1.26.06-2.58.21a44.7,44.7,0,0,1-6,12.42,1.3,1.3,0,0,1-1,.6.79.79,0,0,1-.87-.75,1.29,1.29,0,0,1,.39-.87c2.07-2.34,4.32-6.72,5.79-11.19ZM328,33.82a11.58,11.58,0,0,0-5-5.61.61.61,0,0,1-.36-.54.76.76,0,0,1,.78-.72c1.44,0,6.24,4.62,6.24,6.51a.91.91,0,0,1-.87,1A.83.83,0,0,1,328,33.82Zm-.9-7.35a9.86,9.86,0,0,0-3-2,.56.56,0,0,1-.39-.51.71.71,0,0,1,.75-.63c.6,0,3.87,1.53,3.87,2.67a.79.79,0,0,1-.72.78A.67.67,0,0,1,327.07,26.47Zm2.4-2.28a10.14,10.14,0,0,0-3.06-2,.58.58,0,0,1-.42-.54.72.72,0,0,1,.78-.63c.54,0,3.93,1.41,3.93,2.61a.76.76,0,0,1-.72.78A.63.63,0,0,1,329.47,24.19Z"/><path class="cls-3" d="M345.85,39.34c0-1.26.15-2.07.15-3.18,0-.9-.09-2.76-2.1-2.76A7,7,0,0,0,339,36.34,21.35,21.35,0,0,0,337,40.51c-.6,1.92-.78,2.28-1.56,2.28a.86.86,0,0,1-.9-.87c0-.63,1.68-4.65,4.95-9.75,5.55-8.64,6.21-9.75,6.54-10.35a.91.91,0,0,1,1.74.39c0,.36-.27,1-1.89,3.12a89.81,89.81,0,0,0-5.4,8s0,.06,0,.06a.88.88,0,0,0,.3-.18A5.8,5.8,0,0,1,344.26,32c3.39,0,3.42,3.24,3.42,3.87,0,1-.18,2.22-.18,3.15,0,1.74.93,2.34,2.07,2.34s4.38-.57,6.54-6a1,1,0,0,1,.9-.69,1,1,0,0,1,1,1c0,1-3.42,7.44-8.61,7.44-2,0-3.51-1.08-3.51-3.72Z"/><path class="cls-3" d="M33.1,68.26c0,5-1.8,10.41-9.42,12.54a1.24,1.24,0,0,1-.33,0,.79.79,0,0,1-.81-.84.67.67,0,0,1,.51-.69c5.25-1.29,7.38-4.35,8.13-7.62-3.42,1.38-8.58,3.06-8.88,3.06a.74.74,0,0,1-.72-.78.68.68,0,0,1,.48-.69L24,72.76c0-3-.06-6.72-.06-9.93V61.27A2.89,2.89,0,0,1,26.23,58a44.69,44.69,0,0,0,5.43-2.19.54.54,0,0,1,.3-.06.8.8,0,0,1,.75.81.85.85,0,0,1-.51.75,43.07,43.07,0,0,1-5.31,2c-1.23.36-1.47,1-1.47,2.28v1.92c0,2.85,0,6,.06,8.79,2.13-.66,4.35-1.44,6-2.07a16.43,16.43,0,0,0,.09-2.1V66.67c0-2.28,0-6,0-6.9v0a.72.72,0,0,1,.75-.75.78.78,0,0,1,.81.78c0,.9,0,4.71,0,7ZM29,66.94a16.12,16.12,0,0,0-3-2.64.43.43,0,0,1-.18-.36.76.76,0,0,1,.72-.75c.69,0,3.72,2.25,3.72,3.12a.88.88,0,0,1-.81.87A.63.63,0,0,1,29,66.94Zm8.85-2.43c0,5.55.06,14.13.06,15.48a.76.76,0,0,1-.84.75.75.75,0,0,1-.81-.75c.06-4,.06-7.23.06-19.95,0-1.59,1-2.61,2.91-2.7.66,0,1.29-.06,2-.06s1.38,0,2.19.06a2.64,2.64,0,0,1,2.7,2.73c0,2.85,0,8,0,9.12,0,.48.06,2.4.09,3.45v.06c0,1.65-.81,3.18-3.48,3.18a10.6,10.6,0,0,1-2.19-.27.74.74,0,0,1-.6-.78c0-.42.27-.84.66-.84.06,0,.09,0,.15,0a8.64,8.64,0,0,0,2,.27c1.17,0,1.86-.48,1.86-1.86v-.12c0-.12,0-2,0-4.47s0-5.34-.09-7.44a1.54,1.54,0,0,0-1.56-1.68c-.69,0-1.38,0-2.07,0-1.8,0-2.94,0-3,1.68C37.87,61.15,37.84,62.68,37.84,64.51Zm4.26,3.27a16.45,16.45,0,0,0-3-2.67.47.47,0,0,1-.18-.36.81.81,0,0,1,.75-.78c.75,0,3.27,2.28,3.54,2.61a.82.82,0,0,1,.21.54.91.91,0,0,1-.84.9A.55.55,0,0,1,42.1,67.78Z"/><path class="cls-3" d="M66.28,72.82a30.7,30.7,0,0,0,10.23,5.67.83.83,0,0,1,.63.78.85.85,0,0,1-.87.84c-.36,0-5.43-1.77-10.89-6.57l.06,6.72c0,.48-.39.69-.81.69a.73.73,0,0,1-.81-.69l.06-6.63A31.62,31.62,0,0,1,53,80.26a.78.78,0,0,1-.81-.75.89.89,0,0,1,.66-.78A29.11,29.11,0,0,0,63,72.82l-9.6.12a.65.65,0,0,1-.66-.69.64.64,0,0,1,.66-.69l10.5.06V69.28c-1.2,0-2.43,0-3.6,0H58.93c-1.95,0-3-1-3.09-2.43,0-.57-.06-1.26-.06-2s0-1.71.06-2.43c.06-1.17,1-2.43,3-2.46,1.26,0,2.85,0,4.59,0s3.54,0,5.22,0A26.22,26.22,0,0,0,71,55.48a.84.84,0,0,1,.78-.57.92.92,0,0,1,.93.81A21.29,21.29,0,0,1,70.24,60h.48c2,0,2.79,1.2,2.85,2.25.06.6.06,1.41.06,2.22s0,1.65-.06,2.34c-.15,2.49-2.82,2.49-3.75,2.49-1.41,0-3-.06-4.44-.06l0,2.4,10.71-.09a.66.66,0,0,1,.69.69.68.68,0,0,1-.69.69ZM58.93,59a9.44,9.44,0,0,0-2.46-2.82.41.41,0,0,1-.18-.33.86.86,0,0,1,.87-.72c.81,0,3.15,2.64,3.15,3.36a.9.9,0,0,1-.84.84A.58.58,0,0,1,58.93,59Zm4.95,6.12H57.25c0,1.92.15,2.88,2,2.94,1.26,0,2.91.06,4.62.06Zm0-4c-1.77,0-3.45,0-4.62.06-2,0-2,1.32-2,2.82h6.6Zm1.2-2.1a.52.52,0,0,1-.57-.39,9.54,9.54,0,0,0-1.83-3.33.4.4,0,0,1-.09-.24c0-.33.42-.63.81-.63,1,0,2.61,3.39,2.61,3.81A.91.91,0,0,1,65.08,59Zm7.08,5c0-.42,0-.81,0-1.17,0-1-.66-1.62-2-1.65-1.17,0-2.91-.06-4.71-.06V64Zm-6.78,1.14v3c1.71,0,3.39,0,4.74-.06,1.83,0,2-1,2-2.94Z"/><path class="cls-3" d="M87.61,65.89a28.6,28.6,0,0,1-3.12.24.76.76,0,0,1-.81-.75.8.8,0,0,1,.78-.81c1,0,1.92,0,3-.12l2-.21a52.34,52.34,0,0,0,1.17-5.49.84.84,0,0,1,.87-.75.81.81,0,0,1,.84.81,34.2,34.2,0,0,1-1.14,5.25c2.34-.21,2.37-.21,2.46-.21,2.82,0,3.48,2.07,3.48,4.35,0,7.29-2.79,9.87-5.82,9.87-1.17,0-2.73-.3-2.73-1.2a.81.81,0,0,1,.84-.81.82.82,0,0,1,.27,0,6,6,0,0,0,1.71.27c3.69,0,4.14-5.85,4.14-8,0-1.92-.36-3.06-2.16-3.06-.45,0-1.26.06-2.58.21a44.7,44.7,0,0,1-6,12.42,1.3,1.3,0,0,1-1,.6.79.79,0,0,1-.87-.75,1.29,1.29,0,0,1,.39-.87c2.07-2.34,4.32-6.72,5.79-11.19Zm17.46,3.93a11.58,11.58,0,0,0-5-5.61.61.61,0,0,1-.36-.54.76.76,0,0,1,.78-.72c1.44,0,6.24,4.62,6.24,6.51a.91.91,0,0,1-.87,1A.83.83,0,0,1,105.07,69.82Zm-.9-7.35a9.86,9.86,0,0,0-3-2,.56.56,0,0,1-.39-.51.71.71,0,0,1,.75-.63c.6,0,3.87,1.53,3.87,2.67a.79.79,0,0,1-.72.78A.67.67,0,0,1,104.17,62.47Zm2.4-2.28a10.14,10.14,0,0,0-3.06-2,.58.58,0,0,1-.42-.54.72.72,0,0,1,.78-.63c.54,0,3.93,1.41,3.93,2.61a.76.76,0,0,1-.72.78A.63.63,0,0,1,106.57,60.19Z"/><path class="cls-3" d="M123,75.34c0-1.26.15-2.07.15-3.18,0-.9-.09-2.76-2.1-2.76a7,7,0,0,0-4.92,2.94,21.35,21.35,0,0,0-1.95,4.17c-.6,1.92-.78,2.28-1.56,2.28a.86.86,0,0,1-.9-.87c0-.63,1.68-4.65,4.95-9.75,5.55-8.64,6.21-9.75,6.54-10.35a.91.91,0,0,1,1.74.39c0,.36-.27,1-1.89,3.12a89.81,89.81,0,0,0-5.4,8s0,.06,0,.06a.88.88,0,0,0,.3-.18A5.8,5.8,0,0,1,121.36,68c3.39,0,3.42,3.24,3.42,3.87,0,1-.18,2.22-.18,3.15,0,1.74.93,2.34,2.07,2.34s4.38-.57,6.54-6a1,1,0,0,1,.9-.69,1,1,0,0,1,1,1c0,1-3.42,7.44-8.61,7.44-2,0-3.51-1.08-3.51-3.72Z"/><path class="cls-3" d="M152.8,55.63a.84.84,0,0,1,1.68,0v2.82c3.39,0,6.9,0,9.51,0a.71.71,0,1,1,0,1.41c-2.37,0-5.46-.06-8.43-.06s-5.82,0-7.77.06c-1.44,0-2,.75-2,1.89v.09c.06,1.53.12,3.06.12,4.56,0,5-.63,9.69-4,13.38a1.13,1.13,0,0,1-.84.42.83.83,0,0,1-.84-.78.7.7,0,0,1,.21-.51,14.73,14.73,0,0,0,3.81-9.36,14.58,14.58,0,0,1-4.2,2.13.81.81,0,0,1-.81-.84.75.75,0,0,1,.54-.72A20.66,20.66,0,0,0,144.4,68V67c0-1.74-.09-3.51-.18-5.34v-.21c0-1.92,1.23-3,3.42-3h5.19ZM142,66a11.1,11.1,0,0,0-2-3,.62.62,0,0,1-.21-.42.79.79,0,0,1,.81-.69c.78,0,2.82,2.88,2.82,3.69a.91.91,0,0,1-.84.87A.59.59,0,0,1,142,66Zm4.26,13.8a.68.68,0,1,1,0-1.35h3.42V69a.78.78,0,0,1,1.56,0v9.45h4V64.9h-6.33a.62.62,0,0,1-.69-.63.78.78,0,0,1,.81-.75H163a.69.69,0,0,1,.72.69.67.67,0,0,1-.72.69h-6.27v5.49H162a.7.7,0,1,1,0,1.41h-5.25v6.66h7.47a.66.66,0,0,1,.69.69.65.65,0,0,1-.69.66Z"/><path class="cls-3" d="M172.48,80.11l.39-16.35c-2.52,3.63-3.06,3.66-3.39,3.66a.72.72,0,0,1-.51-1.26,30.36,30.36,0,0,0,6.6-10.65.75.75,0,0,1,.72-.51.91.91,0,0,1,.9.84,31.11,31.11,0,0,1-2.73,5.46l-.39,18.81a.78.78,0,0,1-.84.75.72.72,0,0,1-.75-.72Zm4.59-19.5a.69.69,0,0,1,.72-.72.7.7,0,0,1,.75.72V75.88a.68.68,0,0,1-.72.66.69.69,0,0,1-.75-.66Zm10.86,11.91A12.06,12.06,0,0,0,195,78.94a.69.69,0,0,1,.51.69.89.89,0,0,1-.87.87c-.75,0-5.73-2.43-7.65-7a11.18,11.18,0,0,1-8.31,7.2.8.8,0,0,1-.78-.81.75.75,0,0,1,.63-.72,9.39,9.39,0,0,0,7.32-6.69l-5.37.06a.62.62,0,0,1-.63-.66.67.67,0,0,1,.66-.69l5.64,0a28.39,28.39,0,0,0,.15-4h-3.06c-.24.39-1.74,2.85-2.61,2.85a.75.75,0,0,1-.75-.66.59.59,0,0,1,.18-.42,14.06,14.06,0,0,0,3.21-5,.53.53,0,0,1,.51-.3c.39,0,.87.3.87.69a6.39,6.39,0,0,1-.69,1.53h8.37a.66.66,0,0,1,0,1.32l-4.5,0a22.19,22.19,0,0,1-.21,4l6.57,0a.62.62,0,0,1,.63.66.63.63,0,0,1-.63.69ZM180.58,63a.66.66,0,1,1,0-1.32l8.43,0c.09-.78.33-2.76.33-3.15,0-.72-.42-.93-1.2-.93l-5.73,0a.66.66,0,0,1-.69-.69.69.69,0,0,1,.72-.69l6.12,0c1.65,0,2.31.72,2.31,2,0,.09-.06,1.35-.3,3.45l3.57,0a.66.66,0,0,1,0,1.32Z"/><path class="cls-3" d="M210.73,63c0,1.11,0,2.16-.06,2.88a2.4,2.4,0,0,1-2.58,2.31c-1.05,0-2.28,0-3.51,0a19.16,19.16,0,0,1-4,7.08.89.89,0,0,1-.69.33.79.79,0,0,1-.81-.72.8.8,0,0,1,.24-.51,16.55,16.55,0,0,0,3.75-6.18h-2.25a.59.59,0,0,1-.57-.66.64.64,0,0,1,.6-.69c.84,0,1.74,0,2.64,0a27.63,27.63,0,0,0,.75-3.93H199.9a.66.66,0,0,1,0-1.32h4.5c.12-1.29.18-2.58.18-3.9-1.11,0-2.25,0-3.3,0a.62.62,0,0,1-.63-.66.67.67,0,0,1,.66-.69c2,0,4.53,0,6.66,0,1.68,0,2.61.93,2.67,2.22,0,.72.06,1.8.06,2.94h1.2a.62.62,0,0,1,.6.69.64.64,0,0,1-.6.69Zm-2,17c-.63,0-1.35.06-2.07.06s-1.41,0-2-.06a2,2,0,0,1-2-2c0-.78,0-1.59,0-2.4s0-1.59,0-2.25a1.93,1.93,0,0,1,1.95-2c.66,0,1.32-.06,2-.06.81,0,1.56,0,2.28.06a2,2,0,0,1,2.13,1.8c0,.69,0,1.56,0,2.43s0,1.71,0,2.37A2.13,2.13,0,0,1,208.72,80ZM204,75.7c0,.78,0,1.56,0,2,0,1,.78,1,2.67,1,2.58,0,2.82-.21,2.85-1.08,0-.45,0-1.2,0-2s0-1.56,0-2c-.06-1.08-.75-1.11-2.85-1.11s-2.61,0-2.67,1.11C204,74.11,204,74.89,204,75.7ZM205.69,63a32.54,32.54,0,0,1-.72,3.93c1,0,2,0,2.82,0,1.53-.06,1.53-.69,1.53-3.9Zm3.63-1.32c0-1,0-1.95-.06-2.55a1.29,1.29,0,0,0-1.44-1.32c-.54,0-1.17,0-1.77,0,0,1.32-.09,2.64-.21,3.9Zm10,11.73,0,6.81a.78.78,0,0,1-1.56,0V73.39h-5.1a.66.66,0,1,1,0-1.32h5.13V67.84h-4a.66.66,0,1,1,0-1.32h4v-3.9h-4.41a.66.66,0,0,1-.69-.69.65.65,0,0,1,.69-.66h5.64A34,34,0,0,0,221.68,56a.74.74,0,0,1,.72-.57.89.89,0,0,1,.9.81c0,.57-2,4-2.64,5h4a.65.65,0,0,1,.69.66.66.66,0,0,1-.69.69h-5.34v3.9h4.26a.65.65,0,0,1,.69.66.65.65,0,0,1-.66.66h-4.29v4.23H225a.65.65,0,0,1,.69.66.65.65,0,0,1-.66.66Zm-3.09-13.65a12.2,12.2,0,0,0-2.28-3,.59.59,0,0,1-.18-.42.76.76,0,0,1,.78-.69c.78,0,3.09,3,3.09,3.72a.88.88,0,0,1-.81.87A.66.66,0,0,1,216.28,59.74Z"/><path class="cls-3" d="M234.61,67.72c0-9.27,7.5-13.56,8.4-13.56a.56.56,0,0,1,.6.57.69.69,0,0,1-.42.63,13.69,13.69,0,0,0-7.35,12.36,13.89,13.89,0,0,0,7.41,12.45.69.69,0,0,1,.36.6.51.51,0,0,1-.51.54C242.2,81.31,234.61,77.14,234.61,67.72Z"/><path class="cls-3" d="M265.51,78a.89.89,0,0,1-1,.87.9.9,0,0,1-1-.87v0c0-1.5,0-3.09,0-4.53,0-2,0-3.6,0-4.38,0-.6-.24-.72-.54-.72-1.14,0-3.6-.06-6-.06s-4.83,0-5.94.06c-.39,0-.66,0-.66.6,0,.81-.06,2.67-.06,4.83,0,1.32,0,2.76.06,4.2v0a1,1,0,0,1-1.92,0v0c.06-3.3.09-7.38.09-11.22,0-3.33,0-6.48-.09-8.79v0a1,1,0,0,1,1.92,0v0c0,1.26-.06,2.55-.06,3.75,0,1.83,0,3.42.06,4.2,0,.54.24.63.54.66.75,0,3.24.06,5.82.06s5.28,0,6.36-.06c.39,0,.45-.27.45-.63,0-.72.06-2.34.06-4.2,0-1.2,0-2.52-.06-3.78v0a.9.9,0,0,1,1-.93.93.93,0,0,1,1,.93v0c0,2.55-.06,6.39-.06,10.17s0,7.5.06,9.84Z"/><path class="cls-3" d="M279.46,79c-.51,0-1.59.06-2.52.06-2.1,0-5.22-.06-5.37-3.3-.06-1.26-.06-3.51-.06-5.91,0-3.63,0-7.71.09-9.63.09-3.33,3-3.36,5.37-3.36.63,0,1.23,0,1.65.06,4.56.3,6.27,2.7,6.27,5a4.88,4.88,0,0,1-3.57,4.77c-.24.06-.36.09-.36.12l.36.06a5.56,5.56,0,0,1,5,5.73C286.3,75.61,284.2,78.67,279.46,79Zm-2.82-11.19c-3.27,0-3.36,0-3.36.72,0,5.07,0,6.21.06,6.87.15,1.71,1.29,2,3.66,2,.81,0,1.68-.06,2.37-.09a4.92,4.92,0,0,0,5-4.86c0-2.25-1.62-4.47-4.83-4.62C278.71,67.81,277.66,67.81,276.64,67.81Zm1.71-9.27c-.09,0-1,0-1.8,0-2.31,0-3.06.45-3.18,2-.06.75,0,3.3-.06,5.1,0,.57.09.6,2.85.6.93,0,1.89,0,2.46,0,2.85-.18,4.47-2.19,4.47-4.08S281.62,58.54,278.35,58.54Z"/><path class="cls-3" d="M289.63,68c0-6.51,4.65-11.22,10.89-11.22S311.41,61.48,311.41,68c0,6.75-4.65,11.16-10.89,11.16S289.63,74.74,289.63,68Zm19.83,0c0-5.73-4-9.54-8.94-9.54s-8.94,3.81-8.94,9.54,4,9.45,8.94,9.45S309.46,73.69,309.46,68Z"/><path class="cls-3" d="M326.14,79.12c-7,0-10.74-5.37-10.74-11s3.72-11.31,10.92-11.31c4.59,0,7.56,2.7,7.56,3.78a1,1,0,0,1-1,1,1,1,0,0,1-.84-.45,7.41,7.41,0,0,0-5.88-2.61c-5.91,0-8.82,5.22-8.82,9.48,0,4.44,2.88,9.18,8.73,9.18a8.53,8.53,0,0,0,6.84-3.06,1,1,0,0,1,.87-.48,1.12,1.12,0,0,1,1.11,1.08C334.9,75.85,331.42,79.12,326.14,79.12Z"/><path class="cls-3" d="M337.93,80.77a.69.69,0,0,1,.36-.6,13.89,13.89,0,0,0,7.41-12.45,13.69,13.69,0,0,0-7.35-12.36.69.69,0,0,1-.42-.63.56.56,0,0,1,.6-.57c.9,0,8.4,4.29,8.4,13.56s-7.59,13.59-8.49,13.59A.51.51,0,0,1,337.93,80.77Z"/><path class="cls-4" d="M25.59,101.61c0,.17-.2.24-.46.25-.15.78-.41,2.14-.57,3,.63-.07,1.2-.13,1.55-.13,2.13,0,2.86,1.39,2.86,3.49a10.93,10.93,0,0,1-.48,3.14A2.56,2.56,0,0,1,26,113.46a4.15,4.15,0,0,1-2.54-1.22,5.3,5.3,0,0,0,.38-.85A3.75,3.75,0,0,0,26,112.45c.8,0,1.27-.5,1.55-1.4a10.56,10.56,0,0,0,.45-2.87c0-1.6-.53-2.55-1.93-2.54a16.13,16.13,0,0,0-1.71.14,26.88,26.88,0,0,1-2.87,7.56l-.92-.45a22.92,22.92,0,0,0,2.79-7c-.71.08-1.74.21-2.49.34l-.08-1,2.77-.32c.21-1,.43-2.28.6-3.52Zm3.25-.43a9.85,9.85,0,0,1,1.88,2l-.55.39a9.33,9.33,0,0,0-1.85-1.95ZM32,109.33a8.82,8.82,0,0,0-2.86-4.78l.81-.55A9.29,9.29,0,0,1,33,108.95Zm-1-8.7a9.16,9.16,0,0,1,1.89,1.95l-.55.41a9.41,9.41,0,0,0-1.85-2Z"/><path class="cls-4" d="M34.42,113c1-3,2.76-7.93,3.31-9.41.27-.76.63-1.82.73-2.17l1.51.39c-.07.2-.27.27-.55.27-.77,1.92-2,5.2-2.48,6.6h0A4.48,4.48,0,0,1,40,106.92c1.22,0,1.81.83,1.76,2.13l0,1.67c0,1.05.55,1.63,1.46,1.63,1.26,0,2.42-1.44,3.07-3.85a6.55,6.55,0,0,0,.91.52c-.77,2.68-2.16,4.36-4,4.36A2.23,2.23,0,0,1,40.71,111c0-.27,0-1.55,0-1.85,0-.88-.36-1.34-1-1.34-1.61,0-3.24,2.34-3.59,3.25-.2.49-.5,1.39-.77,2.2Z"/><path class="cls-4" d="M51.63,102c0,.15-.18.24-.46.22a33.6,33.6,0,0,0-.74,6.3,15.42,15.42,0,0,0,.18,2.77c.27-.69.87-2.16,1.06-2.65l.59.62c-.57,1.42-1,2.21-1.19,2.84a2.41,2.41,0,0,0-.11.66,1.49,1.49,0,0,0,.07.43l-1,.18a15.38,15.38,0,0,1-.62-4.82,41,41,0,0,1,.74-6.82Zm8.92,10.24c-.5,0-1,0-1.54,0a19.35,19.35,0,0,1-2.61-.15c-1.72-.25-2.52-1.2-2.52-2.33a4.28,4.28,0,0,1,1.32-2.7l.91.39a3.31,3.31,0,0,0-1.19,2.2c0,1.63,2.38,1.63,3.84,1.63.59,0,1.22,0,1.81-.07Zm-6.49-8.56a45.71,45.71,0,0,0,6.11-.53l.08,1a53.26,53.26,0,0,1-6.16.52Z"/><path class="cls-4" d="M64,113.16a15.37,15.37,0,0,1-.6-4.93,35.7,35.7,0,0,1,.76-6.54l1.36.27a.36.36,0,0,1-.36.25,26.89,26.89,0,0,0-.81,6,16.64,16.64,0,0,0,.13,2.65c.31-.84.87-2.19,1.16-2.84l.63.59a16.44,16.44,0,0,0-1.44,3.74,1.91,1.91,0,0,0,.14.67Zm3.56-8.25c1.18,0,2.35,0,3.53-.06-.06-1.2-.1-2.24-.13-3.28l1.41,0c0,.14-.14.25-.36.29,0,.9,0,1.81.07,2.87a12.42,12.42,0,0,0,2.75-.56l.13,1a13.48,13.48,0,0,1-2.83.5c.06,1.55.13,3.19.17,4.09a10.31,10.31,0,0,1,2.86,1.78l-.55.9a8.41,8.41,0,0,0-2.27-1.6c0,1.19-.24,2.52-2.34,2.52-1.64,0-2.73-.78-2.73-2,0-1.43,1.44-2.06,2.73-2.06a4.84,4.84,0,0,1,1.33.18c0-.88-.13-2.35-.2-3.73-.43,0-1,0-1.43,0H67.62Zm3.84,5.5a4.73,4.73,0,0,0-1.39-.25c-.85,0-1.88.31-1.88,1.19s.84,1.18,1.86,1.18,1.42-.5,1.42-1.62Z"/><path class="cls-4" d="M79.84,106.54v4.64c1.09,1.67,3.15,1.67,5.71,1.67,1.55,0,3.38,0,4.48-.11a3.48,3.48,0,0,0-.29.91c-1,0-2.49.06-3.89.06-3.07,0-5,0-6.39-1.74-.64.62-1.3,1.25-1.83,1.74a.21.21,0,0,1-.13.21l-.53-1a24.5,24.5,0,0,0,2-1.67v-3.84H77.08v-.9ZM78,101.29a10.37,10.37,0,0,1,2.31,2.34l-.77.59a10,10,0,0,0-2.27-2.41Zm11.89,3.38v.67H80.38v-.67h4.17v-.71h-3v-2.16h3v-.85l1.18.08c0,.1-.1.15-.28.18v.59h3.19v2.16H85.45v.71Zm-3.38,5.85A23.3,23.3,0,0,1,89.53,112l-.83.46a20.49,20.49,0,0,0-3-1.51l.56-.41H83.73l.85.34a.25.25,0,0,1-.29.1,12.76,12.76,0,0,1-2.69,1.5,4.8,4.8,0,0,0-.64-.53,9.24,9.24,0,0,0,2.56-1.4H81.59V106h7v4.5Zm-4.09-7.17h2.17v-.94H82.39Zm.1,3.25v.73h5.17v-.73Zm0,1.29v.74h5.17v-.74Zm0,1.29v.77h5.17v-.77Zm5.25-6.77H85.45v.94h2.28Z"/><path class="cls-4" d="M93.25,105.88a16.59,16.59,0,0,1-1.71,2.34,7,7,0,0,0-.49-.88,18.65,18.65,0,0,0,3.5-6.3l1.12.38c-.06.1-.15.14-.32.13a25.42,25.42,0,0,1-1.29,2.9l.38.1c0,.08-.1.15-.28.17V114h-.91Zm8.7,3.18a18.56,18.56,0,0,1,2.62,4.47l-.9.43a9.19,9.19,0,0,0-.52-1.25c-2.77.25-5.7.48-7.58.62a.27.27,0,0,1-.21.2L95,112.39l1.64-.08a38.2,38.2,0,0,0,1.64-5.06H95.13v-.92h9.3v.92H99.36l.2.06c0,.1-.15.15-.32.17a44.93,44.93,0,0,1-1.65,4.78l5.17-.32a24.09,24.09,0,0,0-1.61-2.51Zm1.69-7v.9H96.22v-.9Z"/><path class="cls-4" d="M107.18,103.78a8.14,8.14,0,0,1-.76,3.68l-.74-.38a8,8,0,0,0,.73-3.42Zm.6-2.86L109,101c0,.1-.1.17-.28.18v12.73h-.92Zm1.79,2.21a12.25,12.25,0,0,1,1.16,2.14l-.69.46a14,14,0,0,0-1.13-2.24Zm5.38,9.38h3.77v.91H110v-.91h4v-3.4h-3v-.87h3v-3.1h-2.19a11,11,0,0,1-1,2.25,4.43,4.43,0,0,0-.76-.43,16.93,16.93,0,0,0,1.64-5.39l1.16.27c0,.1-.13.15-.29.15-.14.74-.31,1.51-.52,2.26H114v-3.33l1.22.08c0,.1-.08.17-.28.2v3.05h3.35v.9H115v3.1h2.91v.87H115Z"/><path class="cls-4" d="M127.37,103.49a.36.36,0,0,1-.35.22c-.5,4.36-2,8.15-4.29,8.15-1.18,0-2.24-1.18-2.24-3.39a6.15,6.15,0,0,1,6.3-6.18c4,0,5.8,2.56,5.8,5.29,0,3.33-1.93,4.95-5.32,5.73a5.49,5.49,0,0,0-.59-.85c3.22-.62,4.87-2.19,4.87-4.83,0-2.31-1.48-4.41-4.76-4.41l-.42,0ZM126,103.3a5.16,5.16,0,0,0-4.58,5.14c0,1.5.64,2.44,1.32,2.44C124.46,110.88,125.67,107.14,126,103.3Z"/><path class="cls-4" d="M142.21,108.61a33.15,33.15,0,0,1-3.35.17c0,.49-.08,1-.08,1.3,0,2.24,1.48,2.42,2.79,2.42,2.2,0,3.29-.63,3.29-1.92a4.42,4.42,0,0,0-1.15-2.58,7.42,7.42,0,0,0,.9-.35,5.29,5.29,0,0,1,1.29,3.08c0,2.35-2.63,2.7-4.33,2.7-1.34,0-3.75-.1-3.75-3.36a10.63,10.63,0,0,1,.08-1.33c-1.18,0-3.07-.11-3.07-1.55a2.28,2.28,0,0,1,1.19-1.81l.74.43c-.62.38-1,.84-1,1.22,0,.74,1.12.77,2.19.8.1-.94.22-2,.35-3.14a9.76,9.76,0,0,1-2.94-.77l.25-.91a9.29,9.29,0,0,0,2.8.76c.11-.88.21-1.78.31-2.52l1.46.18c0,.17-.2.27-.45.28-.1.59-.21,1.36-.32,2.16.41,0,.84,0,1.29,0s1.08,0,1.58-.06l0,.92c-.42,0-.9,0-1.37,0s-1.09,0-1.58,0c-.14,1-.27,2.13-.36,3.08a25.88,25.88,0,0,0,3.26-.2Z"/><path class="cls-4" d="M155,103.49a.36.36,0,0,1-.35.22c-.5,4.36-2,8.15-4.29,8.15-1.18,0-2.24-1.18-2.24-3.39a6.15,6.15,0,0,1,6.3-6.18c4,0,5.8,2.56,5.8,5.29,0,3.33-1.93,4.95-5.32,5.73a5.49,5.49,0,0,0-.59-.85c3.22-.62,4.87-2.19,4.87-4.83,0-2.31-1.48-4.41-4.76-4.41l-.42,0Zm-1.34-.18a5.16,5.16,0,0,0-4.58,5.14c0,1.5.64,2.44,1.32,2.44C152,110.88,153.25,107.14,153.61,103.3Z"/><path class="cls-4" d="M167.41,101.61c0,.17-.2.24-.46.25-.15.78-.41,2.14-.57,3,.63-.07,1.2-.13,1.55-.13,2.13,0,2.86,1.39,2.86,3.49a10.93,10.93,0,0,1-.48,3.14,2.56,2.56,0,0,1-2.49,2.11,4.15,4.15,0,0,1-2.54-1.22,5.3,5.3,0,0,0,.38-.85,3.75,3.75,0,0,0,2.14,1.06c.8,0,1.27-.5,1.55-1.4a10.56,10.56,0,0,0,.45-2.87c0-1.6-.53-2.55-1.93-2.54a16.13,16.13,0,0,0-1.71.14,26.88,26.88,0,0,1-2.87,7.56l-.92-.45a22.92,22.92,0,0,0,2.79-7c-.71.08-1.74.21-2.49.34l-.08-1,2.77-.32c.21-1,.43-2.28.6-3.52Zm3.25-.43a9.85,9.85,0,0,1,1.88,2l-.55.39a9.33,9.33,0,0,0-1.85-1.95Zm3.14,8.15a8.82,8.82,0,0,0-2.86-4.78l.81-.55a9.29,9.29,0,0,1,3.05,4.95Zm-1-8.7a9.16,9.16,0,0,1,1.89,1.95l-.55.41a9.41,9.41,0,0,0-1.85-2Z"/><path class="cls-4" d="M185.08,105.53c0,.18-.08.36-.14.53,2.47.43,3.38,2,3.38,3.63,0,2.23-1.9,3.57-5.41,4a5.35,5.35,0,0,0-.38-.84c2.9-.28,4.76-1.29,4.76-3.1v-.1a2.77,2.77,0,0,0-2.66-2.67,11.07,11.07,0,0,1-2.79,4.12,3.16,3.16,0,0,0,.36.76l-.83.52a3.62,3.62,0,0,1-.34-.7,4.54,4.54,0,0,1-2.65,1.05,1.67,1.67,0,0,1-1.7-1.86c0-1.93,1.6-3.47,3.63-4.29,0-.73,0-1.53,0-2.35-2.37,0-2.62,0-3.08,0l0-.92c.71,0,1.93,0,3.14,0,0-.64,0-1.43.07-2.09l1.4.1c0,.14-.15.25-.36.28,0,.52-.07,1.16-.11,1.68a32.07,32.07,0,0,0,5.62-.59l.13,1a34,34,0,0,1-5.79.55c0,.73,0,1.43,0,2.09a7.31,7.31,0,0,1,2.1-.32c.21,0,.39,0,.57,0,.06-.22.1-.43.14-.66Zm-4.3,5.22a16.41,16.41,0,0,1-.41-3.28c-1.53.67-2.72,1.83-2.72,3.19,0,.83.46,1.11,1,1.08A3.82,3.82,0,0,0,180.78,110.75Zm2.87-3.94a6.53,6.53,0,0,0-2.37.34,13.6,13.6,0,0,0,.32,2.89A9.19,9.19,0,0,0,183.65,106.82Z"/><path class="cls-4" d="M194.19,107.09a8.48,8.48,0,0,1,3.47-.81c2.23,0,3.63,1.3,3.63,3.36,0,2.54-2.23,3.94-5,3.94-1.82,0-3.07-.73-3.07-2a2.12,2.12,0,0,1,2.3-1.88,3,3,0,0,1,2.86,2.54,2.74,2.74,0,0,0,1.93-2.62c0-1.51-1.12-2.48-2.89-2.48A8,8,0,0,0,192.3,109c-.42.39-1,1-1.34,1.42l-.71-.71c1.26-1.32,5.27-5.14,7.17-6.92-.81.11-3.61.22-5.21.28a.46.46,0,0,1-.29.21l-.11-1.19c1.89,0,5.5-.15,6.53-.31l.21-.1.74.91a.69.69,0,0,1-.34.13c-1,.81-3.66,3.31-4.75,4.36Zm1.93,5.6a6.13,6.13,0,0,0,1.27-.14,2.16,2.16,0,0,0-2-2c-.73,0-1.37.39-1.37,1C194,112.45,195.2,112.69,196.12,112.69Z"/><path class="cls-4" d="M213.4,112.51a25.72,25.72,0,0,1-4.26.32,16,16,0,0,1-2.75-.18A2.7,2.7,0,0,1,204,110a4.49,4.49,0,0,1,1.43-3l.81.42a3.83,3.83,0,0,0-1.23,2.49c0,.81.55,1.55,1.75,1.82a11.63,11.63,0,0,0,2.28.17,23.38,23.38,0,0,0,4.31-.38Zm-6.29-7.07a17.54,17.54,0,0,1,2.48-1.62h0c-1.06.13-3.5.18-5.06.17,0-.27,0-.73,0-1a45.85,45.85,0,0,0,8-.45l.11,1a11.53,11.53,0,0,0-4.71,2.37Z"/><path class="cls-4" d="M225.15,105.91a.28.28,0,0,1-.11,0,.54.54,0,0,1-.29-.08c-4.16,1.22-7.93,3.05-7.91,4.93,0,1.34,1.48,1.81,3.75,1.81a33.57,33.57,0,0,0,5-.32l.08,1a45.26,45.26,0,0,1-5,.25c-2.77,0-4.79-.64-4.8-2.7,0-1.5,1.48-2.82,3.68-4-.48-.85-.64-2.48-.64-5.65l1.54.13c0,.18-.15.29-.43.34,0,2.45.07,4,.46,4.73a39.46,39.46,0,0,1,4.37-1.68Z"/><path class="cls-4" d="M239.5,106.93l-.08,0a.35.35,0,0,1-.21-.08c-1.06.35-2.62.92-3.78,1.43q0,.48,0,1.09c0,.45,0,1,0,1.5l-1,.06c0-.5.07-1.15.07-1.7,0-.21,0-.41,0-.56-1.58.77-2.87,1.71-2.87,2.55s1,1.21,2.9,1.21a31.31,31.31,0,0,0,3.52-.14v.94c-.83.08-2.09.11-3.53.11-2.69,0-3.88-.64-3.88-2.07,0-1.23,1.63-2.42,3.73-3.47-.08-.88-.48-1.32-1-1.32-1,0-2.09.57-3.35,2-.39.43-.94,1-1.54,1.53l-.69-.69a9.83,9.83,0,0,0,3.53-5.17h-3.12v-.91h3.38a18.25,18.25,0,0,0,.38-2l1.37.17c0,.14-.14.22-.35.25-.1.56-.22,1.05-.35,1.55a19.16,19.16,0,0,0,4.82-.81l.17.94a21.11,21.11,0,0,1-5.25.78,10.19,10.19,0,0,1-1,2.37h0a3.72,3.72,0,0,1,2.25-.91c1,0,1.56.69,1.74,1.82,1.18-.53,2.66-1.11,3.78-1.54Z"/><path class="cls-4" d="M251.5,112.53a26.1,26.1,0,0,1-4.3.32,15.64,15.64,0,0,1-2.7-.18,2.7,2.7,0,0,1-2.42-2.67,4.45,4.45,0,0,1,1.43-3l.81.42a3.8,3.8,0,0,0-1.23,2.48c0,.83.55,1.56,1.75,1.83a12.54,12.54,0,0,0,2.24.15,23.94,23.94,0,0,0,4.36-.38Zm-6.29-7.06a16.35,16.35,0,0,1,2.48-1.62h0c-1.06.13-3.5.17-5.06.17,0-.27,0-.73,0-1h.76a41.52,41.52,0,0,0,7.23-.45l.11,1a5.36,5.36,0,0,0-1.47.42,14.82,14.82,0,0,0-3.24,2Zm6.28,2a9.3,9.3,0,0,0-1.88-1.9l.46-.43A10.25,10.25,0,0,1,252,107Zm1.47-1.33a9.94,9.94,0,0,0-1.88-1.89l.46-.45a10.31,10.31,0,0,1,1.92,1.91Z"/><path class="cls-4" d="M267.44,103.7h-7.73a18.43,18.43,0,0,1-1.77,3.15l.15,0c0,.1-.11.17-.28.18v6.88h-.94v-5.79a11.83,11.83,0,0,1-1.75,1.6,7.11,7.11,0,0,0-.5-.85,11.24,11.24,0,0,0,2.26-2.21v-.11H257a16.24,16.24,0,0,0,1.71-2.9H255v-.9h4a19.38,19.38,0,0,0,.62-1.86l1.22.32c0,.1-.14.15-.32.15-.14.46-.29.92-.48,1.39h7.37Zm.28,5.39V110h-3.87v2.82c0,.59-.13.87-.57,1a10.32,10.32,0,0,1-2.48.15,3.19,3.19,0,0,0-.31-.91l1.33,0c1,0,1.08,0,1.08-.28V110h-4v-.88h4v-1.34h.36a10.75,10.75,0,0,0,1.89-1.5h-5.07v-.87h6l.17-.06.73.48a.25.25,0,0,1-.21.11,15.14,15.14,0,0,1-2.87,2.35v.81Z"/><path class="cls-4" d="M273.11,103.74v2.4c0,.22,0,.48,0,.71h2.56v.9H273a11.53,11.53,0,0,1-.22,1.3c.67.66,2.28,2.42,2.69,2.87l-.63.77c-.45-.62-1.57-1.93-2.31-2.76a7.62,7.62,0,0,1-2.86,3.84,3.27,3.27,0,0,0-.63-.69,7.18,7.18,0,0,0,3.05-5.34h-3v-.9h3.07c0-.25,0-.49,0-.73v-2.38H271a9.89,9.89,0,0,1-1.16,2.44,5.07,5.07,0,0,0-.7-.49,13.15,13.15,0,0,0,1.68-4.76l1.12.28c0,.1-.13.14-.29.14-.1.5-.22,1-.36,1.51h4.08v.88Zm3.18-1.57h5.18v11.22h-1v-1h-3.31v1.15h-.92Zm.92,9.33h3.31v-8.43h-3.31Z"/><path class="cls-4" d="M283.66,102.83c1.05,0,9.68-.66,11.5-.67v1.05h-.52a4,4,0,0,0-2.4.71c-2.1,1.26-4.13,3.52-4.13,5.32,0,2,1.37,3.12,4.85,3.57l-.46,1c-4-.57-5.46-2.06-5.46-4.55,0-2,1.95-4.37,4.51-6-1.54.11-5.67.42-7.48.59a.43.43,0,0,1-.31.22Zm9.08,2.76a10.34,10.34,0,0,1,1.9,1.93l-.53.43a9.34,9.34,0,0,0-1.85-1.95Zm1.51-1.23a8.86,8.86,0,0,1,1.91,1.93l-.53.42a9.92,9.92,0,0,0-1.85-1.93Z"/><path class="cls-4" d="M304.29,103.25c0-.31-.06-1.83-.08-2.19l1.44.06c0,.11-.11.25-.36.29,0,.17,0,.34,0,1.81,1.72-.06,3.53-.1,4.58-.11v1c-1.19,0-2.89,0-4.55.06,0,1.09.06,2.1.1,2.87a4.77,4.77,0,0,1,.17,1.47,6,6,0,0,1-.14,1.36c-.36,1.64-1.57,3.08-4,4.06a7.74,7.74,0,0,0-.71-.8c2.14-.77,3.29-1.93,3.64-3.26h0a1.76,1.76,0,0,1-1.44.74,2.39,2.39,0,0,1-2.35-2.45,2.58,2.58,0,0,1,2.52-2.62,2.07,2.07,0,0,1,1.3.43c0-.24,0-1.18-.06-1.78-1.46,0-5.88.18-6.46.21l0-.92,3.19-.08Zm.27,4.92c0-.55,0-1.82-1.43-1.82a1.69,1.69,0,0,0-1.67,1.78,1.57,1.57,0,0,0,1.55,1.63A1.51,1.51,0,0,0,304.55,108.16Z"/><path class="cls-4" d="M317,101.61c0,.17-.2.24-.46.25-.15.78-.41,2.14-.57,3,.63-.07,1.2-.13,1.55-.13,2.13,0,2.86,1.39,2.86,3.49a10.93,10.93,0,0,1-.48,3.14,2.56,2.56,0,0,1-2.49,2.11,4.15,4.15,0,0,1-2.54-1.22,5.3,5.3,0,0,0,.38-.85,3.75,3.75,0,0,0,2.14,1.06c.8,0,1.27-.5,1.55-1.4a10.56,10.56,0,0,0,.45-2.87c0-1.6-.53-2.55-1.93-2.54a16.13,16.13,0,0,0-1.71.14,26.88,26.88,0,0,1-2.87,7.56l-.92-.45a22.92,22.92,0,0,0,2.79-7c-.71.08-1.74.21-2.49.34l-.08-1,2.77-.32c.21-1,.43-2.28.6-3.52Zm6.49,6.74a8.4,8.4,0,0,0-3.15-4.79l.76-.59a9,9,0,0,1,3.4,5Z"/><path class="cls-4" d="M328.65,109.83H327.6a5.45,5.45,0,0,1-.06-.74,4,4,0,0,1,1-2.48,3.65,3.65,0,0,0,1.13-2.3,1.38,1.38,0,0,0-1.54-1.46,2.65,2.65,0,0,0-1.53.49l-.34-.85a3.92,3.92,0,0,1,2.1-.6,2.26,2.26,0,0,1,2.52,2.3A4.51,4.51,0,0,1,329.5,107a3.32,3.32,0,0,0-.88,2.12,2.76,2.76,0,0,0,0,.34ZM327.27,112a.84.84,0,0,1,.83-.9.89.89,0,1,1-.83.9Z"/></g></g></svg>