<svg xmlns="http://www.w3.org/2000/svg" viewBox="0 0 460 150"><defs><style>.cls-1{fill:#782341;}.cls-2{fill:#934f67;}.cls-3{fill:#f5f5f5;stroke:#f5f5f5;stroke-miterlimit:10;}.cls-4{fill:#fff;}</style></defs><title>Genetics05</title><g id="レイヤー_2" data-name="レイヤー 2"><g id="文字"><rect class="cls-1" y="0.7" width="460" height="149.3" rx="5" ry="5"/><rect class="cls-2" width="460" height="132.97" rx="5" ry="5"/><path class="cls-3" d="M23.23,36.91a.65.65,0,0,1-.69-.66.68.68,0,0,1,.69-.69h4.11V30.4H22.63a.63.63,0,0,1-.66-.66.64.64,0,0,1,.66-.69h4.71V24.13h-.42c-1.26,1.59-2.61,3-3.21,3a.8.8,0,0,1-.84-.75.92.92,0,0,1,.36-.66,19.78,19.78,0,0,0,5.1-6.63.64.64,0,0,1,.6-.39.92.92,0,0,1,.93.84,13.55,13.55,0,0,1-1.92,3.21H44.53a.63.63,0,0,1,.66.66.64.64,0,0,1-.66.69H42.22V29h4.62a.63.63,0,0,1,.66.66.64.64,0,0,1-.66.69H42.22v5.16h3.9a.65.65,0,0,1,.69.66.66.66,0,0,1-.69.69Zm-.18,7.2a.74.74,0,0,1,.39-.6,7.76,7.76,0,0,0,3-4.08.73.73,0,0,1,.75-.6.77.77,0,0,1,.81.75c0,1.56-2.82,5.31-4.08,5.31A.87.87,0,0,1,23.05,44.11Zm8.82-20H28.72V29h3.15Zm0,6.27H28.72v5.16h3.15Zm.54,14.37a.7.7,0,0,1-.75-.72,12.78,12.78,0,0,0-.87-4.5.38.38,0,0,1,0-.18.62.62,0,0,1,.69-.54c1.44,0,1.83,4.35,1.83,5.07A.85.85,0,0,1,32.41,44.77Zm3.84-20.64H33.19V29h3.06Zm0,6.27H33.19v5.16h3.06Zm2.49,14.25A.73.73,0,0,1,38,44a12.39,12.39,0,0,0-2-4.38.58.58,0,0,1-.09-.3.67.67,0,0,1,.72-.57c1.17,0,3,4.11,3,5A.88.88,0,0,1,38.74,44.65Zm2-20.52H37.6V29h3.18Zm0,6.27H37.6v5.16h3.18Zm5.07,14a.79.79,0,0,1-.72-.45,14.24,14.24,0,0,0-3.69-4.17.41.41,0,0,1-.18-.33.79.79,0,0,1,.81-.69c1,0,4.71,3.57,4.71,4.74A.93.93,0,0,1,45.85,44.44Z"/><path class="cls-3" d="M56.47,33.07a30.17,30.17,0,0,1-3.84,5.88.88.88,0,0,1-.66.33.74.74,0,0,1-.78-.69.79.79,0,0,1,.24-.57,27.24,27.24,0,0,0,5-7.71v-.18l-3.87,0a.67.67,0,0,1-.66-.69.65.65,0,0,1,.66-.69l3.87,0L56.38,20a.78.78,0,1,1,1.56,0s0,5.25-.06,8.82l3.15,0a.63.63,0,0,1,.66.66.68.68,0,0,1-.66.72l-3.15,0V32c0,1.11.06,12.18.06,12.18a.79.79,0,0,1-1.56,0ZM54,26.26a17.2,17.2,0,0,0-1.68-3.48.58.58,0,0,1-.09-.3.69.69,0,0,1,.72-.6c1,0,2.43,3.51,2.43,4a.8.8,0,0,1-.78.81A.6.6,0,0,1,54,26.26Zm6.75,10a15.25,15.25,0,0,0-2.49-2.91A.47.47,0,0,1,58,33a.74.74,0,0,1,.69-.66c.63,0,3.27,2.67,3.27,3.39a.83.83,0,0,1-.78.84A.63.63,0,0,1,60.7,36.25Zm-1.32-9.51a.65.65,0,0,1-.66-.57.71.71,0,0,1,.06-.24,23.9,23.9,0,0,0,1.62-3.72.57.57,0,0,1,.6-.45.76.76,0,0,1,.75.72,15.8,15.8,0,0,1-1.83,4A.6.6,0,0,1,59.38,26.74Zm3.24,2.94a.65.65,0,0,1-.69-.66.6.6,0,0,1,.66-.6l6.57,0V26.11l-4.71,0a.6.6,0,0,1-.63-.63.59.59,0,0,1,.63-.6l4.71,0v-2H63.52a.65.65,0,1,1,0-1.29l5.64,0V19.51a.73.73,0,0,1,.78-.75.72.72,0,0,1,.75.75l0,2.13,5.94,0a.62.62,0,0,1,.66.63.63.63,0,0,1-.66.66H70.66v2l4.56,0a.57.57,0,0,1,.6.6.57.57,0,0,1-.6.63l-4.56,0v2.34l7,0a.57.57,0,0,1,.6.63.59.59,0,0,1-.6.63Zm3.12,9.9c0,1.65,0,3.36,0,4.77v0a.69.69,0,0,1-.75.69.75.75,0,0,1-.78-.75c0-1.65,0-3.45,0-5.25s0-3.6,0-5.19.78-2.4,2.85-2.46c1,0,1.86-.06,2.76-.06s1.8,0,2.79.06c1.89.06,2.79,1,2.82,2.31,0,.42,0,4.44.06,5.4s.06,1.86.06,2.7v.12c0,1.29-.39,2.76-3,2.76-2,0-2.58-.3-2.58-1a.68.68,0,0,1,.69-.72,1.34,1.34,0,0,0,.15,0,10.18,10.18,0,0,0,1.68.21c1,0,1.5-.39,1.53-1.62,0-.6,0-1.32,0-2.07ZM74,36.1H65.74v2.34H74ZM74,34c0-.78-.39-1.29-1.59-1.32-.84,0-1.74,0-2.61,0s-1.68,0-2.4,0c-1.17,0-1.59.57-1.59,1.32v1H74Z"/><path class="cls-3" d="M97.84,32.5a18.36,18.36,0,0,1,.24,2.88c0,8.64-4.77,9.06-6.87,9.06a11.37,11.37,0,0,1-2.58-.3.91.91,0,0,1-.81-.87.84.84,0,0,1,.84-.87.82.82,0,0,1,.27,0,8.41,8.41,0,0,0,2.43.39c1.26,0,5.07-.15,5.07-7.71a14.73,14.73,0,0,0-.21-2.58l-13.47.06a.72.72,0,0,1-.72-.78.71.71,0,0,1,.69-.75l13.17,0a5.76,5.76,0,0,0-3-4c-.33-.15-.48-.36-.48-.57a.9.9,0,0,1,.93-.75,3.51,3.51,0,0,1,1.92,1c.06-.06,4.83-3.39,4.83-4.23,0-.42-.33-.48-2.82-.48-2.85,0-7.53.06-10,.12h0a.69.69,0,0,1-.72-.72.72.72,0,0,1,.75-.75c1.32,0,3.09-.06,5-.06,2.88,0,5.91,0,7.56.06,1.47,0,2.13.78,2.13,1.62a2.08,2.08,0,0,1-.57,1.35,41.64,41.64,0,0,1-5.19,4.2,10,10,0,0,1,1.32,3.15l9.15-.09a.69.69,0,0,1,.66.75.7.7,0,0,1-.66.78Z"/><path class="cls-3" d="M124.9,19.63a.84.84,0,0,1,1.68,0v2.82c3.39,0,6.9,0,9.51,0a.71.71,0,1,1,0,1.41c-2.37,0-5.46-.06-8.43-.06s-5.82,0-7.77.06c-1.44,0-2,.75-2,1.89v.09c.06,1.53.12,3.06.12,4.56,0,5-.63,9.69-4,13.38a1.13,1.13,0,0,1-.84.42.83.83,0,0,1-.84-.78.7.7,0,0,1,.21-.51,14.73,14.73,0,0,0,3.81-9.36,14.58,14.58,0,0,1-4.2,2.13.81.81,0,0,1-.81-.84.75.75,0,0,1,.54-.72A20.66,20.66,0,0,0,116.5,32V31c0-1.74-.09-3.51-.18-5.34v-.21c0-1.92,1.23-3,3.42-3h5.19ZM114.07,30a11.1,11.1,0,0,0-2-3,.62.62,0,0,1-.21-.42.79.79,0,0,1,.81-.69c.78,0,2.82,2.88,2.82,3.69a.91.91,0,0,1-.84.87A.59.59,0,0,1,114.07,30Zm4.26,13.8a.68.68,0,1,1,0-1.35h3.42V33a.78.78,0,0,1,1.56,0v9.45h4V28.9h-6.33a.62.62,0,0,1-.69-.63.78.78,0,0,1,.81-.75h14.07a.69.69,0,0,1,.72.69.67.67,0,0,1-.72.69h-6.27v5.49h5.25a.7.7,0,1,1,0,1.41h-5.25v6.66h7.47a.66.66,0,0,1,.69.69.65.65,0,0,1-.69.66Z"/><path class="cls-3" d="M145,44.38a11.27,11.27,0,0,0-3.69-3.45.79.79,0,0,1,.33-1.44c.87,0,4.83,3,4.83,4.41a.86.86,0,0,1-.84.87A.71.71,0,0,1,145,44.38Z"/><path class="cls-3" d="M158.71,23.62a.69.69,0,0,1-.72-.72.65.65,0,0,1,.69-.66l10.2,0,0-2.64a.81.81,0,0,1,.87-.78.8.8,0,0,1,.87.78l0,2.64,10.17,0a.64.64,0,0,1,.66.69.65.65,0,0,1-.66.69Zm.15,12c0-1.71,1.08-2.88,3.21-2.91,2.67,0,5.58,0,8.58,0,2.19,0,4.44,0,6.66,0a2.94,2.94,0,0,1,3.18,2.67v4.86c0,.39.06,1,.06,1.62v.09c0,1.41-.66,2.76-3.6,2.76-2.52,0-2.85-.39-2.85-.93a.76.76,0,0,1,.75-.81H175a14.16,14.16,0,0,0,2.25.27c1,0,1.68-.36,1.68-1.5,0-4.71,0-5.4,0-6,0-1.08-.72-1.68-1.92-1.71-2.4,0-5-.06-7.53-.06s-4.95,0-7.08.06a1.72,1.72,0,0,0-1.86,1.83c0,1.08,0,2.61,0,4.14s0,3.12,0,4.32a.73.73,0,0,1-.81.72.75.75,0,0,1-.81-.75Zm10.86-4.8c-6.36,0-6.9,0-6.9-2.49,0-1.68.09-2.76,2.61-2.79,1.62,0,3.21-.06,4.8-.06,6,0,6.45,0,6.45,2.67S176.32,30.82,169.72,30.82Zm-.09,10.71c-5,0-5.64-.24-5.64-2.67,0-1.32.09-2.61,2.25-2.7,1,0,2.22-.06,3.42-.06s2.43,0,3.39.06c2.22.09,2.28,1.38,2.28,2.52C175.33,41.47,174.52,41.53,169.63,41.53Zm5.52-13.38c0-1.05-.06-1.41-1.35-1.41-1.56,0-3.12,0-4.68,0-1.14,0-2.28,0-3.42,0s-1.35.36-1.35,1.38c0,1.5,0,1.5,5.1,1.5,4.95,0,5.64,0,5.67-.84A3.8,3.8,0,0,0,175.15,28.15Zm-5.52,12.12c4.2,0,4.2,0,4.2-1.53a3.24,3.24,0,0,0,0-.57c-.09-.87-.12-.87-4.65-.87-.93,0-1.83,0-2.49,0-1.14,0-1.17.48-1.17,1.95C165.55,40.27,166.06,40.27,169.63,40.27Z"/><path class="cls-3" d="M199.24,19.57a.84.84,0,1,1,1.68,0l0,2.34c3.39,0,7,0,9.57,0a.69.69,0,0,1,.75.69.72.72,0,0,1-.75.72c-2.73,0-7,0-10.71,0-2.73,0-5.19,0-6.6,0s-2,.78-2,1.95,0,2.13,0,3.27c0,5.07-.3,11.13-2.91,14.91a.86.86,0,0,1-.75.45.84.84,0,0,1-.87-.78.66.66,0,0,1,.12-.39c2.46-3.48,2.88-8.46,2.88-13,0-1.62-.06-3.18-.09-4.62v-.06c0-1.92,1.23-3.06,3.39-3.09,1.65,0,3.9-.06,6.33-.06Zm5.82,14.85c1.26,0,1.95.66,1.95,1.53,0,1.89-4,4.8-4.38,5a21.19,21.19,0,0,0,8.13,1.77.74.74,0,0,1,.72.78.78.78,0,0,1-.87.78,22.17,22.17,0,0,1-9.33-2.46,22.76,22.76,0,0,1-9.57,2.85.75.75,0,0,1-.78-.75.68.68,0,0,1,.69-.72A21.27,21.27,0,0,0,199.87,41c-2.37-1.59-4-3.48-4-3.9a.81.81,0,0,1,.81-.72.57.57,0,0,1,.51.24,13.76,13.76,0,0,0,4,3.6c2.46-1.59,4-3.66,4-4.08s-.3-.45-.93-.45h-.12c-.75,0-7.89,0-10,0a.65.65,0,0,1-.66-.69.61.61,0,0,1,.63-.63Zm.45-5.91c0,.66,0,1.35,0,2-.09,2.07-2.1,2.07-4.35,2.07-2.43,0-4,0-4.08-2.07,0-.57,0-1.26,0-2h-4.08a.66.66,0,1,1,0-1.32h4c0-.69,0-1.41,0-2,0-.42.39-.63.78-.63a.68.68,0,0,1,.75.63c0,.6,0,1.32,0,2H204c0-.69,0-1.41,0-2v0a.65.65,0,0,1,.72-.6.76.76,0,0,1,.81.66v2h4.41a.66.66,0,1,1,0,1.32Zm-7-.06c0,.63,0,1.23,0,1.74.06,1.08.66,1.17,2.73,1.17s2.67-.21,2.67-1.17c0-.51,0-1.11,0-1.74Z"/><path class="cls-3" d="M228.76,23.35a.63.63,0,0,1,.12-.42c-2.94.3-5.94.48-8.13.48-.69,0-1.32,0-1.32-.78a.68.68,0,0,1,.75-.69h1a71.53,71.53,0,0,0,16-1.86.93.93,0,0,1,.27,0,.78.78,0,0,1,.27,1.5,66.2,66.2,0,0,1-7.56,1.23.74.74,0,0,1,.27.57l0,4.2c2.37,0,4.5,0,5.49,0,1.44,0,2.13.75,2.13,1.65a2.56,2.56,0,0,1-.57,1.53,36.92,36.92,0,0,1-12,9.24c.54.54,2.79,2.34,8.4,2.34a48.06,48.06,0,0,0,7.47-.72h.12a.81.81,0,0,1,.81.84.84.84,0,0,1-.81.81,51.51,51.51,0,0,1-7.26.6c-4.89,0-8.82-.84-11.67-5.37A27.11,27.11,0,0,1,219,43.36a.89.89,0,0,1-.69.33,1,1,0,0,1-.93-.87.82.82,0,0,1,.3-.6,17.46,17.46,0,0,0,4.2-5.79.58.58,0,0,1,.57-.39.73.73,0,0,1,.75.66c0,.06,0,.09,0,.15l-.06.24a10.94,10.94,0,0,0,1.23,1.77C231,35.65,236,30.58,236,29.44c0-.3-.24-.48-.69-.48-2.19,0-11.43,0-13.92.06a.69.69,0,0,1-.69-.75.68.68,0,0,1,.69-.72h7.41Z"/><path class="cls-3" d="M251.47,33.07a30.17,30.17,0,0,1-3.84,5.88.88.88,0,0,1-.66.33.74.74,0,0,1-.78-.69.79.79,0,0,1,.24-.57,27.24,27.24,0,0,0,5-7.71v-.18l-3.87,0a.67.67,0,0,1-.66-.69.65.65,0,0,1,.66-.69l3.87,0L251.38,20a.78.78,0,1,1,1.56,0s0,5.25-.06,8.82l3.15,0a.63.63,0,0,1,.66.66.68.68,0,0,1-.66.72l-3.15,0V32c0,1.11.06,12.18.06,12.18a.79.79,0,0,1-1.56,0ZM249,26.26a17.2,17.2,0,0,0-1.68-3.48.58.58,0,0,1-.09-.3.69.69,0,0,1,.72-.6c1,0,2.43,3.51,2.43,4a.8.8,0,0,1-.78.81A.6.6,0,0,1,249,26.26Zm6.75,10a15.25,15.25,0,0,0-2.49-2.91A.47.47,0,0,1,253,33a.74.74,0,0,1,.69-.66c.63,0,3.27,2.67,3.27,3.39a.83.83,0,0,1-.78.84A.63.63,0,0,1,255.7,36.25Zm-1.32-9.51a.65.65,0,0,1-.66-.57.71.71,0,0,1,.06-.24,23.9,23.9,0,0,0,1.62-3.72.57.57,0,0,1,.6-.45.76.76,0,0,1,.75.72,15.8,15.8,0,0,1-1.83,4A.6.6,0,0,1,254.38,26.74Zm3.24,2.94a.65.65,0,0,1-.69-.66.6.6,0,0,1,.66-.6l6.57,0V26.11l-4.71,0a.6.6,0,0,1-.63-.63.59.59,0,0,1,.63-.6l4.71,0v-2h-5.64a.65.65,0,1,1,0-1.29l5.64,0V19.51a.73.73,0,0,1,.78-.75.72.72,0,0,1,.75.75l0,2.13,5.94,0a.62.62,0,0,1,.66.63.63.63,0,0,1-.66.66h-5.94v2l4.56,0a.57.57,0,0,1,.6.6.57.57,0,0,1-.6.63l-4.56,0v2.34l7,0a.57.57,0,0,1,.6.63.59.59,0,0,1-.6.63Zm3.12,9.9c0,1.65,0,3.36,0,4.77v0a.69.69,0,0,1-.75.69.75.75,0,0,1-.78-.75c0-1.65,0-3.45,0-5.25s0-3.6,0-5.19.78-2.4,2.85-2.46c1,0,1.86-.06,2.76-.06s1.8,0,2.79.06c1.89.06,2.79,1,2.82,2.31,0,.42,0,4.44.06,5.4s.06,1.86.06,2.7v.12c0,1.29-.39,2.76-3,2.76-2,0-2.58-.3-2.58-1a.68.68,0,0,1,.69-.72,1.34,1.34,0,0,0,.15,0,10.18,10.18,0,0,0,1.68.21c1,0,1.5-.39,1.53-1.62,0-.6,0-1.32,0-2.07ZM269,36.1h-8.28v2.34H269ZM269,34c0-.78-.39-1.29-1.59-1.32-.84,0-1.74,0-2.61,0s-1.68,0-2.4,0c-1.17,0-1.59.57-1.59,1.32v1H269Z"/><path class="cls-3" d="M292.84,32.5a18.36,18.36,0,0,1,.24,2.88c0,8.64-4.77,9.06-6.87,9.06a11.37,11.37,0,0,1-2.58-.3.91.91,0,0,1-.81-.87.84.84,0,0,1,.84-.87.82.82,0,0,1,.27,0,8.41,8.41,0,0,0,2.43.39c1.26,0,5.07-.15,5.07-7.71a14.73,14.73,0,0,0-.21-2.58l-13.47.06a.72.72,0,0,1-.72-.78.71.71,0,0,1,.69-.75l13.17,0a5.76,5.76,0,0,0-3-4c-.33-.15-.48-.36-.48-.57a.9.9,0,0,1,.93-.75,3.51,3.51,0,0,1,1.92,1c.06-.06,4.83-3.39,4.83-4.23,0-.42-.33-.48-2.82-.48-2.85,0-7.53.06-10,.12h0a.69.69,0,0,1-.72-.72.72.72,0,0,1,.75-.75c1.32,0,3.09-.06,5-.06,2.88,0,5.91,0,7.56.06,1.47,0,2.13.78,2.13,1.62a2.08,2.08,0,0,1-.57,1.35,41.64,41.64,0,0,1-5.19,4.2,10,10,0,0,1,1.32,3.15l9.15-.09a.69.69,0,0,1,.66.75.7.7,0,0,1-.66.78Z"/><path class="cls-3" d="M319.9,19.63a.84.84,0,0,1,1.68,0v2.82c3.39,0,6.9,0,9.51,0a.71.71,0,1,1,0,1.41c-2.37,0-5.46-.06-8.43-.06s-5.82,0-7.77.06c-1.44,0-2,.75-2,1.89v.09c.06,1.53.12,3.06.12,4.56,0,5-.63,9.69-4,13.38a1.13,1.13,0,0,1-.84.42.83.83,0,0,1-.84-.78.7.7,0,0,1,.21-.51,14.73,14.73,0,0,0,3.81-9.36,14.58,14.58,0,0,1-4.2,2.13.81.81,0,0,1-.81-.84.75.75,0,0,1,.54-.72A20.66,20.66,0,0,0,311.5,32V31c0-1.74-.09-3.51-.18-5.34v-.21c0-1.92,1.23-3,3.42-3h5.19ZM309.07,30a11.1,11.1,0,0,0-2-3,.62.62,0,0,1-.21-.42.79.79,0,0,1,.81-.69c.78,0,2.82,2.88,2.82,3.69a.91.91,0,0,1-.84.87A.59.59,0,0,1,309.07,30Zm4.26,13.8a.68.68,0,1,1,0-1.35h3.42V33a.78.78,0,0,1,1.56,0v9.45h4V28.9h-6.33a.62.62,0,0,1-.69-.63.78.78,0,0,1,.81-.75h14.07a.69.69,0,0,1,.72.69.67.67,0,0,1-.72.69h-6.27v5.49h5.25a.7.7,0,1,1,0,1.41h-5.25v6.66h7.47a.66.66,0,0,1,.69.69.65.65,0,0,1-.69.66Z"/><path class="cls-4" d="M33,79.34H28a11.52,11.52,0,0,0,5.23,3.22,4.37,4.37,0,0,0-.63.8,12.55,12.55,0,0,1-5.48-3.78v4.12h-1V79.53a13.52,13.52,0,0,1-5.42,3.91,4.19,4.19,0,0,0-.64-.77,12.59,12.59,0,0,0,5.17-3.33H20.38v-.85h5.79V76.92L27.4,77c0,.1-.1.17-.28.2v1.29H33ZM20.63,72.49a9,9,0,0,1,2.37.94l-.43.71a10,10,0,0,0-2.35-1Zm0,4.58a31.92,31.92,0,0,0,2.56-2.66l.59.59c-.77.91-1.62,1.86-2.26,2.49a.32.32,0,0,1,0,.14.28.28,0,0,1-.08.2Zm1-6.4a10.4,10.4,0,0,1,2.37,1l-.41.71A9.82,9.82,0,0,0,21.2,71.3Zm8.24,2.47h-2a5.39,5.39,0,0,1-3.64,4.52,3.94,3.94,0,0,0-.6-.69,4.65,4.65,0,0,0,3.31-3.84h-2.3v-.85H27c.06-.49.08-1,.1-1.6l1.19.06c0,.1-.08.15-.25.2,0,.48-.06.92-.1,1.34h2.79v3.57c0,.55,0,.6.41.6h.53c.32,0,.56-.06.59-.43s0-.76.06-1.44a2.45,2.45,0,0,0,.83.43,9.37,9.37,0,0,1-.14,1.6c-.11.31-.35.64-1.22.64H31c-1.15,0-1.15-.67-1.15-1.46Z"/><path class="cls-4" d="M37.89,81.52c0,.9.29,1.12,1.88,1.12h5.76c1.39,0,1.61-.39,1.78-2.17a2.76,2.76,0,0,0,.92.36c-.22,2.07-.63,2.69-2.7,2.69H39.85c-2.23,0-2.91-.38-2.91-2V75.12a14.07,14.07,0,0,1-1.11.9,3.19,3.19,0,0,0-.7-.67,14.15,14.15,0,0,0,4.24-4.71l1.25.21c0,.1-.13.17-.31.18-.11.2-.24.39-.38.6h3.71l.15-.06.74.46a.34.34,0,0,1-.22.11,14.38,14.38,0,0,1-1.29,2h4.09v5.13h-1v-.66H37.89Zm0-6.47v2.73h3.53V75.05Zm4-.87A9.79,9.79,0,0,0,43,72.48h-3.7a21.65,21.65,0,0,1-1.43,1.71Zm4.26,3.6V75.05h-3.8v2.73Z"/><path class="cls-4" d="M54.72,71.16c-.06.1-.15.14-.32.13a25.34,25.34,0,0,1-1.29,2.9l.38.1c0,.08-.1.15-.28.17v9.29H52.3V75.63A16.56,16.56,0,0,1,50.59,78a7,7,0,0,0-.49-.88,18.66,18.66,0,0,0,3.5-6.3Zm8.61,3.63H59.67a13.38,13.38,0,0,0,3.92,5.81,4,4,0,0,0-.71.74A15.31,15.31,0,0,1,59,75.19v4.9h2.27V81H59v2.77H58.1V81H55.79V80.1H58.1V75.25a15.49,15.49,0,0,1-3.94,6.14,4.07,4.07,0,0,0-.67-.71,14.32,14.32,0,0,0,4-5.88H54v-.9H58.1V70.82l1.19.08c0,.1-.08.17-.28.18v2.8h4.33Z"/><path class="cls-4" d="M74.65,73.6l.42,0a2.8,2.8,0,0,1,3,2.8c0,1.82-1.25,2.89-3.17,2.89a4.72,4.72,0,0,1-2.8-1,5.86,5.86,0,0,0,.28-.84,4.32,4.32,0,0,0,2.52.92,1.9,1.9,0,0,0,2.14-2c0-1-.71-1.85-2.2-1.85a16.92,16.92,0,0,0-4.61,1.16c.66,2.23,1.55,5.42,2.1,7.52l-1.08.24c-.43-2-1.36-5.35-2-7.41-.9.32-2.16.74-2.91,1a.41.41,0,0,1-.24.31l-.45-1.12c.9-.28,2.31-.74,3.33-1.11-.42-1.43-.81-2.69-1.06-3.5l1.44-.27c0,.18-.06.25-.29.38.31,1.08.56,2,.87,3.05a24.63,24.63,0,0,1,4-1.13,12.8,12.8,0,0,0-2.51-2.13l.64-.63A12,12,0,0,1,75,73.27Z"/><path class="cls-4" d="M83.48,76.29v4.64c1.09,1.67,3.15,1.67,5.71,1.67,1.55,0,3.38,0,4.48-.11a3.48,3.48,0,0,0-.29.91c-1,0-2.49.06-3.89.06-3.07,0-5,0-6.39-1.74-.64.62-1.3,1.25-1.83,1.74a.21.21,0,0,1-.13.21l-.53-1a24.5,24.5,0,0,0,2-1.67V77.18H80.72v-.9ZM81.6,71a10.35,10.35,0,0,1,2.31,2.34l-.77.59a10,10,0,0,0-2.27-2.41Zm11.89,3.38v.67H84v-.67H88.2v-.71h-3V71.54h3v-.85l1.18.08c0,.1-.1.15-.28.18v.59h3.19v2.16H89.09v.71Zm-3.38,5.85a23.29,23.29,0,0,1,3.05,1.46l-.83.46a20.39,20.39,0,0,0-3-1.51l.56-.41H87.37l.85.34a.25.25,0,0,1-.29.1,12.72,12.72,0,0,1-2.69,1.5,4.8,4.8,0,0,0-.64-.53,9.25,9.25,0,0,0,2.56-1.4H85.23v-4.5h7v4.5ZM86,73.09H88.2v-.94H86Zm.1,3.25v.73h5.17v-.73Zm0,1.29v.74h5.17v-.74Zm0,1.29v.77h5.17v-.77Zm5.25-6.77H89.09v.94h2.28Z"/><path class="cls-4" d="M97.66,75.63A16.56,16.56,0,0,1,95.95,78a7,7,0,0,0-.49-.88,18.66,18.66,0,0,0,3.5-6.3l1.12.38c-.06.1-.15.14-.32.13a25.34,25.34,0,0,1-1.29,2.9l.38.1c0,.08-.1.15-.28.17v9.29h-.91Zm8.7,3.18A18.52,18.52,0,0,1,109,83.27l-.9.43a9.16,9.16,0,0,0-.52-1.25c-2.77.25-5.7.48-7.58.62a.27.27,0,0,1-.21.2l-.39-1.13,1.64-.08A38.22,38.22,0,0,0,102.66,77H99.53v-.92h9.3V77h-5.07l.2.06c0,.1-.15.15-.32.17A44.9,44.9,0,0,1,102,82l5.17-.32a24,24,0,0,0-1.61-2.51Zm1.7-7v.9h-7.42v-.9Z"/><path class="cls-4" d="M123.83,77.06V78H117.9v4.44c0,.67-.18,1-.69,1.12a12.07,12.07,0,0,1-2.8.17,4.15,4.15,0,0,0-.41-1c.74,0,1.44,0,1.93,0,.88,0,1,0,1-.36V78h-6v-.94h6v-2.3l.55,0a17.92,17.92,0,0,0,3.21-2.17h-8.25v-.92h9.3l.17-.07.84.56c0,.07-.15.1-.24.13a22.27,22.27,0,0,1-4.61,3.24v1.51Z"/><path class="cls-4" d="M133.32,73.23a.36.36,0,0,1-.35.22c-.5,4.36-2,8.15-4.29,8.15-1.18,0-2.24-1.18-2.24-3.39a6.15,6.15,0,0,1,6.3-6.18c4,0,5.8,2.56,5.8,5.29,0,3.33-1.93,4.94-5.32,5.73a5.53,5.53,0,0,0-.59-.85c3.22-.62,4.87-2.19,4.87-4.83,0-2.31-1.48-4.41-4.76-4.41l-.42,0ZM132,73a5.16,5.16,0,0,0-4.58,5.14c0,1.5.64,2.44,1.32,2.44C130.4,80.63,131.62,76.89,132,73Z"/><path class="cls-4" d="M144.74,74.13a.29.29,0,0,1-.28.14,9.43,9.43,0,0,1-2.61,2.62,8.2,8.2,0,0,0-.66-.56,7,7,0,0,0,2.45-2.52Zm6.42,4,.69.42a.3.3,0,0,1-.2.14,8.52,8.52,0,0,1-3,2.84,17.75,17.75,0,0,0,5.5,1.32,3.62,3.62,0,0,0-.56.88,16.38,16.38,0,0,1-5.91-1.68,21.74,21.74,0,0,1-6,1.68,2.66,2.66,0,0,0-.48-.84,21.12,21.12,0,0,0,5.56-1.37,8.56,8.56,0,0,1-2.07-1.93A15.25,15.25,0,0,1,142.18,81a2.67,2.67,0,0,0-.62-.7,10.23,10.23,0,0,0,4.55-3.25l1.2.21c0,.1-.13.17-.31.17-.2.24-.41.48-.64.73H151ZM147,73a5,5,0,0,1-2.51,4.8,3.69,3.69,0,0,0-.67-.64,4.23,4.23,0,0,0,2.28-4.08V73h-4.62v-.88h5.7V70.68l1.23.08c0,.1-.08.17-.27.18v1.19h5.76V73H150v3.24c0,1-.39,1-2.45,1a3.88,3.88,0,0,0-.27-.84h1.57c.2,0,.24-.06.24-.22V73ZM145.52,79l-.15.13a7.28,7.28,0,0,0,2.34,2A7.75,7.75,0,0,0,150.33,79ZM153.31,77a16.93,16.93,0,0,0-2.55-2.84l.74-.43a17.21,17.21,0,0,1,2.59,2.77Z"/><path class="cls-4" d="M165.64,80.24h3.46v.84H156.41v-.84h3.46V78.5h-2.55v-.84h2.55V76.23H158v-5h9.68v5h-1.72c0,.08-.11.14-.28.17v1.26h2.61v.84h-2.61Zm-4,1.65a.39.39,0,0,1-.28.08,17.6,17.6,0,0,1-4.27,1.74,4.93,4.93,0,0,0-.62-.71,16.34,16.34,0,0,0,4.23-1.68ZM158.88,72v1.36h3.36V72Zm0,2.09v1.37h3.36V74.1Zm2.21,2.13c0,.08-.1.14-.28.17v1.26h3.87V76.23Zm-.28,2.27v1.74h3.87V78.5Zm5.88-5.13V72h-3.53v1.36Zm0,2.1V74.1h-3.53v1.37Zm1.57,8.24A30.53,30.53,0,0,0,164,81.94l.62-.64A38.49,38.49,0,0,1,169,83Z"/><path class="cls-4" d="M176.79,71.35c0,.17-.2.24-.46.25-.15.78-.41,2.14-.57,3,.63-.07,1.2-.13,1.55-.13,2.13,0,2.86,1.39,2.86,3.49a10.92,10.92,0,0,1-.48,3.14,2.56,2.56,0,0,1-2.49,2.11A4.15,4.15,0,0,1,174.66,82a5.28,5.28,0,0,0,.38-.85,3.75,3.75,0,0,0,2.14,1.06c.8,0,1.27-.5,1.55-1.4a10.56,10.56,0,0,0,.45-2.87c0-1.6-.53-2.55-1.93-2.54a16,16,0,0,0-1.71.14,26.87,26.87,0,0,1-2.87,7.56l-.92-.45a22.91,22.91,0,0,0,2.79-7c-.71.08-1.74.21-2.49.34L172,75l2.77-.32c.21-1,.43-2.28.6-3.52Zm3.25-.43a9.85,9.85,0,0,1,1.88,2l-.55.39a9.34,9.34,0,0,0-1.85-1.95Zm3.14,8.15a8.82,8.82,0,0,0-2.86-4.78l.81-.55a9.28,9.28,0,0,1,3.05,4.94Zm-1-8.7A9.15,9.15,0,0,1,184,72.32l-.55.41a9.39,9.39,0,0,0-1.85-2Z"/><path class="cls-4" d="M197.84,78.92H194.5v3.71c0,1.05-.42,1.06-2.73,1.06a4,4,0,0,0-.29-.84l1.32,0c.69,0,.78,0,.78-.25V78.92h-3.31v-5H193c.14-.48.29-1.06.41-1.57h-4.71v3.21c0,2.35-.18,5.74-1.5,8.08a3.08,3.08,0,0,0-.83-.49c1.27-2.24,1.4-5.36,1.4-7.61V71.49h11.46v.88h-4.79c-.13.46-.32,1.06-.52,1.57h3.89Zm-5.57,1.13c0,.1-.14.14-.31.13a12.11,12.11,0,0,1-2.83,2.9c-.18-.15-.52-.39-.73-.53a10.24,10.24,0,0,0,2.79-2.86Zm-1.11-5.35v1.36h5.76V74.7Zm0,2.09v1.37h5.76V76.79ZM198.73,83a15,15,0,0,0-2.9-2.93l.71-.48a15.66,15.66,0,0,1,3,2.87Z"/><path class="cls-4" d="M202.21,71.35H214V83.69h-1V83h-9.95v.66h-.92Zm.92,10.77h9.95V72.26h-9.95Zm9.1-6h-3.52a5.66,5.66,0,0,0,3.66,4.37,3.21,3.21,0,0,0-.59.77A6.14,6.14,0,0,1,208.12,77a5.71,5.71,0,0,1-3.74,4.38,2.3,2.3,0,0,0-.56-.71,5.16,5.16,0,0,0,3.56-4.48H204v-.87h3.54c.07-.73.11-1.53.14-2.38l1.18.07c0,.11-.11.18-.29.21,0,.74-.07,1.44-.14,2.1h3.85Z"/><path class="cls-4" d="M226.54,75.65a.27.27,0,0,1-.11,0,.55.55,0,0,1-.29-.08c-4.16,1.22-7.93,3.05-7.91,4.93,0,1.34,1.48,1.81,3.75,1.81a33.57,33.57,0,0,0,5-.32l.08,1a45.14,45.14,0,0,1-5,.25c-2.77,0-4.79-.64-4.8-2.7,0-1.5,1.48-2.82,3.68-4-.48-.85-.64-2.48-.64-5.65l1.54.13c0,.18-.15.29-.43.34,0,2.45.07,4,.46,4.73a39.46,39.46,0,0,1,4.37-1.68Z"/><path class="cls-4" d="M234.89,71.09a.46.46,0,0,1-.43.24c-.1.62-.22,1.34-.35,1.89a19.33,19.33,0,0,0,4.12-.69l.15,1a28.17,28.17,0,0,1-4.45.67,20.8,20.8,0,0,1-3,6.89l-.94-.38a18.66,18.66,0,0,0,2.84-6.49h-2.79v-.91h3a23.08,23.08,0,0,0,.39-2.37Zm3.73,6c0,1.13.1,1.9.18,2.87a14.32,14.32,0,0,1,3,1.63l-.5.9A13.24,13.24,0,0,0,238.79,81c0,1.4-.56,2.49-2.62,2.49-1.55,0-2.75-.7-2.73-2s1.47-2.07,2.76-2.07a6,6,0,0,1,1.58.25c-.06-.9-.13-1.81-.13-2.47Zm-.77,3.5a4.67,4.67,0,0,0-1.67-.32c-.84,0-1.83.34-1.85,1.2s.78,1.18,1.88,1.18,1.65-.49,1.65-1.41C237.86,81,237.86,80.77,237.84,80.56Zm3.84-4.94a20,20,0,0,0-5,.69l-.15-.88a19.58,19.58,0,0,1,5.06-.76Z"/><path class="cls-4" d="M244.66,76.21c.25-.06.77-.2,1.25-.34a20.89,20.89,0,0,1,5.07-1c1.89,0,3.59,1,3.59,3.29,0,3.08-3.05,4.22-6.79,4.51a6.82,6.82,0,0,0-.28-.85c3.29-.24,6.08-1.19,6.08-3.6a2.41,2.41,0,0,0-2.73-2.49,17.42,17.42,0,0,0-4.69,1l-.9.31a.35.35,0,0,1-.22.24Z"/><path class="cls-4" d="M257.55,72.57c1.05,0,9.68-.66,11.5-.67V73h-.52a4,4,0,0,0-2.4.71C264,74.91,262,77.17,262,79c0,2,1.37,3.12,4.85,3.57l-.46,1c-4-.57-5.46-2.06-5.46-4.55,0-2,1.95-4.37,4.51-6-1.48.1-5.67.42-7.48.59a.42.42,0,0,1-.31.22Z"/><path class="cls-4" d="M273.85,72.57c0,.13-.18.21-.38.22a23,23,0,0,0-.27,3.49c0,.52,0,1,.06,1.47.17,2.38,1.13,3.82,2.21,3.81.56,0,1.29-1.43,1.79-3a4.92,4.92,0,0,0,.81.6c-.64,1.89-1.46,3.43-2.62,3.46-1.78,0-3-2.13-3.21-4.82,0-.53-.06-1.12-.06-1.75a33.39,33.39,0,0,1,.21-3.77Zm9.29,6.51a7,7,0,0,0-3.53-5.27l.62-.76a7.69,7.69,0,0,1,4,5.7Z"/><path class="cls-4" d="M290.51,76.83A8.48,8.48,0,0,1,294,76c2.23,0,3.63,1.3,3.63,3.36,0,2.54-2.23,3.94-5,3.94-1.82,0-3.07-.73-3.07-2a2.12,2.12,0,0,1,2.3-1.88A3,3,0,0,1,294.65,82a2.75,2.75,0,0,0,1.93-2.62c0-1.51-1.12-2.48-2.89-2.48a8,8,0,0,0-5.08,1.83c-.42.39-1,1-1.34,1.41l-.71-.71c1.26-1.32,5.27-5.14,7.17-6.92-.81.11-3.61.22-5.21.28a.46.46,0,0,1-.29.21l-.11-1.19c1.89,0,5.5-.15,6.53-.31l.21-.1.74.91a.68.68,0,0,1-.34.13c-1,.81-3.66,3.31-4.75,4.36Zm1.93,5.6a6.13,6.13,0,0,0,1.27-.14,2.16,2.16,0,0,0-2-2c-.73,0-1.37.39-1.37,1C290.35,82.2,291.51,82.43,292.44,82.43Z"/><path class="cls-4" d="M303.06,78.9l1.54-.7a7.47,7.47,0,0,1,.2.83c-1.44.7-3,1.44-4,1.89a.27.27,0,0,1-.15.24l-.46-1.05c.53-.21,1.2-.49,1.95-.81V74.66h-1.71v-.91h1.71V70.7l1.16.08c0,.1-.08.15-.27.18v2.79h1.58v.91h-1.58Zm10.24-1.54h-5.91a9.33,9.33,0,0,1-.64,1.06h5.73l.52.08-.06.28c-.24,3-.46,4.15-.84,4.55s-.69.35-1.42.35l-.8,0a1.93,1.93,0,0,0-.21-.78,12.15,12.15,0,0,0,1.25.06c.21,0,.32,0,.43-.14s.46-1.2.66-3.56h-1.26A10.2,10.2,0,0,1,308,83.79a3.13,3.13,0,0,0-.71-.55,8.65,8.65,0,0,0,2.69-4h-1.48a10.85,10.85,0,0,1-3.42,4,3.33,3.33,0,0,0-.64-.6,9.39,9.39,0,0,0,3.21-3.36h-1.51a9.17,9.17,0,0,1-2,1.74,5.84,5.84,0,0,0-.6-.56,8.38,8.38,0,0,0,2.89-3h-2.09v-.83h9Zm-1-6.25v4.57h-6.49V71.12ZM311.4,73v-1.2h-4.75V73Zm0,1.92V73.74h-4.75V75Z"/><path class="cls-4" d="M322.78,70.75a.33.33,0,0,1-.29.21,17.68,17.68,0,0,0,6.14,4.89,3.57,3.57,0,0,0-.62.81,19.47,19.47,0,0,1-6.11-5,18.11,18.11,0,0,1-6,5.13,4.77,4.77,0,0,0-.59-.74,16.34,16.34,0,0,0,6.05-5.36Zm-5.14,13V78h8.63v5.67h-1v-.6h-6.75v.6Zm.71-8.38h7.17v.85h-7.17Zm7,3.57h-6.75v3.35h6.75Z"/><path class="cls-4" d="M336,71.35c0,.17-.2.24-.46.25-.15.78-.41,2.14-.57,3,.63-.07,1.2-.13,1.55-.13,2.13,0,2.86,1.39,2.86,3.49a10.92,10.92,0,0,1-.48,3.14,2.56,2.56,0,0,1-2.49,2.11A4.15,4.15,0,0,1,333.83,82a5.28,5.28,0,0,0,.38-.85,3.75,3.75,0,0,0,2.14,1.06c.8,0,1.27-.5,1.55-1.4a10.56,10.56,0,0,0,.45-2.87c0-1.6-.53-2.55-1.93-2.54a16,16,0,0,0-1.71.14,26.87,26.87,0,0,1-2.87,7.56l-.92-.45a22.91,22.91,0,0,0,2.79-7c-.71.08-1.74.21-2.49.34l-.08-1,2.77-.32c.21-1,.43-2.28.6-3.52Zm3.25-.43a9.85,9.85,0,0,1,1.88,2l-.55.39a9.34,9.34,0,0,0-1.85-1.95Zm3.14,8.15a8.82,8.82,0,0,0-2.86-4.78l.81-.55a9.28,9.28,0,0,1,3.05,4.94Zm-1-8.7a9.15,9.15,0,0,1,1.89,1.95l-.55.41a9.39,9.39,0,0,0-1.85-2Z"/><path class="cls-4" d="M354.4,75.28c0,.18-.08.36-.14.53,2.47.43,3.38,2,3.38,3.63,0,2.23-1.9,3.57-5.41,4a5.37,5.37,0,0,0-.38-.84c2.9-.28,4.76-1.29,4.76-3.1v-.1A2.77,2.77,0,0,0,354,76.69a11.07,11.07,0,0,1-2.79,4.12,3.17,3.17,0,0,0,.36.76l-.83.52a3.6,3.6,0,0,1-.34-.7,4.54,4.54,0,0,1-2.65,1.05,1.67,1.67,0,0,1-1.7-1.86c0-1.93,1.6-3.47,3.63-4.29,0-.73,0-1.53,0-2.35-2.37,0-2.62,0-3.08,0l0-.92c.71,0,1.93,0,3.14,0,0-.64,0-1.43.07-2.09l1.4.1c0,.14-.15.25-.36.28,0,.52-.07,1.16-.11,1.68a32.07,32.07,0,0,0,5.62-.59l.13,1a34,34,0,0,1-5.79.55c0,.73,0,1.43,0,2.09a7.29,7.29,0,0,1,2.1-.32h.57c.06-.22.1-.43.14-.66Zm-4.3,5.23a16.42,16.42,0,0,1-.41-3.28c-1.53.67-2.72,1.83-2.72,3.19,0,.83.46,1.11,1,1.08A3.83,3.83,0,0,0,350.1,80.5ZM353,76.57a6.53,6.53,0,0,0-2.37.34,13.6,13.6,0,0,0,.32,2.89A9.19,9.19,0,0,0,353,76.57Z"/><path class="cls-4" d="M361.76,78.95a9.39,9.39,0,0,1-.41-2.63,25,25,0,0,1,.48-4.62l1.4.24c-.06.18-.22.22-.41.24a20.49,20.49,0,0,0-.48,4.08,5.57,5.57,0,0,0,0,.76,24,24,0,0,1,1.09-2.17,5.89,5.89,0,0,0,.55.62c-1,1.86-1.34,2.4-1.34,3a1.57,1.57,0,0,0,0,.35Zm7.51-7.62c0,.17-.13.24-.36.31.1,1.22.24,3.25.24,4.86,0,2.7-1,5.14-5.21,6.89a7.46,7.46,0,0,0-.7-.81c3.82-1.46,4.85-3.77,4.85-6.06,0-1.72-.17-3.75-.32-5.25Z"/><path class="cls-4" d="M373,72.85c.87.06,2,.06,3,.06l1.93,0c0-.67,0-1.46,0-1.95l1.41.07c0,.17-.14.25-.38.29,0,.22,0,1.3,0,1.54a27.53,27.53,0,0,0,4.65-.55l.13.92a28.71,28.71,0,0,1-4.78.53c0,.84,0,1.71.06,2.58a23.55,23.55,0,0,0,4-.55l.11.91a26.75,26.75,0,0,1-4,.49l.11,2.34a15.56,15.56,0,0,1,4.12,2.19l-.62.85a13.65,13.65,0,0,0-3.47-2.06c0,.22,0,.48,0,.66,0,1.33-.81,2.1-2.51,2.1s-3.08-.73-3.08-2,1.53-2.09,3.1-2.09a6.14,6.14,0,0,1,1.47.17c0-.6,0-1.33-.06-2.09l-1.36,0c-2.4,0-3.07-.38-3.07-1.19,0-.53.41-1,1.3-1.54l.67.43c-.63.35-1,.66-1,.94s.66.5,2.44.5H378l-.08-2.59c-.6,0-1.3,0-1.93,0-.9,0-2.17,0-3,0Zm5.18,7.3a5.88,5.88,0,0,0-1.57-.22c-1.06,0-2.14.43-2.14,1.27s1,1.23,2.2,1.23,1.53-.49,1.53-1.47Z"/><path class="cls-4" d="M393.32,73c0-.31-.06-1.83-.08-2.19l1.44.06c0,.11-.11.25-.36.29,0,.17,0,.34,0,1.81,1.72-.06,3.53-.1,4.58-.11v1c-1.19,0-2.89,0-4.55.06,0,1.09.06,2.1.1,2.87a4.78,4.78,0,0,1,.17,1.47,6,6,0,0,1-.14,1.36c-.36,1.64-1.57,3.08-4,4.06a7.63,7.63,0,0,0-.71-.8c2.14-.77,3.29-1.93,3.64-3.26h0a1.76,1.76,0,0,1-1.44.74,2.39,2.39,0,0,1-2.35-2.45,2.58,2.58,0,0,1,2.52-2.62,2.07,2.07,0,0,1,1.3.43c0-.24,0-1.18-.06-1.78-1.46,0-5.88.18-6.46.21l0-.92,3.19-.08Zm.27,4.92c0-.55,0-1.82-1.43-1.82a1.69,1.69,0,0,0-1.67,1.78A1.57,1.57,0,0,0,392,79.49,1.51,1.51,0,0,0,393.59,77.91Z"/><path class="cls-4" d="M403.89,81.73a2,2,0,1,1-2-2A2,2,0,0,1,403.89,81.73Zm-.5,0a1.45,1.45,0,1,0-1.46,1.44A1.45,1.45,0,0,0,403.39,81.73Z"/><path class="cls-4" d="M421.18,79.34h-5a11.52,11.52,0,0,0,5.23,3.22,4.37,4.37,0,0,0-.63.8,12.55,12.55,0,0,1-5.48-3.78v4.12h-1V79.53A13.52,13.52,0,0,1,409,83.44a4.19,4.19,0,0,0-.64-.77,12.59,12.59,0,0,0,5.17-3.33h-4.89v-.85h5.79V76.92l1.23.08c0,.1-.1.17-.28.2v1.29h5.85Zm-12.34-6.85a9,9,0,0,1,2.37.94l-.43.71a10,10,0,0,0-2.35-1Zm0,4.58a31.92,31.92,0,0,0,2.56-2.66L412,75c-.77.91-1.62,1.86-2.26,2.49a.32.32,0,0,1,0,.14.28.28,0,0,1-.08.2Zm1-6.4a10.4,10.4,0,0,1,2.37,1l-.41.71a9.82,9.82,0,0,0-2.37-1.06Zm8.24,2.47h-2a5.39,5.39,0,0,1-3.64,4.52,3.94,3.94,0,0,0-.6-.69,4.65,4.65,0,0,0,3.31-3.84h-2.3v-.85h2.44c.06-.49.08-1,.1-1.6l1.19.06c0,.1-.08.15-.25.2,0,.48-.06.92-.1,1.34H419v3.57c0,.55,0,.6.41.6h.53c.32,0,.56-.06.59-.43s0-.76.06-1.44a2.45,2.45,0,0,0,.83.43,9.37,9.37,0,0,1-.14,1.6c-.11.31-.35.64-1.22.64h-.83c-1.15,0-1.15-.67-1.15-1.46Z"/><path class="cls-4" d="M426.11,81.52c0,.9.29,1.12,1.88,1.12h5.76c1.39,0,1.61-.39,1.78-2.17a2.76,2.76,0,0,0,.92.36c-.22,2.07-.63,2.69-2.7,2.69h-5.67c-2.23,0-2.91-.38-2.91-2V75.12A14.07,14.07,0,0,1,424,76a3.19,3.19,0,0,0-.7-.67,14.16,14.16,0,0,0,4.24-4.71l1.25.21c0,.1-.13.17-.31.18-.11.2-.24.39-.38.6h3.71l.15-.06.74.46a.34.34,0,0,1-.22.11,14.38,14.38,0,0,1-1.29,2h4.09v5.13h-1v-.66h-8.28Zm0-6.47v2.73h3.53V75.05Zm4-.87a9.82,9.82,0,0,0,1.13-1.71h-3.7a21.54,21.54,0,0,1-1.43,1.71Zm4.26,3.6V75.05h-3.8v2.73Z"/><path class="cls-4" d="M24.48,92.16c-.06.1-.15.14-.32.13a25.34,25.34,0,0,1-1.29,2.9l.38.1c0,.08-.1.15-.28.17v9.29h-.91V96.63A16.56,16.56,0,0,1,20.35,99a7,7,0,0,0-.49-.88,18.65,18.65,0,0,0,3.5-6.3Zm8.61,3.63H29.43a13.38,13.38,0,0,0,3.92,5.81,4,4,0,0,0-.71.74,15.31,15.31,0,0,1-3.87-6.15v4.9H31V102H28.77v2.77h-.91V102H25.55v-.87h2.31V96.25a15.49,15.49,0,0,1-3.94,6.14,4.07,4.07,0,0,0-.67-.71,14.31,14.31,0,0,0,4-5.88H23.77v-.9h4.09V91.82l1.19.08c0,.1-.08.17-.28.18v2.8H33.1Z"/><path class="cls-4" d="M39,98.18a1.44,1.44,0,1,1-1.44-1.44A1.44,1.44,0,0,1,39,98.18Z"/><path class="cls-4" d="M44.7,97.28v4.64c1.09,1.67,3.15,1.67,5.71,1.67,1.55,0,3.38,0,4.48-.11a3.48,3.48,0,0,0-.29.91c-1,0-2.49.06-3.89.06-3.07,0-5,0-6.39-1.74-.64.62-1.3,1.25-1.83,1.74a.21.21,0,0,1-.13.21l-.53-1a24.5,24.5,0,0,0,2-1.67V98.18H41.94v-.9ZM42.82,92a10.36,10.36,0,0,1,2.31,2.34l-.77.59a10,10,0,0,0-2.27-2.41Zm11.89,3.38v.67H45.24v-.67h4.17v-.71h-3V92.54h3v-.85l1.18.08c0,.1-.1.15-.28.18v.59h3.19v2.16H50.31v.71Zm-3.38,5.85a23.3,23.3,0,0,1,3.05,1.46l-.83.46a20.44,20.44,0,0,0-3-1.51l.56-.41H48.59l.85.34a.25.25,0,0,1-.29.1,12.72,12.72,0,0,1-2.69,1.5,4.8,4.8,0,0,0-.64-.53,9.23,9.23,0,0,0,2.56-1.4H46.45v-4.5h7v4.5Zm-4.09-7.17h2.17v-.94H47.25Zm.1,3.25v.73h5.17v-.73Zm0,1.29v.74h5.17v-.74Zm0,1.29v.77h5.17v-.77Zm5.25-6.77H50.31v.94H52.6Z"/><path class="cls-4" d="M58.11,96.63A16.56,16.56,0,0,1,56.4,99a7,7,0,0,0-.49-.88,18.65,18.65,0,0,0,3.5-6.3l1.12.38c-.06.1-.15.14-.32.13a25.34,25.34,0,0,1-1.29,2.9l.38.1c0,.08-.1.15-.28.17v9.29h-.91Zm8.7,3.18a18.53,18.53,0,0,1,2.62,4.47l-.9.43a9.16,9.16,0,0,0-.52-1.25c-2.77.25-5.7.48-7.58.62a.27.27,0,0,1-.21.2l-.39-1.13,1.64-.08A38.2,38.2,0,0,0,63.11,98H60v-.92h9.3V98H64.22l.2.06c0,.1-.15.15-.32.17A44.9,44.9,0,0,1,62.44,103l5.17-.32A24.14,24.14,0,0,0,66,100.17Zm1.7-7v.9H61.08v-.9Z"/><path class="cls-4" d="M83.51,98.06V99H77.59v4.44c0,.67-.18,1-.69,1.12a12.07,12.07,0,0,1-2.8.17,4.15,4.15,0,0,0-.41-1c.74,0,1.44,0,1.93,0,.88,0,1,0,1-.36V99h-6v-.94h6v-2.3l.55,0a17.92,17.92,0,0,0,3.21-2.17H72.12v-.92h9.3l.17-.07.84.56c0,.07-.15.1-.24.13a22.29,22.29,0,0,1-4.61,3.24v1.51Z"/><path class="cls-4" d="M97.3,100.87H94.43A5.42,5.42,0,0,0,98.1,104a2.17,2.17,0,0,0-.56.81,6.16,6.16,0,0,1-3.8-3.36c-.48,1.3-1.61,2.52-4.12,3.35a2.91,2.91,0,0,0-.53-.7c2.55-.83,3.54-2,3.91-3.18H90.07V97.26H93.2V95.87H91V95.2a9.84,9.84,0,0,1-1.19.74l-.17-.31H88v1.15c.41.52,1.5,2.09,1.75,2.47l-.55.76A23.7,23.7,0,0,0,88,97.87v6.79h-.9V97.83A15.79,15.79,0,0,1,85.28,102a5.56,5.56,0,0,0-.52-.83A16.7,16.7,0,0,0,87,95.63h-2v-.88h2V91.67l1.16.08c0,.08-.08.15-.27.18v2.82H89.6V95a9.62,9.62,0,0,0,3.61-3.33l1.19,0a.25.25,0,0,1-.2.17,11.07,11.07,0,0,0,4,3.18,4.88,4.88,0,0,0-.5.81,11.4,11.4,0,0,1-1.26-.77v.74H94.06v1.39H97.3Zm-6.39-.78h2.24a7.67,7.67,0,0,0,0-.8V98H90.91Zm5.38-5a11.86,11.86,0,0,1-2.63-2.49A10.69,10.69,0,0,1,91.18,95Zm.14,3H94.06v1.29c0,.25,0,.52,0,.77h2.4Z"/><path class="cls-4" d="M112.07,94.37h-4.83a12.74,12.74,0,0,0,5.1,3.15,3,3,0,0,0-.63.77,13.67,13.67,0,0,1-5.5-3.92v3.08h-.94V94.37a13.65,13.65,0,0,1-5.45,4,4.36,4.36,0,0,0-.6-.74,12.56,12.56,0,0,0,5-3.28H99.49v-.85h5.77V91.67l1.2.08c0,.1-.08.17-.27.2v1.57h5.87Zm-2.37,3.54v5.6h2.41v.87H99.45v-.87h2.41v-5.6Zm-1,.81h-6v1.11h6Zm0,2.94v-1.12h-6v1.12Zm-6,.73v1.12h6V102.4Z"/><path class="cls-4" d="M120.93,94.23a.36.36,0,0,1-.35.22c-.5,4.36-2,8.15-4.29,8.15-1.18,0-2.24-1.18-2.24-3.39a6.15,6.15,0,0,1,6.3-6.18c4,0,5.8,2.56,5.8,5.29,0,3.33-1.93,4.94-5.32,5.73a5.49,5.49,0,0,0-.59-.85c3.22-.62,4.87-2.19,4.87-4.83,0-2.31-1.48-4.41-4.76-4.41l-.42,0ZM119.59,94A5.16,5.16,0,0,0,115,99.19c0,1.5.64,2.44,1.32,2.44C118,101.63,119.23,97.89,119.59,94Z"/><path class="cls-4" d="M140.17,94.12v9.3c0,.66-.15,1-.63,1.13a10.7,10.7,0,0,1-2.62.17,3.62,3.62,0,0,0-.34-1l1.43,0c1.16,0,1.22,0,1.22-.36V95h-4.38a10.33,10.33,0,0,1-.24,1.79,41.53,41.53,0,0,1,4.09,4l-.77.6a38.93,38.93,0,0,0-3.6-3.74,7.64,7.64,0,0,1-3.57,4,3.6,3.6,0,0,0-.67-.71,6.55,6.55,0,0,0,3.81-6h-4.16v9.68h-.94V94.12h5.11V91.67l1.23.08c0,.1-.08.17-.28.2v2.17Z"/><path class="cls-4" d="M144.91,100.53a20.87,20.87,0,0,1-2,1.15,4.79,4.79,0,0,0-.55-.77,15.85,15.85,0,0,0,6-4.69l1.39.08a.31.31,0,0,1-.28.18,17.55,17.55,0,0,0,6,4.26,5.09,5.09,0,0,0-.6.84,19.77,19.77,0,0,1-2.09-1.16v4.22h-1v-.43h-6v.5h-.92Zm-1-6.57V95.6H143V93.1h5.34V91.67l1.25.08c0,.1-.1.17-.28.18V93.1h5.42V95.6h-1V94Zm3.67,1.18a.34.34,0,0,1-.31.13,13.71,13.71,0,0,1-3.6,2.9,5.66,5.66,0,0,0-.62-.69,11.19,11.19,0,0,0,3.45-2.76ZM152,100a16.43,16.43,0,0,1-3.24-2.82,14.78,14.78,0,0,1-3.05,2.82Zm-6.21,3.39h6v-2.54h-6Zm8-5.21a21.36,21.36,0,0,0-3.71-2.87l.63-.56a21.54,21.54,0,0,1,3.78,2.79Z"/><path class="cls-4" d="M162.09,92.35c0,.17-.2.24-.46.25-.15.78-.41,2.14-.57,3,.63-.07,1.2-.13,1.55-.13,2.13,0,2.86,1.39,2.86,3.49a10.92,10.92,0,0,1-.48,3.14,2.56,2.56,0,0,1-2.49,2.11A4.15,4.15,0,0,1,160,103a5.28,5.28,0,0,0,.38-.85,3.75,3.75,0,0,0,2.14,1.06c.8,0,1.27-.5,1.55-1.4a10.56,10.56,0,0,0,.45-2.87c0-1.6-.53-2.55-1.93-2.54a16.15,16.15,0,0,0-1.71.14,26.87,26.87,0,0,1-2.87,7.56l-.92-.45a22.91,22.91,0,0,0,2.79-7c-.71.08-1.74.21-2.49.34l-.08-1,2.77-.32c.21-1,.43-2.28.6-3.52Zm6.49,6.74a8.4,8.4,0,0,0-3.15-4.79l.76-.59a9,9,0,0,1,3.4,5Z"/><path class="cls-4" d="M173.85,94.69a.4.4,0,0,1-.36.24,16,16,0,0,1-.57,4.13h0a9.54,9.54,0,0,1,5.15-1.72c2.16,0,3.5,1.11,3.47,3.07,0,2.58-2.17,3.73-7.59,4a4.13,4.13,0,0,0-.35-.92c4.89-.21,6.85-1,6.89-3,0-1.34-.92-2.16-2.56-2.16-2.59,0-4.93,1.55-5.32,2.24l-1-.46c.28-.27.77-2.77.8-5.52Zm.24-2.72a22.53,22.53,0,0,1,5.44,1.23l-.35,1a22.77,22.77,0,0,0-5.38-1.27Z"/><path class="cls-4" d="M187.93,97.9a13.8,13.8,0,0,0-.88-1.39l.71-.34A12.55,12.55,0,0,1,189.39,99l-.76.36a5.41,5.41,0,0,0-.32-.77l-1.53.08v6h-.85v-6l-2.1.08c0,.11-.1.15-.2.18L183.38,98h1c.31-.36.64-.78,1-1.23a12.44,12.44,0,0,0-1.86-2l.48-.62a5.07,5.07,0,0,1,.42.38,22.22,22.22,0,0,0,1.39-2.77l1,.43c-.06.08-.14.11-.29.11A24.62,24.62,0,0,1,185,95a8.2,8.2,0,0,1,.91,1.05c.63-.94,1.23-1.93,1.67-2.75l1,.48a.4.4,0,0,1-.32.11,39.16,39.16,0,0,1-2.89,4.08ZM185.33,100c0,.08-.11.14-.27.14a12.41,12.41,0,0,1-1,3.36,5.48,5.48,0,0,0-.7-.36,12.06,12.06,0,0,0,.9-3.4Zm3,2.72a12.5,12.5,0,0,0-.92-2.79l.73-.24a13.67,13.67,0,0,1,1,2.76Zm8.25-8.19h-3.45v2.35h3v.87h-6.95v-.87h3V94.54h-3.26v-.87h3.26v-2l1.23.07c0,.11-.1.18-.28.2v1.72h3.45Zm-6.95,10.13V99.34h6.12v5.28h-.91v-.56h-4.33v.6Zm5.21-4.45h-4.33v3h4.33Z"/><path class="cls-4" d="M210.62,100.1h-4.89a14.43,14.43,0,0,0,5.28,3.36,4.73,4.73,0,0,0-.67.81,15.89,15.89,0,0,1-5.48-3.91v4.33h-1v-4.24a14.21,14.21,0,0,1-5.44,3.81,5.14,5.14,0,0,0-.66-.8,13.34,13.34,0,0,0,5.25-3.36h-4.87v-.88h5.72V98h-4.34V92.37h9.75V98h-4.45v1.26h5.76Zm-10.13-6.91v1.55h3.42V93.19Zm0,3.94h3.42v-1.6h-3.42Zm7.87-2.38V93.19h-3.5v1.55Zm0,2.38v-1.6h-3.5v1.6Z"/><path class="cls-4" d="M212.81,93.85c.87.06,2,.06,3,.06l1.93,0c0-.67,0-1.46,0-1.95l1.41.07c0,.17-.14.25-.38.29,0,.22,0,1.3,0,1.54a27.48,27.48,0,0,0,4.65-.55l.13.92a28.71,28.71,0,0,1-4.78.53c0,.84,0,1.71.06,2.58a23.55,23.55,0,0,0,4-.55l.11.91a26.75,26.75,0,0,1-4,.49l.11,2.34a15.56,15.56,0,0,1,4.12,2.19l-.62.85a13.65,13.65,0,0,0-3.47-2.06c0,.22,0,.48,0,.66,0,1.33-.81,2.1-2.51,2.1s-3.08-.73-3.08-2,1.53-2.09,3.1-2.09a6.14,6.14,0,0,1,1.47.17c0-.6,0-1.33-.06-2.09l-1.36,0c-2.4,0-3.07-.38-3.07-1.19,0-.53.41-1,1.3-1.54l.67.43c-.63.35-1,.66-1,.94s.66.5,2.44.5h.94l-.08-2.59c-.6,0-1.3,0-1.93,0-.9,0-2.17,0-3,0Zm5.18,7.3a5.89,5.89,0,0,0-1.57-.22c-1.06,0-2.14.43-2.14,1.27s1,1.23,2.2,1.23S218,102.94,218,102Z"/><path class="cls-4" d="M225.56,93.57c1.05,0,9.68-.66,11.5-.67V94h-.52a4,4,0,0,0-2.4.71c-2.1,1.26-4.13,3.52-4.13,5.32,0,2,1.37,3.12,4.85,3.57l-.46,1c-4-.57-5.46-2.06-5.46-4.55,0-2,1.95-4.37,4.51-6-1.54.11-5.67.42-7.48.59a.42.42,0,0,1-.31.22Zm9.08,2.76a10.33,10.33,0,0,1,1.9,1.93l-.53.43a9.34,9.34,0,0,0-1.85-1.95Zm1.51-1.23A8.86,8.86,0,0,1,238.06,97l-.53.42a9.92,9.92,0,0,0-1.85-1.93Z"/><path class="cls-4" d="M247.52,92c0,.1-.13.15-.29.14-.11.36-.24.74-.36,1.12h5.41v.85h-5.76a10.63,10.63,0,0,1-1.3,2.33,5.46,5.46,0,0,0-.66-.59V100h-1.77v2.44h2v.87H240.6v.85h-.84V92.51h5.06v.85h-2v2.19h1.77v.27a12.08,12.08,0,0,0,1.83-4.15Zm-5.58,1.37H240.6v2.19h1.34Zm1.75,5.76V96.4h-3.1v2.72Zm-1.75,3.29V100H240.6v2.44Zm3.17,2.27v-5H248v4.79h-.76v-.59h-1.43v.76Zm2.16-4.16h-1.43v2.6h1.43Zm3.66-5.29v3.4H246.1v-3.4Zm-.85,2.62V96h-3.15v1.83Zm-1.19,6.81V99.72h3v4.78h-.77v-.57h-1.53v.73Zm2.27-4.13h-1.53v2.6h1.53Z"/><path class="cls-4" d="M266.52,94.46H255.69v2.8c0,2.16-.18,5.31-1.39,7.45a4.13,4.13,0,0,0-.81-.55c1.15-2,1.26-4.87,1.26-6.91v-3.7H260V91.68l1.25.08c0,.1-.08.17-.28.2v1.6h5.52Zm0,3.68h-4.31a13.1,13.1,0,0,0,4.54,4.64,3.8,3.8,0,0,0-.71.78A15.52,15.52,0,0,1,261.71,99v5.69h-.94V99.09a13.22,13.22,0,0,1-4.17,4.52,4.32,4.32,0,0,0-.67-.76,12,12,0,0,0,4.38-4.72h-3.84v-.91h4.3V94.95L262,95c0,.1-.08.17-.28.2v2h4.76Z"/><path class="cls-4" d="M270.8,97.28v4.64c1.09,1.67,3.15,1.67,5.71,1.67,1.55,0,3.38,0,4.48-.11a3.48,3.48,0,0,0-.29.91c-1,0-2.49.06-3.89.06-3.07,0-5,0-6.39-1.74-.64.62-1.3,1.25-1.83,1.74a.21.21,0,0,1-.13.21l-.53-1a24.5,24.5,0,0,0,2-1.67V98.18H268v-.9ZM268.92,92a10.35,10.35,0,0,1,2.31,2.34l-.77.59a10,10,0,0,0-2.27-2.41Zm11.89,3.38v.67h-9.47v-.67h4.17v-.71h-3V92.54h3v-.85l1.18.08c0,.1-.1.15-.28.18v.59h3.19v2.16h-3.19v.71Zm-3.38,5.85a23.28,23.28,0,0,1,3.05,1.46l-.83.46a20.44,20.44,0,0,0-3-1.51l.56-.41h-2.58l.85.34a.25.25,0,0,1-.29.1,12.72,12.72,0,0,1-2.69,1.5,4.8,4.8,0,0,0-.64-.53,9.23,9.23,0,0,0,2.56-1.4h-1.93v-4.5h7v4.5Zm-4.09-7.17h2.17v-.94h-2.17Zm.1,3.25v.73h5.17v-.73Zm0,1.29v.74h5.17v-.74Zm0,1.29v.77h5.17v-.77Zm5.25-6.77h-2.28v.94h2.28Z"/><path class="cls-4" d="M284.21,96.63A16.56,16.56,0,0,1,282.5,99a7,7,0,0,0-.49-.88,18.65,18.65,0,0,0,3.5-6.3l1.12.38c-.06.1-.15.14-.32.13a25.34,25.34,0,0,1-1.29,2.9l.38.1c0,.08-.1.15-.28.17v9.29h-.91Zm8.7,3.18a18.53,18.53,0,0,1,2.62,4.47l-.9.43a9.16,9.16,0,0,0-.52-1.25c-2.77.25-5.7.48-7.58.62a.27.27,0,0,1-.21.2l-.39-1.13,1.64-.08A38.2,38.2,0,0,0,289.21,98h-3.12v-.92h9.3V98h-5.07l.2.06c0,.1-.15.15-.32.17a44.9,44.9,0,0,1-1.65,4.78l5.17-.32a24.14,24.14,0,0,0-1.61-2.51Zm1.7-7v.9h-7.42v-.9Z"/><path class="cls-4" d="M309.53,100.48v.83h-3.25v2.31c0,.55-.13.8-.57.94a10.21,10.21,0,0,1-2.45.14,3.41,3.41,0,0,0-.31-.84l1.5,0c.81,0,.91,0,.91-.28v-2.3h-8.53v-.83h8.53V99.32h-7V94.71h4.36v-1h-5.53v-.81h5.53V91.7l1.2.08c0,.1-.08.17-.27.2v.88h5.65v.81h-5.65v1h4.5v4.61h-2.52l1,0c0,.1-.08.17-.27.2v.91Zm-8.26,3.57a11.21,11.21,0,0,0-2.25-2l.7-.52a11.32,11.32,0,0,1,2.3,1.95Zm-2-8.63v1.23h3.46V95.42Zm0,1.92V98.6h3.46V97.34Zm8-1.92h-3.57v1.23h3.57Zm0,3.18V97.34h-3.57V98.6Z"/><path class="cls-4" d="M316.77,92.37v5.15h-4.09v7.17h-.92V92.37Zm-.9.8h-3.19v1.34h3.19Zm-3.19,3.56h3.19V95.25h-3.19Zm10.67-4.36v11c0,1.27-.49,1.32-3.19,1.32a4.15,4.15,0,0,0-.35-1c.6,0,1.18,0,1.61,0,.91,0,1,0,1-.36V97.54h-4.26V92.37Zm-.94.8h-3.35v1.34h3.35Zm-3.35,3.57h3.35V95.25h-3.35Z"/><path class="cls-4" d="M338.25,103.08V104H327.09v.71h-.94V92.48h11.79v.91H327.09v9.69Zm-.59-5.25v.84h-4.33a5.44,5.44,0,0,0,4.3,2.89,2.69,2.69,0,0,0-.57.8,6.17,6.17,0,0,1-4.27-2.9c-.49,1.12-1.65,2.2-4.27,3a3,3,0,0,0-.56-.71c2.91-.81,3.85-2,4.15-3.07h-4.17v-.84h4.29v-2h-2.27a7.46,7.46,0,0,1-1.15,1.47,5.35,5.35,0,0,0-.73-.46A7.4,7.4,0,0,0,330,93.7l1.08.31c0,.08-.11.13-.28.13-.11.29-.24.6-.38.9h6.47v.83h-3.73v2Z"/><path class="cls-4" d="M345.14,92.35c0,.17-.2.24-.46.25-.15.78-.41,2.14-.57,3,.63-.07,1.2-.13,1.55-.13,2.13,0,2.86,1.39,2.86,3.49a10.92,10.92,0,0,1-.48,3.14,2.56,2.56,0,0,1-2.49,2.11A4.15,4.15,0,0,1,343,103a5.28,5.28,0,0,0,.38-.85,3.75,3.75,0,0,0,2.14,1.06c.8,0,1.27-.5,1.55-1.4a10.56,10.56,0,0,0,.45-2.87c0-1.6-.53-2.55-1.93-2.54a16.15,16.15,0,0,0-1.71.14,26.87,26.87,0,0,1-2.87,7.56l-.92-.45a22.91,22.91,0,0,0,2.79-7c-.71.08-1.74.21-2.49.34l-.08-1,2.77-.32c.21-1,.43-2.28.6-3.52Zm3.25-.43a9.84,9.84,0,0,1,1.88,2l-.55.39a9.34,9.34,0,0,0-1.85-1.95Zm3.14,8.15a8.82,8.82,0,0,0-2.86-4.78l.81-.55a9.28,9.28,0,0,1,3.05,4.94Zm-1-8.7a9.15,9.15,0,0,1,1.89,1.95l-.55.41a9.39,9.39,0,0,0-1.85-2Z"/><path class="cls-4" d="M359.18,94.08v.8H354v-.8Zm-.45,5.83V104h-3.22v.66h-.83V99.9Zm0-3.87v.77h-4V96Zm-4,2.7V98h4v.77Zm4-6.56V93h-3.87v-.77Zm-.76,8.52h-2.38v2.52h2.38Zm4.62-1.19c0,.1-.11.15-.28.18-.22,2.06-.71,3.94-2.84,5a2.46,2.46,0,0,0-.6-.73c1.92-.88,2.37-2.54,2.52-4.57Zm2.09,3.73c0,.36.06.42.38.42h1c.35,0,.42-.28.45-2.23a3.3,3.3,0,0,0,.81.38c-.07,2.17-.29,2.7-1.16,2.7h-1.22c-.92,0-1.15-.29-1.15-1.27V99h-3.87V94.36h6.7V99h-1.82a.26.26,0,0,1-.11,0ZM361,91.74A9.12,9.12,0,0,1,362.11,94c-.46.2-.67.27-.88.34A9.92,9.92,0,0,0,360.16,92Zm-.25,3.46v3h4.83v-3Zm5.67-3.14c0,.08-.14.13-.28.11A18.92,18.92,0,0,1,365,94.34l-.76-.32a17.07,17.07,0,0,0,1.05-2.37Z"/><path class="cls-4" d="M373.59,101h-3.71v1.34H369V92.56h4.59Zm-.88-7.56h-2.83v2.84h2.83Zm-2.83,6.7h2.83v-3h-2.83ZM381,92.3v11.09c0,.63-.15.94-.59,1.09a8.83,8.83,0,0,1-2.44.18,3.65,3.65,0,0,0-.35-.94l1.32,0c1,0,1.13,0,1.13-.36v-3.26h-4.37a7.38,7.38,0,0,1-2.66,4.65,3.41,3.41,0,0,0-.7-.64c2.42-1.86,2.66-4.57,2.66-6.79v-5Zm-5.07,5a18.47,18.47,0,0,1-.1,1.92H380V96.63h-4.15ZM380,93.18h-4.15v2.58H380Z"/><path class="cls-4" d="M385.95,92.28c0,.17-.15.27-.43.31-.11,1.63-.25,5.34-.25,7.41s1,3.1,2.8,3.1a6.82,6.82,0,0,0,5-2.66,5.6,5.6,0,0,0,.63.83,7.6,7.6,0,0,1-5.69,2.84c-2.55,0-3.85-1.47-3.85-4.12,0-1.76.13-6.11.22-7.83Z"/><path class="cls-4" d="M395.58,93.85c.87.06,2,.06,3,.06l1.93,0c0-.67,0-1.46,0-1.95l1.41.07c0,.17-.14.25-.38.29,0,.22,0,1.3,0,1.54a27.48,27.48,0,0,0,4.65-.55l.13.92a28.71,28.71,0,0,1-4.78.53c0,.84,0,1.71.06,2.58a23.55,23.55,0,0,0,4-.55l.11.91a26.75,26.75,0,0,1-4,.49l.11,2.34a15.56,15.56,0,0,1,4.12,2.19l-.62.85a13.65,13.65,0,0,0-3.47-2.06c0,.22,0,.48,0,.66,0,1.33-.81,2.1-2.51,2.1s-3.08-.73-3.08-2,1.53-2.09,3.1-2.09a6.14,6.14,0,0,1,1.47.17c0-.6,0-1.33-.06-2.09l-1.36,0c-2.4,0-3.07-.38-3.07-1.19,0-.53.41-1,1.3-1.54l.67.43c-.63.35-1,.66-1,.94s.66.5,2.44.5h.94l-.08-2.59c-.6,0-1.3,0-1.93,0-.9,0-2.17,0-3,0Zm5.18,7.3a5.89,5.89,0,0,0-1.57-.22c-1.06,0-2.14.43-2.14,1.27s1,1.23,2.2,1.23,1.53-.49,1.53-1.47Z"/><path class="cls-4" d="M415.17,94c0-.31-.06-1.83-.08-2.19l1.44.06c0,.11-.11.25-.36.29,0,.17,0,.34,0,1.81,1.72-.06,3.53-.1,4.58-.11v1c-1.19,0-2.89,0-4.55.06,0,1.09.06,2.1.1,2.87a4.78,4.78,0,0,1,.17,1.47,6,6,0,0,1-.14,1.36c-.36,1.64-1.57,3.08-4,4.06a7.69,7.69,0,0,0-.71-.8c2.14-.77,3.29-1.93,3.64-3.26h0a1.76,1.76,0,0,1-1.44.74,2.39,2.39,0,0,1-2.35-2.45,2.58,2.58,0,0,1,2.52-2.62,2.08,2.08,0,0,1,1.3.43c0-.24,0-1.18-.06-1.78-1.46,0-5.88.18-6.46.21l0-.92,3.19-.08Zm.27,4.92c0-.55,0-1.82-1.43-1.82a1.69,1.69,0,0,0-1.67,1.78,1.57,1.57,0,0,0,1.56,1.63A1.51,1.51,0,0,0,415.43,98.91Z"/><path class="cls-4" d="M425,102.73a2,2,0,1,1-2-2A2,2,0,0,1,425,102.73Zm-.5,0a1.45,1.45,0,1,0-1.46,1.44A1.45,1.45,0,0,0,424.46,102.73Z"/></g></g></svg>