<svg xmlns="http://www.w3.org/2000/svg" viewBox="0 0 460 150"><defs><style>.cls-1{fill:#782341;}.cls-2{fill:#934f67;}.cls-3{fill:#f5f5f5;stroke:#f5f5f5;stroke-miterlimit:10;}.cls-4{fill:#fff;}</style></defs><title>Genetics04</title><g id="レイヤー_2" data-name="レイヤー 2"><g id="文字"><rect class="cls-1" y="0.7" width="460" height="149.3" rx="5" ry="5"/><rect class="cls-2" width="460" height="132.97" rx="5" ry="5"/><path class="cls-3" d="M33.85,27.22c-4.53,6.45-10.17,10.32-11.07,10.32a.88.88,0,0,1-.9-.87.79.79,0,0,1,.45-.72,33.56,33.56,0,0,0,12.45-13L23.71,23a.74.74,0,1,1,0-1.47H45.64a.7.7,0,0,1,.72.75.69.69,0,0,1-.72.72l-9.12-.06c-.69,1.26-1.38,2.46-2.16,3.6a.92.92,0,0,1,.3,0,.76.76,0,0,1,.84.72l0,16.65a.76.76,0,0,1-.84.72c-.45,0-.87-.24-.87-.72Zm11.46,8.7a24.33,24.33,0,0,0-6.93-6.09A.72.72,0,0,1,38,29.2a.8.8,0,0,1,.84-.75c.93,0,8.16,5.19,8.16,6.9a1,1,0,0,1-.9,1A1,1,0,0,1,45.31,35.92Z"/><path class="cls-3" d="M62.92,23.56h-.15c-.3.81-1.11,2.64-1.68,3.72q4.81-.27,9.36-.9a18.71,18.71,0,0,0-1.95-1.11.56.56,0,0,1-.36-.48.77.77,0,0,1,.81-.66c1,0,6.06,3.33,6.06,4.59a.77.77,0,0,1-.78.78.9.9,0,0,1-.75-.39,11.71,11.71,0,0,0-1.71-1.74A135.7,135.7,0,0,1,55.39,29a.77.77,0,0,1-.84-.75.75.75,0,0,1,.78-.75c1.38,0,2.79-.09,4.14-.15.45-1,1.17-2.76,1.53-3.81l-7.41,0a.68.68,0,0,1-.69-.72.68.68,0,0,1,.69-.69l10.32,0v-2.7a.76.76,0,0,1,.84-.72.75.75,0,0,1,.81.72l0,2.7,10.62,0a.66.66,0,0,1,.69.69.67.67,0,0,1-.69.72Zm9.36,17.61v.15c0,1.5-.45,3.48-4,3.48-2.73,0-3-.48-3-1a.72.72,0,0,1,.72-.75h.15a13.61,13.61,0,0,0,2.25.21c1.62,0,2.31-.57,2.34-2.22,0-.51,0-1.08,0-1.74H59c0,1.83,0,3.66,0,5a.78.78,0,0,1-.81.78.73.73,0,0,1-.78-.75c0-3.87.09-8.49.18-11.4,0-1.11.9-2.37,3.21-2.43,1.44,0,3-.06,4.5-.06,1.29,0,2.55,0,3.81.06,2.46.09,3.06,1.38,3.12,2.49.06,1.41,0,4.26.06,5.46Zm-1.56-5.7H59c0,.81,0,1.74,0,2.64H70.72Zm0-1.2c0-.36,0-.66,0-.9,0-.9-.54-1.56-2-1.62-1,0-2.25-.06-3.45-.06-1.44,0-2.88,0-4.11.06-1.5,0-2,.78-2,1.62v.9Z"/><path class="cls-3" d="M94.9,19.63a.84.84,0,0,1,1.68,0v2.82c3.39,0,6.9,0,9.51,0a.71.71,0,1,1,0,1.41c-2.37,0-5.46-.06-8.43-.06s-5.82,0-7.77.06c-1.44,0-2,.75-2,1.89v.09c.06,1.53.12,3.06.12,4.56,0,5-.63,9.69-4,13.38a1.13,1.13,0,0,1-.84.42.83.83,0,0,1-.84-.78.7.7,0,0,1,.21-.51,14.73,14.73,0,0,0,3.81-9.36,14.58,14.58,0,0,1-4.2,2.13.81.81,0,0,1-.81-.84.75.75,0,0,1,.54-.72A20.66,20.66,0,0,0,86.5,32V31c0-1.74-.09-3.51-.18-5.34v-.21c0-1.92,1.23-3,3.42-3h5.19ZM84.07,30a11.1,11.1,0,0,0-2-3,.62.62,0,0,1-.21-.42.79.79,0,0,1,.81-.69c.78,0,2.82,2.88,2.82,3.69a.91.91,0,0,1-.84.87A.59.59,0,0,1,84.07,30Zm4.26,13.8a.68.68,0,1,1,0-1.35h3.42V33a.78.78,0,0,1,1.56,0v9.45h4V28.9H90.94a.62.62,0,0,1-.69-.63.78.78,0,0,1,.81-.75h14.07a.69.69,0,0,1,.72.69.67.67,0,0,1-.72.69H98.86v5.49h5.25a.7.7,0,1,1,0,1.41H98.86v6.66h7.47a.66.66,0,0,1,.69.69.65.65,0,0,1-.69.66Z"/><path class="cls-4" d="M32.77,72.63H28.45a.35.35,0,0,1-.35.11A17.7,17.7,0,0,1,27,74.49l.39.11a.3.3,0,0,1-.29.18v8.92h-1V75.65a20,20,0,0,1-5.35,4.68,5.49,5.49,0,0,0-.63-.78A18.13,18.13,0,0,0,27,72.63H20.56v-.94H32.77Zm-.38,7.54a32.18,32.18,0,0,0-4.86-3.61l.67-.64a31.7,31.7,0,0,1,4.9,3.49Z"/><path class="cls-4" d="M47.32,72.13V73H39.85L40,73a.34.34,0,0,1-.31.13A21.11,21.11,0,0,1,38.3,74.9c1.86,0,4-.07,6.18-.13-.57-.45-1.19-.9-1.77-1.26l.74-.49a22.12,22.12,0,0,1,3.66,2.86l-.78.57a10.13,10.13,0,0,0-1-.92c-3.46.13-7.12.25-9.43.29a.27.27,0,0,1-.21.21l-.39-1.09,1.89,0A17.16,17.16,0,0,0,38.61,73H34.77v-.85h5.74V70.67l1.23.08c0,.1-.08.17-.27.18v1.19Zm-2.09,4.65v5.87c0,.53-.14.77-.56.91a10,10,0,0,1-2.28.13,3.44,3.44,0,0,0-.32-.78H44c.22,0,.29-.07.29-.28V81.34H37.84v2.35H36.9V76.78Zm-1,.8H37.84v1.16h6.44Zm-6.44,3h6.44V79.45H37.84Z"/><path class="cls-4" d="M56.57,72.34h5.32v.85H52.06v3.38c0,2.2-.28,5.2-2.24,7.16a3.3,3.3,0,0,0-.69-.63A7.23,7.23,0,0,0,51,78.82c-.66.36-1.27.73-1.72,1a.28.28,0,0,1-.14.24l-.42-1c.63-.28,1.48-.73,2.37-1.2q0-.67,0-1.3V72.34h4.43V70.68l1.26.08c0,.1-.1.17-.28.2Zm-6.86,1.15a10,10,0,0,1,1.16,2.59l-.77.41A10.78,10.78,0,0,0,49,73.82Zm8,5.6v3.38h4.22v.84h-10v-.84h1.76v-5l1.13.08c0,.08-.08.15-.27.18v4.71h2.21V75.58H53v-.83h8.47v.83H57.68v2.66h3.52v.84Z"/><path class="cls-4" d="M70.53,73.23a.36.36,0,0,1-.35.22c-.5,4.36-2,8.15-4.29,8.15-1.18,0-2.24-1.18-2.24-3.39A6.15,6.15,0,0,1,70,72c4,0,5.8,2.56,5.8,5.29,0,3.33-1.93,4.94-5.32,5.73a5.53,5.53,0,0,0-.59-.85c3.22-.62,4.87-2.19,4.87-4.83C74.72,75.07,73.23,73,70,73l-.42,0ZM69.18,73a5.16,5.16,0,0,0-4.58,5.14c0,1.5.64,2.44,1.32,2.44C67.62,80.63,68.83,76.89,69.18,73Z"/><path class="cls-4" d="M88.93,78.92H85.58v3.71c0,1.05-.42,1.06-2.73,1.06a4,4,0,0,0-.29-.84l1.32,0c.69,0,.78,0,.78-.25V78.92H81.35v-5h2.76c.14-.48.29-1.06.41-1.57H79.81v3.21c0,2.35-.18,5.74-1.5,8.08a3.08,3.08,0,0,0-.83-.49c1.27-2.24,1.4-5.36,1.4-7.61V71.49H90.34v.88H85.55c-.13.46-.32,1.06-.52,1.57h3.89Zm-5.57,1.13c0,.1-.14.14-.31.13a12.11,12.11,0,0,1-2.83,2.9c-.18-.15-.52-.39-.73-.53a10.24,10.24,0,0,0,2.79-2.86ZM82.25,74.7v1.36H88V74.7Zm0,2.09v1.37H88V76.79ZM89.81,83a15,15,0,0,0-2.9-2.93l.71-.48a15.66,15.66,0,0,1,3,2.87Z"/><path class="cls-4" d="M92.52,71.35h11.84V83.69h-1V83H93.44v.66h-.92Zm.92,10.77h9.95V72.26H93.44Zm9.1-6H99a5.66,5.66,0,0,0,3.66,4.37,3.21,3.21,0,0,0-.59.77A6.14,6.14,0,0,1,98.43,77a5.71,5.71,0,0,1-3.74,4.38,2.3,2.3,0,0,0-.56-.71,5.16,5.16,0,0,0,3.56-4.48H94.27v-.87h3.54c.07-.73.11-1.53.14-2.38l1.18.07c0,.11-.11.18-.29.21,0,.74-.07,1.44-.14,2.1h3.85Z"/><path class="cls-4" d="M113.58,73.23a.36.36,0,0,1-.35.22c-.5,4.36-2,8.15-4.29,8.15-1.18,0-2.24-1.18-2.24-3.39A6.15,6.15,0,0,1,113,72c4,0,5.8,2.56,5.8,5.29,0,3.33-1.93,4.94-5.32,5.73a5.53,5.53,0,0,0-.59-.85c3.22-.62,4.87-2.19,4.87-4.83,0-2.31-1.48-4.41-4.76-4.41l-.42,0ZM112.24,73a5.16,5.16,0,0,0-4.58,5.14c0,1.5.64,2.44,1.32,2.44C110.67,80.63,111.88,76.89,112.24,73Z"/><path class="cls-4" d="M120.66,76.52h13v1h-13Z"/><path class="cls-4" d="M135.37,74.6c.32-.07.78-.2,1.44-.41A23,23,0,0,1,143,72.85c2.35,0,4.36,1.16,4.36,4.1,0,3.47-3.43,4.82-8.17,5.29a4.54,4.54,0,0,0-.36-1c4.33-.41,7.44-1.58,7.44-4.29,0-2.2-1.51-3.15-3.36-3.15a23.76,23.76,0,0,0-6.88,1.71.38.38,0,0,1-.25.32Z"/><path class="cls-4" d="M152.5,71.72c0,.15-.18.24-.46.22a33.6,33.6,0,0,0-.74,6.3,15.42,15.42,0,0,0,.18,2.77c.27-.69.87-2.16,1.06-2.65l.59.62c-.57,1.42-1,2.21-1.19,2.84a2.41,2.41,0,0,0-.11.66,1.49,1.49,0,0,0,.07.43l-1,.18a15.38,15.38,0,0,1-.62-4.82,41,41,0,0,1,.74-6.82ZM161.42,82c-.5,0-1,0-1.54,0a19.28,19.28,0,0,1-2.61-.15c-1.72-.25-2.52-1.2-2.52-2.33a4.28,4.28,0,0,1,1.32-2.7l.91.39a3.31,3.31,0,0,0-1.19,2.2c0,1.63,2.38,1.63,3.84,1.63.59,0,1.22,0,1.81-.07Zm-6.49-8.56a45.71,45.71,0,0,0,6.11-.53l.08,1a52.94,52.94,0,0,1-6.16.52Z"/><path class="cls-4" d="M176.33,79.34h-5a11.52,11.52,0,0,0,5.22,3.22,4.39,4.39,0,0,0-.63.8,12.55,12.55,0,0,1-5.48-3.78v4.12h-1V79.53a13.52,13.52,0,0,1-5.42,3.91,4.19,4.19,0,0,0-.64-.77,12.59,12.59,0,0,0,5.17-3.33h-4.89v-.85h5.79V76.92l1.23.08c0,.1-.1.17-.28.2v1.29h5.85ZM164,72.49a9,9,0,0,1,2.37.94l-.43.71a10,10,0,0,0-2.35-1Zm0,4.58a31.92,31.92,0,0,0,2.56-2.66l.59.59c-.77.91-1.62,1.86-2.25,2.49a.32.32,0,0,1,0,.14.28.28,0,0,1-.08.2Zm1-6.4a10.4,10.4,0,0,1,2.37,1l-.41.71a9.82,9.82,0,0,0-2.37-1.06Zm8.24,2.47h-2a5.39,5.39,0,0,1-3.64,4.52A3.94,3.94,0,0,0,167,77a4.65,4.65,0,0,0,3.31-3.84H168v-.85h2.44c.06-.49.08-1,.1-1.6l1.19.06c0,.1-.08.15-.25.2,0,.48-.06.92-.1,1.34h2.79v3.57c0,.55,0,.6.41.6h.53c.32,0,.56-.06.59-.43s0-.76.06-1.44a2.45,2.45,0,0,0,.83.43,9.37,9.37,0,0,1-.14,1.6c-.11.31-.35.64-1.22.64h-.83c-1.15,0-1.15-.67-1.15-1.46Z"/><path class="cls-4" d="M180.48,81.52c0,.9.29,1.12,1.88,1.12h5.76c1.39,0,1.61-.39,1.78-2.17a2.76,2.76,0,0,0,.92.36c-.22,2.07-.63,2.69-2.7,2.69h-5.67c-2.23,0-2.91-.38-2.91-2V75.12a14.07,14.07,0,0,1-1.11.9,3.19,3.19,0,0,0-.7-.67A14.16,14.16,0,0,0,182,70.64l1.25.21c0,.1-.13.17-.31.18-.11.2-.24.39-.38.6h3.71l.15-.06.74.46a.34.34,0,0,1-.22.11,14.38,14.38,0,0,1-1.29,2h4.09v5.13h-1v-.66h-8.28Zm0-6.47v2.73H184V75.05Zm4-.87a9.82,9.82,0,0,0,1.13-1.71h-3.7a21.54,21.54,0,0,1-1.43,1.71Zm4.26,3.6V75.05H185v2.73Z"/><path class="cls-4" d="M196.54,71.16c-.06.1-.15.14-.32.13a25.42,25.42,0,0,1-1.29,2.9l.38.1c0,.08-.1.15-.28.17v9.29h-.91V75.63A16.56,16.56,0,0,1,192.41,78a7,7,0,0,0-.49-.88,18.65,18.65,0,0,0,3.5-6.3Zm8.61,3.63h-3.67a13.38,13.38,0,0,0,3.92,5.81,4,4,0,0,0-.71.74,15.31,15.31,0,0,1-3.87-6.15v4.9h2.27V81h-2.27v2.77h-.91V81h-2.31V80.1h2.31V75.25A15.49,15.49,0,0,1,196,81.38a4.07,4.07,0,0,0-.67-.71,14.32,14.32,0,0,0,4-5.88h-3.46v-.9h4.09V70.82l1.19.08c0,.1-.08.17-.28.18v2.8h4.33Z"/><path class="cls-4" d="M213.89,73.23a.36.36,0,0,1-.35.22c-.5,4.36-2,8.15-4.29,8.15-1.18,0-2.24-1.18-2.24-3.39a6.15,6.15,0,0,1,6.3-6.18c4,0,5.8,2.56,5.8,5.29,0,3.33-1.93,4.94-5.32,5.73a5.53,5.53,0,0,0-.59-.85c3.22-.62,4.87-2.19,4.87-4.83,0-2.31-1.48-4.41-4.76-4.41l-.42,0ZM212.54,73A5.16,5.16,0,0,0,208,78.19c0,1.5.64,2.44,1.32,2.44C211,80.63,212.19,76.89,212.54,73Z"/><path class="cls-4" d="M230.33,80.24h3.46v.84H221.1v-.84h3.46V78.5H222v-.84h2.55V76.23h-1.91v-5h9.68v5h-1.72c0,.08-.11.14-.28.17v1.26h2.61v.84h-2.61Zm-4,1.65a.39.39,0,0,1-.28.08,17.6,17.6,0,0,1-4.27,1.74,4.9,4.9,0,0,0-.62-.71,16.33,16.33,0,0,0,4.23-1.68ZM223.56,72v1.36h3.36V72Zm0,2.09v1.37h3.36V74.1Zm2.21,2.13c0,.08-.1.14-.28.17v1.26h3.87V76.23Zm-.28,2.27v1.74h3.87V78.5Zm5.88-5.13V72h-3.53v1.36Zm0,2.1V74.1h-3.53v1.37Zm1.57,8.24a30.53,30.53,0,0,0-4.29-1.76l.62-.64A38.47,38.47,0,0,1,233.73,83Z"/><path class="cls-4" d="M246.68,71.24a.3.3,0,0,1-.29.11c-.29.42-.76,1-1.15,1.48h2.52v2.91h-.92V73.69h-10v2.06h-.9V72.84h2.3a10.55,10.55,0,0,0-1.12-1.67l.81-.35a9.18,9.18,0,0,1,1.27,1.76l-.53.25h2.59V70.67l1.22.08c0,.1-.08.17-.27.2v1.89h2.54l-.42-.2a13.06,13.06,0,0,0,1.23-1.86Zm.15,7.84V82c0,1.05-.52,1.05-2.8,1.05a3.36,3.36,0,0,0-.32-.83l1.37,0c.71,0,.83,0,.83-.25V80h-3.68v3.75h-1V80H237.8v3.14h-.91v-4h4.38V77.91h-3.12V74.8h7.44v3.11h-3.19a.47.47,0,0,1-.17.06v1.12ZM239,75.54v1.64h5.63V75.54Z"/><path class="cls-4" d="M255,71.35c0,.17-.2.24-.46.25-.15.78-.41,2.14-.57,3,.63-.07,1.2-.13,1.55-.13,2.13,0,2.86,1.39,2.86,3.49a10.92,10.92,0,0,1-.48,3.14,2.56,2.56,0,0,1-2.49,2.11A4.15,4.15,0,0,1,252.92,82a5.28,5.28,0,0,0,.38-.85,3.75,3.75,0,0,0,2.14,1.06c.8,0,1.27-.5,1.55-1.4a10.56,10.56,0,0,0,.45-2.87c0-1.6-.53-2.55-1.93-2.54a16,16,0,0,0-1.71.14,26.87,26.87,0,0,1-2.87,7.56l-.92-.45a22.91,22.91,0,0,0,2.79-7c-.71.08-1.74.21-2.49.34l-.08-1,2.77-.32c.21-1,.43-2.28.6-3.52Zm3.25-.43a9.85,9.85,0,0,1,1.88,2l-.55.39a9.34,9.34,0,0,0-1.85-1.95Zm3.14,8.15a8.82,8.82,0,0,0-2.86-4.78l.81-.55a9.28,9.28,0,0,1,3.05,4.94Zm-1-8.7a9.15,9.15,0,0,1,1.89,1.95l-.55.41a9.39,9.39,0,0,0-1.85-2Z"/><path class="cls-4" d="M272.72,75.28c0,.18-.08.36-.14.53,2.47.43,3.38,2,3.38,3.63,0,2.23-1.9,3.57-5.41,4a5.37,5.37,0,0,0-.38-.84c2.9-.28,4.76-1.29,4.76-3.1v-.1a2.77,2.77,0,0,0-2.66-2.68,11.07,11.07,0,0,1-2.79,4.12,3.17,3.17,0,0,0,.36.76l-.83.52a3.6,3.6,0,0,1-.34-.7A4.54,4.54,0,0,1,266,82.43a1.67,1.67,0,0,1-1.7-1.86c0-1.93,1.6-3.47,3.63-4.29,0-.73,0-1.53,0-2.35-2.37,0-2.62,0-3.08,0l0-.92c.71,0,1.93,0,3.14,0,0-.64,0-1.43.07-2.09l1.4.1c0,.14-.15.25-.36.28,0,.52-.07,1.16-.11,1.68a32.07,32.07,0,0,0,5.62-.59l.13,1a34,34,0,0,1-5.79.55c0,.73,0,1.43,0,2.09a7.29,7.29,0,0,1,2.1-.32h.57c.06-.22.1-.43.14-.66Zm-4.3,5.23a16.42,16.42,0,0,1-.41-3.28c-1.53.67-2.72,1.83-2.72,3.19,0,.83.46,1.11,1,1.08A3.83,3.83,0,0,0,268.42,80.5Zm2.87-3.94a6.53,6.53,0,0,0-2.37.34,13.6,13.6,0,0,0,.32,2.89A9.19,9.19,0,0,0,271.29,76.57Z"/><path class="cls-4" d="M279.31,78.95a9.39,9.39,0,0,1-.41-2.63,25,25,0,0,1,.48-4.62l1.4.24c-.06.18-.22.22-.41.24a20.49,20.49,0,0,0-.48,4.08,5.57,5.57,0,0,0,0,.76A24,24,0,0,1,281,74.83a5.89,5.89,0,0,0,.55.62c-1,1.86-1.34,2.4-1.34,3a1.57,1.57,0,0,0,0,.35Zm7.51-7.62c0,.17-.13.24-.36.31.1,1.22.24,3.25.24,4.86,0,2.7-1,5.14-5.21,6.89a7.46,7.46,0,0,0-.7-.81c3.82-1.46,4.85-3.77,4.85-6.06,0-1.72-.17-3.75-.32-5.25Z"/><path class="cls-4" d="M289.74,72.85c.87.06,2,.06,3,.06l1.93,0c0-.67,0-1.46,0-1.95L296,71c0,.17-.14.25-.38.29,0,.22,0,1.3,0,1.54a27.53,27.53,0,0,0,4.65-.55l.13.92a28.71,28.71,0,0,1-4.78.53c0,.84,0,1.71.06,2.58a23.55,23.55,0,0,0,4-.55l.11.91a26.75,26.75,0,0,1-4,.49l.11,2.34A15.56,15.56,0,0,1,300,81.71l-.62.85a13.64,13.64,0,0,0-3.47-2.06c0,.22,0,.48,0,.66,0,1.33-.81,2.1-2.51,2.1s-3.08-.73-3.08-2,1.53-2.09,3.1-2.09a6.14,6.14,0,0,1,1.47.17c0-.6,0-1.33-.06-2.09l-1.36,0c-2.4,0-3.07-.38-3.07-1.19,0-.53.41-1,1.3-1.54l.67.43c-.63.35-1,.66-1,.94s.66.5,2.44.5h.94l-.08-2.59c-.6,0-1.3,0-1.93,0-.9,0-2.17,0-3,0Zm5.18,7.3a5.88,5.88,0,0,0-1.57-.22c-1.06,0-2.14.43-2.14,1.27s1,1.23,2.2,1.23,1.53-.49,1.53-1.47Z"/><path class="cls-4" d="M309.33,73c0-.31-.06-1.83-.08-2.19l1.44.06c0,.11-.11.25-.36.29,0,.17,0,.34,0,1.81,1.72-.06,3.53-.1,4.58-.11v1c-1.19,0-2.89,0-4.55.06,0,1.09.06,2.1.1,2.87a4.78,4.78,0,0,1,.17,1.47,6,6,0,0,1-.14,1.36c-.36,1.64-1.57,3.08-4,4.06a7.63,7.63,0,0,0-.71-.8c2.14-.77,3.29-1.93,3.64-3.26h0a1.76,1.76,0,0,1-1.44.74,2.39,2.39,0,0,1-2.35-2.45,2.58,2.58,0,0,1,2.52-2.62,2.08,2.08,0,0,1,1.3.43c0-.24,0-1.18-.06-1.78-1.46,0-5.88.18-6.46.21l0-.92,3.19-.08Zm.27,4.92c0-.55,0-1.82-1.43-1.82a1.69,1.69,0,0,0-1.67,1.78,1.57,1.57,0,0,0,1.56,1.63A1.51,1.51,0,0,0,309.59,77.91Z"/><path class="cls-4" d="M319.13,81.73a2,2,0,1,1-2-2A2,2,0,0,1,319.13,81.73Zm-.5,0a1.45,1.45,0,1,0-1.46,1.44A1.45,1.45,0,0,0,318.62,81.73Z"/><path class="cls-4" d="M33,100.34H28a11.52,11.52,0,0,0,5.23,3.22,4.37,4.37,0,0,0-.63.8,12.55,12.55,0,0,1-5.48-3.78v4.12h-1v-4.16a13.52,13.52,0,0,1-5.42,3.91,4.19,4.19,0,0,0-.64-.77,12.59,12.59,0,0,0,5.17-3.33H20.38v-.85h5.79V97.92L27.4,98c0,.1-.1.17-.28.2v1.29H33ZM20.63,93.49a9,9,0,0,1,2.37.94l-.43.71a10,10,0,0,0-2.35-1Zm0,4.58a31.92,31.92,0,0,0,2.56-2.66l.59.59c-.77.91-1.62,1.86-2.26,2.49a.32.32,0,0,1,0,.14.28.28,0,0,1-.08.2Zm1-6.4a10.4,10.4,0,0,1,2.37,1l-.41.71A9.82,9.82,0,0,0,21.2,92.3Zm8.24,2.47h-2a5.39,5.39,0,0,1-3.64,4.52,3.92,3.92,0,0,0-.6-.69,4.64,4.64,0,0,0,3.31-3.84h-2.3v-.85H27c.06-.49.08-1,.1-1.6l1.19.06c0,.1-.08.15-.25.2,0,.48-.06.92-.1,1.34h2.79v3.57c0,.55,0,.6.41.6h.53c.32,0,.56-.06.59-.43s0-.76.06-1.44a2.45,2.45,0,0,0,.83.43,9.37,9.37,0,0,1-.14,1.6c-.11.31-.35.64-1.22.64H31c-1.15,0-1.15-.67-1.15-1.46Z"/><path class="cls-4" d="M37.12,102.52c0,.9.29,1.12,1.88,1.12h5.76c1.39,0,1.61-.39,1.78-2.17a2.76,2.76,0,0,0,.92.36c-.22,2.07-.63,2.69-2.7,2.69H39.08c-2.23,0-2.91-.38-2.91-2V96.12a14.07,14.07,0,0,1-1.11.9,3.19,3.19,0,0,0-.7-.67,14.15,14.15,0,0,0,4.24-4.71l1.25.21c0,.1-.13.17-.31.18-.11.2-.24.39-.38.6h3.71l.15-.06.74.46a.34.34,0,0,1-.22.11,14.38,14.38,0,0,1-1.29,2h4.09v5.13h-1v-.66H37.12Zm0-6.47v2.73h3.53V96.05Zm4-.87a9.79,9.79,0,0,0,1.13-1.71h-3.7a21.65,21.65,0,0,1-1.43,1.71Zm4.26,3.6V96.05h-3.8v2.73Z"/><path class="cls-4" d="M53.18,92.16c-.06.1-.15.14-.32.13a25.34,25.34,0,0,1-1.29,2.9l.38.1c0,.08-.1.15-.28.17v9.29h-.91V96.63A16.56,16.56,0,0,1,49,99a7,7,0,0,0-.49-.88,18.65,18.65,0,0,0,3.5-6.3Zm8.61,3.63H58.13A13.38,13.38,0,0,0,62,101.6a4,4,0,0,0-.71.74,15.31,15.31,0,0,1-3.87-6.15v4.9h2.27V102H57.47v2.77h-.91V102H54.25v-.87h2.31V96.25a15.49,15.49,0,0,1-3.94,6.14,4.07,4.07,0,0,0-.67-.71,14.31,14.31,0,0,0,4-5.88H52.47v-.9h4.09V91.82l1.19.08c0,.1-.08.17-.28.18v2.8H61.8Z"/><path class="cls-4" d="M75.6,100.87H72.73A5.42,5.42,0,0,0,76.4,104a2.17,2.17,0,0,0-.56.81A6.16,6.16,0,0,1,72,101.4c-.48,1.3-1.61,2.52-4.12,3.35a2.91,2.91,0,0,0-.53-.7c2.55-.83,3.54-2,3.91-3.18H68.37V97.26H71.5V95.87H69.25V95.2a9.84,9.84,0,0,1-1.19.74l-.17-.31H66.31v1.15c.41.52,1.5,2.09,1.75,2.47l-.55.76a23.7,23.7,0,0,0-1.2-2.13v6.79h-.9V97.83A15.79,15.79,0,0,1,63.58,102a5.56,5.56,0,0,0-.52-.83,16.7,16.7,0,0,0,2.27-5.52h-2v-.88h2V91.67l1.16.08c0,.08-.08.15-.27.18v2.82H67.9V95a9.62,9.62,0,0,0,3.61-3.33l1.19,0a.25.25,0,0,1-.2.17,11.07,11.07,0,0,0,4,3.18,4.88,4.88,0,0,0-.5.81,11.4,11.4,0,0,1-1.26-.77v.74H72.36v1.39H75.6Zm-6.39-.78h2.24a7.67,7.67,0,0,0,0-.8V98H69.21Zm5.38-5A11.86,11.86,0,0,1,72,92.55,10.69,10.69,0,0,1,69.48,95Zm.14,3H72.36v1.29c0,.25,0,.52,0,.77h2.4Z"/><path class="cls-4" d="M90.37,94.37H85.54a12.74,12.74,0,0,0,5.1,3.15,3,3,0,0,0-.63.77,13.67,13.67,0,0,1-5.5-3.92v3.08h-.94V94.37a13.65,13.65,0,0,1-5.45,4,4.36,4.36,0,0,0-.6-.74,12.56,12.56,0,0,0,5-3.28H77.79v-.85h5.77V91.67l1.2.08c0,.1-.08.17-.27.2v1.57h5.87ZM88,97.92v5.6h2.41v.87H77.75v-.87h2.41v-5.6Zm-1,.81h-6v1.11h6Zm0,2.94v-1.12h-6v1.12Zm-6,.73v1.12h6V102.4Z"/><path class="cls-4" d="M92.14,93.57c1.05,0,9.68-.66,11.5-.67V94h-.52a4,4,0,0,0-2.4.71c-2.1,1.26-4.13,3.52-4.13,5.32,0,2,1.37,3.12,4.85,3.57l-.46,1c-4-.57-5.46-2.06-5.46-4.55,0-2,1.95-4.37,4.51-6-1.54.11-5.67.42-7.48.59a.42.42,0,0,1-.31.22Zm9.08,2.76a10.33,10.33,0,0,1,1.9,1.93l-.53.43a9.33,9.33,0,0,0-1.85-1.95Zm1.51-1.23A8.86,8.86,0,0,1,104.64,97l-.53.42a9.94,9.94,0,0,0-1.85-1.93Z"/><path class="cls-4" d="M107.71,96.71A16.3,16.3,0,0,1,106,99a5.53,5.53,0,0,0-.49-.88,18.75,18.75,0,0,0,3.59-6.3l1.11.38c0,.1-.14.14-.32.13a26,26,0,0,1-1.34,3l.35.1c0,.1-.08.15-.27.18v9.16h-.92Zm11.18-3.63V94h-1.08v9.33c0,.71-.18,1-.69,1.16a11.36,11.36,0,0,1-2.84.18,3.59,3.59,0,0,0-.35-1c.64,0,1.26,0,1.74,0,1.16,0,1.22,0,1.22-.39V94H110v-.91Zm-4,7.87h-3.53v1h-.87V96.09h4.4Zm-.87-4h-2.66v3.18H114Z"/><path class="cls-4" d="M125.62,92.35c0,.17-.2.24-.46.25-.15.78-.41,2.14-.57,3,.63-.07,1.2-.13,1.55-.13,2.13,0,2.86,1.39,2.86,3.49a10.92,10.92,0,0,1-.48,3.14A2.56,2.56,0,0,1,126,104.2a4.15,4.15,0,0,1-2.54-1.22,5.28,5.28,0,0,0,.38-.85A3.75,3.75,0,0,0,126,103.2c.8,0,1.27-.5,1.55-1.4a10.56,10.56,0,0,0,.45-2.87c0-1.6-.53-2.55-1.93-2.54a16.15,16.15,0,0,0-1.71.14,26.87,26.87,0,0,1-2.87,7.56l-.92-.45a22.91,22.91,0,0,0,2.79-7c-.71.08-1.74.21-2.49.34l-.08-1,2.77-.32c.21-1,.43-2.28.6-3.52Zm3.25-.43a9.84,9.84,0,0,1,1.88,2l-.55.39a9.34,9.34,0,0,0-1.85-1.95Zm3.14,8.15a8.82,8.82,0,0,0-2.86-4.78l.81-.55A9.28,9.28,0,0,1,133,99.69Zm-1-8.7a9.15,9.15,0,0,1,1.89,1.95l-.55.41a9.39,9.39,0,0,0-1.85-2Z"/><path class="cls-4" d="M139.8,92.4c-.06.1-.15.14-.34.13a13.91,13.91,0,0,1-4.38,5.55,5.8,5.8,0,0,0-.74-.67A12.54,12.54,0,0,0,138.6,92Zm4.9,4.68h.22l.53.06c0,.1,0,.22,0,.34-.22,4.52-.43,6.15-.92,6.68s-.81.49-1.67.49c-.48,0-1.08,0-1.68-.06a2.19,2.19,0,0,0-.31-.94c1,.08,1.86.1,2.2.1s.46,0,.6-.18c.36-.36.59-1.82.77-5.55h-3.85c-.38,2.69-1.16,5.41-4.92,6.75a3.25,3.25,0,0,0-.6-.8c3.39-1.13,4.19-3.49,4.52-6h-3v-.92ZM143.47,92a14.71,14.71,0,0,0,4.31,5.17A4.48,4.48,0,0,0,147,98a18.49,18.49,0,0,1-4.43-5.65Z"/><path class="cls-4" d="M154.32,92.35c0,.17-.2.24-.46.25-.15.78-.41,2.14-.57,3,.63-.07,1.2-.13,1.55-.13,2.13,0,2.86,1.39,2.86,3.49a10.92,10.92,0,0,1-.48,3.14,2.56,2.56,0,0,1-2.49,2.11,4.15,4.15,0,0,1-2.54-1.22,5.28,5.28,0,0,0,.38-.85,3.75,3.75,0,0,0,2.14,1.06c.8,0,1.27-.5,1.55-1.4a10.56,10.56,0,0,0,.45-2.87c0-1.6-.53-2.55-1.93-2.54a16.15,16.15,0,0,0-1.71.14,26.87,26.87,0,0,1-2.87,7.56l-.92-.45a22.91,22.91,0,0,0,2.79-7c-.71.08-1.74.21-2.49.34l-.08-1,2.77-.32c.21-1,.43-2.28.6-3.52Zm6.49,6.74a8.4,8.4,0,0,0-3.15-4.79l.76-.59a9,9,0,0,1,3.4,5Z"/><path class="cls-4" d="M167.17,97.83a8.49,8.49,0,0,1,3.47-.81c2.23,0,3.63,1.3,3.63,3.36,0,2.54-2.23,3.94-5,3.94-1.82,0-3.07-.73-3.07-2a2.12,2.12,0,0,1,2.3-1.88,3,3,0,0,1,2.86,2.54,2.75,2.75,0,0,0,1.93-2.62c0-1.51-1.12-2.48-2.89-2.48a8,8,0,0,0-5.08,1.83c-.42.39-1,1-1.34,1.41l-.71-.71c1.26-1.32,5.27-5.14,7.17-6.92-.81.11-3.61.22-5.21.28a.46.46,0,0,1-.29.21l-.11-1.19c1.89,0,5.5-.15,6.53-.31l.21-.1.74.91a.68.68,0,0,1-.34.13c-1,.81-3.66,3.31-4.75,4.36Zm1.93,5.6a6.13,6.13,0,0,0,1.27-.14,2.16,2.16,0,0,0-2-2c-.73,0-1.37.39-1.37,1C167,103.2,168.18,103.43,169.1,103.43Z"/><path class="cls-4" d="M183.51,94.23a.36.36,0,0,1-.35.22c-.5,4.36-2,8.15-4.29,8.15-1.18,0-2.24-1.18-2.24-3.39a6.15,6.15,0,0,1,6.3-6.18c4,0,5.8,2.56,5.8,5.29,0,3.33-1.93,4.94-5.32,5.73a5.49,5.49,0,0,0-.59-.85c3.22-.62,4.87-2.19,4.87-4.83,0-2.31-1.48-4.41-4.76-4.41l-.42,0ZM182.16,94a5.16,5.16,0,0,0-4.58,5.14c0,1.5.64,2.44,1.32,2.44C180.6,101.63,181.81,97.89,182.16,94Z"/><path class="cls-4" d="M196,92.35c0,.17-.2.24-.46.25-.15.78-.41,2.14-.57,3,.63-.07,1.2-.13,1.55-.13,2.13,0,2.86,1.39,2.86,3.49a10.92,10.92,0,0,1-.48,3.14,2.56,2.56,0,0,1-2.49,2.11,4.15,4.15,0,0,1-2.54-1.22,5.28,5.28,0,0,0,.38-.85,3.75,3.75,0,0,0,2.14,1.06c.8,0,1.27-.5,1.55-1.4a10.56,10.56,0,0,0,.45-2.87c0-1.6-.53-2.55-1.93-2.54a16.15,16.15,0,0,0-1.71.14,26.87,26.87,0,0,1-2.87,7.56l-.92-.45a22.91,22.91,0,0,0,2.79-7c-.71.08-1.74.21-2.49.34l-.08-1,2.77-.32c.21-1,.43-2.28.6-3.52Zm6.49,6.74a8.4,8.4,0,0,0-3.15-4.79l.76-.59a9,9,0,0,1,3.4,5Z"/><path class="cls-4" d="M208.19,100.58a4.09,4.09,0,0,1-.11-.87,3.18,3.18,0,0,1,1.33-2.38c1-.9,1.54-1.44,1.54-2.24s-.77-1.5-2.33-1.5a5.13,5.13,0,0,0-2.33.55l-.38-.81a6.62,6.62,0,0,1,2.83-.64c2.42,0,3.36,1.13,3.36,2.3s-.7,1.83-1.81,2.77a2.66,2.66,0,0,0-1.16,2,3.29,3.29,0,0,0,0,.35l.07.43Zm-.25,2.24a.85.85,0,0,1,.83-.94.89.89,0,1,1-.83.94Z"/><path class="cls-4" d="M234.66,101.23h3.46v.84H225.43v-.84h3.46V99.5h-2.55v-.84h2.55V97.23H227v-5h9.68v5h-1.72c0,.08-.11.14-.28.17v1.26h2.61v.84h-2.61Zm-4,1.65a.4.4,0,0,1-.28.08,17.6,17.6,0,0,1-4.27,1.74,4.93,4.93,0,0,0-.62-.71,16.32,16.32,0,0,0,4.23-1.68ZM227.89,93v1.36h3.36V93Zm0,2.09v1.37h3.36V95.1Zm2.21,2.13c0,.08-.1.14-.28.17v1.26h3.87V97.23Zm-.28,2.27v1.74h3.87V99.5Zm5.88-5.13V93h-3.53v1.36Zm0,2.1V95.1h-3.53v1.37Zm1.57,8.24a30.59,30.59,0,0,0-4.29-1.77l.62-.64a38.49,38.49,0,0,1,4.45,1.71Z"/><path class="cls-4" d="M251,92.24a.3.3,0,0,1-.29.11c-.29.42-.76,1-1.15,1.48h2.52v2.91h-.92V94.69h-10v2.06h-.9V93.84h2.3a10.54,10.54,0,0,0-1.12-1.67l.81-.35a9.18,9.18,0,0,1,1.27,1.76l-.53.25h2.59V91.67l1.22.08c0,.1-.08.17-.27.2v1.89h2.54l-.42-.2a13,13,0,0,0,1.23-1.86Zm.15,7.84V103c0,1.05-.52,1.05-2.8,1.05a3.36,3.36,0,0,0-.32-.83l1.37,0c.71,0,.83,0,.83-.25V101h-3.68v3.75h-1V101h-3.47v3.14h-.91v-4h4.38V98.91h-3.12V95.8h7.44v3.11h-3.19a.46.46,0,0,1-.17.06v1.12Zm-7.8-3.54v1.64H249V96.54Z"/><path class="cls-4" d="M259.38,92.35c0,.17-.2.24-.46.25-.15.78-.41,2.14-.57,3,.63-.07,1.2-.13,1.55-.13,2.13,0,2.86,1.39,2.86,3.49a10.92,10.92,0,0,1-.48,3.14,2.56,2.56,0,0,1-2.49,2.11,4.15,4.15,0,0,1-2.54-1.22,5.28,5.28,0,0,0,.38-.85,3.75,3.75,0,0,0,2.14,1.06c.8,0,1.27-.5,1.55-1.4a10.56,10.56,0,0,0,.45-2.87c0-1.6-.53-2.55-1.93-2.54a16.15,16.15,0,0,0-1.71.14,26.87,26.87,0,0,1-2.87,7.56l-.92-.45a22.91,22.91,0,0,0,2.79-7c-.71.08-1.74.21-2.49.34l-.08-1,2.77-.32c.21-1,.43-2.28.6-3.52Zm3.25-.43a9.84,9.84,0,0,1,1.88,2l-.55.39a9.34,9.34,0,0,0-1.85-1.95Zm3.14,8.15a8.82,8.82,0,0,0-2.86-4.78l.81-.55a9.28,9.28,0,0,1,3.05,4.94Zm-1-8.7a9.15,9.15,0,0,1,1.89,1.95l-.55.41a9.39,9.39,0,0,0-1.85-2Z"/><path class="cls-4" d="M277.05,96.28c0,.18-.08.36-.14.53,2.47.43,3.38,2,3.38,3.63,0,2.23-1.9,3.57-5.41,4a5.37,5.37,0,0,0-.38-.84c2.9-.28,4.76-1.29,4.76-3.1v-.1a2.77,2.77,0,0,0-2.66-2.68,11.06,11.06,0,0,1-2.79,4.12,3.15,3.15,0,0,0,.36.76l-.83.52a3.62,3.62,0,0,1-.34-.7,4.54,4.54,0,0,1-2.65,1.05,1.67,1.67,0,0,1-1.7-1.86c0-1.93,1.6-3.47,3.63-4.29,0-.73,0-1.53,0-2.35-2.37,0-2.62,0-3.08,0l0-.92c.71,0,1.93,0,3.14,0,0-.64,0-1.43.07-2.09l1.4.1c0,.14-.15.25-.36.28,0,.52-.07,1.16-.11,1.68a32.07,32.07,0,0,0,5.62-.59l.13,1a34,34,0,0,1-5.79.55c0,.73,0,1.43,0,2.09a7.29,7.29,0,0,1,2.1-.32h.57c.06-.22.1-.43.14-.66Zm-4.3,5.23a16.39,16.39,0,0,1-.41-3.28c-1.53.67-2.72,1.83-2.72,3.19,0,.83.46,1.11,1,1.08A3.82,3.82,0,0,0,272.75,101.5Zm2.87-3.94a6.54,6.54,0,0,0-2.37.34,13.6,13.6,0,0,0,.32,2.89A9.19,9.19,0,0,0,275.62,97.56Z"/><path class="cls-4" d="M282.31,97.21c.25-.06.77-.2,1.25-.34a20.89,20.89,0,0,1,5.07-1c1.89,0,3.59,1,3.59,3.29,0,3.08-3.05,4.22-6.79,4.51a6.82,6.82,0,0,0-.28-.85c3.29-.24,6.08-1.19,6.08-3.6a2.41,2.41,0,0,0-2.73-2.49,17.42,17.42,0,0,0-4.69,1l-.9.31a.35.35,0,0,1-.22.24Z"/><path class="cls-4" d="M303.13,94.75a17.54,17.54,0,0,1-4.3.8,37,37,0,0,1-2.56,8.75l-1-.38a30,30,0,0,0,2.54-8.33c-.28,0-2.16,0-2.58,0v-1c.22,0,.52,0,.84,0,.13,0,1.53,0,1.89,0,.14-.9.28-1.88.36-2.73l1.44.14c0,.15-.21.27-.41.28-.08.62-.22,1.37-.35,2.23a16.21,16.21,0,0,0,3.92-.78Zm3.73,9.33-1.29,0a14,14,0,0,1-3.32-.31,2,2,0,0,1-1.56-1.93,3.38,3.38,0,0,1,.87-2l.84.36a2.58,2.58,0,0,0-.73,1.55c0,1.11,1.06,1.39,3.61,1.39.52,0,1.05,0,1.57-.06Zm-5.46-6.75a16.71,16.71,0,0,1,5.08-.71v1a15.83,15.83,0,0,0-4.85.63Z"/><path class="cls-4" d="M311.6,99.9l1.54-.7a7.47,7.47,0,0,1,.2.83c-1.44.7-3,1.44-4,1.89a.27.27,0,0,1-.15.24l-.46-1.05c.53-.21,1.2-.49,1.95-.81V95.66H309v-.91h1.71V91.7l1.16.08c0,.1-.08.15-.27.18v2.79h1.58v.91H311.6Zm10.24-1.54h-5.91a9.33,9.33,0,0,1-.64,1.06H321l.52.08-.06.28c-.24,3-.46,4.15-.84,4.55s-.69.35-1.42.35l-.8,0a1.93,1.93,0,0,0-.21-.78,12.15,12.15,0,0,0,1.25.06c.21,0,.32,0,.43-.14s.46-1.2.66-3.56h-1.26a10.2,10.2,0,0,1-2.76,4.57,3.13,3.13,0,0,0-.71-.55,8.65,8.65,0,0,0,2.69-4H317a10.85,10.85,0,0,1-3.42,4,3.33,3.33,0,0,0-.64-.6,9.39,9.39,0,0,0,3.21-3.36h-1.51a9.17,9.17,0,0,1-2,1.74,5.84,5.84,0,0,0-.6-.56,8.38,8.38,0,0,0,2.89-3h-2.09v-.83h9Zm-1-6.25v4.57h-6.49V92.12ZM319.93,94v-1.2h-4.75V94Zm0,1.92V94.74h-4.75V96Z"/><path class="cls-4" d="M330.55,91.75a.33.33,0,0,1-.29.21,17.68,17.68,0,0,0,6.14,4.89,3.57,3.57,0,0,0-.62.81,19.47,19.47,0,0,1-6.11-5,18.11,18.11,0,0,1-6,5.13,4.75,4.75,0,0,0-.59-.74,16.34,16.34,0,0,0,6.05-5.36Zm-5.14,13V99H334v5.67h-1v-.6h-6.75v.6Zm.71-8.38h7.17v.85h-7.17Zm7,3.57h-6.75v3.35h6.75Z"/><path class="cls-4" d="M340.72,92.72c0,.15-.18.24-.46.22a33.6,33.6,0,0,0-.74,6.3,15.42,15.42,0,0,0,.18,2.77c.27-.69.87-2.16,1.06-2.65l.59.62c-.57,1.42-1,2.21-1.19,2.84a2.41,2.41,0,0,0-.11.66,1.49,1.49,0,0,0,.07.43l-1,.18a15.38,15.38,0,0,1-.62-4.82,41,41,0,0,1,.74-6.82ZM349.64,103c-.5,0-1,0-1.54,0a19.36,19.36,0,0,1-2.61-.15c-1.72-.25-2.52-1.2-2.52-2.33a4.28,4.28,0,0,1,1.32-2.7l.91.39a3.31,3.31,0,0,0-1.19,2.2c0,1.63,2.38,1.63,3.84,1.63.59,0,1.22,0,1.81-.07Zm-6.49-8.56a45.71,45.71,0,0,0,6.11-.53l.08,1a53,53,0,0,1-6.16.52Z"/><path class="cls-4" d="M356.6,94.6l.53.14-.08.2a18.28,18.28,0,0,1-1.34,6,10,10,0,0,1,1.65,1.53l-.57.77a10,10,0,0,0-1.5-1.46,7.57,7.57,0,0,1-2.77,2.93,3.87,3.87,0,0,0-.59-.77,6.62,6.62,0,0,0,2.63-2.73,18.82,18.82,0,0,0-1.6-1.08l-.17.62-.8-.42c.35-1.23.78-3,1.19-4.82h-1.4v-.88h1.6c.22-1.05.42-2.06.59-3l1.15.14c0,.1-.1.15-.28.17-.15.8-.35,1.71-.56,2.65h2.16Zm-2.52.92c-.29,1.3-.62,2.62-.91,3.77.59.32,1.19.71,1.78,1.11a16.6,16.6,0,0,0,1.16-4.87Zm10.7,3.08h-3.46v4.83h3.24v.9h-7.37v-.9h3.19V98.6H357v-.9h3.4V93.36c-1,.21-2.09.39-3.1.53a3.15,3.15,0,0,0-.29-.76,31.32,31.32,0,0,0,6.26-1.47l.88.74c-.06,0-.07,0-.28,0a19.2,19.2,0,0,1-2.27.64c0,.08-.1.14-.27.17V97.7h3.46Z"/><path class="cls-4" d="M370.57,94.71a.8.8,0,0,1-.06.2,21.35,21.35,0,0,1-1.05,6.05,10.56,10.56,0,0,1,1.37,1.53l-.6.74a10.8,10.8,0,0,0-1.13-1.37,6.88,6.88,0,0,1-2.35,2.86,3.05,3.05,0,0,0-.59-.76,5.86,5.86,0,0,0,2.24-2.76c-.41-.39-.85-.76-1.29-1.11l-.14.64-.77-.45c.31-1.22.66-3,1-4.78H366.1v-.87h1.23c.18-1,.35-2.06.48-3l1.15.13c0,.1-.1.15-.29.17-.13.8-.29,1.71-.46,2.66h1.88Zm-2.52.8c-.24,1.26-.49,2.54-.73,3.66a17.47,17.47,0,0,1,1.43,1.13,19.86,19.86,0,0,0,.87-4.79Zm8.07,2.79a14.83,14.83,0,0,0,.57,2.23,15.73,15.73,0,0,0,1.7-1.58l.73.66a.2.2,0,0,1-.15.07h-.11a20.36,20.36,0,0,1-1.89,1.53,5.65,5.65,0,0,0,2.25,2.77,3.17,3.17,0,0,0-.62.76c-1.79-1.16-2.77-3.54-3.25-6.42h-1.08v4.93l2.19-.36.06.78-3.74.73a.24.24,0,0,1-.2.2l-.36-1,1.21-.18V98.29h-1.08a14,14,0,0,1-1.47,6.43,2.85,2.85,0,0,0-.74-.53c1.26-2.09,1.37-5,1.37-7.19V92.44h7.34v.87h-6.47v4.13H379v.85Zm2.14-2.56h-5.2V94.9h5.2Z"/><path class="cls-4" d="M387.76,94.23a.36.36,0,0,1-.35.22c-.5,4.36-2,8.15-4.29,8.15-1.18,0-2.24-1.18-2.24-3.39a6.15,6.15,0,0,1,6.3-6.18c4,0,5.8,2.56,5.8,5.29,0,3.33-1.93,4.94-5.32,5.73a5.49,5.49,0,0,0-.59-.85c3.22-.62,4.87-2.19,4.87-4.83,0-2.31-1.48-4.41-4.76-4.41l-.42,0ZM386.42,94a5.16,5.16,0,0,0-4.58,5.14c0,1.5.64,2.44,1.32,2.44C384.85,101.63,386.07,97.89,386.42,94Z"/><path class="cls-4" d="M398.71,97.9a13.4,13.4,0,0,0-.77-1.4l.7-.29a12,12,0,0,1,1.46,3l-.74.35c-.07-.25-.18-.56-.31-.9l-1.18.07v6H397v-6l-1.95.08a.28.28,0,0,1-.21.18L394.62,98h1c.31-.39.63-.84,1-1.32a13.53,13.53,0,0,0-1.79-2.1,3.48,3.48,0,0,0,.49-.6l.46.43A20.87,20.87,0,0,0,397,91.68l1,.42c0,.08-.15.11-.31.11a21.85,21.85,0,0,1-1.43,2.7,9.4,9.4,0,0,1,.81,1,29.55,29.55,0,0,0,1.5-2.62l1,.46a.35.35,0,0,1-.31.11,38.17,38.17,0,0,1-2.76,4.09Zm-2.2,2.1c0,.13-.14.15-.27.14a13.16,13.16,0,0,1-.9,3.36,6.29,6.29,0,0,0-.69-.35,12.2,12.2,0,0,0,.84-3.4Zm2.77,2.73a13.06,13.06,0,0,0-.9-2.79l.71-.22a13.3,13.3,0,0,1,.92,2.76Zm8.53.38V104h-6.65v.69h-.88V92.24l1.15.08c0,.08-.08.15-.27.18v10.6Zm-3.74-.27V98.41a12.36,12.36,0,0,1-2.38,3.74,4.2,4.2,0,0,0-.46-.85,11.51,11.51,0,0,0,2.49-3.89h-2.27v-.85h2.62V92l1.11.07c0,.1-.08.15-.27.18v4.31h2.73v.85h-2.73v.55c.6.56,2.24,2.23,2.63,2.66a8.75,8.75,0,0,0-.59.74,31.78,31.78,0,0,0-2-2.47v4ZM402.35,93a12.47,12.47,0,0,1,1.05,2.8l-.77.28a12.71,12.71,0,0,0-1-2.83Zm5.24.27a.37.37,0,0,1-.31.13A21.2,21.2,0,0,1,406,96.3s-.64-.29-.64-.29a21,21,0,0,0,1.25-3.1Z"/><path class="cls-4" d="M413.65,99.5a9.1,9.1,0,0,0-.29-.87l-1.12.07v6h-.84v-6l-2,.08a.28.28,0,0,1-.21.18L409,98h1c.31-.39.64-.84,1-1.32a12.92,12.92,0,0,0-1.81-2.1,2.75,2.75,0,0,0,.5-.6l.46.43a23.21,23.21,0,0,0,1.27-2.69l1,.42a.28.28,0,0,1-.29.11,24.15,24.15,0,0,1-1.46,2.7,9.46,9.46,0,0,1,.81,1c.57-.91,1.13-1.85,1.53-2.63l1,.46a.36.36,0,0,1-.31.13,40,40,0,0,1-2.79,4.08l2.21,0a13.26,13.26,0,0,0-.77-1.39l.7-.29a11.75,11.75,0,0,1,1.44,2.93Zm-2.79.5c0,.1-.1.15-.25.15a13.05,13.05,0,0,1-.9,3.35,6.5,6.5,0,0,0-.7-.35,12.2,12.2,0,0,0,.84-3.4Zm2.65-.28a12.61,12.61,0,0,1,.88,2.7l-.76.25a14,14,0,0,0-.84-2.73Zm3.92-.67c0,.11-.08.17-.25.2-.15,2.77-1,4.64-3.1,5.49a4.5,4.5,0,0,0-.59-.67c1.93-.76,2.69-2.42,2.76-5.08Zm.29-3.82V93.87h-3.36v-.81h3.36V91.67l1.21.07c0,.1-.08.17-.28.2v1.12h3.42v.81h-3.42v1.36h2.84V96h-6.6v-.81ZM422,99.69h-.87V97.89h-5.79v1.81h-.84V97.1H422Zm-2.34,3.68c0,.34,0,.39.35.39h.92c.29,0,.35-.22.38-1.75a2.27,2.27,0,0,0,.78.38c-.07,1.75-.31,2.2-1.06,2.2h-1.15c-.88,0-1.09-.27-1.09-1.22V99l1.13.08c0,.08-.08.15-.27.18Z"/><path class="cls-4" d="M424.89,103.91a15.37,15.37,0,0,1-.6-4.93,35.71,35.71,0,0,1,.76-6.54l1.36.27A.36.36,0,0,1,426,93a26.89,26.89,0,0,0-.81,6,16.64,16.64,0,0,0,.13,2.65c.31-.84.87-2.19,1.16-2.84l.63.59a16.43,16.43,0,0,0-1.44,3.74,1.92,1.92,0,0,0,.14.67Zm3.56-8.25c1.18,0,2.35,0,3.53-.06-.06-1.2-.1-2.24-.13-3.28l1.41,0c0,.14-.14.25-.36.29,0,.9,0,1.81.07,2.87a12.39,12.39,0,0,0,2.75-.56l.13,1a13.48,13.48,0,0,1-2.83.5c.06,1.55.13,3.19.17,4.09a10.32,10.32,0,0,1,2.86,1.78l-.55.9a8.41,8.41,0,0,0-2.27-1.6c0,1.19-.24,2.52-2.34,2.52-1.64,0-2.73-.78-2.73-2,0-1.43,1.44-2.06,2.73-2.06a4.84,4.84,0,0,1,1.33.18c0-.88-.13-2.35-.2-3.73-.43,0-1,0-1.43,0h-2.13Zm3.84,5.5a4.74,4.74,0,0,0-1.39-.25c-.85,0-1.88.31-1.88,1.19s.84,1.18,1.86,1.18,1.42-.5,1.42-1.62Z"/><path class="cls-4" d="M20.39,114.57c1.05,0,9.68-.66,11.5-.67V115h-.52a4,4,0,0,0-2.4.71c-2.1,1.26-4.13,3.52-4.13,5.32,0,2,1.37,3.12,4.85,3.57l-.46,1c-4-.57-5.46-2.06-5.46-4.55,0-2,1.95-4.37,4.51-6-1.54.11-5.67.42-7.48.59a.42.42,0,0,1-.31.22Zm9.08,2.76a10.33,10.33,0,0,1,1.9,1.93l-.53.43A9.33,9.33,0,0,0,29,117.75ZM31,116.1A8.86,8.86,0,0,1,32.89,118l-.53.42a9.94,9.94,0,0,0-1.85-1.93Z"/><path class="cls-4" d="M45.84,117.7a21,21,0,0,1-4.23.87,5.18,5.18,0,0,0,2.31,2.2l-.56.8c-.2-.1-.56-.27-.81-.42a5.86,5.86,0,0,0-1.65-.21l-.57,0-.2-.77a9.51,9.51,0,0,1,1.57.06,7.07,7.07,0,0,1-1.11-1.58,35.36,35.36,0,0,1-3.75.14H34.74v-.88l2.14,0c1.15,0,2.28,0,3.42-.1-.15-.43-.38-1.23-.55-1.86-.56.06-1.19.08-1.77.08-.76,0-1.72,0-2.38,0v-.87c.84,0,1.77,0,2.37,0s1.08,0,1.61-.07c-.13-.64-.27-1.41-.38-2.2h1.44c0,.17-.13.27-.38.31.08.6.18,1.25.29,1.79a14.66,14.66,0,0,0,3.75-.81l.24.87a17,17,0,0,1-3.81.8,16.63,16.63,0,0,0,.53,1.83,20.15,20.15,0,0,0,4.37-.92Zm-2.47,7.41c-.77.06-1.7.08-3.08.08-2.27,0-4-.74-4-2.33a3,3,0,0,1,1.65-2.21l.63.64c-.81.43-1.29,1-1.29,1.55,0,1,1.23,1.43,3,1.44,1.05,0,2.16-.06,3.11-.13Z"/><path class="cls-4" d="M51.39,118.83a8.49,8.49,0,0,1,3.47-.81c2.23,0,3.63,1.3,3.63,3.36,0,2.54-2.23,3.94-5,3.94-1.82,0-3.07-.73-3.07-2a2.12,2.12,0,0,1,2.3-1.88A3,3,0,0,1,55.54,124a2.75,2.75,0,0,0,1.93-2.62c0-1.51-1.12-2.48-2.89-2.48a8,8,0,0,0-5.08,1.83c-.42.39-1,1-1.34,1.41l-.71-.71c1.26-1.32,5.27-5.14,7.17-6.92-.81.11-3.61.22-5.21.28a.46.46,0,0,1-.29.21L49,113.83c1.89,0,5.5-.15,6.53-.31l.21-.1.74.91a.68.68,0,0,1-.34.13c-1,.81-3.66,3.31-4.75,4.36Zm1.93,5.6a6.13,6.13,0,0,0,1.27-.14,2.16,2.16,0,0,0-2-2c-.73,0-1.37.39-1.37,1C51.24,124.2,52.4,124.43,53.32,124.43Z"/><path class="cls-4" d="M67.73,115.23a.36.36,0,0,1-.35.22c-.5,4.36-2,8.15-4.29,8.15-1.18,0-2.24-1.18-2.24-3.39a6.15,6.15,0,0,1,6.3-6.18c4,0,5.8,2.56,5.8,5.29,0,3.33-1.93,4.94-5.32,5.73a5.49,5.49,0,0,0-.59-.85c3.22-.62,4.87-2.19,4.87-4.83,0-2.31-1.48-4.41-4.76-4.41l-.42,0ZM66.39,115a5.16,5.16,0,0,0-4.58,5.14c0,1.5.64,2.44,1.32,2.44C64.82,122.63,66,118.89,66.39,115Z"/><path class="cls-4" d="M80.19,113.35c0,.17-.2.24-.46.25-.15.78-.41,2.14-.57,3,.63-.07,1.2-.13,1.55-.13,2.13,0,2.86,1.39,2.86,3.49a10.92,10.92,0,0,1-.48,3.14,2.56,2.56,0,0,1-2.49,2.11A4.15,4.15,0,0,1,78.06,124a5.28,5.28,0,0,0,.38-.85,3.75,3.75,0,0,0,2.14,1.06c.8,0,1.27-.5,1.55-1.4a10.56,10.56,0,0,0,.45-2.87c0-1.6-.53-2.55-1.93-2.54a16.15,16.15,0,0,0-1.71.14,26.87,26.87,0,0,1-2.87,7.56l-.92-.45a22.91,22.91,0,0,0,2.79-7c-.71.08-1.74.21-2.49.34l-.08-1,2.77-.32c.21-1,.43-2.28.6-3.52Zm6.49,6.74a8.4,8.4,0,0,0-3.15-4.79l.76-.59a9,9,0,0,1,3.4,5Z"/><path class="cls-4" d="M92.41,121.58a4.09,4.09,0,0,1-.11-.87,3.18,3.18,0,0,1,1.33-2.38c1-.9,1.54-1.44,1.54-2.24s-.77-1.5-2.33-1.5a5.13,5.13,0,0,0-2.33.55l-.38-.81a6.62,6.62,0,0,1,2.83-.64c2.42,0,3.36,1.13,3.36,2.3s-.7,1.83-1.81,2.77a2.66,2.66,0,0,0-1.16,2,3.29,3.29,0,0,0,0,.35l.07.43Zm-.25,2.24a.85.85,0,0,1,.83-.94.89.89,0,1,1-.83.94Z"/><path class="cls-4" d="M107.74,113.09a.46.46,0,0,1-.43.24c-.1.62-.22,1.34-.35,1.89a19.29,19.29,0,0,0,4.12-.69l.15,1a28.17,28.17,0,0,1-4.45.67,20.79,20.79,0,0,1-3,6.89l-.94-.38a18.66,18.66,0,0,0,2.84-6.49h-2.79v-.91h3a23.08,23.08,0,0,0,.39-2.37Zm3.73,6c0,1.13.1,1.9.18,2.87a14.29,14.29,0,0,1,3,1.62l-.5.9a13.23,13.23,0,0,0-2.48-1.47c0,1.4-.56,2.49-2.62,2.49-1.55,0-2.75-.7-2.73-2s1.47-2.07,2.76-2.07a6,6,0,0,1,1.58.25c-.06-.9-.13-1.81-.13-2.47Zm-.77,3.5a4.67,4.67,0,0,0-1.67-.32c-.84,0-1.83.34-1.85,1.2s.78,1.18,1.88,1.18,1.65-.49,1.65-1.42C110.71,123,110.71,122.77,110.7,122.56Zm3.84-4.94a20,20,0,0,0-5,.69l-.15-.88a19.58,19.58,0,0,1,5.06-.76Z"/><path class="cls-4" d="M126.49,117.65a.28.28,0,0,1-.11,0,.55.55,0,0,1-.29-.08c-4.16,1.22-7.93,3.05-7.91,4.93,0,1.34,1.48,1.81,3.75,1.81a33.57,33.57,0,0,0,5-.32l.08,1a45.14,45.14,0,0,1-5,.25c-2.77,0-4.79-.64-4.8-2.7,0-1.5,1.48-2.82,3.68-4-.48-.85-.64-2.48-.64-5.65l1.54.13c0,.18-.15.29-.43.34,0,2.45.07,4,.46,4.73a39.55,39.55,0,0,1,4.37-1.68Zm-1.79-4.37a8.84,8.84,0,0,1,1.78,2.09l-.6.41a8.5,8.5,0,0,0-1.72-2.09Zm1.88-.8a8.42,8.42,0,0,1,1.75,2.07l-.57.39a8.8,8.8,0,0,0-1.71-2Z"/><path class="cls-4" d="M129.51,121.83a27.67,27.67,0,0,1,3.17,3.1l-.84.77a31.2,31.2,0,0,0-3.07-3.21Z"/><path class="cls-4" d="M149.13,114v1h-5.69v9.34c0,.74-.2,1.05-.73,1.2a11.94,11.94,0,0,1-3,.17,4.91,4.91,0,0,0-.42-1l1.95,0c1.12,0,1.22,0,1.22-.42V115h-5.79v-1Z"/><path class="cls-4" d="M163.55,121.91v.83h-5.81v1.93c0,1-.5,1-2.91,1a3.73,3.73,0,0,0-.32-.83h1.26c.94,0,1,0,1-.24v-1.91H151v-.83Zm-12.27-4.55a3.64,3.64,0,0,0,2.21-1.92l.71.31a4,4,0,0,1-2.34,2.21Zm1-2.77v1.51h-.87v-2.31h5.34v-1.12l1.22.07c0,.11-.1.17-.28.2v.85h5.41v2.31h-.9v-1.51Zm.34,6.56v-2.72h9.27v2.72Zm.83-2.06v1.4h1.92v-1.4Zm1.27-3.75,1.12.07c0,.1-.1.17-.28.2v1c0,.29.11.34.77.34h2.4c.48,0,.55-.08.6-.83a2.64,2.64,0,0,0,.74.28c-.08,1-.35,1.27-1.23,1.27h-2.56c-1.25,0-1.55-.18-1.55-1.06Zm1.58-.74a8.8,8.8,0,0,1,2.21,1.06l-.53.57a9,9,0,0,0-2.2-1.13Zm-.13,4.5v1.4h2v-1.4Zm2.82,0v1.4h2v-1.4Zm1.64-3.75a11.82,11.82,0,0,1,2.58,2.07l-.64.55a11.06,11.06,0,0,0-2.54-2.13Z"/><path class="cls-4" d="M168.29,113.72c0,.15-.18.24-.46.22a33.6,33.6,0,0,0-.74,6.3,15.42,15.42,0,0,0,.18,2.77c.27-.69.87-2.16,1.06-2.65l.59.62c-.57,1.42-1,2.21-1.19,2.84a2.41,2.41,0,0,0-.11.66,1.49,1.49,0,0,0,.07.43l-1,.18a15.38,15.38,0,0,1-.62-4.82,41,41,0,0,1,.74-6.82ZM177.21,124c-.5,0-1,0-1.54,0a19.36,19.36,0,0,1-2.61-.15c-1.72-.25-2.52-1.2-2.52-2.33a4.28,4.28,0,0,1,1.32-2.7l.91.39a3.31,3.31,0,0,0-1.19,2.2c0,1.63,2.38,1.63,3.84,1.63.59,0,1.22,0,1.81-.07Zm-6.49-8.56a45.71,45.71,0,0,0,6.11-.53l.08,1a53,53,0,0,1-6.16.52Z"/><path class="cls-4" d="M184.43,115.08v.8h-5.14v-.8ZM184,120.9V125h-3.22v.66h-.83V120.9Zm0-3.87v.77h-4V117Zm-4,2.7V119h4v.77Zm4-6.56V114H180v-.77Zm-.76,8.52h-2.38v2.52h2.38Zm4.62-1.19c0,.1-.11.15-.28.18-.22,2.06-.71,3.94-2.84,5a2.46,2.46,0,0,0-.6-.73c1.92-.88,2.37-2.54,2.52-4.57Zm2.09,3.73c0,.36.06.42.38.42h1c.35,0,.42-.28.45-2.23a3.3,3.3,0,0,0,.81.38c-.07,2.17-.29,2.7-1.16,2.7h-1.22c-.92,0-1.15-.29-1.15-1.27V120h-3.87v-4.66h6.7V120H190a.26.26,0,0,1-.11,0Zm-3.6-11.5a9.12,9.12,0,0,1,1.11,2.27c-.46.2-.67.27-.88.34a9.92,9.92,0,0,0-1.06-2.33ZM186,116.2v3h4.83v-3Zm5.67-3.14c0,.08-.14.13-.28.11a18.92,18.92,0,0,1-1.15,2.17l-.76-.32a17.07,17.07,0,0,0,1.05-2.37Z"/><path class="cls-4" d="M198.84,122h-3.71v1.34h-.88v-9.78h4.59Zm-.88-7.56h-2.83v2.84H198Zm-2.83,6.7H198v-3h-2.83Zm11.08-7.83v11.09c0,.63-.15.94-.59,1.09a8.83,8.83,0,0,1-2.44.18,3.65,3.65,0,0,0-.35-.94l1.32,0c1,0,1.13,0,1.13-.36v-3.26h-4.37a7.38,7.38,0,0,1-2.66,4.65,3.41,3.41,0,0,0-.7-.64c2.42-1.86,2.66-4.57,2.66-6.79v-5Zm-5.07,5a18.47,18.47,0,0,1-.1,1.92h4.24v-2.63h-4.15Zm4.15-4.16h-4.15v2.58h4.15Z"/><path class="cls-4" d="M211.2,113.28c0,.17-.15.27-.43.31-.11,1.63-.25,5.34-.25,7.41s1,3.1,2.8,3.1a6.82,6.82,0,0,0,5-2.66,5.6,5.6,0,0,0,.63.83,7.6,7.6,0,0,1-5.69,2.84c-2.55,0-3.85-1.47-3.85-4.12,0-1.76.13-6.11.22-7.83Z"/><path class="cls-4" d="M220.83,114.85c.87.06,2,.06,3,.06l1.93,0c0-.67,0-1.46,0-1.95l1.41.07c0,.17-.14.25-.38.29,0,.22,0,1.3,0,1.54a27.48,27.48,0,0,0,4.65-.55l.13.92a28.71,28.71,0,0,1-4.78.53c0,.84,0,1.71.06,2.58a23.55,23.55,0,0,0,4-.55l.11.91a26.75,26.75,0,0,1-4,.49l.11,2.34a15.56,15.56,0,0,1,4.12,2.19l-.62.85A13.65,13.65,0,0,0,227,122.5c0,.22,0,.48,0,.66,0,1.33-.81,2.1-2.51,2.1s-3.08-.73-3.08-2,1.53-2.09,3.1-2.09a6.14,6.14,0,0,1,1.47.17c0-.6,0-1.33-.06-2.09l-1.36,0c-2.4,0-3.07-.38-3.07-1.19,0-.53.41-1,1.3-1.54l.67.43c-.63.35-1,.66-1,.94s.66.5,2.44.5h.94l-.08-2.59c-.6,0-1.3,0-1.93,0-.9,0-2.17,0-3,0Zm5.18,7.3a5.89,5.89,0,0,0-1.57-.22c-1.06,0-2.14.43-2.14,1.27s1,1.23,2.2,1.23S226,123.94,226,123Z"/><path class="cls-4" d="M240.42,115c0-.31-.06-1.83-.08-2.19l1.44.06c0,.11-.11.25-.36.29,0,.17,0,.34,0,1.81,1.72-.06,3.53-.1,4.58-.11v1c-1.19,0-2.89,0-4.55.06,0,1.09.06,2.1.1,2.87a4.78,4.78,0,0,1,.17,1.47,6,6,0,0,1-.14,1.36c-.36,1.64-1.57,3.08-4,4.06a7.69,7.69,0,0,0-.71-.8c2.14-.77,3.29-1.93,3.64-3.26h0a1.76,1.76,0,0,1-1.44.74,2.39,2.39,0,0,1-2.35-2.45,2.58,2.58,0,0,1,2.52-2.62,2.08,2.08,0,0,1,1.3.43c0-.24,0-1.18-.06-1.78-1.46,0-5.88.18-6.46.21l0-.92,3.19-.08Zm.27,4.92c0-.55,0-1.82-1.43-1.82a1.69,1.69,0,0,0-1.67,1.78,1.57,1.57,0,0,0,1.56,1.63A1.51,1.51,0,0,0,240.69,119.91Z"/><path class="cls-4" d="M250.22,123.73a2,2,0,1,1-2-2A2,2,0,0,1,250.22,123.73Zm-.5,0a1.45,1.45,0,1,0-1.46,1.44A1.45,1.45,0,0,0,249.71,123.73Z"/></g></g></svg>