<svg xmlns="http://www.w3.org/2000/svg" viewBox="0 0 460 150"><defs><style>.cls-1{fill:#782341;}.cls-2{fill:#934f67;}.cls-3{fill:#f5f5f5;stroke:#f5f5f5;stroke-miterlimit:10;}.cls-4{fill:#fff;}</style></defs><title>Genetics06</title><g id="レイヤー_2" data-name="レイヤー 2"><g id="文字"><rect class="cls-1" y="0.7" width="460" height="149.3" rx="5" ry="5"/><rect class="cls-2" width="460" height="132.97" rx="5" ry="5"/><path class="cls-3" d="M22.75,32.53a.68.68,0,0,1-.69-.72.72.72,0,0,1,.72-.75h1.83c1.68,0,3.63,0,3.63,2.46,0,1.77-.09,3.75-.09,5.94C30.25,42.1,33.07,43,38.26,43c3,0,6.24-.33,8.61-.51H47a.8.8,0,0,1,.84.81.89.89,0,0,1-.9.84,76.49,76.49,0,0,1-7.65.39c-6.15,0-8.82-.6-11.85-3.93C25.33,43,23,44.41,22.51,44.41a.91.91,0,0,1-.87-.87.81.81,0,0,1,.45-.69,16,16,0,0,0,4.53-3.48c0-1.23.06-2.37.06-3.45,0-.75,0-1.44,0-2.1,0-.84-.36-1.26-1.38-1.29Zm4.56-7.68a12.17,12.17,0,0,0-3.69-3.12.5.5,0,0,1-.3-.45.88.88,0,0,1,.87-.75c.84,0,3.72,2.34,4.35,3.12a.84.84,0,0,1,.21.57,1,1,0,0,1-.9.93A.67.67,0,0,1,27.31,24.85Zm10.41,2.94-8.4,0a.62.62,0,1,1,0-1.23l7.65,0V25c-5.4,0-5.91-.12-5.91-2.16s.54-2,5.88-2V19.45a.79.79,0,0,1,1.56,0V20.8c1.26,0,2.55,0,3.9,0,2.07,0,2.1,1,2.1,2.19,0,1.92-.42,2-6.06,2v1.62l8.13,0a.56.56,0,0,1,.6.6.57.57,0,0,1-.6.63ZM30.31,41.08a.71.71,0,0,1-.72-.72.66.66,0,0,1,.66-.66,14.14,14.14,0,0,0,5-1.56.58.58,0,0,1,.36-.12.71.71,0,0,1,.66.69C36.22,39.79,31.48,41.08,30.31,41.08Zm11.1-3.27c-1,0-2.31,0-3.63,0s-2.64,0-3.72,0c-1.71,0-2.43-.78-2.46-1.89,0-.72,0-1.56,0-2.43s0-1.71,0-2.43c0-.93.75-1.8,2.46-1.86,1,0,2.34-.06,3.66-.06s2.67,0,3.78.06c1.62,0,2.4.69,2.46,1.71,0,.63.06,1.41.06,2.22,0,1,0,2-.06,2.73C43.9,37.12,43.15,37.78,41.41,37.81ZM37,21.85c-1.11,0-2.16,0-3.12,0-1.2,0-1.32.3-1.32,1C32.53,24,32.65,24,37,24Zm5.52,9.87c0-.18,0-.39,0-.57,0-.72-.54-1-1.29-1s-2.16,0-3.42,0-2.46,0-3.33,0-1.32.36-1.35,1l0,.54Zm0,.93H33v1.56h9.48ZM33,35.14c0,.24,0,.45,0,.66.06,1.05.48,1.05,4.74,1.05,1.29,0,2.58,0,3.39,0s1.23-.45,1.26-1.08c0-.18,0-.39,0-.6ZM38.44,24c4.44,0,4.56-.06,4.56-1.2,0-.93-.12-1-4.56-1Zm7.41,17.07c-1.47,0-6.48-1.44-6.48-2.43A.63.63,0,0,1,40,38a.8.8,0,0,1,.36.09A17.59,17.59,0,0,0,46,39.64a.68.68,0,0,1,.69.69A.76.76,0,0,1,45.85,41.08Z"/><path class="cls-3" d="M55.24,44.23,55.69,28c-3,4.11-3.75,4.11-4,4.11a.75.75,0,0,1-.78-.75.88.88,0,0,1,.3-.63,27.37,27.37,0,0,0,7-10.62A.73.73,0,0,1,59,19.6a1,1,0,0,1,1,.87,26.23,26.23,0,0,1-2.7,5.16L57,44.23a.81.81,0,0,1-.9.72.73.73,0,0,1-.81-.69ZM67.93,31.09a55.14,55.14,0,0,1-3.48,10.17c3.21-.39,6.54-.93,9.36-1.56A25.8,25.8,0,0,0,70.93,36a.72.72,0,0,1-.18-.45.76.76,0,0,1,.78-.69.79.79,0,0,1,.57.24c1.8,1.74,5.07,6.45,5.07,7.62a.93.93,0,0,1-.9.93.83.83,0,0,1-.78-.63,16,16,0,0,0-1-2.07,93.45,93.45,0,0,1-14.4,2.37.76.76,0,0,1-.75-.84.71.71,0,0,1,.63-.78c.9-.06,1.83-.15,2.79-.24a50.24,50.24,0,0,0,3.39-10.35h-6a.69.69,0,0,1-.75-.69.72.72,0,0,1,.75-.75h16.2a.72.72,0,1,1,0,1.44Zm-5.49-7.35a.73.73,0,0,1-.78-.72.76.76,0,0,1,.78-.78h11.7a.73.73,0,0,1,.78.75.75.75,0,0,1-.78.75Z"/><path class="cls-3" d="M81.34,31.12a1.14,1.14,0,0,1,.18-.54,10.07,10.07,0,0,0,1.26-5,.61.61,0,0,1,.66-.66.78.78,0,0,1,.84.78c0,1.71-.84,6.09-2.19,6.09A.71.71,0,0,1,81.34,31.12ZM86,19.9a.76.76,0,0,1,.84-.75.75.75,0,0,1,.81.75V44.08a.75.75,0,0,1-.81.72.76.76,0,0,1-.84-.72Zm4,7.59a12.52,12.52,0,0,0-1.68-2.76.63.63,0,0,1-.15-.36.66.66,0,0,1,.69-.57c.75,0,2.55,2.49,2.55,3.27a.83.83,0,0,1-.81.84A.63.63,0,0,1,90,27.49ZM91.15,43.6a.68.68,0,0,1-.75-.69.72.72,0,0,1,.75-.72l7.5,0v-7l-4.8,0a.68.68,0,0,1-.75-.69.72.72,0,0,1,.75-.72l4.8,0V27.79l-4.38,0a23.87,23.87,0,0,1-2.52,4.62.86.86,0,0,1-.75.45.76.76,0,0,1-.75-.75.68.68,0,0,1,.15-.45,21.27,21.27,0,0,0,3.84-9.6.78.78,0,0,1,.78-.72.81.81,0,0,1,.84.78,22.8,22.8,0,0,1-1.08,4.26l3.87,0V20a.76.76,0,0,1,.78-.78.76.76,0,0,1,.81.78v6.45l6,0a.69.69,0,0,1,.72.72.68.68,0,0,1-.72.69l-6,0v6.12l4.77,0a.71.71,0,1,1,0,1.41l-4.77,0v7l6.93,0a.71.71,0,1,1,0,1.41Z"/><path class="cls-3" d="M124.75,26.38c0,2.79-4,14.07-8,14.07-1.56,0-3.9-2-3.9-5.58a11.15,11.15,0,0,1,11.49-10.59c5.16,0,9.69,3.3,9.69,8.58,0,7.38-8.19,9.78-9.24,9.78a.91.91,0,0,1-1-.84c0-.36.27-.75.9-.87,4-.87,7.65-3.66,7.65-8.19,0-4.2-3.72-7.14-8-7.14A.84.84,0,0,1,124.75,26.38Zm-10.32,8.37c0,2,1.23,3.9,2.43,3.9,2,0,5.76-7.2,6.18-12.24a1,1,0,0,1,.3-.75A9.72,9.72,0,0,0,114.43,34.75Z"/><path class="cls-3" d="M152.29,19.69a.84.84,0,1,1,1.68,0v2.88c3.33,0,6.72,0,9.33,0a.69.69,0,0,1,.75.69.72.72,0,0,1-.75.72c-2.94,0-6.9-.06-10.41-.06-2.16,0-4.17,0-5.64,0s-1.92.66-1.92,1.8v.09c.06,1.53.12,3.06.12,4.56,0,5-.63,9.72-4,13.41a1.14,1.14,0,0,1-.81.39.83.83,0,0,1-.84-.78.7.7,0,0,1,.21-.51,14.64,14.64,0,0,0,3.81-9.3c-.45.33-3.36,2.16-4.26,2.16a.81.81,0,0,1-.81-.84.75.75,0,0,1,.54-.72,19.34,19.34,0,0,0,4.62-2.16v-1c0-1.77-.09-3.57-.18-5.4v-.21c0-1.92,1.14-2.88,3.33-2.88,1.53,0,3.36,0,5.25,0Zm-11,9.84a9.39,9.39,0,0,0-1.89-2.76.62.62,0,0,1-.21-.42.79.79,0,0,1,.81-.69c.78,0,2.7,2.76,2.7,3.45a.86.86,0,0,1-.84.84A.62.62,0,0,1,141.31,29.53Zm8.28,14.67a.69.69,0,0,1-.75.69.72.72,0,0,1-.75-.72V41.11c0-2.58,0-5.31,0-7.38,0-1.5.75-2.4,2.7-2.46,1,0,2.43-.06,3.9-.06l0-.39c0-.3,0-.72,0-1.2s0-1,0-1.38l-7,0a.66.66,0,1,1,0-1.32h15.54a.66.66,0,1,1,0,1.32l-7,0c0,1,0,2.16,0,2.7l0,.27c1.5,0,2.94,0,4,.06,1.8.06,2.7.87,2.76,2.4.06,1.11.06,2.28.06,3.27v2.37c0,.48.06,1.08.06,2.13v.09c0,1.59-.69,3.09-3.63,3.09-2.16,0-2.82-.33-2.82-.93a.74.74,0,0,1,.72-.78c.06,0,.09,0,.15,0a12.12,12.12,0,0,0,2.1.24c1.23,0,1.89-.45,1.89-1.92,0-.09,0-1.65,0-3.42,0-1.32,0-2.76-.06-3.81s-.54-1.53-1.59-1.56-2.34,0-3.78,0a12.43,12.43,0,0,1-.57,2.37.85.85,0,0,1,.39-.12c.72,0,4.8,2.79,4.8,3.84a.88.88,0,0,1-.84.84.67.67,0,0,1-.51-.27,15.52,15.52,0,0,0-3.87-3.3.5.5,0,0,1-.24-.33c-1.23,2.73-3.81,4.17-4.35,4.17a.77.77,0,0,1-.75-.78.64.64,0,0,1,.39-.6,7,7,0,0,0,4.14-5.82c-1.41,0-2.7,0-3.45,0-1,0-1.5.45-1.53,1.47,0,1.74-.06,4.23-.06,6.75,0,1.17,0,2.37,0,3.48Z"/><path class="cls-3" d="M171.28,44.41a.81.81,0,0,1-.84-.78.78.78,0,0,1,.54-.72,21.23,21.23,0,0,0,7.32-4.8A28.73,28.73,0,0,0,174.49,36a.65.65,0,0,1-.42-.6.79.79,0,0,1,.78-.78c.57,0,2.85,1.32,4.5,2.4a26.06,26.06,0,0,0,3.12-4.23.75.75,0,0,1,.66-.39.89.89,0,0,1,.9.81c0,.66-1.89,3.06-3.39,4.68,4,2.79,4,3.57,4,3.75a1,1,0,0,1-.9,1,.73.73,0,0,1-.6-.33A19.26,19.26,0,0,0,179.56,39C175.63,42.85,172,44.41,171.28,44.41Zm4.8-21.27c-.9,1.41-3.18,4.71-4.2,4.71a.76.76,0,0,1-.78-.72.73.73,0,0,1,.33-.6,18.92,18.92,0,0,0,4.95-7.26.65.65,0,0,1,.63-.39.83.83,0,0,1,.87.75,7.53,7.53,0,0,1-1,2.16h14.79a.65.65,0,0,1,.69.66.68.68,0,0,1-.72.69Zm14.49,20.13c-2.16-2.82-2.19-7.32-2.19-10.56,0-1.2-.39-1.95-1.74-1.95h-3.87c-3.51,0-7.68,0-10.23,0a.62.62,0,0,1-.63-.66.63.63,0,0,1,.66-.66c2.43,0,5,0,7.5,0s4.95,0,7.08,0A2.51,2.51,0,0,1,190,32v.72c0,5.07.36,7.65,1.8,9.45a1.14,1.14,0,0,0,.78.51c.69,0,1.26-1.14,1.5-3.18a.68.68,0,0,1,.72-.6.79.79,0,0,1,.84.78c0,.15-.45,4.65-3.06,4.65A2.57,2.57,0,0,1,190.57,43.27Zm-14-16.44a.64.64,0,0,1-.66-.63.62.62,0,0,1,.66-.63H189.1a.6.6,0,0,1,.63.63.61.61,0,0,1-.63.63Z"/><path class="cls-4" d="M25.24,79.1l.11.81c-1.72.53-3.56,1.08-4.71,1.4a.27.27,0,0,1-.17.22l-.43-1c.62-.15,1.4-.35,2.27-.59V76.3H20.46v-.87h1.85V72.29h-2v-.88h4.86v.88H23.22v3.14H25v.87H23.22v3.36Zm2.94.48a.29.29,0,0,1-.28.18c-.35,1.81-1.08,3.18-3.78,3.94a3,3,0,0,0-.55-.78c2.48-.59,3.18-1.74,3.43-3.46Zm2.31,2.79c0,.34.06.41.43.41h1.2c.34,0,.41-.22.43-1.69a2.38,2.38,0,0,0,.81.36c-.08,1.72-.32,2.14-1.15,2.14H30.79c-1,0-1.2-.27-1.2-1.22V79.11H25.83v-7.8h6.63v7.8h-2ZM26.72,72.13v1.53h4.8V72.13Zm0,2.3V76h4.8V74.42Zm0,2.33V78.3h4.8V76.75Z"/><path class="cls-4" d="M40.88,71c0,.1-.15.15-.32.15-.18.57-.38,1.18-.62,1.77h7.41v.91H39.54a16.66,16.66,0,0,1-1.68,2.89l.15,0c0,.1-.11.17-.28.18v6.77h-.94V78a11.93,11.93,0,0,1-1.65,1.48,5.78,5.78,0,0,0-.52-.85,11,11,0,0,0,2.17-2.1v-.1h.06a15,15,0,0,0,1.62-2.63H35v-.91h3.94a20.22,20.22,0,0,0,.77-2.24Zm2.61,7.28v4.19h3.87v.88h-8.6v-.88h3.78V78.29H39.31v-.88h3.22V74.59l1.22.08c0,.1-.08.15-.27.18v2.55h3.31v.88Z"/><path class="cls-4" d="M60.31,71.44a.29.29,0,0,1-.28.08,23,23,0,0,1-2,1.65,10,10,0,0,0,1,1.18,19.1,19.1,0,0,0,2.13-1.91l.85.63a.34.34,0,0,1-.29.07,24.43,24.43,0,0,1-2.14,1.72,9.2,9.2,0,0,0,2.75,1.71,4,4,0,0,0-.64.8,9.72,9.72,0,0,1-2.06-1.25v.53H57.83v2.23h3.45v.88H57.83V82.2c0,.45.08.52.59.52h1.74c.46,0,.53-.28.59-1.83a2.76,2.76,0,0,0,.85.39c-.1,1.81-.35,2.31-1.37,2.31H58.31c-1.15,0-1.44-.29-1.44-1.39V79.77h-2.7c-.22,1.55-1.08,3-3.89,4a2.76,2.76,0,0,0-.6-.74c2.48-.84,3.29-2,3.53-3.25H49.95v-.88h3.35V76.66H51.72v-.45a11.56,11.56,0,0,1-2.12,1.29,3.54,3.54,0,0,0-.59-.71,9.91,9.91,0,0,0,2.91-1.95,17,17,0,0,0-1.79-1.55l.6-.5a14.77,14.77,0,0,1,1.78,1.46A9.13,9.13,0,0,0,54,72.14h-3.7V71.3h4.22l.17-.06a4.77,4.77,0,0,0,.66.34.24.24,0,0,1-.15.15,10.32,10.32,0,0,1-2.89,4h6.89A12.37,12.37,0,0,1,55.86,71l.83-.25a10.75,10.75,0,0,0,.92,1.83,16,16,0,0,0,1.85-1.75Zm-3.45,7.45V76.66H54.23v2.23Z"/><path class="cls-4" d="M71.32,72.34h5.32v.85H66.81v3.38c0,2.2-.28,5.2-2.24,7.16a3.28,3.28,0,0,0-.69-.63,7.23,7.23,0,0,0,1.9-4.27c-.66.36-1.27.73-1.72,1a.28.28,0,0,1-.14.24l-.42-1c.63-.28,1.48-.73,2.37-1.2q0-.67,0-1.3V72.34h4.43V70.68l1.26.08c0,.1-.1.17-.28.2Zm-6.86,1.15a10,10,0,0,1,1.16,2.59l-.77.41a10.78,10.78,0,0,0-1.11-2.66Zm8,5.6v3.38h4.22v.84h-10v-.84h1.76v-5l1.13.08c0,.08-.08.15-.27.18v4.71h2.21V75.58H67.73v-.83h8.47v.83H72.43v2.66h3.52v.84Z"/><path class="cls-4" d="M81.28,71.28c0,.17-.15.27-.43.31-.11,1.63-.25,5.34-.25,7.41s1,3.1,2.8,3.1a6.82,6.82,0,0,0,5-2.66,5.6,5.6,0,0,0,.63.83,7.6,7.6,0,0,1-5.69,2.84c-2.55,0-3.85-1.47-3.85-4.12,0-1.76.13-6.11.22-7.83Z"/><path class="cls-4" d="M90.28,72.57c1.05,0,9.68-.66,11.5-.67V73h-.52a4,4,0,0,0-2.4.71c-2.1,1.26-4.13,3.52-4.13,5.32,0,2,1.37,3.12,4.85,3.57l-.46,1c-4-.57-5.46-2.06-5.46-4.55,0-2,1.95-4.37,4.51-6-1.48.1-5.67.42-7.48.59a.42.42,0,0,1-.31.22Z"/><path class="cls-4" d="M105.94,72.57c0,.13-.18.21-.38.22a23,23,0,0,0-.27,3.49c0,.52,0,1,.06,1.47.17,2.38,1.13,3.82,2.21,3.81.56,0,1.29-1.43,1.79-3a4.92,4.92,0,0,0,.81.6c-.64,1.89-1.46,3.43-2.62,3.46-1.78,0-3-2.13-3.21-4.82,0-.53-.06-1.12-.06-1.75a33.39,33.39,0,0,1,.21-3.77Zm9.29,6.51a7,7,0,0,0-3.53-5.27l.62-.76a7.69,7.69,0,0,1,4,5.7Z"/><path class="cls-4" d="M122,76.83a8.49,8.49,0,0,1,3.47-.81c2.23,0,3.63,1.3,3.63,3.36,0,2.54-2.23,3.94-5,3.94-1.82,0-3.07-.73-3.07-2a2.12,2.12,0,0,1,2.3-1.88A3,3,0,0,1,126.11,82,2.75,2.75,0,0,0,128,79.39c0-1.51-1.12-2.48-2.89-2.48a8,8,0,0,0-5.08,1.83c-.42.39-1,1-1.34,1.41l-.71-.71c1.26-1.32,5.27-5.14,7.17-6.92-.81.11-3.61.22-5.21.28a.46.46,0,0,1-.29.21l-.11-1.19c1.89,0,5.5-.15,6.53-.31l.21-.1.74.91a.68.68,0,0,1-.34.13c-1,.81-3.66,3.31-4.75,4.36Zm1.93,5.6a6.13,6.13,0,0,0,1.27-.14,2.16,2.16,0,0,0-2-2c-.73,0-1.37.39-1.37,1C121.81,82.2,123,82.43,123.9,82.43Z"/><path class="cls-4" d="M138.83,72.34h5.32v.85h-9.83v3.38c0,2.2-.28,5.2-2.24,7.16a3.28,3.28,0,0,0-.69-.63,7.23,7.23,0,0,0,1.9-4.27c-.66.36-1.27.73-1.72,1a.28.28,0,0,1-.14.24l-.42-1c.63-.28,1.48-.73,2.37-1.2q0-.67,0-1.3V72.34h4.43V70.68l1.26.08c0,.1-.1.17-.28.2ZM132,73.48a10,10,0,0,1,1.16,2.59l-.77.41a10.78,10.78,0,0,0-1.11-2.66Zm3,1.91v-.84h9v.84h-4.17v1.55h3.73v5.67c0,1-.38,1.09-2.52,1.06a3.51,3.51,0,0,0-.34-.84l1.22,0c.67,0,.74,0,.74-.25V77.77H139.8a4.19,4.19,0,0,1-.13.81,25.64,25.64,0,0,1,2.62,2.62l-.63.53a23.57,23.57,0,0,0-2.24-2.37,4.88,4.88,0,0,1-2.4,2.41,2.69,2.69,0,0,0-.56-.64,3.8,3.8,0,0,0,2.48-3.36h-2.62v5.94h-.87V76.94H139V75.39Z"/><path class="cls-4" d="M158.16,73h-9.41a11.18,11.18,0,0,1-2.34,3.21,5.59,5.59,0,0,0-.78-.57,11,11,0,0,0,3-5l1.19.32c0,.1-.14.15-.31.15-.13.36-.27.73-.41,1.08h9ZM148,78c.9.49,1.86,1.09,2.79,1.72a11.89,11.89,0,0,0,1.72-2.33l1.09.42c0,.11-.2.14-.34.13a12.47,12.47,0,0,1-1.74,2.31,18.15,18.15,0,0,1,2.62,2.23l-.76.71a17.8,17.8,0,0,0-2.54-2.27,16.72,16.72,0,0,1-4.24,2.89,4.39,4.39,0,0,0-.66-.7,14.75,14.75,0,0,0,4.16-2.73,30.77,30.77,0,0,0-2.79-1.77Zm-1.08-1.71h9.23c0,3.74.22,6.51,1.34,6.51.29,0,.36-.81.39-2a3.3,3.3,0,0,0,.67.55c-.1,1.79-.29,2.42-1.12,2.42-1.85,0-2.16-2.65-2.24-6.61h-8.28ZM156.79,75h-8.22v-.81h8.22Z"/><path class="cls-4" d="M163.27,71.72c0,.15-.18.24-.46.22a33.6,33.6,0,0,0-.74,6.3,15.42,15.42,0,0,0,.18,2.77c.27-.69.87-2.16,1.06-2.65l.59.62c-.57,1.42-1,2.21-1.19,2.84a2.41,2.41,0,0,0-.11.66,1.49,1.49,0,0,0,.07.43l-1,.18a15.38,15.38,0,0,1-.62-4.82,41,41,0,0,1,.74-6.82ZM172.2,82c-.5,0-1,0-1.54,0a19.28,19.28,0,0,1-2.61-.15c-1.72-.25-2.52-1.2-2.52-2.33a4.28,4.28,0,0,1,1.32-2.7l.91.39a3.31,3.31,0,0,0-1.19,2.2c0,1.63,2.38,1.63,3.84,1.63.59,0,1.22,0,1.81-.07Zm-6.49-8.56a45.71,45.71,0,0,0,6.11-.53l.08,1a52.94,52.94,0,0,1-6.16.52Z"/><path class="cls-4" d="M177.27,76.29v4.64c1.09,1.67,3.15,1.67,5.71,1.67,1.55,0,3.38,0,4.48-.11a3.48,3.48,0,0,0-.29.91c-1,0-2.49.06-3.89.06-3.07,0-5,0-6.39-1.74-.64.62-1.3,1.25-1.83,1.74a.21.21,0,0,1-.13.21l-.53-1a24.5,24.5,0,0,0,2-1.67V77.18h-1.85v-.9ZM175.39,71a10.35,10.35,0,0,1,2.31,2.34l-.77.59a10,10,0,0,0-2.27-2.41Zm11.89,3.38v.67h-9.47v-.67H182v-.71h-3V71.54h3v-.85l1.18.08c0,.1-.1.15-.28.18v.59h3.19v2.16h-3.19v.71Zm-3.38,5.85A23.29,23.29,0,0,1,187,81.72l-.83.46a20.39,20.39,0,0,0-3-1.51l.56-.41h-2.58l.85.34a.25.25,0,0,1-.29.1A12.72,12.72,0,0,1,179,82.2a4.8,4.8,0,0,0-.64-.53,9.25,9.25,0,0,0,2.56-1.4H179v-4.5h7v4.5Zm-4.09-7.17H182v-.94h-2.17Zm.1,3.25v.73h5.17v-.73Zm0,1.29v.74h5.17v-.74Zm0,1.29v.77h5.17v-.77Zm5.25-6.77h-2.28v.94h2.28Z"/><path class="cls-4" d="M190.81,75.63A16.56,16.56,0,0,1,189.1,78a7,7,0,0,0-.49-.88,18.65,18.65,0,0,0,3.5-6.3l1.12.38c-.06.1-.15.14-.32.13a25.42,25.42,0,0,1-1.29,2.9l.38.1c0,.08-.1.15-.28.17v9.29h-.91Zm8.7,3.18a18.54,18.54,0,0,1,2.62,4.47l-.9.43a9.16,9.16,0,0,0-.52-1.25c-2.77.25-5.7.48-7.58.62a.27.27,0,0,1-.21.2l-.39-1.13,1.64-.08A38.22,38.22,0,0,0,195.81,77h-3.12v-.92H202V77h-5.07l.2.06c0,.1-.15.15-.32.17A44.9,44.9,0,0,1,195.14,82l5.17-.32a24,24,0,0,0-1.61-2.51Zm1.69-7v.9h-7.42v-.9Z"/><path class="cls-4" d="M204.87,73.53a8.14,8.14,0,0,1-.76,3.68l-.74-.38a8,8,0,0,0,.73-3.42Zm.6-2.86,1.2.08c0,.1-.1.17-.28.18V83.67h-.92Zm1.79,2.21A12.26,12.26,0,0,1,208.43,75l-.69.46a14.05,14.05,0,0,0-1.13-2.24Zm5.38,9.38h3.77v.91h-8.73v-.91h4v-3.4h-3V78h3V74.9h-2.19a11,11,0,0,1-1,2.25,4.47,4.47,0,0,0-.76-.43,16.93,16.93,0,0,0,1.64-5.39l1.16.27c0,.1-.13.15-.29.15-.14.74-.31,1.51-.52,2.26h1.92V70.67l1.22.08c0,.1-.08.17-.28.2V74H216v.9h-3.35V78h2.91v.87h-2.91Z"/><path class="cls-4" d="M223.3,71.35c0,.17-.2.24-.46.25-.15.78-.41,2.14-.57,3,.63-.07,1.2-.13,1.55-.13,2.13,0,2.86,1.39,2.86,3.49a10.92,10.92,0,0,1-.48,3.14,2.56,2.56,0,0,1-2.49,2.11A4.15,4.15,0,0,1,221.17,82a5.28,5.28,0,0,0,.38-.85,3.75,3.75,0,0,0,2.14,1.06c.8,0,1.27-.5,1.55-1.4a10.56,10.56,0,0,0,.45-2.87c0-1.6-.53-2.55-1.93-2.54a16,16,0,0,0-1.71.14,26.87,26.87,0,0,1-2.87,7.56l-.92-.45a22.91,22.91,0,0,0,2.79-7c-.71.08-1.74.21-2.49.34l-.08-1,2.77-.32c.21-1,.43-2.28.6-3.52Zm3.25-.43a9.85,9.85,0,0,1,1.88,2l-.55.39A9.34,9.34,0,0,0,226,71.33Zm3.14,8.15a8.82,8.82,0,0,0-2.86-4.78l.81-.55a9.28,9.28,0,0,1,3.05,4.94Zm-1-8.7a9.15,9.15,0,0,1,1.89,1.95l-.55.41a9.39,9.39,0,0,0-1.85-2Z"/><path class="cls-4" d="M241.11,75.28c0,.18-.08.36-.14.53,2.47.43,3.38,2,3.38,3.63,0,2.23-1.9,3.57-5.41,4a5.37,5.37,0,0,0-.38-.84c2.9-.28,4.76-1.29,4.76-3.1v-.1a2.77,2.77,0,0,0-2.66-2.68,11.06,11.06,0,0,1-2.79,4.12,3.15,3.15,0,0,0,.36.76l-.83.52a3.62,3.62,0,0,1-.34-.7,4.54,4.54,0,0,1-2.65,1.05,1.67,1.67,0,0,1-1.7-1.86c0-1.93,1.6-3.47,3.63-4.29,0-.73,0-1.53,0-2.35-2.37,0-2.62,0-3.08,0l0-.92c.71,0,1.93,0,3.14,0,0-.64,0-1.43.07-2.09l1.4.1c0,.14-.15.25-.36.28,0,.52-.07,1.16-.11,1.68A32.07,32.07,0,0,0,243,72.4l.13,1a34,34,0,0,1-5.79.55c0,.73,0,1.43,0,2.09a7.28,7.28,0,0,1,2.1-.32H240c.06-.22.1-.43.14-.66Zm-4.3,5.23a16.39,16.39,0,0,1-.41-3.28c-1.53.67-2.72,1.83-2.72,3.19,0,.83.46,1.11,1,1.08A3.83,3.83,0,0,0,236.81,80.5Zm2.87-3.94a6.53,6.53,0,0,0-2.37.34,13.6,13.6,0,0,0,.32,2.89A9.19,9.19,0,0,0,239.68,76.57Z"/><path class="cls-4" d="M250.35,76.83a8.49,8.49,0,0,1,3.47-.81c2.23,0,3.63,1.3,3.63,3.36,0,2.54-2.23,3.94-5,3.94-1.82,0-3.07-.73-3.07-2a2.12,2.12,0,0,1,2.3-1.88A3,3,0,0,1,254.5,82a2.75,2.75,0,0,0,1.93-2.62c0-1.51-1.12-2.48-2.89-2.48a8,8,0,0,0-5.08,1.83c-.42.39-1,1-1.34,1.41l-.71-.71c1.26-1.32,5.27-5.14,7.17-6.92-.81.11-3.61.22-5.21.28a.46.46,0,0,1-.29.21L248,71.83c1.89,0,5.5-.15,6.53-.31l.21-.1.74.91a.68.68,0,0,1-.34.13c-1,.81-3.66,3.31-4.75,4.36Zm1.93,5.6a6.13,6.13,0,0,0,1.27-.14,2.16,2.16,0,0,0-2-2c-.73,0-1.37.39-1.37,1C250.2,82.2,251.36,82.43,252.28,82.43Z"/><path class="cls-4" d="M264.93,71.35c0,.17-.2.24-.46.25-.15.78-.41,2.14-.57,3,.63-.07,1.2-.13,1.55-.13,2.13,0,2.86,1.39,2.86,3.49a10.92,10.92,0,0,1-.48,3.14,2.56,2.56,0,0,1-2.49,2.11A4.15,4.15,0,0,1,262.8,82a5.28,5.28,0,0,0,.38-.85,3.75,3.75,0,0,0,2.14,1.06c.8,0,1.27-.5,1.55-1.4a10.56,10.56,0,0,0,.45-2.87c0-1.6-.53-2.55-1.93-2.54a16,16,0,0,0-1.71.14,26.87,26.87,0,0,1-2.87,7.56l-.92-.45a22.91,22.91,0,0,0,2.79-7c-.71.08-1.74.21-2.49.34l-.08-1,2.77-.32c.21-1,.43-2.28.6-3.52Zm6.49,6.74a8.4,8.4,0,0,0-3.15-4.79l.76-.59a9,9,0,0,1,3.4,5Z"/><path class="cls-4" d="M286.54,73h-9.41a11.18,11.18,0,0,1-2.34,3.21,5.59,5.59,0,0,0-.78-.57,11,11,0,0,0,3-5l1.19.32c0,.1-.14.15-.31.15-.13.36-.27.73-.41,1.08h9ZM276.4,78c.9.49,1.86,1.09,2.79,1.72a11.89,11.89,0,0,0,1.72-2.33l1.09.42c0,.11-.2.14-.34.13a12.5,12.5,0,0,1-1.74,2.31,18.18,18.18,0,0,1,2.62,2.23l-.76.71a17.8,17.8,0,0,0-2.54-2.27A16.72,16.72,0,0,1,275,83.78a4.39,4.39,0,0,0-.66-.7,14.75,14.75,0,0,0,4.16-2.73,30.77,30.77,0,0,0-2.79-1.77Zm-1.08-1.71h9.23c0,3.74.22,6.51,1.34,6.51.29,0,.36-.81.39-2a3.3,3.3,0,0,0,.67.55c-.1,1.79-.29,2.42-1.12,2.42-1.85,0-2.16-2.65-2.24-6.61h-8.28ZM285.17,75h-8.22v-.81h8.22Z"/><path class="cls-4" d="M291.66,71.72c0,.15-.18.24-.46.22a33.6,33.6,0,0,0-.74,6.3,15.42,15.42,0,0,0,.18,2.77c.27-.69.87-2.16,1.06-2.65l.59.62c-.57,1.42-1,2.21-1.19,2.84a2.41,2.41,0,0,0-.11.66,1.49,1.49,0,0,0,.07.43l-1,.18a15.38,15.38,0,0,1-.62-4.82,41,41,0,0,1,.74-6.82ZM300.58,82c-.5,0-1,0-1.54,0a19.28,19.28,0,0,1-2.61-.15c-1.72-.25-2.52-1.2-2.52-2.33a4.28,4.28,0,0,1,1.32-2.7l.91.39a3.31,3.31,0,0,0-1.19,2.2c0,1.63,2.38,1.63,3.84,1.63.59,0,1.22,0,1.81-.07Zm-6.49-8.56a45.71,45.71,0,0,0,6.11-.53l.08,1a52.94,52.94,0,0,1-6.16.52Z"/><path class="cls-4" d="M308.24,71.09a.46.46,0,0,1-.43.24c-.1.62-.22,1.34-.35,1.89a19.33,19.33,0,0,0,4.12-.69l.15,1a28.17,28.17,0,0,1-4.45.67,20.8,20.8,0,0,1-3,6.89l-.94-.38a18.66,18.66,0,0,0,2.84-6.49h-2.79v-.91h3a23.08,23.08,0,0,0,.39-2.37Zm3.73,6c0,1.13.1,1.9.18,2.87a14.32,14.32,0,0,1,3,1.63l-.5.9A13.23,13.23,0,0,0,312.15,81c0,1.4-.56,2.49-2.62,2.49-1.55,0-2.75-.7-2.73-2s1.47-2.07,2.76-2.07a6,6,0,0,1,1.58.25c-.06-.9-.13-1.81-.13-2.47Zm-.77,3.5a4.67,4.67,0,0,0-1.67-.32c-.84,0-1.83.34-1.85,1.2s.78,1.18,1.88,1.18,1.65-.49,1.65-1.41C311.21,81,311.21,80.77,311.2,80.56ZM315,75.61a20,20,0,0,0-5,.69l-.15-.88a19.58,19.58,0,0,1,5.06-.76Z"/><path class="cls-4" d="M321.22,76.83A8.49,8.49,0,0,1,324.7,76c2.23,0,3.63,1.3,3.63,3.36,0,2.54-2.23,3.94-5,3.94-1.82,0-3.07-.73-3.07-2a2.12,2.12,0,0,1,2.3-1.88A3,3,0,0,1,325.37,82a2.75,2.75,0,0,0,1.93-2.62c0-1.51-1.12-2.48-2.89-2.48a8,8,0,0,0-5.08,1.83c-.42.39-1,1-1.34,1.41l-.71-.71c1.26-1.32,5.27-5.14,7.17-6.92-.81.11-3.61.22-5.21.28a.46.46,0,0,1-.29.21l-.11-1.19c1.89,0,5.5-.15,6.53-.31l.21-.1.74.91a.68.68,0,0,1-.34.13c-1,.81-3.66,3.31-4.75,4.36Zm1.93,5.6a6.13,6.13,0,0,0,1.27-.14,2.16,2.16,0,0,0-2-2c-.73,0-1.37.39-1.37,1C321.07,82.2,322.23,82.43,323.16,82.43Z"/><path class="cls-4" d="M343.23,74.07H336c-.06.78-.13,1.61-.24,2.44h5l.21,0,.56.1a1.87,1.87,0,0,1-.06.29c-.29,4.22-.57,5.79-1.13,6.35-.38.41-.76.48-1.64.48-.5,0-1.2,0-1.91-.07a2.25,2.25,0,0,0-.34-.92c1,.1,2,.1,2.4.1s.52,0,.67-.15c.43-.39.71-1.81,1-5.24h-4.89a8.12,8.12,0,0,1-4.52,6.33,2.85,2.85,0,0,0-.67-.76c4-1.79,4.4-5.57,4.57-8.91h-4.44v-.91h5.8V70.64l1.25.08c0,.1-.1.17-.28.2v2.24h5.91Z"/><path class="cls-4" d="M345.59,79.83a27.7,27.7,0,0,1,3.17,3.1l-.84.77a31.2,31.2,0,0,0-3.07-3.21Z"/><path class="cls-4" d="M352.91,72.85c.87.06,2,.06,3,.06l1.93,0c0-.67,0-1.46,0-1.95l1.41.07c0,.17-.14.25-.38.29,0,.22,0,1.3,0,1.54a27.53,27.53,0,0,0,4.65-.55l.13.92a28.71,28.71,0,0,1-4.78.53c0,.84,0,1.71.06,2.58a23.55,23.55,0,0,0,4-.55l.11.91a26.75,26.75,0,0,1-4,.49l.11,2.34a15.56,15.56,0,0,1,4.12,2.19l-.62.85A13.64,13.64,0,0,0,359,80.5c0,.22,0,.48,0,.66,0,1.33-.81,2.1-2.51,2.1s-3.08-.73-3.08-2,1.53-2.09,3.1-2.09a6.14,6.14,0,0,1,1.47.17c0-.6,0-1.33-.06-2.09l-1.36,0c-2.4,0-3.07-.38-3.07-1.19,0-.53.41-1,1.3-1.54l.67.43c-.63.35-1,.66-1,.94s.66.5,2.44.5h.94l-.08-2.59c-.6,0-1.3,0-1.93,0-.9,0-2.17,0-3,0Zm5.18,7.3a5.88,5.88,0,0,0-1.57-.22c-1.06,0-2.14.43-2.14,1.27s1,1.23,2.2,1.23,1.53-.49,1.53-1.47Z"/><path class="cls-4" d="M374.35,73.75a17.51,17.51,0,0,1-4.3.8,37,37,0,0,1-2.56,8.75l-1-.38A30,30,0,0,0,369,74.59c-.28,0-2.16,0-2.58,0v-1c.22,0,.52,0,.84,0,.13,0,1.53,0,1.89,0,.14-.9.28-1.88.36-2.73l1.44.14c0,.15-.21.27-.41.28-.08.62-.22,1.37-.35,2.23a16.24,16.24,0,0,0,3.92-.78Zm3.73,9.33-1.29,0a14,14,0,0,1-3.32-.31,2,2,0,0,1-1.56-1.93,3.38,3.38,0,0,1,.87-2l.84.36a2.58,2.58,0,0,0-.73,1.55c0,1.11,1.06,1.39,3.61,1.39.52,0,1.05,0,1.57-.06Zm-5.46-6.75a16.71,16.71,0,0,1,5.08-.71v1a15.82,15.82,0,0,0-4.85.63Z"/><path class="cls-4" d="M387.69,75.46a11.76,11.76,0,0,0,1.15,2.61,22.7,22.7,0,0,0,2.72-2l.85.77a.39.39,0,0,1-.29.06,28,28,0,0,1-2.82,1.85,7.93,7.93,0,0,0,4,3,4,4,0,0,0-.63.8c-2.87-1.05-4.72-3.63-5.72-6.82a11.61,11.61,0,0,1-1.54,1,6,6,0,0,1,2.76,4.59,2.26,2.26,0,0,1-2.41,2.44c-.35,0-.8,0-1.26,0a2.17,2.17,0,0,0-.25-.88c.52,0,1,.06,1.32.06a1.52,1.52,0,0,0,1-.27,1.62,1.62,0,0,0,.62-1.41,3.53,3.53,0,0,0-.27-1.29,19.35,19.35,0,0,1-6,3.33,3.48,3.48,0,0,0-.5-.8,16,16,0,0,0,6.12-3.29,6.17,6.17,0,0,0-.66-.87,20,20,0,0,1-4.57,2.4,3.66,3.66,0,0,0-.5-.74,16.52,16.52,0,0,0,4.55-2.19,9.85,9.85,0,0,0-.8-.64,22.82,22.82,0,0,1-3.25,1.2,7.93,7.93,0,0,0-.48-.71,16.79,16.79,0,0,0,5.06-2.12h-3.32v-.83h8v.83Zm-5.94-2.27v1.89h-.91V72.32h5.34V70.67l1.25.08c0,.1-.1.17-.28.18v1.39h5.42v2.76h-1V73.19Z"/><path class="cls-4" d="M399.08,80.32c0,.08-.15.13-.31.1a16.11,16.11,0,0,1-3.31,2.94,7,7,0,0,0-.77-.6A12.41,12.41,0,0,0,398,79.84ZM404.13,76a22.42,22.42,0,0,1,3.54,3.39l-.83.57a13.14,13.14,0,0,0-.94-1.12l-4.26.11v4.71h-1V79c-2,0-3.84.08-5.22.1a.29.29,0,0,1-.24.2l-.35-1.13h3.21c.41-.31.84-.64,1.27-1A21.25,21.25,0,0,0,396,74.7l.64-.59c.32.18.66.39,1,.6a22.33,22.33,0,0,0,1.95-2.19c-1.37.1-2.75.15-4,.2a4.12,4.12,0,0,0-.22-.84,78.1,78.1,0,0,0,10.74-1l.73.84a.17.17,0,0,1-.13,0l-.17,0a53.42,53.42,0,0,1-5.77.7l.28.15a.29.29,0,0,1-.31.1,27.15,27.15,0,0,1-2.34,2.49A14.82,14.82,0,0,1,400,76.54,37.49,37.49,0,0,0,403.63,73l1,.6c-.06.08-.17.11-.32.11a47.93,47.93,0,0,1-4.9,4.45l5.69-.07a19.66,19.66,0,0,0-1.75-1.56ZM404,79.79a30.67,30.67,0,0,1,3.57,3l-.8.59a28.3,28.3,0,0,0-3.53-3.05Z"/><path class="cls-4" d="M421.36,73.12v9.3c0,.66-.15,1-.63,1.13a10.7,10.7,0,0,1-2.62.17,3.62,3.62,0,0,0-.34-1l1.43,0c1.16,0,1.22,0,1.22-.36V74H416a10.37,10.37,0,0,1-.24,1.79,41.58,41.58,0,0,1,4.09,4l-.77.6a38.93,38.93,0,0,0-3.6-3.74,7.64,7.64,0,0,1-3.57,4,3.6,3.6,0,0,0-.67-.71,6.55,6.55,0,0,0,3.81-6h-4.16v9.68H410V73.12h5.11V70.67l1.23.08c0,.1-.08.17-.28.2v2.17Z"/><path class="cls-4" d="M426.82,71.72c0,.15-.18.24-.46.22a33.6,33.6,0,0,0-.74,6.3A15.42,15.42,0,0,0,425.8,81c.27-.69.87-2.16,1.06-2.65l.59.62c-.57,1.42-1,2.21-1.19,2.84a2.41,2.41,0,0,0-.11.66,1.49,1.49,0,0,0,.07.43l-1,.18a15.38,15.38,0,0,1-.62-4.82,41,41,0,0,1,.74-6.82ZM435.74,82c-.5,0-1,0-1.54,0a19.28,19.28,0,0,1-2.61-.15c-1.72-.25-2.52-1.2-2.52-2.33a4.28,4.28,0,0,1,1.32-2.7l.91.39a3.31,3.31,0,0,0-1.19,2.2C430.11,81,432.49,81,434,81c.59,0,1.22,0,1.81-.07Zm-6.49-8.56a45.71,45.71,0,0,0,6.11-.53l.08,1a52.94,52.94,0,0,1-6.16.52Z"/><path class="cls-4" d="M23,97.28v4.64c1.09,1.67,3.15,1.67,5.71,1.67,1.55,0,3.38,0,4.48-.11a3.48,3.48,0,0,0-.29.91c-1,0-2.49.06-3.89.06-3.07,0-5,0-6.39-1.74-.64.62-1.3,1.25-1.83,1.74a.21.21,0,0,1-.13.21l-.53-1a24.5,24.5,0,0,0,2-1.67V98.18H20.24v-.9ZM21.12,92a10.36,10.36,0,0,1,2.31,2.34l-.77.59a10,10,0,0,0-2.27-2.41ZM33,95.41v.67H23.54v-.67h4.17v-.71h-3V92.54h3v-.85l1.18.08c0,.1-.1.15-.28.18v.59h3.19v2.16H28.61v.71Zm-3.38,5.85a23.3,23.3,0,0,1,3.05,1.46l-.83.46a20.44,20.44,0,0,0-3-1.51l.56-.41H26.89l.85.34a.25.25,0,0,1-.29.1,12.72,12.72,0,0,1-2.69,1.5,4.8,4.8,0,0,0-.64-.53,9.23,9.23,0,0,0,2.56-1.4H24.75v-4.5h7v4.5Zm-4.09-7.17h2.17v-.94H25.55Zm.1,3.25v.73h5.17v-.73Zm0,1.29v.74h5.17v-.74Zm0,1.29v.77h5.17v-.77Zm5.25-6.77H28.61v.94H30.9Z"/><path class="cls-4" d="M36.7,96.63A16.56,16.56,0,0,1,35,99a7,7,0,0,0-.49-.88,18.64,18.64,0,0,0,3.5-6.3l1.12.38c-.06.1-.15.14-.32.13a25.42,25.42,0,0,1-1.29,2.9l.38.1c0,.08-.1.15-.28.17v9.29H36.7Zm8.7,3.18A18.55,18.55,0,0,1,48,104.27l-.9.43a9.16,9.16,0,0,0-.52-1.25c-2.77.25-5.7.48-7.58.62a.27.27,0,0,1-.21.2l-.39-1.13,1.64-.08A38.2,38.2,0,0,0,41.7,98H38.57v-.92h9.3V98H42.8l.2.06c0,.1-.15.15-.32.17A44.9,44.9,0,0,1,41,103l5.17-.32a24.14,24.14,0,0,0-1.61-2.51Zm1.69-7v.9H39.67v-.9Z"/><path class="cls-4" d="M50.91,94.52a8.14,8.14,0,0,1-.76,3.68l-.74-.38a8,8,0,0,0,.73-3.42Zm.6-2.86,1.2.08c0,.1-.1.17-.28.18v12.73h-.92Zm1.79,2.21A12.26,12.26,0,0,1,54.47,96l-.69.46a14.05,14.05,0,0,0-1.13-2.24Zm5.38,9.38h3.77v.91H53.73v-.91h4v-3.4h-3V99h3V95.9H55.56a11,11,0,0,1-1,2.25,4.43,4.43,0,0,0-.76-.43,16.93,16.93,0,0,0,1.64-5.39l1.16.27c0,.1-.13.15-.29.15-.14.74-.31,1.51-.52,2.26h1.92V91.67l1.22.08c0,.1-.08.17-.28.2V95H62v.9H58.69V99H61.6v.87H58.69Z"/><path class="cls-4" d="M71.39,94.23a.36.36,0,0,1-.35.22c-.5,4.36-2,8.15-4.29,8.15-1.18,0-2.24-1.18-2.24-3.39A6.15,6.15,0,0,1,70.82,93c4,0,5.8,2.56,5.8,5.29,0,3.33-1.93,4.94-5.32,5.73a5.49,5.49,0,0,0-.59-.85c3.22-.62,4.87-2.19,4.87-4.83,0-2.31-1.48-4.41-4.76-4.41l-.42,0ZM70,94a5.16,5.16,0,0,0-4.58,5.14c0,1.5.64,2.44,1.32,2.44C68.48,101.63,69.7,97.89,70,94Z"/><path class="cls-4" d="M86.42,93.33h5.32v.85H81.91v3.38c0,2.2-.28,5.2-2.24,7.16a3.3,3.3,0,0,0-.69-.63,7.23,7.23,0,0,0,1.9-4.27c-.66.36-1.27.73-1.72,1A.28.28,0,0,1,79,101l-.42-1c.63-.28,1.48-.73,2.37-1.2q0-.67,0-1.3V93.33h4.43V91.68l1.26.08c0,.1-.1.17-.28.2Zm-6.86,1.15a10,10,0,0,1,1.16,2.59l-.77.41a10.78,10.78,0,0,0-1.11-2.66Zm3,1.91v-.84h9v.84H87.41v1.55h3.73v5.67c0,1-.38,1.09-2.52,1.06a3.52,3.52,0,0,0-.34-.84l1.22,0c.67,0,.74,0,.74-.25V98.77H87.39a4.2,4.2,0,0,1-.13.81,25.54,25.54,0,0,1,2.62,2.62l-.63.53A23.57,23.57,0,0,0,87,100.37a4.88,4.88,0,0,1-2.4,2.41,2.69,2.69,0,0,0-.56-.64,3.8,3.8,0,0,0,2.48-3.36H83.91v5.94H83V97.94h3.52V96.39Z"/><path class="cls-4" d="M105.9,94H96.49a11.18,11.18,0,0,1-2.34,3.21,5.64,5.64,0,0,0-.78-.57,11,11,0,0,0,3-5L97.6,92c0,.1-.14.15-.31.15-.13.36-.27.73-.41,1.08h9ZM95.76,99c.9.49,1.86,1.09,2.79,1.72a11.89,11.89,0,0,0,1.72-2.33l1.09.42c0,.11-.2.14-.34.13a12.46,12.46,0,0,1-1.74,2.31,18.15,18.15,0,0,1,2.62,2.23l-.76.71a17.8,17.8,0,0,0-2.54-2.27,16.72,16.72,0,0,1-4.24,2.89,4.39,4.39,0,0,0-.66-.7,14.76,14.76,0,0,0,4.16-2.73,30.55,30.55,0,0,0-2.79-1.76Zm-1.08-1.71h9.23c0,3.74.22,6.51,1.34,6.51.29,0,.36-.81.39-2a3.32,3.32,0,0,0,.67.55c-.1,1.79-.29,2.42-1.12,2.42-1.85,0-2.16-2.65-2.24-6.61H94.68ZM104.53,96H96.31v-.81h8.22Z"/><path class="cls-4" d="M120,97.68l-.08,0a.35.35,0,0,1-.21-.08c-1.06.35-2.62.92-3.78,1.43q0,.48,0,1.09c0,.45,0,1,0,1.5l-1,.06c0-.5.07-1.15.07-1.69,0-.21,0-.41,0-.56-1.58.77-2.87,1.71-2.87,2.55s1,1.2,2.9,1.2a31.32,31.32,0,0,0,3.52-.14V104c-.83.08-2.09.11-3.53.11-2.69,0-3.88-.64-3.88-2.07,0-1.23,1.63-2.42,3.73-3.47-.08-.88-.48-1.32-1-1.32-1,0-2.09.57-3.35,2-.39.43-.94,1-1.54,1.53l-.69-.69a9.83,9.83,0,0,0,3.53-5.17h-3.12V94h3.38a18.21,18.21,0,0,0,.38-2l1.37.17c0,.14-.14.22-.35.25-.1.56-.22,1.05-.35,1.55a19.18,19.18,0,0,0,4.82-.81l.17.94a21.13,21.13,0,0,1-5.25.78,10.18,10.18,0,0,1-1,2.37h0a3.73,3.73,0,0,1,2.25-.91c1,0,1.56.69,1.74,1.82,1.18-.53,2.66-1.11,3.78-1.54Z"/><path class="cls-4" d="M126.74,97.9l.13.81-1.7.6v4.23c0,1-.46,1.16-2.33,1.13a4.07,4.07,0,0,0-.31-.87H124c.18,0,.27-.07.27-.27V99.65l-1.74.59a.23.23,0,0,1-.17.22L122,99.36c.63-.17,1.43-.41,2.3-.67V95.39h-2.13v-.88h2.13V91.68l1.2.07c0,.11-.08.17-.28.2v2.56h1.61v.88h-1.61v3Zm8.31-.64h-1.78a.33.33,0,0,1-.28.18V99h1.86v.87H133v3.68c0,1.08-.55,1.11-2.54,1.11a3.38,3.38,0,0,0-.32-.88h1.67c.2,0,.25-.06.25-.24V99.9H127V99h5.1V97.26h-5.42v-.88h3.7v-2h-2.77v-.87h2.77V91.67l1.22.08c0,.1-.1.17-.28.2v1.54h2.89v.87h-2.89v2h3.78Zm-5.52,6a12.32,12.32,0,0,0-1.76-2.41l.71-.45a14.92,14.92,0,0,1,1.79,2.33Z"/><path class="cls-4" d="M136.77,97.21c.25-.06.77-.2,1.25-.34a20.89,20.89,0,0,1,5.07-1c1.89,0,3.59,1,3.59,3.29,0,3.08-3.05,4.22-6.79,4.51a6.82,6.82,0,0,0-.28-.85c3.29-.24,6.08-1.19,6.08-3.6A2.41,2.41,0,0,0,143,96.74a17.42,17.42,0,0,0-4.69,1l-.9.31a.35.35,0,0,1-.22.24Z"/><path class="cls-4" d="M149.19,93.57c1.05,0,9.68-.66,11.5-.67V94h-.52a4,4,0,0,0-2.4.71c-2.1,1.26-4.13,3.52-4.13,5.32,0,2,1.37,3.12,4.85,3.57l-.46,1c-4-.57-5.46-2.06-5.46-4.55,0-2,1.95-4.37,4.51-6-1.48.1-5.67.42-7.48.59a.42.42,0,0,1-.31.22Z"/><path class="cls-4" d="M165,93.57c0,.13-.18.21-.38.22a23,23,0,0,0-.27,3.49c0,.52,0,1,.06,1.47.17,2.38,1.13,3.82,2.21,3.81.56,0,1.29-1.43,1.79-3a4.89,4.89,0,0,0,.81.6c-.64,1.89-1.46,3.43-2.62,3.46-1.78,0-3-2.13-3.21-4.82,0-.53-.06-1.12-.06-1.75a33.39,33.39,0,0,1,.21-3.77Zm9.29,6.51a7,7,0,0,0-3.53-5.27l.62-.76a7.69,7.69,0,0,1,4,5.7Z"/><path class="cls-4" d="M181.18,97.83a8.48,8.48,0,0,1,3.47-.81c2.23,0,3.63,1.3,3.63,3.36,0,2.54-2.23,3.94-5,3.94-1.82,0-3.07-.73-3.07-2a2.12,2.12,0,0,1,2.3-1.88,3,3,0,0,1,2.86,2.54,2.75,2.75,0,0,0,1.93-2.62c0-1.51-1.12-2.48-2.89-2.48a8,8,0,0,0-5.08,1.83c-.42.39-1,1-1.34,1.41l-.71-.71c1.26-1.32,5.27-5.14,7.17-6.92-.81.11-3.61.22-5.21.28a.46.46,0,0,1-.29.21l-.11-1.19c1.89,0,5.5-.15,6.53-.31l.21-.1.74.91a.68.68,0,0,1-.34.13c-1,.81-3.66,3.31-4.75,4.36Zm1.93,5.6a6.13,6.13,0,0,0,1.27-.14,2.16,2.16,0,0,0-2-2c-.73,0-1.37.39-1.37,1C181,103.2,182.19,103.43,183.11,103.43Z"/><path class="cls-4" d="M203.34,95.07h-7.21c-.06.78-.13,1.61-.24,2.44h5l.21,0,.56.1a1.86,1.86,0,0,1-.06.29c-.29,4.22-.57,5.79-1.13,6.35-.38.41-.76.48-1.64.48-.5,0-1.2,0-1.91-.07a2.25,2.25,0,0,0-.34-.92c1,.1,2,.1,2.4.1s.52,0,.67-.15c.43-.39.71-1.81,1-5.24h-4.89a8.12,8.12,0,0,1-4.52,6.33,2.85,2.85,0,0,0-.67-.76c4-1.79,4.4-5.57,4.57-8.91h-4.44v-.91h5.8V91.64l1.25.08c0,.1-.1.17-.28.2v2.24h5.91Z"/><path class="cls-4" d="M210.55,92.35c0,.17-.2.24-.46.25-.15.78-.41,2.14-.57,3,.63-.07,1.2-.13,1.55-.13,2.13,0,2.86,1.39,2.86,3.49a10.92,10.92,0,0,1-.48,3.14A2.56,2.56,0,0,1,211,104.2a4.15,4.15,0,0,1-2.54-1.22,5.28,5.28,0,0,0,.38-.85,3.75,3.75,0,0,0,2.14,1.06c.8,0,1.27-.5,1.55-1.4a10.56,10.56,0,0,0,.45-2.87c0-1.6-.53-2.55-1.93-2.54a16.15,16.15,0,0,0-1.71.14,26.87,26.87,0,0,1-2.87,7.56l-.92-.45a22.91,22.91,0,0,0,2.79-7c-.71.08-1.74.21-2.49.34l-.08-1,2.77-.32c.21-1,.43-2.28.6-3.52Zm3.25-.43a9.84,9.84,0,0,1,1.88,2l-.55.39a9.34,9.34,0,0,0-1.85-1.95Zm3.14,8.15a8.82,8.82,0,0,0-2.86-4.78l.81-.55a9.28,9.28,0,0,1,3.05,4.94Zm-1-8.7a9.15,9.15,0,0,1,1.89,1.95l-.55.41a9.39,9.39,0,0,0-1.85-2Z"/><path class="cls-4" d="M222.15,93.57c0,.13-.18.21-.38.22a23,23,0,0,0-.27,3.49c0,.52,0,1,.06,1.47.17,2.38,1.13,3.82,2.21,3.81.56,0,1.29-1.43,1.79-3a4.89,4.89,0,0,0,.81.6c-.64,1.89-1.46,3.43-2.62,3.46-1.78,0-3-2.13-3.21-4.82,0-.53-.06-1.12-.06-1.75a33.39,33.39,0,0,1,.21-3.77Zm9.29,6.51a7,7,0,0,0-3.53-5.27l.62-.76a7.69,7.69,0,0,1,4,5.7Z"/><path class="cls-4" d="M238.33,97.83A8.49,8.49,0,0,1,241.8,97c2.23,0,3.63,1.3,3.63,3.36,0,2.54-2.23,3.94-5,3.94-1.82,0-3.07-.73-3.07-2a2.12,2.12,0,0,1,2.3-1.88,3,3,0,0,1,2.86,2.54,2.75,2.75,0,0,0,1.93-2.62c0-1.51-1.12-2.48-2.89-2.48a8,8,0,0,0-5.08,1.83c-.42.39-1,1-1.34,1.41l-.71-.71c1.26-1.32,5.27-5.14,7.17-6.92-.81.11-3.61.22-5.21.28A.46.46,0,0,1,236,94l-.11-1.19c1.89,0,5.5-.15,6.53-.31l.21-.1.74.91a.68.68,0,0,1-.34.13c-1,.81-3.66,3.31-4.75,4.36Zm1.93,5.6a6.13,6.13,0,0,0,1.27-.14,2.16,2.16,0,0,0-2-2c-.73,0-1.37.39-1.37,1C238.17,103.2,239.33,103.43,240.26,103.43Z"/><path class="cls-4" d="M250.4,99.9l1.54-.7a7.47,7.47,0,0,1,.2.83c-1.44.7-3,1.44-4,1.89a.27.27,0,0,1-.15.24l-.46-1.05c.53-.21,1.2-.49,1.95-.81V95.66h-1.71v-.91h1.71V91.7l1.16.08c0,.1-.08.15-.27.18v2.79H252v.91H250.4Zm10.24-1.54h-5.91a9.33,9.33,0,0,1-.64,1.06h5.73l.52.08-.06.28c-.24,3-.46,4.15-.84,4.55s-.69.35-1.42.35l-.8,0a1.93,1.93,0,0,0-.21-.78,12.16,12.16,0,0,0,1.25.06c.21,0,.32,0,.43-.14s.46-1.2.66-3.56h-1.26a10.2,10.2,0,0,1-2.76,4.57,3.12,3.12,0,0,0-.71-.55,8.65,8.65,0,0,0,2.69-4h-1.48a10.85,10.85,0,0,1-3.42,4,3.31,3.31,0,0,0-.64-.6,9.39,9.39,0,0,0,3.21-3.36h-1.51a9.15,9.15,0,0,1-2,1.74,5.89,5.89,0,0,0-.6-.56,8.37,8.37,0,0,0,2.89-3h-2.09v-.83h9Zm-1-6.25v4.57h-6.49V92.12ZM258.73,94v-1.2H254V94Zm0,1.92V94.74H254V96Z"/><path class="cls-4" d="M269.63,91.75a.33.33,0,0,1-.29.21,17.68,17.68,0,0,0,6.14,4.89,3.57,3.57,0,0,0-.62.81,19.47,19.47,0,0,1-6.11-5,18.1,18.1,0,0,1-6,5.13,4.72,4.72,0,0,0-.59-.74,16.34,16.34,0,0,0,6.05-5.36Zm-5.14,13V99h8.63v5.67h-1v-.6h-6.75v.6Zm.71-8.38h7.17v.85H265.2Zm7,3.57h-6.75v3.35h6.75Z"/><path class="cls-4" d="M277.36,100.83a27.67,27.67,0,0,1,3.17,3.1l-.84.77a31.2,31.2,0,0,0-3.07-3.21Z"/><path class="cls-4" d="M291.53,103.31h5.88v.92H284.75v-.92h5.81V99.55h-4.27v-.91h4.27V95.41h-3.43A11,11,0,0,1,285.45,98a5.63,5.63,0,0,0-.78-.57,13.64,13.64,0,0,0,2.72-5.49l1.22.34c0,.1-.14.15-.32.15-.21.69-.45,1.39-.73,2.06h3v-2.8l1.26.07c0,.1-.1.17-.29.2v2.54h5.23v.92h-5.23v3.24h4.71v.91h-4.71Z"/><path class="cls-4" d="M299.75,93.85c.87.06,2,.06,3,.06l1.93,0c0-.67,0-1.46,0-1.95l1.41.07c0,.17-.14.25-.38.29,0,.22,0,1.3,0,1.54a27.48,27.48,0,0,0,4.65-.55l.13.92a28.71,28.71,0,0,1-4.78.53c0,.84,0,1.71.06,2.58a23.55,23.55,0,0,0,4-.55l.11.91a26.75,26.75,0,0,1-4,.49l.11,2.34a15.56,15.56,0,0,1,4.12,2.19l-.62.85a13.65,13.65,0,0,0-3.47-2.06c0,.22,0,.48,0,.66,0,1.33-.81,2.1-2.51,2.1s-3.08-.73-3.08-2,1.53-2.09,3.1-2.09a6.14,6.14,0,0,1,1.47.17c0-.6,0-1.33-.06-2.09l-1.36,0c-2.4,0-3.07-.38-3.07-1.19,0-.53.41-1,1.3-1.54l.67.43c-.63.35-1,.66-1,.94s.66.5,2.44.5h.94l-.08-2.59c-.6,0-1.3,0-1.93,0-.9,0-2.17,0-3,0Zm5.18,7.3a5.89,5.89,0,0,0-1.57-.22c-1.06,0-2.14.43-2.14,1.27s1,1.23,2.2,1.23,1.53-.49,1.53-1.47Z"/><path class="cls-4" d="M313.35,94.89a13.65,13.65,0,0,0,2.63-.21c0-.84,0-1.3.1-2.58l1.44.11c0,.15-.15.25-.39.28-.06.62-.11,1.48-.14,2l.43.17a7.3,7.3,0,0,0-.56,2c1.54-1.44,3.25-2.46,4.41-2.46,1.32,0,2,.92,2,2.55,0,.18,0,.36,0,.55-.1,1.23-.24,3-.24,4.1,0,.84.1,1.29.69,1.29a3.8,3.8,0,0,0,1.86-.94,9.61,9.61,0,0,0,.2,1.06,4.23,4.23,0,0,1-2.2.91c-1.18,0-1.57-.7-1.57-2.16,0-.73.25-4.58.25-4.59,0-1.22-.42-1.77-1.11-1.77-1.05,0-2.82,1.13-4.27,2.68,0,2,0,4.52,0,6.43h-1c0-.81,0-4.8,0-5.7a14.62,14.62,0,0,1-2.55,3.38l-.5-.88a14.21,14.21,0,0,0,3.08-4.23c0-.41,0-.78,0-1.23a14.47,14.47,0,0,1-2.58.24Z"/><path class="cls-4" d="M327.29,93.57c1.05,0,9.68-.66,11.5-.67V94h-.52a4,4,0,0,0-2.4.71c-2.1,1.26-4.13,3.52-4.13,5.32,0,2,1.37,3.12,4.85,3.57l-.46,1c-4-.57-5.46-2.06-5.46-4.55,0-2,1.95-4.37,4.51-6-1.48.1-5.67.42-7.48.59a.42.42,0,0,1-.31.22Z"/><path class="cls-4" d="M348.42,104.58a42.55,42.55,0,0,0-5.49-5.21c-.7-.56-1-1-1-1.46a1.79,1.79,0,0,1,.74-1.27c1.27-1.18,3.67-3.45,5-4.82l1.19.78a.42.42,0,0,1-.31.14l-.17,0c-1.4,1.34-3.59,3.25-4.73,4.33-.34.32-.6.6-.6.83s.25.52.74.88a46.65,46.65,0,0,1,5.53,5.08Z"/><path class="cls-4" d="M355.64,97.83a8.49,8.49,0,0,1,3.47-.81c2.23,0,3.63,1.3,3.63,3.36,0,2.54-2.23,3.94-5,3.94-1.82,0-3.07-.73-3.07-2a2.12,2.12,0,0,1,2.3-1.88,3,3,0,0,1,2.86,2.54,2.75,2.75,0,0,0,1.93-2.62c0-1.51-1.12-2.48-2.89-2.48a8,8,0,0,0-5.08,1.83c-.42.39-1,1-1.34,1.41l-.71-.71c1.26-1.32,5.27-5.14,7.17-6.92-.81.11-3.61.22-5.21.28a.46.46,0,0,1-.29.21l-.11-1.19c1.89,0,5.5-.15,6.53-.31l.21-.1.74.91a.68.68,0,0,1-.34.13c-1,.81-3.66,3.31-4.75,4.36Zm1.93,5.6a6.13,6.13,0,0,0,1.27-.14,2.16,2.16,0,0,0-2-2c-.73,0-1.37.39-1.37,1C355.49,103.2,356.65,103.43,357.57,103.43Z"/><path class="cls-4" d="M377.9,98.06V99H372v4.44c0,.67-.18,1-.69,1.12a12.08,12.08,0,0,1-2.8.17,4.15,4.15,0,0,0-.41-1c.74,0,1.44,0,1.93,0,.88,0,1,0,1-.36V99h-6v-.94h6v-2.3l.55,0a17.92,17.92,0,0,0,3.21-2.17h-8.25v-.92h9.3l.17-.07.84.56c0,.07-.15.1-.24.13A22.29,22.29,0,0,1,372,96.54v1.51Z"/><path class="cls-4" d="M381.48,96.63A16.56,16.56,0,0,1,379.77,99a7,7,0,0,0-.49-.88,18.65,18.65,0,0,0,3.5-6.3l1.12.38c-.06.1-.15.14-.32.13a25.34,25.34,0,0,1-1.29,2.9l.38.1c0,.08-.1.15-.28.17v9.29h-.91Zm5.66,4.94c0,.08-.15.13-.31.11a11.68,11.68,0,0,1-3,3.05,5.32,5.32,0,0,0-.73-.62,9.54,9.54,0,0,0,2.87-3Zm3.21-2h2.33v.91h-9.53v-.91h2.28V95.77h-1.85v-.88h1.85v-3l1.21.07c0,.1-.1.17-.28.2v2.69h3.05v-3l1.2.07c0,.1-.08.17-.27.2v2.69h2.1v.88h-2.1Zm-4-3.77v3.77h3.05V95.77Zm5.25,9a17.75,17.75,0,0,0-2.66-3.17l.81-.43a19.42,19.42,0,0,1,2.72,3.1Z"/><path class="cls-4" d="M394.23,98.36c.59-.56,2-2.09,2.77-2.89,1.08-1.19,1.61-1.46,2.31-1.46s1.44.53,2.69,2a65.15,65.15,0,0,0,5.28,5.59l-.74.87a56,56,0,0,1-5-5.41c-1.19-1.46-1.62-2-2.2-2s-1,.46-1.85,1.43c-.48.55-1.61,1.79-2.21,2.47a.4.4,0,0,1-.15.39Z"/><path class="cls-4" d="M416.18,94.23a.36.36,0,0,1-.35.22c-.5,4.36-2,8.15-4.29,8.15-1.18,0-2.24-1.18-2.24-3.39A6.15,6.15,0,0,1,415.6,93c4,0,5.8,2.56,5.8,5.29,0,3.33-1.93,4.94-5.32,5.73a5.49,5.49,0,0,0-.59-.85c3.22-.62,4.87-2.19,4.87-4.83,0-2.31-1.48-4.41-4.76-4.41l-.42,0ZM414.83,94a5.16,5.16,0,0,0-4.58,5.14c0,1.5.64,2.44,1.32,2.44C413.26,101.63,414.48,97.89,414.83,94Z"/><path class="cls-4" d="M426.12,102.06c0,.08-.13.13-.28.13a7.71,7.71,0,0,1-1.65,2.07,4.46,4.46,0,0,0-.64-.46,6.18,6.18,0,0,0,1.57-2.06Zm5.55-5.15v.77h-8.08v-.77h3.6V96h-2.63V92.21h6.26V96h-2.49c0,.08-.1.15-.27.17v.77Zm-1,4.43h-2.65v2.42c0,.83-.31.94-2.2.94a4.13,4.13,0,0,0-.36-.76c1.7,0,1.7,0,1.7-.18v-2.42h-2.52V98.55h6Zm-5.29-8.49v.94h4.52v-.94Zm0,1.54v1h4.52v-1Zm.1,4.86v1.4h4.31v-1.4Zm5,4.85a12,12,0,0,0-1.5-2l.71-.36a11.69,11.69,0,0,1,1.53,1.92Zm6.29-3.71a.26.26,0,0,1-.27.11,12.85,12.85,0,0,1-4.92,4.2A4.81,4.81,0,0,0,431,104a11.26,11.26,0,0,0,4.78-4Zm-.77-8a.26.26,0,0,1-.28.13,14.27,14.27,0,0,1-3.6,3.14,3.42,3.42,0,0,0-.69-.66,11.77,11.77,0,0,0,3.47-3Zm.39,3.92a.27.27,0,0,1-.27.13,15.92,15.92,0,0,1-4,3.31,3.91,3.91,0,0,0-.69-.67,13.08,13.08,0,0,0,3.85-3.17Z"/><path class="cls-4" d="M29.41,119.87l.55.22a.3.3,0,0,1-.27.11c-.15.2-.38.46-.6.71H33v.69H20.32v-.69h4a4.31,4.31,0,0,0-.64-.88l.46-.17H21.78v-.63a7.36,7.36,0,0,1-1.05.52,2.52,2.52,0,0,0-.45-.59,5.72,5.72,0,0,0,2.49-1.72l-2.09.24a.22.22,0,0,1-.17.18l-.35-.88.92-.07c.27-.28.55-.62.83-1a12.87,12.87,0,0,0-1.65-1.42l.45-.53c.15.1.31.21.48.34a15.19,15.19,0,0,0,1-1.67l.85.38c0,.08-.15.11-.28.1a16.12,16.12,0,0,1-1.13,1.57c.27.22.52.45.71.64.36-.49.71-1,1-1.41l.85.39c0,.08-.14.11-.28.11a26.59,26.59,0,0,1-1.92,2.4l1.25-.1a4.78,4.78,0,0,0,.41-1l1,.21c0,.1-.11.14-.25.14a5.72,5.72,0,0,1-2.52,3.11h4.33v-.85l1.18.07c0,.1-.08.17-.27.2v.59h4.73v.66Zm-7,5.84v-3.49h8.53v3.46H30v-.39H23.28v.42ZM30,122.79H23.28v.69H30Zm-6.77,1.91H30V124H23.28Zm.81-7,.64-.06v-4.51h3.82v3.12H25.5v1.3l2-.21a7.46,7.46,0,0,0-.7-.64l.57-.34A7.31,7.31,0,0,1,29,118.1l-.6.38a4,4,0,0,0-.36-.53c-1.29.18-2.59.34-3.43.43a.23.23,0,0,1-.17.2Zm4.06,3.21a11.48,11.48,0,0,0,.73-1.05H24.47a3,3,0,0,1,.69,1l-.18.07Zm-.36-7.17H25.5v.66h2.28Zm-2.28,1.92h2.28V115H25.5Zm7.12-2.56.52.29a.21.21,0,0,1-.11.11c-.31.55-.71,1.22-1.12,1.85,1.16.91,1.2,1.47,1.2,1.75,0,1.23-1.2,1.23-1.71,1.23h-.52a1.44,1.44,0,0,0-.27-.69l.7,0c.52,0,1,0,1-.64,0-.45-.41-.92-1.29-1.55.35-.59.66-1.12.91-1.61H30.21V119h-.8v-5.83h3.07Z"/><path class="cls-4" d="M39.94,113.35c0,.17-.2.24-.46.25-.15.78-.41,2.14-.57,3,.63-.07,1.2-.13,1.55-.13,2.13,0,2.86,1.39,2.86,3.49a10.92,10.92,0,0,1-.48,3.14,2.56,2.56,0,0,1-2.49,2.11A4.15,4.15,0,0,1,37.81,124a5.28,5.28,0,0,0,.38-.85,3.75,3.75,0,0,0,2.14,1.06c.8,0,1.27-.5,1.55-1.4a10.56,10.56,0,0,0,.45-2.87c0-1.6-.53-2.55-1.93-2.54a16.15,16.15,0,0,0-1.71.14,26.87,26.87,0,0,1-2.87,7.56l-.92-.45a22.91,22.91,0,0,0,2.79-7c-.71.08-1.74.21-2.49.34l-.08-1,2.77-.32c.21-1,.43-2.28.6-3.52Zm3.25-.43a9.84,9.84,0,0,1,1.88,2l-.55.39a9.34,9.34,0,0,0-1.85-1.95Zm3.14,8.15a8.82,8.82,0,0,0-2.86-4.78l.81-.55a9.28,9.28,0,0,1,3.05,4.94Zm-1-8.7a9.15,9.15,0,0,1,1.89,1.95l-.55.41a9.39,9.39,0,0,0-1.85-2Z"/><path class="cls-4" d="M48.62,123a10.86,10.86,0,0,0,1.65-5.2l.91.2a12.31,12.31,0,0,1-1.71,5.52Zm4-6.36,1.23.08c0,.1-.08.17-.27.18v6.93c0,.66.15.78,1,.78h2.76c.87,0,1-.52,1.11-3a3.12,3.12,0,0,0,.9.43c-.14,2.68-.45,3.47-2,3.47H54.48c-1.46,0-1.86-.36-1.86-1.68Zm5-.71a22.31,22.31,0,0,0-4.92-2.45l.59-.73a25.19,25.19,0,0,1,4.92,2.35Zm3.54,7.17a16.07,16.07,0,0,0-2.62-5.34l.84-.41a15.69,15.69,0,0,1,2.72,5.31Z"/><path class="cls-4" d="M63.22,114.15v-.83h6.86v.83H67.8v2.14H69.6v9h-.81v-.69H64.51v.87h-.8V116.3h1.68v-2.14Zm2.28,3h-1v4.44h4.29v-1.81c-.1.42-.28.56-.59.56h-.45c-.52,0-.67-.15-.67-.83v-2.37h-1V118a4.33,4.33,0,0,1-1,3,1.85,1.85,0,0,0-.49-.38A3.64,3.64,0,0,0,65.5,118Zm-1,6.72h4.29v-1.51H64.51Zm2.58-7.55v-2.14h-1v2.14Zm1,3.4c.15,0,.2-.08.21-.9a1.5,1.5,0,0,0,.48.22v-1.9H67.69v2.35c0,.2,0,.22.13.22ZM71.59,124c0,.49.13.59.77.59h2.23c.64,0,.74-.36.81-2.45a2.78,2.78,0,0,0,.85.39c-.11,2.33-.39,2.94-1.61,2.94H72.28c-1.23,0-1.61-.29-1.61-1.48v-5.6h4.17v-4H70.53v-.88h5.24v6.44h-.92v-.66H71.59Z"/><path class="cls-4" d="M83,113.09a.46.46,0,0,1-.43.24c-.1.62-.22,1.34-.35,1.89a19.29,19.29,0,0,0,4.12-.69l.15,1a28.17,28.17,0,0,1-4.45.67,20.79,20.79,0,0,1-3,6.89l-.94-.38A18.66,18.66,0,0,0,81,116.18H78.17v-.91h3a23.08,23.08,0,0,0,.39-2.37Zm3.73,6c0,1.13.1,1.9.18,2.87a14.29,14.29,0,0,1,3,1.62l-.5.9A13.23,13.23,0,0,0,86.9,123c0,1.4-.56,2.49-2.62,2.49-1.55,0-2.75-.7-2.73-2s1.47-2.07,2.76-2.07a6,6,0,0,1,1.58.25c-.06-.9-.13-1.81-.13-2.47Zm-.77,3.5a4.67,4.67,0,0,0-1.67-.32c-.84,0-1.83.34-1.85,1.2s.78,1.18,1.88,1.18S86,124.13,86,123.2C86,123,86,122.77,85.94,122.56Zm3.84-4.94a20,20,0,0,0-5,.69l-.15-.88a19.58,19.58,0,0,1,5.06-.76Z"/><path class="cls-4" d="M104.76,116.07H97.55c-.06.78-.13,1.61-.24,2.44h5l.21,0,.56.1a1.86,1.86,0,0,1-.06.29c-.29,4.22-.57,5.79-1.13,6.35-.38.41-.76.48-1.64.48-.5,0-1.2,0-1.91-.07a2.25,2.25,0,0,0-.34-.92c1,.1,2,.1,2.4.1s.52,0,.67-.15c.43-.39.71-1.81,1-5.24H97.16a8.12,8.12,0,0,1-4.52,6.33A2.85,2.85,0,0,0,92,125c4-1.79,4.4-5.57,4.57-8.91H92.09v-.91h5.8v-2.52l1.25.08c0,.1-.1.17-.28.2v2.24h5.91Z"/><path class="cls-4" d="M113.58,115.23a.36.36,0,0,1-.35.22c-.5,4.36-2,8.15-4.29,8.15-1.18,0-2.24-1.18-2.24-3.39A6.15,6.15,0,0,1,113,114c4,0,5.8,2.56,5.8,5.29,0,3.33-1.93,4.94-5.32,5.73a5.49,5.49,0,0,0-.59-.85c3.22-.62,4.87-2.19,4.87-4.83,0-2.31-1.48-4.41-4.76-4.41l-.42,0Zm-1.34-.18a5.16,5.16,0,0,0-4.58,5.14c0,1.5.64,2.44,1.32,2.44C110.67,122.63,111.88,118.89,112.24,115Z"/><path class="cls-4" d="M130.86,119.29l.7.41a.3.3,0,0,1-.2.14,9.16,9.16,0,0,1-3.25,3.53,18.24,18.24,0,0,0,5.36,1.46,4.48,4.48,0,0,0-.6.91,17.33,17.33,0,0,1-5.71-1.81,19.58,19.58,0,0,1-5.58,1.81,3.93,3.93,0,0,0-.56-.88,18.92,18.92,0,0,0,5.21-1.48,9.57,9.57,0,0,1-2.83-2.89l.74-.31h-1.43v-.84h8ZM122,117.63v2.12h-.9v-3h2.28a9.49,9.49,0,0,0-1-1.86l.84-.25a8.82,8.82,0,0,1,1,1.93l-.53.18h5.94a19.42,19.42,0,0,0,1.41-2.49l1.12.42c0,.08-.15.11-.29.11a20.4,20.4,0,0,1-1.25,2h2.54v3h-.92v-2.12Zm10.41-4.12a.25.25,0,0,1-.15,0l-.14,0a80.43,80.43,0,0,1-10.65,1.05,3.34,3.34,0,0,0-.22-.81,74.77,74.77,0,0,0,10.45-1.06Zm-8.1,6.67a8.5,8.5,0,0,0,2.91,2.7,8,8,0,0,0,2.86-2.7Zm2.66-5.73a9.3,9.3,0,0,1,.78,2.09l-.91.24a9.26,9.26,0,0,0-.73-2.14Z"/><path class="cls-4" d="M140.16,115v.78h-5.23V115Zm-.42,5.71v4.12h-3.33v.66h-.83v-4.78Zm0-3.6a11,11,0,0,0,3.67-4.47l1.22.07a.27.27,0,0,1-.21.17,11.91,11.91,0,0,0,3.8,4.1,4.83,4.83,0,0,0-.53.85,13.28,13.28,0,0,1-3.8-4.24,12.1,12.1,0,0,1-3.73,4.34,4.43,4.43,0,0,0-.42-.67v.41H135.6V117h4.12Zm0,1.69v.77H135.6v-.77Zm0-5.67V114h-4v-.77Zm-.77,8.38h-2.49v2.52h2.49Zm8.91-.63a.31.31,0,0,1-.29.13,12,12,0,0,1-6.68,4.71,3.9,3.9,0,0,0-.59-.8,11,11,0,0,0,6.5-4.44Zm-2.73-4.12c0,.07-.11.11-.25.11a11.61,11.61,0,0,1-3.42,2.83,4.31,4.31,0,0,0-.63-.59,9.78,9.78,0,0,0,3.28-2.73Zm1.4,2a.3.3,0,0,1-.27.11,12.62,12.62,0,0,1-4.61,3.45,3.45,3.45,0,0,0-.62-.67,10.83,10.83,0,0,0,4.45-3.28Z"/><path class="cls-4" d="M161.38,118.68l-.08,0a.35.35,0,0,1-.21-.08c-1.06.35-2.62.92-3.78,1.43q0,.48,0,1.09c0,.45,0,1,0,1.5l-1,.06c0-.5.07-1.15.07-1.69,0-.21,0-.41,0-.56-1.58.77-2.87,1.71-2.87,2.55s1,1.2,2.9,1.2a31.32,31.32,0,0,0,3.52-.14V125c-.83.08-2.09.11-3.53.11-2.69,0-3.88-.64-3.88-2.07,0-1.23,1.63-2.42,3.73-3.47-.08-.88-.48-1.32-1-1.32-1,0-2.09.57-3.35,2-.39.43-.94,1-1.54,1.53l-.69-.69a9.83,9.83,0,0,0,3.53-5.17H150V115h3.38a18.21,18.21,0,0,0,.38-2l1.37.17c0,.14-.14.22-.35.25-.1.56-.22,1.05-.35,1.55a19.18,19.18,0,0,0,4.82-.81l.17.94a21.13,21.13,0,0,1-5.25.78,10.18,10.18,0,0,1-1,2.37h0a3.73,3.73,0,0,1,2.25-.91c1,0,1.56.69,1.74,1.82,1.18-.53,2.66-1.11,3.78-1.54Z"/><path class="cls-4" d="M171,115.92a13.78,13.78,0,0,1-2.72.56c0,.88,0,1.86,0,2.68a10.53,10.53,0,0,1,3.17-.64c2.38,0,3.87,1.29,3.87,3.26a3.08,3.08,0,0,1-3.29,3.29,3.26,3.26,0,0,1-2.73-1.34,6.81,6.81,0,0,0,.5-.73,2.69,2.69,0,0,0,2.24,1.15,2.19,2.19,0,0,0,2.27-2.37c0-1.36-1-2.42-2.87-2.41a10.12,10.12,0,0,0-3.15.67c0,1,0,2.7,0,3.1a2.1,2.1,0,0,1-2.2,2.23,2.18,2.18,0,0,1-2.37-2.16,3.61,3.61,0,0,1,1.75-2.69,10,10,0,0,1,1.86-1v-3c-1.12.1-2.24.11-3.36.1v-1c1.23,0,2.35,0,3.38-.08V113l1.41.08c0,.17-.15.27-.39.29,0,.55,0,1.37-.06,2.16a10.56,10.56,0,0,0,2.52-.59Zm-3.64,7.16c0-.36,0-1.51,0-2.66a9.3,9.3,0,0,0-1.43.83,2.77,2.77,0,0,0-1.27,1.92,1.29,1.29,0,0,0,1.43,1.33,1.27,1.27,0,0,0,1.29-1.4Zm7.91-5.49a11.54,11.54,0,0,0-3.19-2l.49-.83a13.2,13.2,0,0,1,3.32,2Z"/><path class="cls-4" d="M184.38,115c0-.31-.06-1.83-.08-2.19l1.44.06c0,.11-.11.25-.36.29,0,.17,0,.34,0,1.81,1.72-.06,3.53-.1,4.58-.11v1c-1.19,0-2.89,0-4.55.06,0,1.09.06,2.1.1,2.87a4.78,4.78,0,0,1,.17,1.47,6,6,0,0,1-.14,1.36c-.36,1.64-1.57,3.08-4,4.06a7.69,7.69,0,0,0-.71-.8c2.14-.77,3.29-1.93,3.64-3.26h0a1.76,1.76,0,0,1-1.44.74,2.39,2.39,0,0,1-2.35-2.45,2.58,2.58,0,0,1,2.52-2.62,2.07,2.07,0,0,1,1.3.43c0-.24,0-1.18-.06-1.78-1.46,0-5.88.18-6.46.21l0-.92,3.19-.08Zm.27,4.92c0-.55,0-1.82-1.43-1.82a1.69,1.69,0,0,0-1.67,1.78,1.57,1.57,0,0,0,1.55,1.63A1.51,1.51,0,0,0,184.64,119.91Z"/><path class="cls-4" d="M198.59,115c0-.31-.06-1.83-.08-2.19l1.44.06c0,.11-.11.25-.36.29,0,.17,0,.34,0,1.81,1.72-.06,3.53-.1,4.58-.11v1c-1.19,0-2.89,0-4.55.06,0,1.09.06,2.1.1,2.87a4.78,4.78,0,0,1,.17,1.47,6,6,0,0,1-.14,1.36c-.36,1.64-1.57,3.08-4,4.06a7.69,7.69,0,0,0-.71-.8c2.14-.77,3.29-1.93,3.64-3.26h0a1.76,1.76,0,0,1-1.44.74,2.39,2.39,0,0,1-2.35-2.45,2.58,2.58,0,0,1,2.52-2.62,2.07,2.07,0,0,1,1.3.43c0-.24,0-1.18-.06-1.78-1.46,0-5.88.18-6.46.21l0-.92,3.19-.08Zm.27,4.92c0-.55,0-1.82-1.43-1.82a1.69,1.69,0,0,0-1.67,1.78,1.57,1.57,0,0,0,1.55,1.63A1.51,1.51,0,0,0,198.85,119.91Z"/><path class="cls-4" d="M215.6,113.3c0,.13-.18.18-.36.21a26.43,26.43,0,0,1-.57,2.72,4.36,4.36,0,0,1,3.81,4.4c0,2.49-1.89,4.09-5.44,4.59-.14-.29-.29-.6-.45-.85,3.1-.41,4.86-1.67,4.86-3.71a3.49,3.49,0,0,0-3.07-3.5,14.14,14.14,0,0,1-2.54,5,5,5,0,0,0,.64.69l-.71.69a7.25,7.25,0,0,1-.6-.69,4.2,4.2,0,0,1-2.84,1.3c-1.23,0-2-1.05-2-2.58a5.09,5.09,0,0,1,2.47-4.3c-.27-1.06-.49-2.23-.69-3.49l1.34,0a.35.35,0,0,1-.29.31c.14,1,.29,1.91.49,2.77a8,8,0,0,1,3.66-.77h.34a28.07,28.07,0,0,0,.56-3.07Zm-5,8.78a14.8,14.8,0,0,1-1.57-3.88,4,4,0,0,0-1.81,3.28c0,1,.38,1.71,1.13,1.71A3.34,3.34,0,0,0,210.64,122.08Zm.63-.77A12.29,12.29,0,0,0,213.4,117h-.49a6.43,6.43,0,0,0-3,.76A13.43,13.43,0,0,0,211.27,121.31Z"/><path class="cls-4" d="M223.41,113.28c0,.17-.15.27-.43.31-.11,1.63-.25,5.34-.25,7.41s1,3.1,2.8,3.1a6.82,6.82,0,0,0,5-2.66,5.6,5.6,0,0,0,.63.83,7.6,7.6,0,0,1-5.69,2.84c-2.55,0-3.85-1.47-3.85-4.12,0-1.76.13-6.11.22-7.83Z"/><path class="cls-4" d="M233,114.85c.87.06,2,.06,3,.06l1.93,0c0-.67,0-1.46,0-1.95l1.41.07c0,.17-.14.25-.38.29,0,.22,0,1.3,0,1.54a27.48,27.48,0,0,0,4.65-.55l.13.92a28.71,28.71,0,0,1-4.78.53c0,.84,0,1.71.06,2.58a23.55,23.55,0,0,0,4-.55l.11.91a26.75,26.75,0,0,1-4,.49l.11,2.34a15.56,15.56,0,0,1,4.12,2.19l-.62.85a13.65,13.65,0,0,0-3.47-2.06c0,.22,0,.48,0,.66,0,1.33-.81,2.1-2.51,2.1s-3.08-.73-3.08-2,1.53-2.09,3.1-2.09a6.14,6.14,0,0,1,1.47.17c0-.6,0-1.33-.06-2.09l-1.36,0c-2.4,0-3.07-.38-3.07-1.19,0-.53.41-1,1.3-1.54l.67.43c-.63.35-1,.66-1,.94s.66.5,2.44.5h.94l-.08-2.59c-.6,0-1.3,0-1.93,0-.9,0-2.17,0-3,0Zm5.18,7.3a5.89,5.89,0,0,0-1.57-.22c-1.06,0-2.14.43-2.14,1.27s1,1.23,2.2,1.23,1.53-.49,1.53-1.47Z"/><path class="cls-4" d="M252.63,115c0-.31-.06-1.83-.08-2.19l1.44.06c0,.11-.11.25-.36.29,0,.17,0,.34,0,1.81,1.72-.06,3.53-.1,4.58-.11v1c-1.19,0-2.89,0-4.55.06,0,1.09.06,2.1.1,2.87a4.78,4.78,0,0,1,.17,1.47,6,6,0,0,1-.14,1.36c-.36,1.64-1.57,3.08-4,4.06a7.69,7.69,0,0,0-.71-.8c2.14-.77,3.29-1.93,3.64-3.26h0a1.76,1.76,0,0,1-1.44.74,2.39,2.39,0,0,1-2.35-2.45,2.58,2.58,0,0,1,2.52-2.62,2.08,2.08,0,0,1,1.3.43c0-.24,0-1.18-.06-1.78-1.46,0-5.88.18-6.46.21l0-.92,3.19-.08Zm.27,4.92c0-.55,0-1.82-1.43-1.82a1.69,1.69,0,0,0-1.67,1.78,1.57,1.57,0,0,0,1.56,1.63A1.51,1.51,0,0,0,252.89,119.91Z"/><path class="cls-4" d="M262.43,123.73a2,2,0,1,1-2-2A2,2,0,0,1,262.43,123.73Zm-.5,0a1.45,1.45,0,1,0-1.46,1.44A1.45,1.45,0,0,0,261.92,123.73Z"/></g></g></svg>